<svg xmlns="http://www.w3.org/2000/svg" xmlns:xlink="http://www.w3.org/1999/xlink" contentStyleType="text/css" height="1163px" preserveAspectRatio="none" style="width:979px;height:1163px;background:#FFFFFF;" version="1.1" viewBox="0 0 979 1163" width="979px" zoomAndPan="magnify"><title>C4 Class Diagram: Externe services die niet beschikbaar zijn</title><defs/><g><text fill="#000000" font-family="sans-serif" font-size="14" font-weight="bold" lengthAdjust="spacing" textLength="404.626" x="280.187" y="25.1074">C4 Class Diagram: Externe services die niet beschikbaar zijn</text><!--cluster controller--><g id="cluster_controller"><path d="M365.5,45.6348 L431.0654,45.6348 A3.75,3.75 0 0 1 433.5654,48.1348 L440.5654,70.2559 L944.5,70.2559 A2.5,2.5 0 0 1 947,72.7559 L947,163.1348 A2.5,2.5 0 0 1 944.5,165.6348 L365.5,165.6348 A2.5,2.5 0 0 1 363,163.1348 L363,48.1348 A2.5,2.5 0 0 1 365.5,45.6348 " fill="none" style="stroke:#000000;stroke-width:1.5;"/><line style="stroke:#000000;stroke-width:1.5;" x1="363" x2="440.5654" y1="70.2559" y2="70.2559"/><text fill="#000000" font-family="sans-serif" font-size="14" font-weight="bold" lengthAdjust="spacing" textLength="64.5654" x="367" y="62.7422">controller</text></g><!--cluster service--><g id="cluster_service"><path d="M340.5,189.6348 L389.7686,189.6348 A3.75,3.75 0 0 1 392.2686,192.1348 L399.2686,214.2559 L969.5,214.2559 A2.5,2.5 0 0 1 972,216.7559 L972,434.1348 A2.5,2.5 0 0 1 969.5,436.6348 L340.5,436.6348 A2.5,2.5 0 0 1 338,434.1348 L338,192.1348 A2.5,2.5 0 0 1 340.5,189.6348 " fill="none" style="stroke:#000000;stroke-width:1.5;"/><line style="stroke:#000000;stroke-width:1.5;" x1="338" x2="399.2686" y1="214.2559" y2="214.2559"/><text fill="#000000" font-family="sans-serif" font-size="14" font-weight="bold" lengthAdjust="spacing" textLength="48.2686" x="342" y="206.7422">service</text></g><!--cluster api--><g id="cluster_api"><path d="M8.5,460.6348 L29.7275,460.6348 A3.75,3.75 0 0 1 32.2275,463.1348 L39.2275,485.2559 L872.5,485.2559 A2.5,2.5 0 0 1 875,487.7559 L875,828.1348 A2.5,2.5 0 0 1 872.5,830.6348 L8.5,830.6348 A2.5,2.5 0 0 1 6,828.1348 L6,463.1348 A2.5,2.5 0 0 1 8.5,460.6348 " fill="none" style="stroke:#000000;stroke-width:1.5;"/><line style="stroke:#000000;stroke-width:1.5;" x1="6" x2="39.2275" y1="485.2559" y2="485.2559"/><text fill="#000000" font-family="sans-serif" font-size="14" font-weight="bold" lengthAdjust="spacing" textLength="20.2275" x="10" y="477.7422">api</text></g><!--cluster repository--><g id="cluster_repository"><path d="M429.5,854.6348 L498.9619,854.6348 A3.75,3.75 0 0 1 501.4619,857.1348 L508.4619,879.2559 L880.5,879.2559 A2.5,2.5 0 0 1 883,881.7559 L883,1154.1348 A2.5,2.5 0 0 1 880.5,1156.6348 L429.5,1156.6348 A2.5,2.5 0 0 1 427,1154.1348 L427,857.1348 A2.5,2.5 0 0 1 429.5,854.6348 " fill="none" style="stroke:#000000;stroke-width:1.5;"/><line style="stroke:#000000;stroke-width:1.5;" x1="427" x2="508.4619" y1="879.2559" y2="879.2559"/><text fill="#000000" font-family="sans-serif" font-size="14" font-weight="bold" lengthAdjust="spacing" textLength="68.4619" x="431" y="871.7422">repository</text></g><!--class FlightsController--><g id="elem_FlightsController"><rect codeLine="9" fill="#F1F1F1" height="66.6211" id="FlightsController" rx="2.5" ry="2.5" style="stroke:#181818;stroke-width:0.5;" width="551.2666" x="379.5" y="82.6348"/><ellipse cx="599.9214" cy="98.6348" fill="#ADD1B2" rx="11" ry="11" style="stroke:#181818;stroke-width:1.0;"/><path d="M602.687,94.5098 Q602.8433,94.291 603.0308,94.1816 Q603.2183,94.0723 603.437,94.0723 Q603.812,94.0723 604.0464,94.3379 Q604.2808,94.5879 604.2808,95.1973 L604.2808,96.6504 Q604.2808,97.2598 604.0464,97.5254 Q603.812,97.791 603.437,97.791 Q603.0933,97.791 602.8901,97.5879 Q602.687,97.4004 602.5776,96.8848 Q602.5308,96.5254 602.3433,96.3379 Q602.0151,95.9629 601.4058,95.7441 Q600.7964,95.5254 600.1714,95.5254 Q599.4058,95.5254 598.7651,95.8535 Q598.1401,96.1816 597.6401,96.9316 Q597.1558,97.6816 597.1558,98.7129 L597.1558,99.8066 Q597.1558,101.041 598.0464,101.8691 Q598.937,102.6816 600.5308,102.6816 Q601.4683,102.6816 602.1245,102.4316 Q602.5151,102.2754 602.937,101.8379 Q603.2026,101.5723 603.3433,101.4941 Q603.4995,101.416 603.7026,101.416 Q604.0308,101.416 604.2808,101.6816 Q604.5464,101.9316 604.5464,102.2754 Q604.5464,102.6191 604.2026,103.0254 Q603.7026,103.6035 602.9058,103.9316 Q601.8276,104.3848 600.5308,104.3848 Q599.0151,104.3848 597.812,103.7598 Q596.8276,103.2598 596.1401,102.1973 Q595.4526,101.1191 595.4526,99.8379 L595.4526,98.6816 Q595.4526,97.3535 596.062,96.2129 Q596.687,95.0566 597.7808,94.4473 Q598.8745,93.8223 600.1089,93.8223 Q600.8433,93.8223 601.4839,93.9941 Q602.1401,94.1504 602.687,94.5098 Z " fill="#000000"/><text fill="#000000" font-family="sans-serif" font-size="14" lengthAdjust="spacing" textLength="101.9238" x="620.4214" y="104.4316">FlightsController</text><line style="stroke:#181818;stroke-width:0.5;" x1="380.5" x2="929.7666" y1="114.6348" y2="114.6348"/><line style="stroke:#181818;stroke-width:0.5;" x1="380.5" x2="929.7666" y1="122.6348" y2="122.6348"/><text fill="#000000" font-family="sans-serif" font-size="14" lengthAdjust="spacing" textLength="539.2666" x="385.5" y="141.7422">getFlightPrice(origin: String, destination: String, departureDate: Date, returnDate: Date)</text></g><!--class FlightsService--><g id="elem_FlightsService"><rect codeLine="15" fill="#F1F1F1" height="66.6211" id="FlightsService" rx="2.5" ry="2.5" style="stroke:#181818;stroke-width:0.5;" width="601.0869" x="354.5" y="226.6348"/><ellipse cx="606.835" cy="242.6348" fill="#B4A7E5" rx="11" ry="11" style="stroke:#181818;stroke-width:1.0;"/><path d="M607.7881,239.2754 L607.7881,245.9316 L609.5068,245.9316 Q610.1162,245.9316 610.3818,246.166 Q610.6475,246.4004 610.6475,246.791 Q610.6475,247.166 610.3818,247.4004 Q610.1162,247.6348 609.5068,247.6348 L604.3662,247.6348 Q603.7568,247.6348 603.4912,247.4004 Q603.2256,247.166 603.2256,246.7754 Q603.2256,246.4004 603.4912,246.166 Q603.7568,245.9316 604.3662,245.9316 L606.085,245.9316 L606.085,239.2754 L604.3662,239.2754 Q603.7568,239.2754 603.4912,239.041 Q603.2256,238.8066 603.2256,238.416 Q603.2256,238.041 603.4912,237.8066 Q603.7568,237.5723 604.3662,237.5723 L609.5068,237.5723 Q610.1162,237.5723 610.3818,237.8066 Q610.6475,238.041 610.6475,238.416 Q610.6475,238.8066 610.3818,239.041 Q610.1162,239.2754 609.5068,239.2754 L607.7881,239.2754 Z " fill="#000000"/><text fill="#000000" font-family="sans-serif" font-size="14" font-style="italic" lengthAdjust="spacing" textLength="87.917" x="627.335" y="248.4316">FlightsService</text><line style="stroke:#181818;stroke-width:0.5;" x1="355.5" x2="954.5869" y1="258.6348" y2="258.6348"/><line style="stroke:#181818;stroke-width:0.5;" x1="355.5" x2="954.5869" y1="266.6348" y2="266.6348"/><text fill="#000000" font-family="sans-serif" font-size="14" lengthAdjust="spacing" textLength="589.0869" x="360.5" y="285.7422">getFlightPrice(origin: String, destination: String, departureDate: Date, returnDate: Date): double</text></g><!--class FlightsServiceImpl--><g id="elem_FlightsServiceImpl"><rect codeLine="19" fill="#F1F1F1" height="66.6211" id="FlightsServiceImpl" rx="2.5" ry="2.5" style="stroke:#181818;stroke-width:0.5;" width="601.0869" x="354.5" y="353.6348"/><ellipse cx="593.6108" cy="369.6348" fill="#ADD1B2" rx="11" ry="11" style="stroke:#181818;stroke-width:1.0;"/><path d="M596.3765,365.5098 Q596.5327,365.291 596.7202,365.1816 Q596.9077,365.0723 597.1265,365.0723 Q597.5015,365.0723 597.7358,365.3379 Q597.9702,365.5879 597.9702,366.1973 L597.9702,367.6504 Q597.9702,368.2598 597.7358,368.5254 Q597.5015,368.791 597.1265,368.791 Q596.7827,368.791 596.5796,368.5879 Q596.3765,368.4004 596.2671,367.8848 Q596.2202,367.5254 596.0327,367.3379 Q595.7046,366.9629 595.0952,366.7441 Q594.4858,366.5254 593.8608,366.5254 Q593.0952,366.5254 592.4546,366.8535 Q591.8296,367.1816 591.3296,367.9316 Q590.8452,368.6816 590.8452,369.7129 L590.8452,370.8066 Q590.8452,372.041 591.7358,372.8691 Q592.6265,373.6816 594.2202,373.6816 Q595.1577,373.6816 595.814,373.4316 Q596.2046,373.2754 596.6265,372.8379 Q596.8921,372.5723 597.0327,372.4941 Q597.189,372.416 597.3921,372.416 Q597.7202,372.416 597.9702,372.6816 Q598.2358,372.9316 598.2358,373.2754 Q598.2358,373.6191 597.8921,374.0254 Q597.3921,374.6035 596.5952,374.9316 Q595.5171,375.3848 594.2202,375.3848 Q592.7046,375.3848 591.5015,374.7598 Q590.5171,374.2598 589.8296,373.1973 Q589.1421,372.1191 589.1421,370.8379 L589.1421,369.6816 Q589.1421,368.3535 589.7515,367.2129 Q590.3765,366.0566 591.4702,365.4473 Q592.564,364.8223 593.7983,364.8223 Q594.5327,364.8223 595.1733,364.9941 Q595.8296,365.1504 596.3765,365.5098 Z " fill="#000000"/><text fill="#000000" font-family="sans-serif" font-size="14" lengthAdjust="spacing" textLength="114.3652" x="614.1108" y="375.4316">FlightsServiceImpl</text><line style="stroke:#181818;stroke-width:0.5;" x1="355.5" x2="954.5869" y1="385.6348" y2="385.6348"/><line style="stroke:#181818;stroke-width:0.5;" x1="355.5" x2="954.5869" y1="393.6348" y2="393.6348"/><text fill="#000000" font-family="sans-serif" font-size="14" lengthAdjust="spacing" textLength="589.0869" x="360.5" y="412.7422">getFlightPrice(origin: String, destination: String, departureDate: Date, returnDate: Date): double</text></g><!--class ExternalAPIHandler--><g id="elem_ExternalAPIHandler"><rect codeLine="25" fill="#F1F1F1" height="66.6211" id="ExternalAPIHandler" rx="2.5" ry="2.5" style="stroke:#181818;stroke-width:0.5;" width="298.4121" x="506" y="522.1348"/><ellipse cx="589.4805" cy="538.1348" fill="#B4A7E5" rx="11" ry="11" style="stroke:#181818;stroke-width:1.0;"/><path d="M590.4336,534.7754 L590.4336,541.4316 L592.1523,541.4316 Q592.7617,541.4316 593.0273,541.666 Q593.293,541.9004 593.293,542.291 Q593.293,542.666 593.0273,542.9004 Q592.7617,543.1348 592.1523,543.1348 L587.0117,543.1348 Q586.4023,543.1348 586.1367,542.9004 Q585.8711,542.666 585.8711,542.2754 Q585.8711,541.9004 586.1367,541.666 Q586.4023,541.4316 587.0117,541.4316 L588.7305,541.4316 L588.7305,534.7754 L587.0117,534.7754 Q586.4023,534.7754 586.1367,534.541 Q585.8711,534.3066 585.8711,533.916 Q585.8711,533.541 586.1367,533.3066 Q586.4023,533.0723 587.0117,533.0723 L592.1523,533.0723 Q592.7617,533.0723 593.0273,533.3066 Q593.293,533.541 593.293,533.916 Q593.293,534.3066 593.0273,534.541 Q592.7617,534.7754 592.1523,534.7754 L590.4336,534.7754 Z " fill="#000000"/><text fill="#000000" font-family="sans-serif" font-size="14" font-style="italic" lengthAdjust="spacing" textLength="122.9512" x="609.9805" y="543.9316">ExternalAPIHandler</text><line style="stroke:#181818;stroke-width:0.5;" x1="507" x2="803.4121" y1="554.1348" y2="554.1348"/><line style="stroke:#181818;stroke-width:0.5;" x1="507" x2="803.4121" y1="562.1348" y2="562.1348"/><text fill="#000000" font-family="sans-serif" font-size="14" lengthAdjust="spacing" textLength="286.4121" x="512" y="581.2422">call(endpoint: Endpoint): Optional&lt;Response&gt;</text></g><!--class ExternalAPIHandlerImpl--><g id="elem_ExternalAPIHandlerImpl"><rect codeLine="29" fill="#F1F1F1" height="141.1055" id="ExternalAPIHandlerImpl" rx="2.5" ry="2.5" style="stroke:#181818;stroke-width:0.5;" width="408.1631" x="451" y="673.6348"/><ellipse cx="576.1318" cy="689.6348" fill="#ADD1B2" rx="11" ry="11" style="stroke:#181818;stroke-width:1.0;"/><path d="M578.8975,685.5098 Q579.0537,685.291 579.2412,685.1816 Q579.4287,685.0723 579.6475,685.0723 Q580.0225,685.0723 580.2568,685.3379 Q580.4912,685.5879 580.4912,686.1973 L580.4912,687.6504 Q580.4912,688.2598 580.2568,688.5254 Q580.0225,688.791 579.6475,688.791 Q579.3037,688.791 579.1006,688.5879 Q578.8975,688.4004 578.7881,687.8848 Q578.7412,687.5254 578.5537,687.3379 Q578.2256,686.9629 577.6162,686.7441 Q577.0068,686.5254 576.3818,686.5254 Q575.6162,686.5254 574.9756,686.8535 Q574.3506,687.1816 573.8506,687.9316 Q573.3662,688.6816 573.3662,689.7129 L573.3662,690.8066 Q573.3662,692.041 574.2568,692.8691 Q575.1475,693.6816 576.7412,693.6816 Q577.6787,693.6816 578.335,693.4316 Q578.7256,693.2754 579.1475,692.8379 Q579.4131,692.5723 579.5537,692.4941 Q579.71,692.416 579.9131,692.416 Q580.2412,692.416 580.4912,692.6816 Q580.7568,692.9316 580.7568,693.2754 Q580.7568,693.6191 580.4131,694.0254 Q579.9131,694.6035 579.1162,694.9316 Q578.0381,695.3848 576.7412,695.3848 Q575.2256,695.3848 574.0225,694.7598 Q573.0381,694.2598 572.3506,693.1973 Q571.6631,692.1191 571.6631,690.8379 L571.6631,689.6816 Q571.6631,688.3535 572.2725,687.2129 Q572.8975,686.0566 573.9912,685.4473 Q575.085,684.8223 576.3193,684.8223 Q577.0537,684.8223 577.6943,684.9941 Q578.3506,685.1504 578.8975,685.5098 Z " fill="#000000"/><text fill="#000000" font-family="sans-serif" font-size="14" lengthAdjust="spacing" textLength="149.3994" x="596.6318" y="695.4316">ExternalAPIHandlerImpl</text><line style="stroke:#181818;stroke-width:0.5;" x1="452" x2="858.1631" y1="705.6348" y2="705.6348"/><text fill="#000000" font-family="sans-serif" font-size="14" lengthAdjust="spacing" textLength="121.3652" x="457" y="724.7422">MAX_RETRIES: int</text><text fill="#000000" font-family="sans-serif" font-size="14" lengthAdjust="spacing" textLength="161.8408" x="457" y="743.3633">RETRY_DELAY: Duration</text><line style="stroke:#181818;stroke-width:0.5;" x1="452" x2="858.1631" y1="750.877" y2="750.877"/><text fill="#000000" font-family="sans-serif" font-size="14" lengthAdjust="spacing" textLength="286.4121" x="457" y="769.9844">call(endpoint: Endpoint): Optional&lt;Response&gt;</text><text fill="#000000" font-family="sans-serif" font-size="14" lengthAdjust="spacing" textLength="396.1631" x="457" y="788.6055">getCachedResponse(endpoint: Endpoint): Optional&lt;Response&gt;</text><text fill="#000000" font-family="sans-serif" font-size="14" lengthAdjust="spacing" textLength="396.1426" x="457" y="807.2266">cacheResponse(endpoint: Endpoint, response: Response): void</text></g><!--class Endpoint--><g id="elem_Endpoint"><rect codeLine="37" fill="#F1F1F1" height="116.4453" id="Endpoint" rx="2.5" ry="2.5" style="stroke:#181818;stroke-width:0.5;" width="260.2266" x="200" y="497.6348"/><ellipse cx="298.229" cy="519.9258" fill="#ADD1B2" rx="11" ry="11" style="stroke:#181818;stroke-width:1.0;"/><path d="M300.9946,515.8008 Q301.1509,515.582 301.3384,515.4727 Q301.5259,515.3633 301.7446,515.3633 Q302.1196,515.3633 302.354,515.6289 Q302.5884,515.8789 302.5884,516.4883 L302.5884,517.9414 Q302.5884,518.5508 302.354,518.8164 Q302.1196,519.082 301.7446,519.082 Q301.4009,519.082 301.1978,518.8789 Q300.9946,518.6914 300.8853,518.1758 Q300.8384,517.8164 300.6509,517.6289 Q300.3228,517.2539 299.7134,517.0352 Q299.104,516.8164 298.479,516.8164 Q297.7134,516.8164 297.0728,517.1445 Q296.4478,517.4727 295.9478,518.2227 Q295.4634,518.9727 295.4634,520.0039 L295.4634,521.0977 Q295.4634,522.332 296.354,523.1602 Q297.2446,523.9727 298.8384,523.9727 Q299.7759,523.9727 300.4321,523.7227 Q300.8228,523.5664 301.2446,523.1289 Q301.5103,522.8633 301.6509,522.7852 Q301.8071,522.707 302.0103,522.707 Q302.3384,522.707 302.5884,522.9727 Q302.854,523.2227 302.854,523.5664 Q302.854,523.9102 302.5103,524.3164 Q302.0103,524.8945 301.2134,525.2227 Q300.1353,525.6758 298.8384,525.6758 Q297.3228,525.6758 296.1196,525.0508 Q295.1353,524.5508 294.4478,523.4883 Q293.7603,522.4102 293.7603,521.1289 L293.7603,519.9727 Q293.7603,518.6445 294.3696,517.5039 Q294.9946,516.3477 296.0884,515.7383 Q297.1821,515.1133 298.4165,515.1133 Q299.1509,515.1133 299.7915,515.2852 Q300.4478,515.4414 300.9946,515.8008 Z " fill="#000000"/><text fill="#000000" font-family="sans-serif" font-size="12" font-style="italic" lengthAdjust="spacing" textLength="47.3613" x="322.6826" y="515.584">&#171;record&#187;</text><text fill="#000000" font-family="sans-serif" font-size="14" lengthAdjust="spacing" textLength="55.2686" x="318.729" y="533.7031">Endpoint</text><line style="stroke:#181818;stroke-width:0.5;" x1="201" x2="459.2266" y1="542.2168" y2="542.2168"/><text fill="#000000" font-family="sans-serif" font-size="14" lengthAdjust="spacing" textLength="59.9102" x="206" y="561.3242">url: String</text><text fill="#000000" font-family="sans-serif" font-size="14" lengthAdjust="spacing" textLength="248.2266" x="206" y="579.9453">queryParams: HashMap&lt;String, String&gt;</text><text fill="#000000" font-family="sans-serif" font-size="14" lengthAdjust="spacing" textLength="107.3926" x="206" y="598.5664">bodyHash: String</text><line style="stroke:#181818;stroke-width:0.5;" x1="201" x2="459.2266" y1="606.0801" y2="606.0801"/></g><!--class Method--><g id="elem_Method"><rect codeLine="43" fill="#F1F1F1" height="66.6211" id="Method" rx="2.5" ry="2.5" style="stroke:#181818;stroke-width:0.5;" width="184.6963" x="230.5" y="710.6348"/><ellipse cx="295.25" cy="726.6348" fill="#EB937F" rx="11" ry="11" style="stroke:#181818;stroke-width:1.0;"/><path d="M294.1094,727.4316 L294.1094,729.9316 L298.4375,729.9316 L298.4375,729.0098 Q298.4375,728.4004 298.6719,728.1348 Q298.9219,727.8691 299.2969,727.8691 Q299.6719,727.8691 299.9063,728.1348 Q300.1406,728.4004 300.1406,729.0098 L300.1406,731.6348 L292.1406,731.6348 Q291.5156,731.6348 291.25,731.4004 Q291,731.166 291,730.7754 Q291,730.4004 291.2656,730.166 Q291.5313,729.9316 292.1406,729.9316 L292.4063,729.9316 L292.4063,723.2754 L292.1406,723.2754 Q291.5156,723.2754 291.25,723.041 Q291,722.8066 291,722.416 Q291,722.041 291.25,721.8066 Q291.5156,721.5723 292.1406,721.5723 L299.7656,721.5723 L299.7656,724.166 Q299.7656,724.7754 299.5313,725.041 Q299.3125,725.291 298.9219,725.291 Q298.5469,725.291 298.3125,725.041 Q298.0781,724.7754 298.0781,724.166 L298.0781,723.2754 L294.1094,723.2754 L294.1094,725.7285 L295.5938,725.7285 Q295.5938,725.0723 295.7188,724.8848 Q295.9844,724.4785 296.4531,724.4785 Q296.8281,724.4785 297.0625,724.7441 Q297.2969,724.9941 297.2969,725.6035 L297.2969,727.5723 Q297.2969,728.1191 297.1719,728.3066 Q296.9063,728.6973 296.4531,728.6973 Q295.9844,728.6973 295.7188,728.291 Q295.5938,728.1035 295.5938,727.4316 L294.1094,727.4316 Z " fill="#000000"/><text fill="#000000" font-family="sans-serif" font-size="14" lengthAdjust="spacing" textLength="46.6963" x="315.75" y="732.4316">Method</text><line style="stroke:#181818;stroke-width:0.5;" x1="231.5" x2="414.1963" y1="742.6348" y2="742.6348"/><text fill="#000000" font-family="sans-serif" font-size="14" lengthAdjust="spacing" textLength="172.6963" x="236.5" y="761.7422">GET, POST, PUT, DELETE</text><line style="stroke:#181818;stroke-width:0.5;" x1="231.5" x2="414.1963" y1="769.2559" y2="769.2559"/></g><!--class Response--><g id="elem_Response"><rect codeLine="47" fill="#F1F1F1" height="116.4453" id="Response" rx="2.5" ry="2.5" style="stroke:#181818;stroke-width:0.5;" width="127.9375" x="37" y="497.6348"/><ellipse cx="66.8034" cy="519.9258" fill="#ADD1B2" rx="11" ry="11" style="stroke:#181818;stroke-width:1.0;"/><path d="M69.569,515.8008 Q69.7253,515.582 69.9128,515.4727 Q70.1003,515.3633 70.319,515.3633 Q70.694,515.3633 70.9284,515.6289 Q71.1628,515.8789 71.1628,516.4883 L71.1628,517.9414 Q71.1628,518.5508 70.9284,518.8164 Q70.694,519.082 70.319,519.082 Q69.9753,519.082 69.7722,518.8789 Q69.569,518.6914 69.4597,518.1758 Q69.4128,517.8164 69.2253,517.6289 Q68.8972,517.2539 68.2878,517.0352 Q67.6784,516.8164 67.0534,516.8164 Q66.2878,516.8164 65.6472,517.1445 Q65.0222,517.4727 64.5222,518.2227 Q64.0378,518.9727 64.0378,520.0039 L64.0378,521.0977 Q64.0378,522.332 64.9284,523.1602 Q65.819,523.9727 67.4128,523.9727 Q68.3503,523.9727 69.0065,523.7227 Q69.3972,523.5664 69.819,523.1289 Q70.0847,522.8633 70.2253,522.7852 Q70.3815,522.707 70.5847,522.707 Q70.9128,522.707 71.1628,522.9727 Q71.4284,523.2227 71.4284,523.5664 Q71.4284,523.9102 71.0847,524.3164 Q70.5847,524.8945 69.7878,525.2227 Q68.7097,525.6758 67.4128,525.6758 Q65.8972,525.6758 64.694,525.0508 Q63.7097,524.5508 63.0222,523.4883 Q62.3347,522.4102 62.3347,521.1289 L62.3347,519.9727 Q62.3347,518.6445 62.944,517.5039 Q63.569,516.3477 64.6628,515.7383 Q65.7565,515.1133 66.9909,515.1133 Q67.7253,515.1133 68.3659,515.2852 Q69.0222,515.4414 69.569,515.8008 Z " fill="#000000"/><text fill="#000000" font-family="sans-serif" font-size="12" font-style="italic" lengthAdjust="spacing" textLength="47.3613" x="91.9329" y="515.584">&#171;record&#187;</text><text fill="#000000" font-family="sans-serif" font-size="14" lengthAdjust="spacing" textLength="63.041" x="84.0931" y="533.7031">Response</text><line style="stroke:#181818;stroke-width:0.5;" x1="38" x2="163.9375" y1="542.2168" y2="542.2168"/><text fill="#000000" font-family="sans-serif" font-size="14" lengthAdjust="spacing" textLength="93.3857" x="43" y="561.3242">statusCode: int</text><text fill="#000000" font-family="sans-serif" font-size="14" lengthAdjust="spacing" textLength="115.9375" x="43" y="579.9453">body: JSONObject</text><text fill="#000000" font-family="sans-serif" font-size="14" lengthAdjust="spacing" textLength="79.3652" x="43" y="598.5664">origin: Origin</text><line style="stroke:#181818;stroke-width:0.5;" x1="38" x2="163.9375" y1="606.0801" y2="606.0801"/></g><!--class Origin--><g id="elem_Origin"><rect codeLine="53" fill="#F1F1F1" height="66.6211" id="Origin" rx="2.5" ry="2.5" style="stroke:#181818;stroke-width:0.5;" width="173.0479" x="22.5" y="710.6348"/><ellipse cx="86.1016" cy="726.6348" fill="#EB937F" rx="11" ry="11" style="stroke:#181818;stroke-width:1.0;"/><path d="M84.9609,727.4316 L84.9609,729.9316 L89.2891,729.9316 L89.2891,729.0098 Q89.2891,728.4004 89.5234,728.1348 Q89.7734,727.8691 90.1484,727.8691 Q90.5234,727.8691 90.7578,728.1348 Q90.9922,728.4004 90.9922,729.0098 L90.9922,731.6348 L82.9922,731.6348 Q82.3672,731.6348 82.1016,731.4004 Q81.8516,731.166 81.8516,730.7754 Q81.8516,730.4004 82.1172,730.166 Q82.3828,729.9316 82.9922,729.9316 L83.2578,729.9316 L83.2578,723.2754 L82.9922,723.2754 Q82.3672,723.2754 82.1016,723.041 Q81.8516,722.8066 81.8516,722.416 Q81.8516,722.041 82.1016,721.8066 Q82.3672,721.5723 82.9922,721.5723 L90.6172,721.5723 L90.6172,724.166 Q90.6172,724.7754 90.3828,725.041 Q90.1641,725.291 89.7734,725.291 Q89.3984,725.291 89.1641,725.041 Q88.9297,724.7754 88.9297,724.166 L88.9297,723.2754 L84.9609,723.2754 L84.9609,725.7285 L86.4453,725.7285 Q86.4453,725.0723 86.5703,724.8848 Q86.8359,724.4785 87.3047,724.4785 Q87.6797,724.4785 87.9141,724.7441 Q88.1484,724.9941 88.1484,725.6035 L88.1484,727.5723 Q88.1484,728.1191 88.0234,728.3066 Q87.7578,728.6973 87.3047,728.6973 Q86.8359,728.6973 86.5703,728.291 Q86.4453,728.1035 86.4453,727.4316 L84.9609,727.4316 Z " fill="#000000"/><text fill="#000000" font-family="sans-serif" font-size="14" lengthAdjust="spacing" textLength="37.3447" x="106.6016" y="732.4316">Origin</text><line style="stroke:#181818;stroke-width:0.5;" x1="23.5" x2="194.5479" y1="742.6348" y2="742.6348"/><text fill="#000000" font-family="sans-serif" font-size="14" lengthAdjust="spacing" textLength="161.0479" x="28.5" y="761.7422">EXTERNAL_API, CACHE</text><line style="stroke:#181818;stroke-width:0.5;" x1="23.5" x2="194.5479" y1="769.2559" y2="769.2559"/></g><!--class CacheRepository--><g id="elem_CacheRepository"><rect codeLine="59" fill="#F1F1F1" height="85.2422" id="CacheRepository" rx="2.5" ry="2.5" style="stroke:#181818;stroke-width:0.5;" width="424.4531" x="443" y="891.6348"/><ellipse cx="597.2837" cy="907.6348" fill="#B4A7E5" rx="11" ry="11" style="stroke:#181818;stroke-width:1.0;"/><path d="M598.2368,904.2754 L598.2368,910.9316 L599.9556,910.9316 Q600.5649,910.9316 600.8306,911.166 Q601.0962,911.4004 601.0962,911.791 Q601.0962,912.166 600.8306,912.4004 Q600.5649,912.6348 599.9556,912.6348 L594.8149,912.6348 Q594.2056,912.6348 593.9399,912.4004 Q593.6743,912.166 593.6743,911.7754 Q593.6743,911.4004 593.9399,911.166 Q594.2056,910.9316 594.8149,910.9316 L596.5337,910.9316 L596.5337,904.2754 L594.8149,904.2754 Q594.2056,904.2754 593.9399,904.041 Q593.6743,903.8066 593.6743,903.416 Q593.6743,903.041 593.9399,902.8066 Q594.2056,902.5723 594.8149,902.5723 L599.9556,902.5723 Q600.5649,902.5723 600.8306,902.8066 Q601.0962,903.041 601.0962,903.416 Q601.0962,903.8066 600.8306,904.041 Q600.5649,904.2754 599.9556,904.2754 L598.2368,904.2754 Z " fill="#000000"/><text fill="#000000" font-family="sans-serif" font-size="14" font-style="italic" lengthAdjust="spacing" textLength="107.3857" x="617.7837" y="913.4316">CacheRepository</text><line style="stroke:#181818;stroke-width:0.5;" x1="444" x2="866.4531" y1="923.6348" y2="923.6348"/><line style="stroke:#181818;stroke-width:0.5;" x1="444" x2="866.4531" y1="931.6348" y2="931.6348"/><text fill="#000000" font-family="sans-serif" font-size="14" lengthAdjust="spacing" textLength="412.4531" x="449" y="950.7422">save(key: Endpoint, response: Response, duration: Duration): void</text><text fill="#000000" font-family="sans-serif" font-size="14" lengthAdjust="spacing" textLength="252.9365" x="449" y="969.3633">get(key: Endpoint): Optional&lt;Response&gt;</text></g><!--class RedisCacheRepository--><g id="elem_RedisCacheRepository"><rect codeLine="64" fill="#F1F1F1" height="103.8633" id="RedisCacheRepository" rx="2.5" ry="2.5" style="stroke:#181818;stroke-width:0.5;" width="424.4531" x="443" y="1036.6348"/><ellipse cx="579.3872" cy="1052.6348" fill="#ADD1B2" rx="11" ry="11" style="stroke:#181818;stroke-width:1.0;"/><path d="M582.1528,1048.5098 Q582.3091,1048.291 582.4966,1048.1816 Q582.6841,1048.0723 582.9028,1048.0723 Q583.2778,1048.0723 583.5122,1048.3379 Q583.7466,1048.5879 583.7466,1049.1973 L583.7466,1050.6504 Q583.7466,1051.2598 583.5122,1051.5254 Q583.2778,1051.791 582.9028,1051.791 Q582.5591,1051.791 582.356,1051.5879 Q582.1528,1051.4004 582.0435,1050.8848 Q581.9966,1050.5254 581.8091,1050.3379 Q581.481,1049.9629 580.8716,1049.7441 Q580.2622,1049.5254 579.6372,1049.5254 Q578.8716,1049.5254 578.231,1049.8535 Q577.606,1050.1816 577.106,1050.9316 Q576.6216,1051.6816 576.6216,1052.7129 L576.6216,1053.8066 Q576.6216,1055.041 577.5122,1055.8691 Q578.4028,1056.6816 579.9966,1056.6816 Q580.9341,1056.6816 581.5903,1056.4316 Q581.981,1056.2754 582.4028,1055.8379 Q582.6685,1055.5723 582.8091,1055.4941 Q582.9653,1055.416 583.1685,1055.416 Q583.4966,1055.416 583.7466,1055.6816 Q584.0122,1055.9316 584.0122,1056.2754 Q584.0122,1056.6191 583.6685,1057.0254 Q583.1685,1057.6035 582.3716,1057.9316 Q581.2935,1058.3848 579.9966,1058.3848 Q578.481,1058.3848 577.2778,1057.7598 Q576.2935,1057.2598 575.606,1056.1973 Q574.9185,1055.1191 574.9185,1053.8379 L574.9185,1052.6816 Q574.9185,1051.3535 575.5278,1050.2129 Q576.1528,1049.0566 577.2466,1048.4473 Q578.3403,1047.8223 579.5747,1047.8223 Q580.3091,1047.8223 580.9497,1047.9941 Q581.606,1048.1504 582.1528,1048.5098 Z " fill="#000000"/><text fill="#000000" font-family="sans-serif" font-size="14" lengthAdjust="spacing" textLength="143.1787" x="599.8872" y="1058.4316">RedisCacheRepository</text><line style="stroke:#181818;stroke-width:0.5;" x1="444" x2="866.4531" y1="1068.6348" y2="1068.6348"/><line style="stroke:#181818;stroke-width:0.5;" x1="444" x2="866.4531" y1="1076.6348" y2="1076.6348"/><text fill="#000000" font-family="sans-serif" font-size="14" lengthAdjust="spacing" textLength="412.4531" x="449" y="1095.7422">save(key: Endpoint, response: Response, duration: Duration): void</text><text fill="#000000" font-family="sans-serif" font-size="14" lengthAdjust="spacing" textLength="252.9365" x="449" y="1114.3633">get(key: Endpoint): Optional&lt;Response&gt;</text><text fill="#000000" font-family="sans-serif" font-size="14" lengthAdjust="spacing" textLength="249.833" x="449" y="1132.9844">generateKey(endpoint: Endpoint): String</text></g><!--link FlightsController to FlightsService--><g id="link_FlightsController_FlightsService"><path codeLine="71" d="M655,149.7148 C655,172.6348 655,197.2148 655,220.2148 " fill="none" id="FlightsController-to-FlightsService" style="stroke:#181818;stroke-width:1.0;"/><polygon fill="#181818" points="655,226.2148,659,217.2148,655,221.2148,651,217.2148,655,226.2148" style="stroke:#181818;stroke-width:1.0;"/><text fill="#000000" font-family="sans-serif" font-size="13" lengthAdjust="spacing" textLength="81.6499" x="566.5847" y="215.4837">flightService 1</text></g><!--reverse link FlightsService to FlightsServiceImpl--><g id="link_FlightsService_FlightsServiceImpl"><path codeLine="72" d="M655,311.6548 C655,330.0248 655,334.9248 655,353.3448 " fill="none" id="FlightsService-backto-FlightsServiceImpl" style="stroke:#181818;stroke-width:1.0;stroke-dasharray:7.0,7.0;"/><polygon fill="none" points="655,293.6548,649,311.6548,661,311.6548,655,293.6548" style="stroke:#181818;stroke-width:1.0;"/></g><!--link FlightsServiceImpl to ExternalAPIHandler--><g id="link_FlightsServiceImpl_ExternalAPIHandler"><path codeLine="73" d="M655,421.0348 C655,450.3148 655,486.9148 655,516.0948 " fill="none" id="FlightsServiceImpl-to-ExternalAPIHandler" style="stroke:#181818;stroke-width:1.0;"/><polygon fill="#181818" points="655,522.0948,659,513.0948,655,517.0948,651,513.0948,655,522.0948" style="stroke:#181818;stroke-width:1.0;"/><text fill="#000000" font-family="sans-serif" font-size="13" lengthAdjust="spacing" textLength="123.5698" x="519.9077" y="510.9124">externalAPIHandler 1</text></g><!--reverse link ExternalAPIHandler to ExternalAPIHandlerImpl--><g id="link_ExternalAPIHandler_ExternalAPIHandlerImpl"><path codeLine="74" d="M655,607.5448 C655,630.7648 655,644.7248 655,673.4748 " fill="none" id="ExternalAPIHandler-backto-ExternalAPIHandlerImpl" style="stroke:#181818;stroke-width:1.0;stroke-dasharray:7.0,7.0;"/><polygon fill="none" points="655,589.5448,649,607.5448,661,607.5448,655,589.5448" style="stroke:#181818;stroke-width:1.0;"/></g><!--link ExternalAPIHandlerImpl to CacheRepository--><g id="link_ExternalAPIHandlerImpl_CacheRepository"><path codeLine="75" d="M655,814.8748 C655,840.6848 655,863.1148 655,885.6248 " fill="none" id="ExternalAPIHandlerImpl-to-CacheRepository" style="stroke:#181818;stroke-width:1.0;"/><polygon fill="#181818" points="655,891.6248,659,882.6248,655,886.6248,651,882.6248,655,891.6248" style="stroke:#181818;stroke-width:1.0;"/><text fill="#000000" font-family="sans-serif" font-size="13" lengthAdjust="spacing" textLength="107.6689" x="539.4906" y="880.5273">cacheRepository 1</text></g><!--reverse link CacheRepository to RedisCacheRepository--><g id="link_CacheRepository_RedisCacheRepository"><path codeLine="76" d="M655,994.8048 C655,1013.2348 655,1017.0848 655,1036.4948 " fill="none" id="CacheRepository-backto-RedisCacheRepository" style="stroke:#181818;stroke-width:1.0;stroke-dasharray:7.0,7.0;"/><polygon fill="none" points="655,976.8048,649,994.8048,661,994.8048,655,976.8048" style="stroke:#181818;stroke-width:1.0;"/></g><!--link Endpoint to Method--><g id="link_Endpoint_Method"><path codeLine="77" d="M327.85,613.8548 C326.66,645.5548 325.4551,677.809 324.4551,704.449 " fill="none" id="Endpoint-to-Method" style="stroke:#181818;stroke-width:1.0;stroke-dasharray:7.0,7.0;"/><polygon fill="#181818" points="324.23,710.4448,328.5648,701.6011,324.4176,705.4483,320.5704,701.3011,324.23,710.4448" style="stroke:#181818;stroke-width:1.0;"/><text fill="#000000" font-family="sans-serif" font-size="13" lengthAdjust="spacing" textLength="54.2026" x="265.3659" y="699.4945">method 1</text></g><!--link Response to Origin--><g id="link_Response_Origin"><path codeLine="78" d="M103.45,613.8548 C104.81,645.5548 106.2035,677.8103 107.3435,704.4503 " fill="none" id="Response-to-Origin" style="stroke:#181818;stroke-width:1.0;stroke-dasharray:7.0,7.0;"/><polygon fill="#181818" points="107.6,710.4448,111.2116,701.282,107.3862,705.4493,103.2189,701.624,107.6,710.4448" style="stroke:#181818;stroke-width:1.0;"/><text fill="#000000" font-family="sans-serif" font-size="13" lengthAdjust="spacing" textLength="42.6372" x="61.3862" y="699.4945">origin 1</text></g><!--SRC=[pLNVRzem47xFNt7YfPr4aIRjAK98A6HhjxOWO5BxL1dx2Yx6pcod6jlwl-yI9pGGLdLxs9O71zsTl_lotG-yz0eXUGU9Oix1IBAbPPiOqgyUhKPmQ1ybHmT28cY97XRe-4gk5unP-2OVT1IThAH0uD9oXT69MqkTCG819JNwROPWh5-PAF8c0szWORmt6mAqoBqq190nlcPBX0utsbkZ5DeEV8-07bxIUg_aSkLTidDNtk9PeW_kYIMYfyRAfTGnpBoLUja5WSvBpOf4JICnzBd54VCOGt5smI9PzBFbJPdYANfg4ApagDb9JIhTCuurmrdm_nLwCGYJBqZoGBCjLqNcOfEfVq6egHlBP5kpq6DC3ISNvqoB_R9ofjGfQf4Pka3zMFsY9EEi8CTKVuekCzhXeAr06_f0XQlXpTqqdKylqbbSKDev2kFjtIYz7DxIP-MsLEBFMLMA9uolKDIktqRWnVKNRXV52CuOwZ12V3HI7D6ckWJzFasWiM8mQ0YJMrNNVMVxagFTJegPTZ6SCxUwObc_xetmVkQwC69RnEoXL0HGvnkuGje6ef7oGphlmcGyAyxFT93uwJnj4w-_x3XnvvdFQKK8t2zemIU6ZxFnzNZnG1jdvwWxVro-MpI3kP4WlPcdq-lXvHqrLHUIONAU7kbqYvbnqXkxRJTy4ifO1pJ9iqSyNUFsvPBI85OD-ToQpJ9NpROFzCg9cQAGxZyZ6C8r4X1-mktniTdhClgazd_5sTa0ElUbkTxFRpi7Ip8wiZDxUU_7u1Ln9JwsbnabQU-Xw1UhAIHxVNoPb1_KYp8Ub30wMjUGx31qjnXwFSBUX34bo32mqMxyIdUOdi9TpSzF]--></g></svg>