<svg xmlns="http://www.w3.org/2000/svg" xmlns:xlink="http://www.w3.org/1999/xlink" contentStyleType="text/css" height="1465.8px" preserveAspectRatio="none" style="width:1084px;height:1465px;background:#FFFFFF;" version="1.1" viewBox="0 0 1084 1465" width="1084.3px" zoomAndPan="magnify"><title>Sequence diagram: Externe services die niet beschikbaar zijn</title><defs/><g><text fill="#000000" font-family="sans-serif" font-size="9.8" font-weight="bold" lengthAdjust="spacing" textLength="287.0424" x="395.9971" y="21.0752">Sequence diagram: Externe services die niet beschikbaar zijn</text><rect fill="none" height="454.3574" style="stroke:#000000;stroke-width:1.0499999999999998;" width="1065.7367" x="7" y="315.8066"/><rect fill="none" height="244.1824" style="stroke:#000000;stroke-width:1.0499999999999998;" width="1051.7367" x="14" y="521.0816"/><rect fill="none" height="502.3648" style="stroke:#000000;stroke-width:1.0499999999999998;" width="1065.7367" x="7" y="893.6826"/><rect fill="none" height="244.1824" style="stroke:#000000;stroke-width:1.0499999999999998;" width="1051.7367" x="14" y="1146.965"/><line style="stroke:#181818;stroke-width:0.3499999999999999;stroke-dasharray:5.0,5.0;" x1="42.7" x2="42.7" y1="86.2695" y2="1407.9475"/><line style="stroke:#181818;stroke-width:0.3499999999999999;stroke-dasharray:5.0,5.0;" x1="247.5125" x2="247.5125" y1="86.2695" y2="1407.9475"/><line style="stroke:#181818;stroke-width:0.3499999999999999;stroke-dasharray:5.0,5.0;" x1="509.1673" x2="509.1673" y1="86.2695" y2="1407.9475"/><line style="stroke:#181818;stroke-width:0.3499999999999999;stroke-dasharray:5.0,5.0;" x1="681.3806" x2="681.3806" y1="86.2695" y2="1407.9475"/><line style="stroke:#181818;stroke-width:0.3499999999999999;stroke-dasharray:5.0,5.0;" x1="810.5398" x2="810.5398" y1="86.2695" y2="1407.9475"/><line style="stroke:#181818;stroke-width:0.3499999999999999;stroke-dasharray:5.0,5.0;" x1="912.1506" x2="912.1506" y1="86.2695" y2="1407.9475"/><line style="stroke:#181818;stroke-width:0.3499999999999999;stroke-dasharray:5.0,5.0;" x1="1027.0535" x2="1027.0535" y1="86.2695" y2="1407.9475"/><text fill="#000000" font-family="sans-serif" font-size="9.8" lengthAdjust="spacing" textLength="39.2239" x="21" y="83.81">Frontend</text><ellipse cx="42.712" cy="37.1848" fill="#E2E2F0" rx="5.6" ry="5.6" style="stroke:#181818;stroke-width:0.3499999999999999;"/><path d="M42.712,42.7848 L42.712,61.6848 M33.612,48.3848 L51.812,48.3848 M42.712,61.6848 L33.612,72.1848 M42.712,61.6848 L51.812,72.1848 " fill="none" style="stroke:#181818;stroke-width:0.3499999999999999;"/><text fill="#000000" font-family="sans-serif" font-size="9.8" lengthAdjust="spacing" textLength="39.2239" x="21" y="1417.8227">Frontend</text><ellipse cx="42.712" cy="1426.2322" fill="#E2E2F0" rx="5.6" ry="5.6" style="stroke:#181818;stroke-width:0.3499999999999999;"/><path d="M42.712,1431.8322 L42.712,1450.7322 M33.612,1437.4322 L51.812,1437.4322 M42.712,1450.7322 L33.612,1461.2322 M42.712,1450.7322 L51.812,1461.2322 " fill="none" style="stroke:#181818;stroke-width:0.3499999999999999;"/><rect fill="#E2E2F0" height="22.8348" rx="1.75" ry="1.75" style="stroke:#181818;stroke-width:0.3499999999999999;" width="81.1467" x="207.6125" y="62.7348"/><text fill="#000000" font-family="sans-serif" font-size="9.8" lengthAdjust="spacing" textLength="71.3467" x="212.5125" y="78.21">FlightsController</text><rect fill="#E2E2F0" height="22.8348" rx="1.75" ry="1.75" style="stroke:#181818;stroke-width:0.3499999999999999;" width="81.1467" x="207.6125" y="1407.2475"/><text fill="#000000" font-family="sans-serif" font-size="9.8" lengthAdjust="spacing" textLength="71.3467" x="212.5125" y="1422.7227">FlightsController</text><rect fill="#E2E2F0" height="22.8348" rx="1.75" ry="1.75" style="stroke:#181818;stroke-width:0.3499999999999999;" width="89.8557" x="464.3673" y="62.7348"/><text fill="#000000" font-family="sans-serif" font-size="9.8" lengthAdjust="spacing" textLength="80.0557" x="469.2673" y="78.21">FlightsServiceImpl</text><rect fill="#E2E2F0" height="22.8348" rx="1.75" ry="1.75" style="stroke:#181818;stroke-width:0.3499999999999999;" width="89.8557" x="464.3673" y="1407.2475"/><text fill="#000000" font-family="sans-serif" font-size="9.8" lengthAdjust="spacing" textLength="80.0557" x="469.2673" y="1422.7227">FlightsServiceImpl</text><rect fill="#E2E2F0" height="22.8348" rx="1.75" ry="1.75" style="stroke:#181818;stroke-width:0.3499999999999999;" width="114.3796" x="624.6806" y="62.7348"/><text fill="#000000" font-family="sans-serif" font-size="9.8" lengthAdjust="spacing" textLength="104.5796" x="629.5806" y="78.21">ExternalAPIHandlerImpl</text><rect fill="#E2E2F0" height="22.8348" rx="1.75" ry="1.75" style="stroke:#181818;stroke-width:0.3499999999999999;" width="114.3796" x="624.6806" y="1407.2475"/><text fill="#000000" font-family="sans-serif" font-size="9.8" lengthAdjust="spacing" textLength="104.5796" x="629.5806" y="1422.7227">ExternalAPIHandlerImpl</text><rect fill="#E2E2F0" height="22.8348" rx="1.75" ry="1.75" style="stroke:#181818;stroke-width:0.3499999999999999;" width="61.0107" x="780.4398" y="62.7348"/><text fill="#000000" font-family="sans-serif" font-size="9.8" lengthAdjust="spacing" textLength="51.2107" x="785.3398" y="78.21">BookingAPI</text><rect fill="#E2E2F0" height="22.8348" rx="1.75" ry="1.75" style="stroke:#181818;stroke-width:0.3499999999999999;" width="61.0107" x="780.4398" y="1407.2475"/><text fill="#000000" font-family="sans-serif" font-size="9.8" lengthAdjust="spacing" textLength="51.2107" x="785.3398" y="1422.7227">BookingAPI</text><rect fill="#E2E2F0" height="22.8348" rx="1.75" ry="1.75" style="stroke:#181818;stroke-width:0.3499999999999999;" width="128.5389" x="848.4506" y="62.7348"/><text fill="#000000" font-family="sans-serif" font-size="9.8" lengthAdjust="spacing" textLength="118.7389" x="853.3506" y="78.21">RedisCacheRepositoryImpl</text><rect fill="#E2E2F0" height="22.8348" rx="1.75" ry="1.75" style="stroke:#181818;stroke-width:0.3499999999999999;" width="128.5389" x="848.4506" y="1407.2475"/><text fill="#000000" font-family="sans-serif" font-size="9.8" lengthAdjust="spacing" textLength="118.7389" x="853.3506" y="1422.7227">RedisCacheRepositoryImpl</text><rect fill="#E2E2F0" height="22.8348" rx="1.75" ry="1.75" style="stroke:#181818;stroke-width:0.3499999999999999;" width="63.1832" x="995.5535" y="62.7348"/><text fill="#000000" font-family="sans-serif" font-size="9.8" lengthAdjust="spacing" textLength="53.3832" x="1000.4535" y="78.21">UnifiedJedis</text><rect fill="#E2E2F0" height="22.8348" rx="1.75" ry="1.75" style="stroke:#181818;stroke-width:0.3499999999999999;" width="63.1832" x="995.5535" y="1407.2475"/><text fill="#000000" font-family="sans-serif" font-size="9.8" lengthAdjust="spacing" textLength="53.3832" x="1000.4535" y="1422.7227">UnifiedJedis</text><polygon fill="#181818" points="239.7859,118.877,246.7859,121.677,239.7859,124.477,242.5859,121.677" style="stroke:#181818;stroke-width:0.6999999999999998;"/><line style="stroke:#181818;stroke-width:0.6999999999999998;" x1="42.712" x2="243.9859" y1="121.677" y2="121.677"/><text fill="#000000" font-family="sans-serif" font-size="9.1" lengthAdjust="spacing" textLength="105.6986" x="47.612" y="105.8894">GET /flights/getFlightPrice</text><text fill="#000000" font-family="sans-serif" font-size="9.1" lengthAdjust="spacing" textLength="188.6739" x="47.612" y="117.9931">(origin, destination, departureDate, returnDate)</text><polygon fill="#181818" points="500.8951,140.7807,507.8951,143.5807,500.8951,146.3807,503.6951,143.5807" style="stroke:#181818;stroke-width:0.6999999999999998;"/><line style="stroke:#181818;stroke-width:0.6999999999999998;" x1="248.1859" x2="505.0951" y1="143.5807" y2="143.5807"/><text fill="#000000" font-family="sans-serif" font-size="9.1" lengthAdjust="spacing" textLength="244.3092" x="253.0859" y="139.8968">getFlightPrice(origin, destination, departureDate, returnDate)</text><path d="M414.4,152.6807 L414.4,171.5807 L603.4,171.5807 L603.4,159.6807 L596.4,152.6807 L414.4,152.6807 " fill="#FEFFDD" style="stroke:#181818;stroke-width:0.3499999999999999;"/><path d="M596.4,152.6807 L596.4,159.6807 L603.4,159.6807 L596.4,152.6807 " fill="#FEFFDD" style="stroke:#181818;stroke-width:0.3499999999999999;"/><text fill="#000000" font-family="sans-serif" font-size="9.1" lengthAdjust="spacing" textLength="174.5085" x="418.6" y="166.0005">Maakt Request object met URL en headers</text><rect fill="#EEEEEE" height="2.1" style="stroke:#EEEEEE;stroke-width:0.6999999999999998;" width="1079.7367" x="0" y="190.4362"/><line style="stroke:#000000;stroke-width:0.6999999999999998;" x1="0" x2="1079.7367" y1="190.4362" y2="190.4362"/><line style="stroke:#000000;stroke-width:0.6999999999999998;" x1="0" x2="1079.7367" y1="192.5362" y2="192.5362"/><rect fill="#EEEEEE" height="17.7037" style="stroke:#000000;stroke-width:1.3999999999999997;" width="297.8097" x="390.9635" y="182.2844"/><text fill="#000000" font-family="sans-serif" font-size="9.1" font-weight="bold" lengthAdjust="spacing" textLength="285.4814" x="395.1635" y="194.9042">Scenario 1: dataMayGetOutdated = false (eerst cache controleren)</text><polygon fill="#181818" points="673.4704,220.4918,680.4704,223.2918,673.4704,226.0918,676.2704,223.2918" style="stroke:#181818;stroke-width:0.6999999999999998;"/><line style="stroke:#181818;stroke-width:0.6999999999999998;" x1="509.2951" x2="677.6704" y1="223.2918" y2="223.2918"/><text fill="#000000" font-family="sans-serif" font-size="9.1" lengthAdjust="spacing" textLength="114.3187" x="514.1951" y="219.6079">sendRequest(request, false)</text><path d="M616,232.3918 L616,263.1918 L746.9,263.1918 L746.9,239.3918 L739.9,232.3918 L616,232.3918 " fill="#FEFFDD" style="stroke:#181818;stroke-width:0.3499999999999999;"/><path d="M739.9,232.3918 L739.9,239.3918 L746.9,239.3918 L739.9,232.3918 " fill="#FEFFDD" style="stroke:#181818;stroke-width:0.3499999999999999;"/><text fill="#000000" font-family="sans-serif" font-size="9.1" lengthAdjust="spacing" textLength="116.6026" x="620.2" y="245.7116">dataMayGetOutdated = false</text><text fill="#000000" font-family="sans-serif" font-size="9.1" lengthAdjust="spacing" textLength="96.1054" x="620.2" y="257.8153">Eerst cache controleren</text><polygon fill="#181818" points="904.32,280.6029,911.32,283.4029,904.32,286.2029,907.12,283.4029" style="stroke:#181818;stroke-width:0.6999999999999998;"/><line style="stroke:#181818;stroke-width:0.6999999999999998;" x1="681.8704" x2="908.52" y1="283.4029" y2="283.4029"/><text fill="#000000" font-family="sans-serif" font-size="9.1" lengthAdjust="spacing" textLength="28.8241" x="686.7704" y="279.719">get(url)</text><polygon fill="#181818" points="1018.7451,302.5066,1025.7451,305.3066,1018.7451,308.1066,1021.5451,305.3066" style="stroke:#181818;stroke-width:0.6999999999999998;"/><line style="stroke:#181818;stroke-width:0.6999999999999998;" x1="912.72" x2="1022.9451" y1="305.3066" y2="305.3066"/><text fill="#000000" font-family="sans-serif" font-size="9.1" lengthAdjust="spacing" textLength="28.8241" x="917.62" y="301.6228">get(url)</text><path d="M7,315.8066 L49.1196,315.8066 L49.1196,322.3104 L42.1196,329.3104 L7,329.3104 L7,315.8066 " fill="#EEEEEE" style="stroke:#000000;stroke-width:1.0499999999999998;"/><rect fill="none" height="454.3574" style="stroke:#000000;stroke-width:1.0499999999999998;" width="1065.7367" x="7" y="315.8066"/><text fill="#000000" font-family="sans-serif" font-size="9.1" font-weight="bold" lengthAdjust="spacing" textLength="10.6196" x="17.5" y="326.3265">alt</text><text fill="#000000" font-family="sans-serif" font-size="7.7" font-weight="bold" lengthAdjust="spacing" textLength="39.7858" x="59.6196" y="325.5157">[Cache hit]</text><polygon fill="#181818" points="920.42,342.8141,913.42,345.6141,920.42,348.4141,917.62,345.6141" style="stroke:#181818;stroke-width:0.6999999999999998;"/><line style="stroke:#181818;stroke-width:0.6999999999999998;stroke-dasharray:2.0,2.0;" x1="916.22" x2="1026.4451" y1="345.6141" y2="345.6141"/><text fill="#000000" font-family="sans-serif" font-size="9.1" lengthAdjust="spacing" textLength="69.3075" x="924.62" y="341.9302">cached response</text><polygon fill="#181818" points="689.5704,364.7178,682.5704,367.5178,689.5704,370.3178,686.7704,367.5178" style="stroke:#181818;stroke-width:0.6999999999999998;"/><line style="stroke:#181818;stroke-width:0.6999999999999998;stroke-dasharray:2.0,2.0;" x1="685.3704" x2="912.02" y1="367.5178" y2="367.5178"/><text fill="#000000" font-family="sans-serif" font-size="9.1" lengthAdjust="spacing" textLength="197.2541" x="693.7704" y="363.8339">Optional&lt;Response&gt; met Origin.REDIS_CACHE</text><polygon fill="#181818" points="516.9951,386.6215,509.9951,389.4215,516.9951,392.2215,514.1951,389.4215" style="stroke:#181818;stroke-width:0.6999999999999998;"/><line style="stroke:#181818;stroke-width:0.6999999999999998;stroke-dasharray:2.0,2.0;" x1="512.7951" x2="681.1704" y1="389.4215" y2="389.4215"/><text fill="#000000" font-family="sans-serif" font-size="9.1" lengthAdjust="spacing" textLength="79.9271" x="521.1951" y="385.7376">Response uit cache</text><polygon fill="#181818" points="255.8859,408.5252,248.8859,411.3252,255.8859,414.1252,253.0859,411.3252" style="stroke:#181818;stroke-width:0.6999999999999998;"/><line style="stroke:#181818;stroke-width:0.6999999999999998;stroke-dasharray:2.0,2.0;" x1="251.6859" x2="508.5951" y1="411.3252" y2="411.3252"/><text fill="#000000" font-family="sans-serif" font-size="9.1" lengthAdjust="spacing" textLength="73.3332" x="260.0859" y="407.6413">Verwerkt resultaat</text><polygon fill="#181818" points="50.412,430.4289,43.412,433.2289,50.412,436.0289,47.612,433.2289" style="stroke:#181818;stroke-width:0.6999999999999998;"/><line style="stroke:#181818;stroke-width:0.6999999999999998;stroke-dasharray:2.0,2.0;" x1="46.212" x2="247.4859" y1="433.2289" y2="433.2289"/><text fill="#000000" font-family="sans-serif" font-size="9.1" lengthAdjust="spacing" textLength="141.6143" x="54.612" y="429.545">200 OK met vluchtprijs (van cache)</text><line style="stroke:#000000;stroke-width:0.6999999999999998;stroke-dasharray:2.0,2.0;" x1="7" x2="1072.7367" y1="439.5289" y2="439.5289"/><text fill="#000000" font-family="sans-serif" font-size="7.7" font-weight="bold" lengthAdjust="spacing" textLength="47.9295" x="10.5" y="447.838">[Cache miss]</text><polygon fill="#181818" points="920.42,463.9742,913.42,466.7742,920.42,469.5742,917.62,466.7742" style="stroke:#181818;stroke-width:0.6999999999999998;"/><line style="stroke:#181818;stroke-width:0.6999999999999998;stroke-dasharray:2.0,2.0;" x1="916.22" x2="1026.4451" y1="466.7742" y2="466.7742"/><text fill="#000000" font-family="sans-serif" font-size="9.1" lengthAdjust="spacing" textLength="14.1654" x="924.62" y="463.0903">null</text><polygon fill="#181818" points="689.5704,485.8779,682.5704,488.6779,689.5704,491.4779,686.7704,488.6779" style="stroke:#181818;stroke-width:0.6999999999999998;"/><line style="stroke:#181818;stroke-width:0.6999999999999998;stroke-dasharray:2.0,2.0;" x1="685.3704" x2="912.02" y1="488.6779" y2="488.6779"/><text fill="#000000" font-family="sans-serif" font-size="9.1" lengthAdjust="spacing" textLength="67.2636" x="693.7704" y="484.994">Optional.empty()</text><polygon fill="#181818" points="802.5452,507.7816,809.5452,510.5816,802.5452,513.3816,805.3452,510.5816" style="stroke:#181818;stroke-width:0.6999999999999998;"/><line style="stroke:#181818;stroke-width:0.6999999999999998;" x1="681.8704" x2="806.7452" y1="510.5816" y2="510.5816"/><text fill="#000000" font-family="sans-serif" font-size="9.1" lengthAdjust="spacing" textLength="77.8743" x="686.7704" y="506.8978">HTTP GET request</text><path d="M14,521.0816 L56.1196,521.0816 L56.1196,527.5854 L49.1196,534.5854 L14,534.5854 L14,521.0816 " fill="#EEEEEE" style="stroke:#000000;stroke-width:1.0499999999999998;"/><rect fill="none" height="244.1824" style="stroke:#000000;stroke-width:1.0499999999999998;" width="1051.7367" x="14" y="521.0816"/><text fill="#000000" font-family="sans-serif" font-size="9.1" font-weight="bold" lengthAdjust="spacing" textLength="10.6196" x="24.5" y="531.6015">alt</text><text fill="#000000" font-family="sans-serif" font-size="7.7" font-weight="bold" lengthAdjust="spacing" textLength="57.3439" x="66.6196" y="530.7907">[API succesvol]</text><polygon fill="#181818" points="689.5704,548.0891,682.5704,550.8891,689.5704,553.6891,686.7704,550.8891" style="stroke:#181818;stroke-width:0.6999999999999998;"/><line style="stroke:#181818;stroke-width:0.6999999999999998;stroke-dasharray:2.0,2.0;" x1="685.3704" x2="810.2452" y1="550.8891" y2="550.8891"/><text fill="#000000" font-family="sans-serif" font-size="9.1" lengthAdjust="spacing" textLength="112.2748" x="693.7704" y="547.2052">HTTP 200 OK met resultaat</text><polygon fill="#181818" points="904.32,569.9928,911.32,572.7928,904.32,575.5928,907.12,572.7928" style="stroke:#181818;stroke-width:0.6999999999999998;"/><line style="stroke:#181818;stroke-width:0.6999999999999998;" x1="681.8704" x2="908.52" y1="572.7928" y2="572.7928"/><text fill="#000000" font-family="sans-serif" font-size="9.1" lengthAdjust="spacing" textLength="93.0662" x="686.7704" y="569.1089">save(url, response, 10)</text><polygon fill="#181818" points="1018.7451,591.8965,1025.7451,594.6965,1018.7451,597.4965,1021.5451,594.6965" style="stroke:#181818;stroke-width:0.6999999999999998;"/><line style="stroke:#181818;stroke-width:0.6999999999999998;" x1="912.72" x2="1022.9451" y1="594.6965" y2="594.6965"/><text fill="#000000" font-family="sans-serif" font-size="9.1" lengthAdjust="spacing" textLength="79.9138" x="917.62" y="591.0126">setex(url, 10, value)</text><polygon fill="#181818" points="516.9951,613.8002,509.9951,616.6002,516.9951,619.4002,514.1951,616.6002" style="stroke:#181818;stroke-width:0.6999999999999998;"/><line style="stroke:#181818;stroke-width:0.6999999999999998;stroke-dasharray:2.0,2.0;" x1="512.7951" x2="681.1704" y1="616.6002" y2="616.6002"/><text fill="#000000" font-family="sans-serif" font-size="9.1" lengthAdjust="spacing" textLength="155.7753" x="521.1951" y="612.9163">Response met Origin.EXTERNAL_API</text><polygon fill="#181818" points="255.8859,635.7039,248.8859,638.5039,255.8859,641.3039,253.0859,638.5039" style="stroke:#181818;stroke-width:0.6999999999999998;"/><line style="stroke:#181818;stroke-width:0.6999999999999998;stroke-dasharray:2.0,2.0;" x1="251.6859" x2="508.5951" y1="638.5039" y2="638.5039"/><text fill="#000000" font-family="sans-serif" font-size="9.1" lengthAdjust="spacing" textLength="73.3332" x="260.0859" y="634.82">Verwerkt resultaat</text><polygon fill="#181818" points="50.412,657.6076,43.412,660.4076,50.412,663.2076,47.612,660.4076" style="stroke:#181818;stroke-width:0.6999999999999998;"/><line style="stroke:#181818;stroke-width:0.6999999999999998;stroke-dasharray:2.0,2.0;" x1="46.212" x2="247.4859" y1="660.4076" y2="660.4076"/><text fill="#000000" font-family="sans-serif" font-size="9.1" lengthAdjust="spacing" textLength="131.9989" x="54.612" y="656.7237">200 OK met vluchtprijs (van API)</text><line style="stroke:#000000;stroke-width:0.6999999999999998;stroke-dasharray:2.0,2.0;" x1="14" x2="1065.7367" y1="666.7076" y2="666.7076"/><text fill="#000000" font-family="sans-serif" font-size="7.7" font-weight="bold" lengthAdjust="spacing" textLength="35.9358" x="17.5" y="675.0167">[API faalt]</text><polygon fill="#181818" points="689.5704,691.1529,682.5704,693.9529,689.5704,696.7529,686.7704,693.9529" style="stroke:#181818;stroke-width:0.6999999999999998;"/><line style="stroke:#181818;stroke-width:0.6999999999999998;stroke-dasharray:2.0,2.0;" x1="685.3704" x2="810.2452" y1="693.9529" y2="693.9529"/><text fill="#000000" font-family="sans-serif" font-size="9.1" lengthAdjust="spacing" textLength="82.451" x="693.7704" y="690.269">Exception of timeout</text><polygon fill="#181818" points="516.9951,713.0566,509.9951,715.8566,516.9951,718.6566,514.1951,715.8566" style="stroke:#181818;stroke-width:0.6999999999999998;"/><line style="stroke:#181818;stroke-width:0.6999999999999998;stroke-dasharray:2.0,2.0;" x1="512.7951" x2="681.1704" y1="715.8566" y2="715.8566"/><text fill="#000000" font-family="sans-serif" font-size="9.1" lengthAdjust="spacing" textLength="67.2636" x="521.1951" y="712.1728">Optional.empty()</text><polygon fill="#181818" points="255.8859,734.9604,248.8859,737.7604,255.8859,740.5604,253.0859,737.7604" style="stroke:#181818;stroke-width:0.6999999999999998;"/><line style="stroke:#181818;stroke-width:0.6999999999999998;stroke-dasharray:2.0,2.0;" x1="251.6859" x2="508.5951" y1="737.7604" y2="737.7604"/><text fill="#000000" font-family="sans-serif" font-size="9.1" lengthAdjust="spacing" textLength="79.9271" x="260.0859" y="734.0765">NotFoundException</text><polygon fill="#181818" points="50.412,756.8641,43.412,759.6641,50.412,762.4641,47.612,759.6641" style="stroke:#181818;stroke-width:0.6999999999999998;"/><line style="stroke:#181818;stroke-width:0.6999999999999998;stroke-dasharray:2.0,2.0;" x1="46.212" x2="247.4859" y1="759.6641" y2="759.6641"/><text fill="#000000" font-family="sans-serif" font-size="9.1" lengthAdjust="spacing" textLength="60.2031" x="54.612" y="755.9802">404 Not Found</text><rect fill="#EEEEEE" height="2.1" style="stroke:#EEEEEE;stroke-width:0.6999999999999998;" width="1079.7367" x="0" y="790.2159"/><line style="stroke:#000000;stroke-width:0.6999999999999998;" x1="0" x2="1079.7367" y1="790.2159" y2="790.2159"/><line style="stroke:#000000;stroke-width:0.6999999999999998;" x1="0" x2="1079.7367" y1="792.3159" y2="792.3159"/><rect fill="#EEEEEE" height="17.7037" style="stroke:#000000;stroke-width:1.3999999999999997;" width="368.6146" x="355.561" y="782.0641"/><text fill="#000000" font-family="sans-serif" font-size="9.1" font-weight="bold" lengthAdjust="spacing" textLength="356.2863" x="359.761" y="794.6839">Scenario 2: dataMayGetOutdated = true (eerst API aanroepen, fallback naar cache)</text><polygon fill="#181818" points="673.4704,820.2715,680.4704,823.0715,673.4704,825.8715,676.2704,823.0715" style="stroke:#181818;stroke-width:0.6999999999999998;"/><line style="stroke:#181818;stroke-width:0.6999999999999998;" x1="509.2951" x2="677.6704" y1="823.0715" y2="823.0715"/><text fill="#000000" font-family="sans-serif" font-size="9.1" lengthAdjust="spacing" textLength="110.7774" x="514.1951" y="819.3876">sendRequest(request, true)</text><path d="M590.1,832.1715 L590.1,862.9715 L772.1,862.9715 L772.1,839.1715 L765.1,832.1715 L590.1,832.1715 " fill="#FEFFDD" style="stroke:#181818;stroke-width:0.3499999999999999;"/><path d="M765.1,832.1715 L765.1,839.1715 L772.1,839.1715 L765.1,832.1715 " fill="#FEFFDD" style="stroke:#181818;stroke-width:0.3499999999999999;"/><text fill="#000000" font-family="sans-serif" font-size="9.1" lengthAdjust="spacing" textLength="113.0613" x="594.3" y="845.4913">dataMayGetOutdated = true</text><text fill="#000000" font-family="sans-serif" font-size="9.1" lengthAdjust="spacing" textLength="167.9457" x="594.3" y="857.595">Eerst API aanroepen, fallback naar cache</text><polygon fill="#181818" points="802.5452,880.3826,809.5452,883.1826,802.5452,885.9826,805.3452,883.1826" style="stroke:#181818;stroke-width:0.6999999999999998;"/><line style="stroke:#181818;stroke-width:0.6999999999999998;" x1="681.8704" x2="806.7452" y1="883.1826" y2="883.1826"/><text fill="#000000" font-family="sans-serif" font-size="9.1" lengthAdjust="spacing" textLength="77.8743" x="686.7704" y="879.4987">HTTP GET request</text><path d="M7,893.6826 L49.1196,893.6826 L49.1196,900.1863 L42.1196,907.1863 L7,907.1863 L7,893.6826 " fill="#EEEEEE" style="stroke:#000000;stroke-width:1.0499999999999998;"/><rect fill="none" height="502.3648" style="stroke:#000000;stroke-width:1.0499999999999998;" width="1065.7367" x="7" y="893.6826"/><text fill="#000000" font-family="sans-serif" font-size="9.1" font-weight="bold" lengthAdjust="spacing" textLength="10.6196" x="17.5" y="904.2024">alt</text><text fill="#000000" font-family="sans-serif" font-size="7.7" font-weight="bold" lengthAdjust="spacing" textLength="57.3439" x="59.6196" y="903.3917">[API succesvol]</text><polygon fill="#181818" points="689.5704,920.69,682.5704,923.49,689.5704,926.29,686.7704,923.49" style="stroke:#181818;stroke-width:0.6999999999999998;"/><line style="stroke:#181818;stroke-width:0.6999999999999998;stroke-dasharray:2.0,2.0;" x1="685.3704" x2="810.2452" y1="923.49" y2="923.49"/><text fill="#000000" font-family="sans-serif" font-size="9.1" lengthAdjust="spacing" textLength="112.2748" x="693.7704" y="919.8062">HTTP 200 OK met resultaat</text><polygon fill="#181818" points="904.32,942.5937,911.32,945.3937,904.32,948.1937,907.12,945.3937" style="stroke:#181818;stroke-width:0.6999999999999998;"/><line style="stroke:#181818;stroke-width:0.6999999999999998;" x1="681.8704" x2="908.52" y1="945.3937" y2="945.3937"/><text fill="#000000" font-family="sans-serif" font-size="9.1" lengthAdjust="spacing" textLength="120.3928" x="686.7704" y="941.7099">save(url, response, 24*60*60)</text><polygon fill="#181818" points="1018.7451,964.4975,1025.7451,967.2975,1018.7451,970.0975,1021.5451,967.2975" style="stroke:#181818;stroke-width:0.6999999999999998;"/><line style="stroke:#181818;stroke-width:0.6999999999999998;" x1="912.72" x2="1022.9451" y1="967.2975" y2="967.2975"/><text fill="#000000" font-family="sans-serif" font-size="9.1" lengthAdjust="spacing" textLength="97.625" x="917.62" y="963.6136">setex(url, 86.400, value)</text><polygon fill="#181818" points="516.9951,986.4012,509.9951,989.2012,516.9951,992.0012,514.1951,989.2012" style="stroke:#181818;stroke-width:0.6999999999999998;"/><line style="stroke:#181818;stroke-width:0.6999999999999998;stroke-dasharray:2.0,2.0;" x1="512.7951" x2="681.1704" y1="989.2012" y2="989.2012"/><text fill="#000000" font-family="sans-serif" font-size="9.1" lengthAdjust="spacing" textLength="155.7753" x="521.1951" y="985.5173">Response met Origin.EXTERNAL_API</text><polygon fill="#181818" points="255.8859,1008.3049,248.8859,1011.1049,255.8859,1013.9049,253.0859,1011.1049" style="stroke:#181818;stroke-width:0.6999999999999998;"/><line style="stroke:#181818;stroke-width:0.6999999999999998;stroke-dasharray:2.0,2.0;" x1="251.6859" x2="508.5951" y1="1011.1049" y2="1011.1049"/><text fill="#000000" font-family="sans-serif" font-size="9.1" lengthAdjust="spacing" textLength="73.3332" x="260.0859" y="1007.421">Verwerkt resultaat</text><polygon fill="#181818" points="50.412,1030.2086,43.412,1033.0086,50.412,1035.8086,47.612,1033.0086" style="stroke:#181818;stroke-width:0.6999999999999998;"/><line style="stroke:#181818;stroke-width:0.6999999999999998;stroke-dasharray:2.0,2.0;" x1="46.212" x2="247.4859" y1="1033.0086" y2="1033.0086"/><text fill="#000000" font-family="sans-serif" font-size="9.1" lengthAdjust="spacing" textLength="131.9989" x="54.612" y="1029.3247">200 OK met vluchtprijs (van API)</text><line style="stroke:#000000;stroke-width:0.6999999999999998;stroke-dasharray:2.0,2.0;" x1="7" x2="1072.7367" y1="1039.3086" y2="1039.3086"/><text fill="#000000" font-family="sans-serif" font-size="7.7" font-weight="bold" lengthAdjust="spacing" textLength="35.9358" x="10.5" y="1047.6177">[API faalt]</text><polygon fill="#181818" points="689.5704,1063.7539,682.5704,1066.5539,689.5704,1069.3539,686.7704,1066.5539" style="stroke:#181818;stroke-width:0.6999999999999998;"/><line style="stroke:#181818;stroke-width:0.6999999999999998;stroke-dasharray:2.0,2.0;" x1="685.3704" x2="810.2452" y1="1066.5539" y2="1066.5539"/><text fill="#000000" font-family="sans-serif" font-size="9.1" lengthAdjust="spacing" textLength="82.451" x="693.7704" y="1062.87">Exception of timeout</text><path d="M633.5,1075.6539 L633.5,1094.5539 L729.4,1094.5539 L729.4,1082.6539 L722.4,1075.6539 L633.5,1075.6539 " fill="#FEFFDD" style="stroke:#181818;stroke-width:0.3499999999999999;"/><path d="M722.4,1075.6539 L722.4,1082.6539 L729.4,1082.6539 L722.4,1075.6539 " fill="#FEFFDD" style="stroke:#181818;stroke-width:0.3499999999999999;"/><text fill="#000000" font-family="sans-serif" font-size="9.1" lengthAdjust="spacing" textLength="81.4379" x="637.7" y="1088.9737">Fallback naar cache</text><polygon fill="#181818" points="904.32,1111.7613,911.32,1114.5613,904.32,1117.3613,907.12,1114.5613" style="stroke:#181818;stroke-width:0.6999999999999998;"/><line style="stroke:#181818;stroke-width:0.6999999999999998;" x1="681.8704" x2="908.52" y1="1114.5613" y2="1114.5613"/><text fill="#000000" font-family="sans-serif" font-size="9.1" lengthAdjust="spacing" textLength="28.8241" x="686.7704" y="1110.8774">get(url)</text><polygon fill="#181818" points="1018.7451,1133.665,1025.7451,1136.465,1018.7451,1139.265,1021.5451,1136.465" style="stroke:#181818;stroke-width:0.6999999999999998;"/><line style="stroke:#181818;stroke-width:0.6999999999999998;" x1="912.72" x2="1022.9451" y1="1136.465" y2="1136.465"/><text fill="#000000" font-family="sans-serif" font-size="9.1" lengthAdjust="spacing" textLength="28.8241" x="917.62" y="1132.7812">get(url)</text><path d="M14,1146.965 L56.1196,1146.965 L56.1196,1153.4687 L49.1196,1160.4687 L14,1160.4687 L14,1146.965 " fill="#EEEEEE" style="stroke:#000000;stroke-width:1.0499999999999998;"/><rect fill="none" height="244.1824" style="stroke:#000000;stroke-width:1.0499999999999998;" width="1051.7367" x="14" y="1146.965"/><text fill="#000000" font-family="sans-serif" font-size="9.1" font-weight="bold" lengthAdjust="spacing" textLength="10.6196" x="24.5" y="1157.4849">alt</text><text fill="#000000" font-family="sans-serif" font-size="7.7" font-weight="bold" lengthAdjust="spacing" textLength="39.7858" x="66.6196" y="1156.6741">[Cache hit]</text><polygon fill="#181818" points="920.42,1173.9725,913.42,1176.7725,920.42,1179.5725,917.62,1176.7725" style="stroke:#181818;stroke-width:0.6999999999999998;"/><line style="stroke:#181818;stroke-width:0.6999999999999998;stroke-dasharray:2.0,2.0;" x1="916.22" x2="1026.4451" y1="1176.7725" y2="1176.7725"/><text fill="#000000" font-family="sans-serif" font-size="9.1" lengthAdjust="spacing" textLength="69.3075" x="924.62" y="1173.0886">cached response</text><polygon fill="#181818" points="689.5704,1195.8762,682.5704,1198.6762,689.5704,1201.4762,686.7704,1198.6762" style="stroke:#181818;stroke-width:0.6999999999999998;"/><line style="stroke:#181818;stroke-width:0.6999999999999998;stroke-dasharray:2.0,2.0;" x1="685.3704" x2="912.02" y1="1198.6762" y2="1198.6762"/><text fill="#000000" font-family="sans-serif" font-size="9.1" lengthAdjust="spacing" textLength="197.2541" x="693.7704" y="1194.9923">Optional&lt;Response&gt; met Origin.REDIS_CACHE</text><polygon fill="#181818" points="516.9951,1217.7799,509.9951,1220.5799,516.9951,1223.3799,514.1951,1220.5799" style="stroke:#181818;stroke-width:0.6999999999999998;"/><line style="stroke:#181818;stroke-width:0.6999999999999998;stroke-dasharray:2.0,2.0;" x1="512.7951" x2="681.1704" y1="1220.5799" y2="1220.5799"/><text fill="#000000" font-family="sans-serif" font-size="9.1" lengthAdjust="spacing" textLength="79.9271" x="521.1951" y="1216.896">Response uit cache</text><polygon fill="#181818" points="255.8859,1239.6836,248.8859,1242.4836,255.8859,1245.2836,253.0859,1242.4836" style="stroke:#181818;stroke-width:0.6999999999999998;"/><line style="stroke:#181818;stroke-width:0.6999999999999998;stroke-dasharray:2.0,2.0;" x1="251.6859" x2="508.5951" y1="1242.4836" y2="1242.4836"/><text fill="#000000" font-family="sans-serif" font-size="9.1" lengthAdjust="spacing" textLength="73.3332" x="260.0859" y="1238.7997">Verwerkt resultaat</text><polygon fill="#181818" points="50.412,1261.5873,43.412,1264.3873,50.412,1267.1873,47.612,1264.3873" style="stroke:#181818;stroke-width:0.6999999999999998;"/><line style="stroke:#181818;stroke-width:0.6999999999999998;stroke-dasharray:2.0,2.0;" x1="46.212" x2="247.4859" y1="1264.3873" y2="1264.3873"/><text fill="#000000" font-family="sans-serif" font-size="9.1" lengthAdjust="spacing" textLength="141.6143" x="54.612" y="1260.7034">200 OK met vluchtprijs (van cache)</text><line style="stroke:#000000;stroke-width:0.6999999999999998;stroke-dasharray:2.0,2.0;" x1="14" x2="1065.7367" y1="1270.6873" y2="1270.6873"/><text fill="#000000" font-family="sans-serif" font-size="7.7" font-weight="bold" lengthAdjust="spacing" textLength="47.9295" x="17.5" y="1278.9964">[Cache miss]</text><polygon fill="#181818" points="920.42,1295.1326,913.42,1297.9326,920.42,1300.7326,917.62,1297.9326" style="stroke:#181818;stroke-width:0.6999999999999998;"/><line style="stroke:#181818;stroke-width:0.6999999999999998;stroke-dasharray:2.0,2.0;" x1="916.22" x2="1026.4451" y1="1297.9326" y2="1297.9326"/><text fill="#000000" font-family="sans-serif" font-size="9.1" lengthAdjust="spacing" textLength="14.1654" x="924.62" y="1294.2487">null</text><polygon fill="#181818" points="689.5704,1317.0363,682.5704,1319.8363,689.5704,1322.6363,686.7704,1319.8363" style="stroke:#181818;stroke-width:0.6999999999999998;"/><line style="stroke:#181818;stroke-width:0.6999999999999998;stroke-dasharray:2.0,2.0;" x1="685.3704" x2="912.02" y1="1319.8363" y2="1319.8363"/><text fill="#000000" font-family="sans-serif" font-size="9.1" lengthAdjust="spacing" textLength="67.2636" x="693.7704" y="1316.1524">Optional.empty()</text><polygon fill="#181818" points="516.9951,1338.94,509.9951,1341.74,516.9951,1344.54,514.1951,1341.74" style="stroke:#181818;stroke-width:0.6999999999999998;"/><line style="stroke:#181818;stroke-width:0.6999999999999998;stroke-dasharray:2.0,2.0;" x1="512.7951" x2="681.1704" y1="1341.74" y2="1341.74"/><text fill="#000000" font-family="sans-serif" font-size="9.1" lengthAdjust="spacing" textLength="67.2636" x="521.1951" y="1338.0562">Optional.empty()</text><polygon fill="#181818" points="255.8859,1360.8437,248.8859,1363.6437,255.8859,1366.4437,253.0859,1363.6437" style="stroke:#181818;stroke-width:0.6999999999999998;"/><line style="stroke:#181818;stroke-width:0.6999999999999998;stroke-dasharray:2.0,2.0;" x1="251.6859" x2="508.5951" y1="1363.6437" y2="1363.6437"/><text fill="#000000" font-family="sans-serif" font-size="9.1" lengthAdjust="spacing" textLength="79.9271" x="260.0859" y="1359.9599">NotFoundException</text><polygon fill="#181818" points="50.412,1382.7475,43.412,1385.5475,50.412,1388.3475,47.612,1385.5475" style="stroke:#181818;stroke-width:0.6999999999999998;"/><line style="stroke:#181818;stroke-width:0.6999999999999998;stroke-dasharray:2.0,2.0;" x1="46.212" x2="247.4859" y1="1385.5475" y2="1385.5475"/><text fill="#000000" font-family="sans-serif" font-size="9.1" lengthAdjust="spacing" textLength="60.2031" x="54.612" y="1381.8636">404 Not Found</text><!--SRC=[tLPjJnf14Fv-ls8-GeEAXfY651EBXzgg6C2c7qpCSZV0wh5xtTsZsb_VVG6yAtSWBtr92UI0tPbvzfbdPqPH5I5qyLk2B408AHaACgw3_wnGC0I9Oa83b7e5WL5Kq4SPZEXJdn01F-WZypmIA2wW9JXJo48l9aBHWCQ4AMX5T3XIigcN18yY57chNHVZSXn7cMM7WKIdjvSNX8NQUc7BHywVA1lg7Pc_EnXIsIJ123iOSqarlfS5spj61nJ3JsQlvytWmzx98kewdFizE1Yu_m-6gDoMMw5ntxCI5tH8MGL2b8eoeYYtFqoqHE0PKLW1WVexCz_BtaA0LDGK6tN8HbexZiUuGk0J7I3F-pKXJuOidNofWFSVCL0mrZc-wrm1CXWX2L5eSXeDw0R8YA0S3kiG4aMkoSivgdQYz0yCeG434ac44ce31O7X7W9tFXJ8oj1eUDuY27Fm_3pNjVPOE0LN4kvPSM4o9oioBqPvp_nyb9wNxyoWBDAKJL8f4L7PAzfYpDDgIvbu959WJM14bGVwbTu9UqiZsmE4EkKovaoYDIy6iOJgTcoqHA8FdQch4wk3jjNRViS_k-m-D4-R5xuDKKHIWOXdFY6XKywjbpmnv5- -BoY-ez1IrGTD8aM8IZj8to9ZFxt8TJYgLg7zsHva4YN1ICM2FaeeJGXpC3JzQ4Jh-1zJATTD04kYQ7lMzt4SgvUIXhECtPDKjQl3HQztQwlIz6OuMwCclGmo2NJHdd07phnURPT2icvJn6KPNmwlc2P99cZqNfbBjGA7rVBSvzilZaI5pyxLORK24n8bM5w9RPKmKrhtl_RypitfrOFfAJE_MqjrMxbgC5DrMC6QB0w8JlQwwVMV0xIY0pu0HSV84xKfUmlgNP-j6wvQF67X7DQRoQfLQyOQhBaZHZ_D9zkjZWhwW1B9l5aPqWXXWcECp7QOg4-29s1cn765ObVTouJTl7aPwrdlMWrwMJDRNadogyXEAiYkgiTHxTrnLR_BtiRru_tnVgsQhI6_etxyrJRdwaPEpTYcNbW7goNSofFafXgO3qphfVjrpffrn-oijODvwm_DNBkRk_w9XZQRl-OjxPSPRDCvR7UpsF_J5LrR_0a0]--></g></svg>