<svg xmlns="http://www.w3.org/2000/svg" xmlns:xlink="http://www.w3.org/1999/xlink" contentStyleType="text/css" height="1180px" preserveAspectRatio="none" style="width:1112px;height:1180px;background:#FFFFFF;" version="1.1" viewBox="0 0 1112 1180" width="1112px" zoomAndPan="magnify"><title>C4 Class Diagram: Externe services die niet beschikbaar zijn</title><defs/><g><text fill="#000000" font-family="sans-serif" font-size="14" font-weight="bold" lengthAdjust="spacing" textLength="404.626" x="346.687" y="25.1074">C4 Class Diagram: Externe services die niet beschikbaar zijn</text><!--cluster controller--><g id="cluster_controller"><path d="M343.5,45.6348 L409.0654,45.6348 A3.75,3.75 0 0 1 411.5654,48.1348 L418.5654,70.2559 L1102.5,70.2559 A2.5,2.5 0 0 1 1105,72.7559 L1105,181.1348 A2.5,2.5 0 0 1 1102.5,183.6348 L343.5,183.6348 A2.5,2.5 0 0 1 341,181.1348 L341,48.1348 A2.5,2.5 0 0 1 343.5,45.6348 " fill="none" style="stroke:#000000;stroke-width:1.5;"/><line style="stroke:#000000;stroke-width:1.5;" x1="341" x2="418.5654" y1="70.2559" y2="70.2559"/><text fill="#000000" font-family="sans-serif" font-size="14" font-weight="bold" lengthAdjust="spacing" textLength="64.5654" x="345" y="62.7422">controller</text></g><!--cluster service--><g id="cluster_service"><path d="M401.5,207.6348 L450.7686,207.6348 A3.75,3.75 0 0 1 453.2686,210.1348 L460.2686,232.2559 L1044.5,232.2559 A2.5,2.5 0 0 1 1047,234.7559 L1047,525.1348 A2.5,2.5 0 0 1 1044.5,527.6348 L401.5,527.6348 A2.5,2.5 0 0 1 399,525.1348 L399,210.1348 A2.5,2.5 0 0 1 401.5,207.6348 " fill="none" style="stroke:#000000;stroke-width:1.5;"/><line style="stroke:#000000;stroke-width:1.5;" x1="399" x2="460.2686" y1="232.2559" y2="232.2559"/><text fill="#000000" font-family="sans-serif" font-size="14" font-weight="bold" lengthAdjust="spacing" textLength="48.2686" x="403" y="224.7422">service</text></g><!--cluster api--><g id="cluster_api"><path d="M8.5,551.6348 L29.7275,551.6348 A3.75,3.75 0 0 1 32.2275,554.1348 L39.2275,576.2559 L1011.5,576.2559 A2.5,2.5 0 0 1 1014,578.7559 L1014,845.1348 A2.5,2.5 0 0 1 1011.5,847.6348 L8.5,847.6348 A2.5,2.5 0 0 1 6,845.1348 L6,554.1348 A2.5,2.5 0 0 1 8.5,551.6348 " fill="none" style="stroke:#000000;stroke-width:1.5;"/><line style="stroke:#000000;stroke-width:1.5;" x1="6" x2="39.2275" y1="576.2559" y2="576.2559"/><text fill="#000000" font-family="sans-serif" font-size="14" font-weight="bold" lengthAdjust="spacing" textLength="20.2275" x="10" y="568.7422">api</text></g><!--cluster repository--><g id="cluster_repository"><path d="M486.5,871.6348 L555.9619,871.6348 A3.75,3.75 0 0 1 558.4619,874.1348 L565.4619,896.2559 L959.5,896.2559 A2.5,2.5 0 0 1 962,898.7559 L962,1171.1348 A2.5,2.5 0 0 1 959.5,1173.6348 L486.5,1173.6348 A2.5,2.5 0 0 1 484,1171.1348 L484,874.1348 A2.5,2.5 0 0 1 486.5,871.6348 " fill="none" style="stroke:#000000;stroke-width:1.5;"/><line style="stroke:#000000;stroke-width:1.5;" x1="484" x2="565.4619" y1="896.2559" y2="896.2559"/><text fill="#000000" font-family="sans-serif" font-size="14" font-weight="bold" lengthAdjust="spacing" textLength="68.4619" x="488" y="888.7422">repository</text></g><!--class FlightsController--><g id="elem_FlightsController"><rect codeLine="9" fill="#F1F1F1" height="85.2422" id="FlightsController" rx="2.5" ry="2.5" style="stroke:#181818;stroke-width:0.5;" width="731.8174" x="357" y="82.6348"/><ellipse cx="667.6968" cy="98.6348" fill="#ADD1B2" rx="11" ry="11" style="stroke:#181818;stroke-width:1.0;"/><path d="M670.4624,94.5098 Q670.6187,94.291 670.8062,94.1816 Q670.9937,94.0723 671.2124,94.0723 Q671.5874,94.0723 671.8218,94.3379 Q672.0562,94.5879 672.0562,95.1973 L672.0562,96.6504 Q672.0562,97.2598 671.8218,97.5254 Q671.5874,97.791 671.2124,97.791 Q670.8687,97.791 670.6655,97.5879 Q670.4624,97.4004 670.353,96.8848 Q670.3062,96.5254 670.1187,96.3379 Q669.7905,95.9629 669.1812,95.7441 Q668.5718,95.5254 667.9468,95.5254 Q667.1812,95.5254 666.5405,95.8535 Q665.9155,96.1816 665.4155,96.9316 Q664.9312,97.6816 664.9312,98.7129 L664.9312,99.8066 Q664.9312,101.041 665.8218,101.8691 Q666.7124,102.6816 668.3062,102.6816 Q669.2437,102.6816 669.8999,102.4316 Q670.2905,102.2754 670.7124,101.8379 Q670.978,101.5723 671.1187,101.4941 Q671.2749,101.416 671.478,101.416 Q671.8062,101.416 672.0562,101.6816 Q672.3218,101.9316 672.3218,102.2754 Q672.3218,102.6191 671.978,103.0254 Q671.478,103.6035 670.6812,103.9316 Q669.603,104.3848 668.3062,104.3848 Q666.7905,104.3848 665.5874,103.7598 Q664.603,103.2598 663.9155,102.1973 Q663.228,101.1191 663.228,99.8379 L663.228,98.6816 Q663.228,97.3535 663.8374,96.2129 Q664.4624,95.0566 665.5562,94.4473 Q666.6499,93.8223 667.8843,93.8223 Q668.6187,93.8223 669.2593,93.9941 Q669.9155,94.1504 670.4624,94.5098 Z " fill="#000000"/><text fill="#000000" font-family="sans-serif" font-size="14" lengthAdjust="spacing" textLength="101.9238" x="688.1968" y="104.4316">FlightsController</text><line style="stroke:#181818;stroke-width:0.5;" x1="358" x2="1087.8174" y1="114.6348" y2="114.6348"/><line style="stroke:#181818;stroke-width:0.5;" x1="358" x2="1087.8174" y1="122.6348" y2="122.6348"/><text fill="#000000" font-family="sans-serif" font-size="14" lengthAdjust="spacing" textLength="319.8262" x="363" y="141.7422">getAirportId(query: String): ResponseEntity&lt;String&gt;</text><text fill="#000000" font-family="sans-serif" font-size="14" lengthAdjust="spacing" textLength="719.8174" x="363" y="160.3633">getFlightPrice(origin: String, destination: String, departureDate: String, returnDate: String): ResponseEntity&lt;Double&gt;</text></g><!--class FlightsService--><g id="elem_FlightsService"><rect codeLine="16" fill="#F1F1F1" height="85.2422" id="FlightsService" rx="2.5" ry="2.5" style="stroke:#181818;stroke-width:0.5;" width="615.0869" x="415.5" y="244.6348"/><ellipse cx="674.835" cy="260.6348" fill="#B4A7E5" rx="11" ry="11" style="stroke:#181818;stroke-width:1.0;"/><path d="M675.7881,257.2754 L675.7881,263.9316 L677.5068,263.9316 Q678.1162,263.9316 678.3818,264.166 Q678.6475,264.4004 678.6475,264.791 Q678.6475,265.166 678.3818,265.4004 Q678.1162,265.6348 677.5068,265.6348 L672.3662,265.6348 Q671.7568,265.6348 671.4912,265.4004 Q671.2256,265.166 671.2256,264.7754 Q671.2256,264.4004 671.4912,264.166 Q671.7568,263.9316 672.3662,263.9316 L674.085,263.9316 L674.085,257.2754 L672.3662,257.2754 Q671.7568,257.2754 671.4912,257.041 Q671.2256,256.8066 671.2256,256.416 Q671.2256,256.041 671.4912,255.8066 Q671.7568,255.5723 672.3662,255.5723 L677.5068,255.5723 Q678.1162,255.5723 678.3818,255.8066 Q678.6475,256.041 678.6475,256.416 Q678.6475,256.8066 678.3818,257.041 Q678.1162,257.2754 677.5068,257.2754 L675.7881,257.2754 Z " fill="#000000"/><text fill="#000000" font-family="sans-serif" font-size="14" font-style="italic" lengthAdjust="spacing" textLength="87.917" x="695.335" y="266.4316">FlightsService</text><line style="stroke:#181818;stroke-width:0.5;" x1="416.5" x2="1029.5869" y1="276.6348" y2="276.6348"/><line style="stroke:#181818;stroke-width:0.5;" x1="416.5" x2="1029.5869" y1="284.6348" y2="284.6348"/><text fill="#000000" font-family="sans-serif" font-size="14" lengthAdjust="spacing" textLength="205.4199" x="421.5" y="303.7422">getAirportId(query: String): String</text><text fill="#000000" font-family="sans-serif" font-size="14" lengthAdjust="spacing" textLength="603.0869" x="421.5" y="322.3633">getFlightPrice(origin: String, destination: String, departureDate: String, returnDate: String): double</text></g><!--class FlightsServiceImpl--><g id="elem_FlightsServiceImpl"><rect codeLine="21" fill="#F1F1F1" height="122.4844" id="FlightsServiceImpl" rx="2.5" ry="2.5" style="stroke:#181818;stroke-width:0.5;" width="615.0869" x="415.5" y="389.6348"/><ellipse cx="661.6108" cy="405.6348" fill="#ADD1B2" rx="11" ry="11" style="stroke:#181818;stroke-width:1.0;"/><path d="M664.3765,401.5098 Q664.5327,401.291 664.7202,401.1816 Q664.9077,401.0723 665.1265,401.0723 Q665.5015,401.0723 665.7358,401.3379 Q665.9702,401.5879 665.9702,402.1973 L665.9702,403.6504 Q665.9702,404.2598 665.7358,404.5254 Q665.5015,404.791 665.1265,404.791 Q664.7827,404.791 664.5796,404.5879 Q664.3765,404.4004 664.2671,403.8848 Q664.2202,403.5254 664.0327,403.3379 Q663.7046,402.9629 663.0952,402.7441 Q662.4858,402.5254 661.8608,402.5254 Q661.0952,402.5254 660.4546,402.8535 Q659.8296,403.1816 659.3296,403.9316 Q658.8452,404.6816 658.8452,405.7129 L658.8452,406.8066 Q658.8452,408.041 659.7358,408.8691 Q660.6265,409.6816 662.2202,409.6816 Q663.1577,409.6816 663.814,409.4316 Q664.2046,409.2754 664.6265,408.8379 Q664.8921,408.5723 665.0327,408.4941 Q665.189,408.416 665.3921,408.416 Q665.7202,408.416 665.9702,408.6816 Q666.2358,408.9316 666.2358,409.2754 Q666.2358,409.6191 665.8921,410.0254 Q665.3921,410.6035 664.5952,410.9316 Q663.5171,411.3848 662.2202,411.3848 Q660.7046,411.3848 659.5015,410.7598 Q658.5171,410.2598 657.8296,409.1973 Q657.1421,408.1191 657.1421,406.8379 L657.1421,405.6816 Q657.1421,404.3535 657.7515,403.2129 Q658.3765,402.0566 659.4702,401.4473 Q660.564,400.8223 661.7983,400.8223 Q662.5327,400.8223 663.1733,400.9941 Q663.8296,401.1504 664.3765,401.5098 Z " fill="#000000"/><text fill="#000000" font-family="sans-serif" font-size="14" lengthAdjust="spacing" textLength="114.3652" x="682.1108" y="411.4316">FlightsServiceImpl</text><line style="stroke:#181818;stroke-width:0.5;" x1="416.5" x2="1029.5869" y1="421.6348" y2="421.6348"/><text fill="#000000" font-family="sans-serif" font-size="14" lengthAdjust="spacing" textLength="118.2891" x="421.5" y="440.7422">rapidapiKey: String</text><line style="stroke:#181818;stroke-width:0.5;" x1="416.5" x2="1029.5869" y1="448.2559" y2="448.2559"/><text fill="#000000" font-family="sans-serif" font-size="14" lengthAdjust="spacing" textLength="205.4199" x="421.5" y="467.3633">getAirportId(query: String): String</text><text fill="#000000" font-family="sans-serif" font-size="14" lengthAdjust="spacing" textLength="603.0869" x="421.5" y="485.9844">getFlightPrice(origin: String, destination: String, departureDate: String, returnDate: String): double</text><text fill="#000000" font-family="sans-serif" font-size="14" lengthAdjust="spacing" textLength="303.4678" x="421.5" y="504.6055">getCommonHeaders(): HashMap&lt;String, String&gt;</text></g><!--class ExternalAPIHandler--><g id="elem_ExternalAPIHandler"><rect codeLine="30" fill="#F1F1F1" height="66.6211" id="ExternalAPIHandler" rx="2.5" ry="2.5" style="stroke:#181818;stroke-width:0.5;" width="549.0107" x="448.5" y="604.1348"/><ellipse cx="657.2798" cy="620.1348" fill="#B4A7E5" rx="11" ry="11" style="stroke:#181818;stroke-width:1.0;"/><path d="M658.2329,616.7754 L658.2329,623.4316 L659.9517,623.4316 Q660.561,623.4316 660.8267,623.666 Q661.0923,623.9004 661.0923,624.291 Q661.0923,624.666 660.8267,624.9004 Q660.561,625.1348 659.9517,625.1348 L654.811,625.1348 Q654.2017,625.1348 653.936,624.9004 Q653.6704,624.666 653.6704,624.2754 Q653.6704,623.9004 653.936,623.666 Q654.2017,623.4316 654.811,623.4316 L656.5298,623.4316 L656.5298,616.7754 L654.811,616.7754 Q654.2017,616.7754 653.936,616.541 Q653.6704,616.3066 653.6704,615.916 Q653.6704,615.541 653.936,615.3066 Q654.2017,615.0723 654.811,615.0723 L659.9517,615.0723 Q660.561,615.0723 660.8267,615.3066 Q661.0923,615.541 661.0923,615.916 Q661.0923,616.3066 660.8267,616.541 Q660.561,616.7754 659.9517,616.7754 L658.2329,616.7754 Z " fill="#000000"/><text fill="#000000" font-family="sans-serif" font-size="14" font-style="italic" lengthAdjust="spacing" textLength="122.9512" x="677.7798" y="625.9316">ExternalAPIHandler</text><line style="stroke:#181818;stroke-width:0.5;" x1="449.5" x2="996.5107" y1="636.1348" y2="636.1348"/><line style="stroke:#181818;stroke-width:0.5;" x1="449.5" x2="996.5107" y1="644.1348" y2="644.1348"/><text fill="#000000" font-family="sans-serif" font-size="14" lengthAdjust="spacing" textLength="537.0107" x="454.5" y="663.2422">sendRequest(request: Request, dataMayGetOutdated: boolean): Optional&lt;Response&gt;</text></g><!--class ExternalAPIHandlerImpl--><g id="elem_ExternalAPIHandlerImpl"><rect codeLine="34" fill="#F1F1F1" height="85.2422" id="ExternalAPIHandlerImpl" rx="2.5" ry="2.5" style="stroke:#181818;stroke-width:0.5;" width="549.0107" x="448.5" y="746.6348"/><ellipse cx="644.0557" cy="762.6348" fill="#ADD1B2" rx="11" ry="11" style="stroke:#181818;stroke-width:1.0;"/><path d="M646.8213,758.5098 Q646.9775,758.291 647.165,758.1816 Q647.3525,758.0723 647.5713,758.0723 Q647.9463,758.0723 648.1807,758.3379 Q648.415,758.5879 648.415,759.1973 L648.415,760.6504 Q648.415,761.2598 648.1807,761.5254 Q647.9463,761.791 647.5713,761.791 Q647.2275,761.791 647.0244,761.5879 Q646.8213,761.4004 646.7119,760.8848 Q646.665,760.5254 646.4775,760.3379 Q646.1494,759.9629 645.54,759.7441 Q644.9307,759.5254 644.3057,759.5254 Q643.54,759.5254 642.8994,759.8535 Q642.2744,760.1816 641.7744,760.9316 Q641.29,761.6816 641.29,762.7129 L641.29,763.8066 Q641.29,765.041 642.1807,765.8691 Q643.0713,766.6816 644.665,766.6816 Q645.6025,766.6816 646.2588,766.4316 Q646.6494,766.2754 647.0713,765.8379 Q647.3369,765.5723 647.4775,765.4941 Q647.6338,765.416 647.8369,765.416 Q648.165,765.416 648.415,765.6816 Q648.6807,765.9316 648.6807,766.2754 Q648.6807,766.6191 648.3369,767.0254 Q647.8369,767.6035 647.04,767.9316 Q645.9619,768.3848 644.665,768.3848 Q643.1494,768.3848 641.9463,767.7598 Q640.9619,767.2598 640.2744,766.1973 Q639.5869,765.1191 639.5869,763.8379 L639.5869,762.6816 Q639.5869,761.3535 640.1963,760.2129 Q640.8213,759.0566 641.915,758.4473 Q643.0088,757.8223 644.2432,757.8223 Q644.9775,757.8223 645.6182,757.9941 Q646.2744,758.1504 646.8213,758.5098 Z " fill="#000000"/><text fill="#000000" font-family="sans-serif" font-size="14" lengthAdjust="spacing" textLength="149.3994" x="664.5557" y="768.4316">ExternalAPIHandlerImpl</text><line style="stroke:#181818;stroke-width:0.5;" x1="449.5" x2="996.5107" y1="778.6348" y2="778.6348"/><line style="stroke:#181818;stroke-width:0.5;" x1="449.5" x2="996.5107" y1="786.6348" y2="786.6348"/><text fill="#000000" font-family="sans-serif" font-size="14" lengthAdjust="spacing" textLength="537.0107" x="454.5" y="805.7422">sendRequest(request: Request, dataMayGetOutdated: boolean): Optional&lt;Response&gt;</text><text fill="#000000" font-family="sans-serif" font-size="14" lengthAdjust="spacing" textLength="350.1914" x="454.5" y="824.3633">callExternalAPI(request: Request): Optional&lt;Response&gt;</text></g><!--class Request--><g id="elem_Request"><rect codeLine="39" fill="#F1F1F1" height="97.8242" id="Request" rx="2.5" ry="2.5" style="stroke:#181818;stroke-width:0.5;" width="227.5645" x="185" y="588.6348"/><ellipse cx="268.46" cy="610.9258" fill="#ADD1B2" rx="11" ry="11" style="stroke:#181818;stroke-width:1.0;"/><path d="M271.2256,606.8008 Q271.3818,606.582 271.5693,606.4727 Q271.7568,606.3633 271.9756,606.3633 Q272.3506,606.3633 272.585,606.6289 Q272.8193,606.8789 272.8193,607.4883 L272.8193,608.9414 Q272.8193,609.5508 272.585,609.8164 Q272.3506,610.082 271.9756,610.082 Q271.6318,610.082 271.4287,609.8789 Q271.2256,609.6914 271.1162,609.1758 Q271.0693,608.8164 270.8818,608.6289 Q270.5537,608.2539 269.9443,608.0352 Q269.335,607.8164 268.71,607.8164 Q267.9443,607.8164 267.3037,608.1445 Q266.6787,608.4727 266.1787,609.2227 Q265.6943,609.9727 265.6943,611.0039 L265.6943,612.0977 Q265.6943,613.332 266.585,614.1602 Q267.4756,614.9727 269.0693,614.9727 Q270.0068,614.9727 270.6631,614.7227 Q271.0537,614.5664 271.4756,614.1289 Q271.7412,613.8633 271.8818,613.7852 Q272.0381,613.707 272.2412,613.707 Q272.5693,613.707 272.8193,613.9727 Q273.085,614.2227 273.085,614.5664 Q273.085,614.9102 272.7412,615.3164 Q272.2412,615.8945 271.4443,616.2227 Q270.3662,616.6758 269.0693,616.6758 Q267.5537,616.6758 266.3506,616.0508 Q265.3662,615.5508 264.6787,614.4883 Q263.9912,613.4102 263.9912,612.1289 L263.9912,610.9727 Q263.9912,609.6445 264.6006,608.5039 Q265.2256,607.3477 266.3193,606.7383 Q267.4131,606.1133 268.6475,606.1133 Q269.3818,606.1133 270.0225,606.2852 Q270.6787,606.4414 271.2256,606.8008 Z " fill="#000000"/><text fill="#000000" font-family="sans-serif" font-size="12" font-style="italic" lengthAdjust="spacing" textLength="47.3613" x="291.3516" y="606.584">&#171;record&#187;</text><text fill="#000000" font-family="sans-serif" font-size="14" lengthAdjust="spacing" textLength="52.1445" x="288.96" y="624.7031">Request</text><line style="stroke:#181818;stroke-width:0.5;" x1="186" x2="411.5645" y1="633.2168" y2="633.2168"/><text fill="#000000" font-family="sans-serif" font-size="14" lengthAdjust="spacing" textLength="59.9102" x="191" y="652.3242">url: String</text><text fill="#000000" font-family="sans-serif" font-size="14" lengthAdjust="spacing" textLength="215.5645" x="191" y="670.9453">headers: HashMap&lt;String, String&gt;</text><line style="stroke:#181818;stroke-width:0.5;" x1="186" x2="411.5645" y1="678.459" y2="678.459"/></g><!--class Response--><g id="elem_Response"><rect codeLine="44" fill="#F1F1F1" height="97.8242" id="Response" rx="2.5" ry="2.5" style="stroke:#181818;stroke-width:0.5;" width="127.9375" x="22" y="588.6348"/><ellipse cx="51.8034" cy="610.9258" fill="#ADD1B2" rx="11" ry="11" style="stroke:#181818;stroke-width:1.0;"/><path d="M54.569,606.8008 Q54.7253,606.582 54.9128,606.4727 Q55.1003,606.3633 55.319,606.3633 Q55.694,606.3633 55.9284,606.6289 Q56.1628,606.8789 56.1628,607.4883 L56.1628,608.9414 Q56.1628,609.5508 55.9284,609.8164 Q55.694,610.082 55.319,610.082 Q54.9753,610.082 54.7722,609.8789 Q54.569,609.6914 54.4597,609.1758 Q54.4128,608.8164 54.2253,608.6289 Q53.8972,608.2539 53.2878,608.0352 Q52.6784,607.8164 52.0534,607.8164 Q51.2878,607.8164 50.6472,608.1445 Q50.0222,608.4727 49.5222,609.2227 Q49.0378,609.9727 49.0378,611.0039 L49.0378,612.0977 Q49.0378,613.332 49.9284,614.1602 Q50.819,614.9727 52.4128,614.9727 Q53.3503,614.9727 54.0065,614.7227 Q54.3972,614.5664 54.819,614.1289 Q55.0847,613.8633 55.2253,613.7852 Q55.3815,613.707 55.5847,613.707 Q55.9128,613.707 56.1628,613.9727 Q56.4284,614.2227 56.4284,614.5664 Q56.4284,614.9102 56.0847,615.3164 Q55.5847,615.8945 54.7878,616.2227 Q53.7097,616.6758 52.4128,616.6758 Q50.8972,616.6758 49.694,616.0508 Q48.7097,615.5508 48.0222,614.4883 Q47.3347,613.4102 47.3347,612.1289 L47.3347,610.9727 Q47.3347,609.6445 47.944,608.5039 Q48.569,607.3477 49.6628,606.7383 Q50.7565,606.1133 51.9909,606.1133 Q52.7253,606.1133 53.3659,606.2852 Q54.0222,606.4414 54.569,606.8008 Z " fill="#000000"/><text fill="#000000" font-family="sans-serif" font-size="12" font-style="italic" lengthAdjust="spacing" textLength="47.3613" x="76.9329" y="606.584">&#171;record&#187;</text><text fill="#000000" font-family="sans-serif" font-size="14" lengthAdjust="spacing" textLength="63.041" x="69.0931" y="624.7031">Response</text><line style="stroke:#181818;stroke-width:0.5;" x1="23" x2="148.9375" y1="633.2168" y2="633.2168"/><text fill="#000000" font-family="sans-serif" font-size="14" lengthAdjust="spacing" textLength="93.3857" x="28" y="652.3242">statusCode: int</text><text fill="#000000" font-family="sans-serif" font-size="14" lengthAdjust="spacing" textLength="115.9375" x="28" y="670.9453">body: JSONObject</text><line style="stroke:#181818;stroke-width:0.5;" x1="23" x2="148.9375" y1="678.459" y2="678.459"/></g><!--class Origin--><g id="elem_Origin"><rect codeLine="49" fill="#F1F1F1" height="66.6211" id="Origin" rx="2.5" ry="2.5" style="stroke:#181818;stroke-width:0.5;" width="223.6201" x="22" y="755.6348"/><ellipse cx="110.8877" cy="771.6348" fill="#EB937F" rx="11" ry="11" style="stroke:#181818;stroke-width:1.0;"/><path d="M109.7471,772.4316 L109.7471,774.9316 L114.0752,774.9316 L114.0752,774.0098 Q114.0752,773.4004 114.3096,773.1348 Q114.5596,772.8691 114.9346,772.8691 Q115.3096,772.8691 115.5439,773.1348 Q115.7783,773.4004 115.7783,774.0098 L115.7783,776.6348 L107.7783,776.6348 Q107.1533,776.6348 106.8877,776.4004 Q106.6377,776.166 106.6377,775.7754 Q106.6377,775.4004 106.9033,775.166 Q107.1689,774.9316 107.7783,774.9316 L108.0439,774.9316 L108.0439,768.2754 L107.7783,768.2754 Q107.1533,768.2754 106.8877,768.041 Q106.6377,767.8066 106.6377,767.416 Q106.6377,767.041 106.8877,766.8066 Q107.1533,766.5723 107.7783,766.5723 L115.4033,766.5723 L115.4033,769.166 Q115.4033,769.7754 115.1689,770.041 Q114.9502,770.291 114.5596,770.291 Q114.1846,770.291 113.9502,770.041 Q113.7158,769.7754 113.7158,769.166 L113.7158,768.2754 L109.7471,768.2754 L109.7471,770.7285 L111.2314,770.7285 Q111.2314,770.0723 111.3564,769.8848 Q111.6221,769.4785 112.0908,769.4785 Q112.4658,769.4785 112.7002,769.7441 Q112.9346,769.9941 112.9346,770.6035 L112.9346,772.5723 Q112.9346,773.1191 112.8096,773.3066 Q112.5439,773.6973 112.0908,773.6973 Q111.6221,773.6973 111.3564,773.291 Q111.2314,773.1035 111.2314,772.4316 L109.7471,772.4316 Z " fill="#000000"/><text fill="#000000" font-family="sans-serif" font-size="14" lengthAdjust="spacing" textLength="37.3447" x="131.3877" y="777.4316">Origin</text><line style="stroke:#181818;stroke-width:0.5;" x1="23" x2="244.6201" y1="787.6348" y2="787.6348"/><text fill="#000000" font-family="sans-serif" font-size="14" lengthAdjust="spacing" textLength="211.6201" x="28" y="806.7422">EXTERNAL_API, REDIS_CACHE</text><line style="stroke:#181818;stroke-width:0.5;" x1="23" x2="244.6201" y1="814.2559" y2="814.2559"/></g><!--class CacheRepository--><g id="elem_CacheRepository"><rect codeLine="55" fill="#F1F1F1" height="85.2422" id="CacheRepository" rx="2.5" ry="2.5" style="stroke:#181818;stroke-width:0.5;" width="445.4463" x="500.5" y="908.6348"/><ellipse cx="665.2803" cy="924.6348" fill="#B4A7E5" rx="11" ry="11" style="stroke:#181818;stroke-width:1.0;"/><path d="M666.2334,921.2754 L666.2334,927.9316 L667.9521,927.9316 Q668.5615,927.9316 668.8271,928.166 Q669.0928,928.4004 669.0928,928.791 Q669.0928,929.166 668.8271,929.4004 Q668.5615,929.6348 667.9521,929.6348 L662.8115,929.6348 Q662.2021,929.6348 661.9365,929.4004 Q661.6709,929.166 661.6709,928.7754 Q661.6709,928.4004 661.9365,928.166 Q662.2021,927.9316 662.8115,927.9316 L664.5303,927.9316 L664.5303,921.2754 L662.8115,921.2754 Q662.2021,921.2754 661.9365,921.041 Q661.6709,920.8066 661.6709,920.416 Q661.6709,920.041 661.9365,919.8066 Q662.2021,919.5723 662.8115,919.5723 L667.9521,919.5723 Q668.5615,919.5723 668.8271,919.8066 Q669.0928,920.041 669.0928,920.416 Q669.0928,920.8066 668.8271,921.041 Q668.5615,921.2754 667.9521,921.2754 L666.2334,921.2754 Z " fill="#000000"/><text fill="#000000" font-family="sans-serif" font-size="14" font-style="italic" lengthAdjust="spacing" textLength="107.3857" x="685.7803" y="930.4316">CacheRepository</text><line style="stroke:#181818;stroke-width:0.5;" x1="501.5" x2="944.9463" y1="940.6348" y2="940.6348"/><line style="stroke:#181818;stroke-width:0.5;" x1="501.5" x2="944.9463" y1="948.6348" y2="948.6348"/><text fill="#000000" font-family="sans-serif" font-size="14" lengthAdjust="spacing" textLength="433.4463" x="506.5" y="967.7422">save(url: String, response: Response, keepForSeconds: Integer): void</text><text fill="#000000" font-family="sans-serif" font-size="14" lengthAdjust="spacing" textLength="228.0127" x="506.5" y="986.3633">get(url: String): Optional&lt;Response&gt;</text></g><!--class RedisCacheRepositoryImpl--><g id="elem_RedisCacheRepositoryImpl"><rect codeLine="60" fill="#F1F1F1" height="103.8633" id="RedisCacheRepositoryImpl" rx="2.5" ry="2.5" style="stroke:#181818;stroke-width:0.5;" width="445.4463" x="500.5" y="1053.6348"/><ellipse cx="634.1597" cy="1069.6348" fill="#ADD1B2" rx="11" ry="11" style="stroke:#181818;stroke-width:1.0;"/><path d="M636.9253,1065.5098 Q637.0815,1065.291 637.269,1065.1816 Q637.4565,1065.0723 637.6753,1065.0723 Q638.0503,1065.0723 638.2847,1065.3379 Q638.519,1065.5879 638.519,1066.1973 L638.519,1067.6504 Q638.519,1068.2598 638.2847,1068.5254 Q638.0503,1068.791 637.6753,1068.791 Q637.3315,1068.791 637.1284,1068.5879 Q636.9253,1068.4004 636.8159,1067.8848 Q636.769,1067.5254 636.5815,1067.3379 Q636.2534,1066.9629 635.644,1066.7441 Q635.0347,1066.5254 634.4097,1066.5254 Q633.644,1066.5254 633.0034,1066.8535 Q632.3784,1067.1816 631.8784,1067.9316 Q631.394,1068.6816 631.394,1069.7129 L631.394,1070.8066 Q631.394,1072.041 632.2847,1072.8691 Q633.1753,1073.6816 634.769,1073.6816 Q635.7065,1073.6816 636.3628,1073.4316 Q636.7534,1073.2754 637.1753,1072.8379 Q637.4409,1072.5723 637.5815,1072.4941 Q637.7378,1072.416 637.9409,1072.416 Q638.269,1072.416 638.519,1072.6816 Q638.7847,1072.9316 638.7847,1073.2754 Q638.7847,1073.6191 638.4409,1074.0254 Q637.9409,1074.6035 637.144,1074.9316 Q636.0659,1075.3848 634.769,1075.3848 Q633.2534,1075.3848 632.0503,1074.7598 Q631.0659,1074.2598 630.3784,1073.1973 Q629.6909,1072.1191 629.6909,1070.8379 L629.6909,1069.6816 Q629.6909,1068.3535 630.3003,1067.2129 Q630.9253,1066.0566 632.019,1065.4473 Q633.1128,1064.8223 634.3472,1064.8223 Q635.0815,1064.8223 635.7222,1064.9941 Q636.3784,1065.1504 636.9253,1065.5098 Z " fill="#000000"/><text fill="#000000" font-family="sans-serif" font-size="14" lengthAdjust="spacing" textLength="169.627" x="654.6597" y="1075.4316">RedisCacheRepositoryImpl</text><line style="stroke:#181818;stroke-width:0.5;" x1="501.5" x2="944.9463" y1="1085.6348" y2="1085.6348"/><text fill="#000000" font-family="sans-serif" font-size="14" lengthAdjust="spacing" textLength="157.9785" x="506.5" y="1104.7422">unifiedJedis: UnifiedJedis</text><line style="stroke:#181818;stroke-width:0.5;" x1="501.5" x2="944.9463" y1="1112.2559" y2="1112.2559"/><text fill="#000000" font-family="sans-serif" font-size="14" lengthAdjust="spacing" textLength="433.4463" x="506.5" y="1131.3633">save(url: String, response: Response, keepForSeconds: Integer): void</text><text fill="#000000" font-family="sans-serif" font-size="14" lengthAdjust="spacing" textLength="228.0127" x="506.5" y="1149.9844">get(url: String): Optional&lt;Response&gt;</text></g><!--link FlightsController to FlightsService--><g id="link_FlightsController_FlightsService"><path codeLine="84" d="M723,167.7548 C723,191.3648 723,214.8248 723,238.4448 " fill="none" id="FlightsController-to-FlightsService" style="stroke:#181818;stroke-width:1.0;"/><polygon fill="#181818" points="723,244.4448,727,235.4448,723,239.4448,719,235.4448,723,244.4448" style="stroke:#181818;stroke-width:1.0;"/><text fill="#000000" font-family="sans-serif" font-size="13" lengthAdjust="spacing" textLength="81.6499" x="635.5902" y="233.3186">flightService 1</text></g><!--reverse link FlightsService to FlightsServiceImpl--><g id="link_FlightsService_FlightsServiceImpl"><path codeLine="85" d="M723,347.7248 C723,365.9448 723,369.6848 723,389.6148 " fill="none" id="FlightsService-backto-FlightsServiceImpl" style="stroke:#181818;stroke-width:1.0;stroke-dasharray:7.0,7.0;"/><polygon fill="none" points="723,329.7248,717,347.7248,729,347.7248,723,329.7248" style="stroke:#181818;stroke-width:1.0;"/></g><!--link FlightsServiceImpl to ExternalAPIHandler--><g id="link_FlightsServiceImpl_ExternalAPIHandler"><path codeLine="86" d="M723,511.6948 C723,542.4048 723,572.5648 723,598.0548 " fill="none" id="FlightsServiceImpl-to-ExternalAPIHandler" style="stroke:#181818;stroke-width:1.0;"/><polygon fill="#181818" points="723,604.0548,727,595.0548,723,599.0548,719,595.0548,723,604.0548" style="stroke:#181818;stroke-width:1.0;"/><text fill="#000000" font-family="sans-serif" font-size="13" lengthAdjust="spacing" textLength="123.5698" x="587.9472" y="592.8645">externalAPIHandler 1</text></g><!--reverse link ExternalAPIHandler to ExternalAPIHandlerImpl--><g id="link_ExternalAPIHandler_ExternalAPIHandlerImpl"><path codeLine="87" d="M723,689.4448 C723,711.5348 723,722.8448 723,746.5648 " fill="none" id="ExternalAPIHandler-backto-ExternalAPIHandlerImpl" style="stroke:#181818;stroke-width:1.0;stroke-dasharray:7.0,7.0;"/><polygon fill="none" points="723,671.4448,717,689.4448,729,689.4448,723,671.4448" style="stroke:#181818;stroke-width:1.0;"/></g><!--link ExternalAPIHandlerImpl to CacheRepository--><g id="link_ExternalAPIHandlerImpl_CacheRepository"><path codeLine="88" d="M723,831.7548 C723,855.3648 723,878.8248 723,902.4448 " fill="none" id="ExternalAPIHandlerImpl-to-CacheRepository" style="stroke:#181818;stroke-width:1.0;"/><polygon fill="#181818" points="723,908.4448,727,899.4448,723,903.4448,719,899.4448,723,908.4448" style="stroke:#181818;stroke-width:1.0;"/><text fill="#000000" font-family="sans-serif" font-size="13" lengthAdjust="spacing" textLength="107.6689" x="607.4912" y="897.3186">cacheRepository 1</text></g><!--reverse link CacheRepository to RedisCacheRepositoryImpl--><g id="link_CacheRepository_RedisCacheRepositoryImpl"><path codeLine="89" d="M723,1011.8048 C723,1030.2348 723,1034.0848 723,1053.4948 " fill="none" id="CacheRepository-backto-RedisCacheRepositoryImpl" style="stroke:#181818;stroke-width:1.0;stroke-dasharray:7.0,7.0;"/><polygon fill="none" points="723,993.8048,717,1011.8048,729,1011.8048,723,993.8048" style="stroke:#181818;stroke-width:1.0;"/></g><!--link Response to Origin--><g id="link_Response_Origin"><path codeLine="90" d="M101.45,686.7648 C108.63,709.1248 115.1576,729.4314 121.5976,749.5114 " fill="none" id="Response-to-Origin" style="stroke:#181818;stroke-width:1.0;stroke-dasharray:7.0,7.0;"/><polygon fill="#181818" points="123.43,755.2248,124.4903,745.4332,121.903,750.4636,116.8725,747.8763,123.43,755.2248" style="stroke:#181818;stroke-width:1.0;"/><text fill="#000000" font-family="sans-serif" font-size="13" lengthAdjust="spacing" textLength="42.6372" x="75.703" y="744.4955">origin 1</text></g><!--SRC=[pLRRRXen47tVhnZn0fKIf4fzGWW9BH18cn11A_KjCki9E1XxQtkZqCk_T_O26BmelFI2XDWTZy-PCpCUuuIJ2F47Y2Mp5WQ2BGtRT63uwj0e18lcHIHeWGi49T310cso4ki5OmQ-YsSLHSsLu0Y9C8d4g6dNGgMCG40AXMwR8cZZLZgAd4x1QLXev_I600qcJcW2I5coPak4HgALCrfAD0tu4G5zaYAiaHJBbRFnVhbQpJzBT7rXKkAOyDQt3Css0tDdX5g-wy0CRQgLnQ5omcsxfRtdxosX7mo9R6aZbaBjjby1H-k4OdcGlf7KkSpWW3ayc0sIJVcsa7wWiuN4alvNzCiJNgLvfreeoluJIt2dV5wkNogxVFXhCdcXgv8LbgqAVh99fIV0i5Hm-dx4RLt0_wEuYYxMcurMOsGSZMsHovZPrHrBkpiSlysEwqnwmngNPut9_iDap1G_Rc-BYi-GSc1TovI_ULyL3oI4ENR7jZVeffcZ5-GTEbzQ8bCKrpJDPJFPtVLXBwnHI7vIfpyGGC7EfFIu0-WBmw-yeTkbQQ8Dx_Myq3CZWtPPbMLxgsX752LxFOTrp6KqcJZr39LqRrzeJarxEv_UJnVFDEXyN5JP1gP5etf8mw-VXxFx_gT7IiSLp8Q3oVmnxiVZOKqV6Kor5KwRRTXECKjMEDix-B6o5snvISaxljHs65LNi4PCHzhCIQlYbAW98I_HK45UjE3-GV2nBguN5_OamfE6ovHu4iXlSyyEVF7U_haGajA4VH7mDS72Cwz14muYRwHUCEhkQlbmg9kmRyF2TgzTBXutIA7n_OOMoJYpTFvEgy4UwKm5gCV6o_6gapPYGfw4Mh_o5dAHoqFEWiZswGeTwn9pphq-EC-xcUy8_s1SN_UWyLIOTvVl-yR9ZHRLN73jhFspTu5VWO_Xv2UIS2H7PwPqINQvVq6QdCm7OZmvaD7PKreIXkxLX6ot2R-yWNFOSiH5lm40]--></g></svg>