<svg xmlns="http://www.w3.org/2000/svg" xmlns:xlink="http://www.w3.org/1999/xlink" contentStyleType="text/css" height="1079px" preserveAspectRatio="none" style="width:1054px;height:1079px;background:#FFFFFF;" version="1.1" viewBox="0 0 1054 1079" width="1054px" zoomAndPan="magnify"><title>C4 Class Diagram: Externe services die niet beschikbaar zijn</title><defs/><g><text fill="#000000" font-family="sans-serif" font-size="14" font-weight="bold" lengthAdjust="spacing" textLength="404.626" x="317.687" y="25.1074">C4 Class Diagram: Externe services die niet beschikbaar zijn</text><!--cluster controller--><g id="cluster_controller"><path d="M33.5,45.6348 L99.0654,45.6348 A3.75,3.75 0 0 1 101.5654,48.1348 L108.5654,70.2559 L612.5,70.2559 A2.5,2.5 0 0 1 615,72.7559 L615,163.1348 A2.5,2.5 0 0 1 612.5,165.6348 L33.5,165.6348 A2.5,2.5 0 0 1 31,163.1348 L31,48.1348 A2.5,2.5 0 0 1 33.5,45.6348 " fill="none" style="stroke:#000000;stroke-width:1.5;"/><line style="stroke:#000000;stroke-width:1.5;" x1="31" x2="108.5654" y1="70.2559" y2="70.2559"/><text fill="#000000" font-family="sans-serif" font-size="14" font-weight="bold" lengthAdjust="spacing" textLength="64.5654" x="35" y="62.7422">controller</text></g><!--cluster service--><g id="cluster_service"><path d="M8.5,189.6348 L57.7686,189.6348 A3.75,3.75 0 0 1 60.2686,192.1348 L67.2686,214.2559 L637.5,214.2559 A2.5,2.5 0 0 1 640,216.7559 L640,434.1348 A2.5,2.5 0 0 1 637.5,436.6348 L8.5,436.6348 A2.5,2.5 0 0 1 6,434.1348 L6,192.1348 A2.5,2.5 0 0 1 8.5,189.6348 " fill="none" style="stroke:#000000;stroke-width:1.5;"/><line style="stroke:#000000;stroke-width:1.5;" x1="6" x2="67.2686" y1="214.2559" y2="214.2559"/><text fill="#000000" font-family="sans-serif" font-size="14" font-weight="bold" lengthAdjust="spacing" textLength="48.2686" x="10" y="206.7422">service</text></g><!--cluster api--><g id="cluster_api"><path d="M97.5,460.6348 L118.7275,460.6348 A3.75,3.75 0 0 1 121.2275,463.1348 L128.2275,485.2559 L548.5,485.2559 A2.5,2.5 0 0 1 551,487.7559 L551,1070.1348 A2.5,2.5 0 0 1 548.5,1072.6348 L97.5,1072.6348 A2.5,2.5 0 0 1 95,1070.1348 L95,463.1348 A2.5,2.5 0 0 1 97.5,460.6348 " fill="none" style="stroke:#000000;stroke-width:1.5;"/><line style="stroke:#000000;stroke-width:1.5;" x1="95" x2="128.2275" y1="485.2559" y2="485.2559"/><text fill="#000000" font-family="sans-serif" font-size="14" font-weight="bold" lengthAdjust="spacing" textLength="20.2275" x="99" y="477.7422">api</text></g><!--cluster repository--><g id="cluster_repository"><path d="M577.5,615.6348 L646.9619,615.6348 A3.75,3.75 0 0 1 649.4619,618.1348 L656.4619,640.2559 L1044.5,640.2559 A2.5,2.5 0 0 1 1047,642.7559 L1047,943.1348 A2.5,2.5 0 0 1 1044.5,945.6348 L577.5,945.6348 A2.5,2.5 0 0 1 575,943.1348 L575,618.1348 A2.5,2.5 0 0 1 577.5,615.6348 " fill="none" style="stroke:#000000;stroke-width:1.5;"/><line style="stroke:#000000;stroke-width:1.5;" x1="575" x2="656.4619" y1="640.2559" y2="640.2559"/><text fill="#000000" font-family="sans-serif" font-size="14" font-weight="bold" lengthAdjust="spacing" textLength="68.4619" x="579" y="632.7422">repository</text></g><!--class FlightsController--><g id="elem_FlightsController"><rect codeLine="9" fill="#F1F1F1" height="66.6211" id="FlightsController" rx="2.5" ry="2.5" style="stroke:#181818;stroke-width:0.5;" width="551.2666" x="47.5" y="82.6348"/><ellipse cx="267.9214" cy="98.6348" fill="#ADD1B2" rx="11" ry="11" style="stroke:#181818;stroke-width:1.0;"/><path d="M270.687,94.5098 Q270.8433,94.291 271.0308,94.1816 Q271.2183,94.0723 271.437,94.0723 Q271.812,94.0723 272.0464,94.3379 Q272.2808,94.5879 272.2808,95.1973 L272.2808,96.6504 Q272.2808,97.2598 272.0464,97.5254 Q271.812,97.791 271.437,97.791 Q271.0933,97.791 270.8901,97.5879 Q270.687,97.4004 270.5776,96.8848 Q270.5308,96.5254 270.3433,96.3379 Q270.0151,95.9629 269.4058,95.7441 Q268.7964,95.5254 268.1714,95.5254 Q267.4058,95.5254 266.7651,95.8535 Q266.1401,96.1816 265.6401,96.9316 Q265.1558,97.6816 265.1558,98.7129 L265.1558,99.8066 Q265.1558,101.041 266.0464,101.8691 Q266.937,102.6816 268.5308,102.6816 Q269.4683,102.6816 270.1245,102.4316 Q270.5151,102.2754 270.937,101.8379 Q271.2026,101.5723 271.3433,101.4941 Q271.4995,101.416 271.7026,101.416 Q272.0308,101.416 272.2808,101.6816 Q272.5464,101.9316 272.5464,102.2754 Q272.5464,102.6191 272.2026,103.0254 Q271.7026,103.6035 270.9058,103.9316 Q269.8276,104.3848 268.5308,104.3848 Q267.0151,104.3848 265.812,103.7598 Q264.8276,103.2598 264.1401,102.1973 Q263.4526,101.1191 263.4526,99.8379 L263.4526,98.6816 Q263.4526,97.3535 264.062,96.2129 Q264.687,95.0566 265.7808,94.4473 Q266.8745,93.8223 268.1089,93.8223 Q268.8433,93.8223 269.4839,93.9941 Q270.1401,94.1504 270.687,94.5098 Z " fill="#000000"/><text fill="#000000" font-family="sans-serif" font-size="14" lengthAdjust="spacing" textLength="101.9238" x="288.4214" y="104.4316">FlightsController</text><line style="stroke:#181818;stroke-width:0.5;" x1="48.5" x2="597.7666" y1="114.6348" y2="114.6348"/><line style="stroke:#181818;stroke-width:0.5;" x1="48.5" x2="597.7666" y1="122.6348" y2="122.6348"/><text fill="#000000" font-family="sans-serif" font-size="14" lengthAdjust="spacing" textLength="539.2666" x="53.5" y="141.7422">getFlightPrice(origin: String, destination: String, departureDate: Date, returnDate: Date)</text></g><!--class FlightsService--><g id="elem_FlightsService"><rect codeLine="15" fill="#F1F1F1" height="66.6211" id="FlightsService" rx="2.5" ry="2.5" style="stroke:#181818;stroke-width:0.5;" width="601.0869" x="22.5" y="226.6348"/><ellipse cx="274.835" cy="242.6348" fill="#B4A7E5" rx="11" ry="11" style="stroke:#181818;stroke-width:1.0;"/><path d="M275.7881,239.2754 L275.7881,245.9316 L277.5068,245.9316 Q278.1162,245.9316 278.3818,246.166 Q278.6475,246.4004 278.6475,246.791 Q278.6475,247.166 278.3818,247.4004 Q278.1162,247.6348 277.5068,247.6348 L272.3662,247.6348 Q271.7568,247.6348 271.4912,247.4004 Q271.2256,247.166 271.2256,246.7754 Q271.2256,246.4004 271.4912,246.166 Q271.7568,245.9316 272.3662,245.9316 L274.085,245.9316 L274.085,239.2754 L272.3662,239.2754 Q271.7568,239.2754 271.4912,239.041 Q271.2256,238.8066 271.2256,238.416 Q271.2256,238.041 271.4912,237.8066 Q271.7568,237.5723 272.3662,237.5723 L277.5068,237.5723 Q278.1162,237.5723 278.3818,237.8066 Q278.6475,238.041 278.6475,238.416 Q278.6475,238.8066 278.3818,239.041 Q278.1162,239.2754 277.5068,239.2754 L275.7881,239.2754 Z " fill="#000000"/><text fill="#000000" font-family="sans-serif" font-size="14" font-style="italic" lengthAdjust="spacing" textLength="87.917" x="295.335" y="248.4316">FlightsService</text><line style="stroke:#181818;stroke-width:0.5;" x1="23.5" x2="622.5869" y1="258.6348" y2="258.6348"/><line style="stroke:#181818;stroke-width:0.5;" x1="23.5" x2="622.5869" y1="266.6348" y2="266.6348"/><text fill="#000000" font-family="sans-serif" font-size="14" lengthAdjust="spacing" textLength="589.0869" x="28.5" y="285.7422">getFlightPrice(origin: String, destination: String, departureDate: Date, returnDate: Date): double</text></g><!--class FlightsServiceImpl--><g id="elem_FlightsServiceImpl"><rect codeLine="19" fill="#F1F1F1" height="66.6211" id="FlightsServiceImpl" rx="2.5" ry="2.5" style="stroke:#181818;stroke-width:0.5;" width="601.0869" x="22.5" y="353.6348"/><ellipse cx="261.6108" cy="369.6348" fill="#ADD1B2" rx="11" ry="11" style="stroke:#181818;stroke-width:1.0;"/><path d="M264.3765,365.5098 Q264.5327,365.291 264.7202,365.1816 Q264.9077,365.0723 265.1265,365.0723 Q265.5015,365.0723 265.7358,365.3379 Q265.9702,365.5879 265.9702,366.1973 L265.9702,367.6504 Q265.9702,368.2598 265.7358,368.5254 Q265.5015,368.791 265.1265,368.791 Q264.7827,368.791 264.5796,368.5879 Q264.3765,368.4004 264.2671,367.8848 Q264.2202,367.5254 264.0327,367.3379 Q263.7046,366.9629 263.0952,366.7441 Q262.4858,366.5254 261.8608,366.5254 Q261.0952,366.5254 260.4546,366.8535 Q259.8296,367.1816 259.3296,367.9316 Q258.8452,368.6816 258.8452,369.7129 L258.8452,370.8066 Q258.8452,372.041 259.7358,372.8691 Q260.6265,373.6816 262.2202,373.6816 Q263.1577,373.6816 263.814,373.4316 Q264.2046,373.2754 264.6265,372.8379 Q264.8921,372.5723 265.0327,372.4941 Q265.189,372.416 265.3921,372.416 Q265.7202,372.416 265.9702,372.6816 Q266.2358,372.9316 266.2358,373.2754 Q266.2358,373.6191 265.8921,374.0254 Q265.3921,374.6035 264.5952,374.9316 Q263.5171,375.3848 262.2202,375.3848 Q260.7046,375.3848 259.5015,374.7598 Q258.5171,374.2598 257.8296,373.1973 Q257.1421,372.1191 257.1421,370.8379 L257.1421,369.6816 Q257.1421,368.3535 257.7515,367.2129 Q258.3765,366.0566 259.4702,365.4473 Q260.564,364.8223 261.7983,364.8223 Q262.5327,364.8223 263.1733,364.9941 Q263.8296,365.1504 264.3765,365.5098 Z " fill="#000000"/><text fill="#000000" font-family="sans-serif" font-size="14" lengthAdjust="spacing" textLength="114.3652" x="282.1108" y="375.4316">FlightsServiceImpl</text><line style="stroke:#181818;stroke-width:0.5;" x1="23.5" x2="622.5869" y1="385.6348" y2="385.6348"/><line style="stroke:#181818;stroke-width:0.5;" x1="23.5" x2="622.5869" y1="393.6348" y2="393.6348"/><text fill="#000000" font-family="sans-serif" font-size="14" lengthAdjust="spacing" textLength="589.0869" x="28.5" y="412.7422">getFlightPrice(origin: String, destination: String, departureDate: Date, returnDate: Date): double</text></g><!--class ExternalAPIHandler--><g id="elem_ExternalAPIHandler"><rect codeLine="25" fill="#F1F1F1" height="66.6211" id="ExternalAPIHandler" rx="2.5" ry="2.5" style="stroke:#181818;stroke-width:0.5;" width="313.1709" x="166.5" y="497.6348"/><ellipse cx="257.3599" cy="513.6348" fill="#B4A7E5" rx="11" ry="11" style="stroke:#181818;stroke-width:1.0;"/><path d="M258.313,510.2754 L258.313,516.9316 L260.0317,516.9316 Q260.6411,516.9316 260.9067,517.166 Q261.1724,517.4004 261.1724,517.791 Q261.1724,518.166 260.9067,518.4004 Q260.6411,518.6348 260.0317,518.6348 L254.8911,518.6348 Q254.2817,518.6348 254.0161,518.4004 Q253.7505,518.166 253.7505,517.7754 Q253.7505,517.4004 254.0161,517.166 Q254.2817,516.9316 254.8911,516.9316 L256.6099,516.9316 L256.6099,510.2754 L254.8911,510.2754 Q254.2817,510.2754 254.0161,510.041 Q253.7505,509.8066 253.7505,509.416 Q253.7505,509.041 254.0161,508.8066 Q254.2817,508.5723 254.8911,508.5723 L260.0317,508.5723 Q260.6411,508.5723 260.9067,508.8066 Q261.1724,509.041 261.1724,509.416 Q261.1724,509.8066 260.9067,510.041 Q260.6411,510.2754 260.0317,510.2754 L258.313,510.2754 Z " fill="#000000"/><text fill="#000000" font-family="sans-serif" font-size="14" font-style="italic" lengthAdjust="spacing" textLength="122.9512" x="277.8599" y="519.4316">ExternalAPIHandler</text><line style="stroke:#181818;stroke-width:0.5;" x1="167.5" x2="478.6709" y1="529.6348" y2="529.6348"/><line style="stroke:#181818;stroke-width:0.5;" x1="167.5" x2="478.6709" y1="537.6348" y2="537.6348"/><text fill="#000000" font-family="sans-serif" font-size="14" lengthAdjust="spacing" textLength="301.1709" x="172.5" y="556.7422">call(endpoint: Endpoint): Optional&lt;JSONObject&gt;</text></g><!--class ExternalAPIHandlerImpl--><g id="elem_ExternalAPIHandlerImpl"><rect codeLine="29" fill="#F1F1F1" height="141.1055" id="ExternalAPIHandlerImpl" rx="2.5" ry="2.5" style="stroke:#181818;stroke-width:0.5;" width="422.9219" x="111.5" y="624.6348"/><ellipse cx="244.0112" cy="640.6348" fill="#ADD1B2" rx="11" ry="11" style="stroke:#181818;stroke-width:1.0;"/><path d="M246.7769,636.5098 Q246.9331,636.291 247.1206,636.1816 Q247.3081,636.0723 247.5269,636.0723 Q247.9019,636.0723 248.1362,636.3379 Q248.3706,636.5879 248.3706,637.1973 L248.3706,638.6504 Q248.3706,639.2598 248.1362,639.5254 Q247.9019,639.791 247.5269,639.791 Q247.1831,639.791 246.98,639.5879 Q246.7769,639.4004 246.6675,638.8848 Q246.6206,638.5254 246.4331,638.3379 Q246.105,637.9629 245.4956,637.7441 Q244.8862,637.5254 244.2612,637.5254 Q243.4956,637.5254 242.855,637.8535 Q242.23,638.1816 241.73,638.9316 Q241.2456,639.6816 241.2456,640.7129 L241.2456,641.8066 Q241.2456,643.041 242.1362,643.8691 Q243.0269,644.6816 244.6206,644.6816 Q245.5581,644.6816 246.2144,644.4316 Q246.605,644.2754 247.0269,643.8379 Q247.2925,643.5723 247.4331,643.4941 Q247.5894,643.416 247.7925,643.416 Q248.1206,643.416 248.3706,643.6816 Q248.6362,643.9316 248.6362,644.2754 Q248.6362,644.6191 248.2925,645.0254 Q247.7925,645.6035 246.9956,645.9316 Q245.9175,646.3848 244.6206,646.3848 Q243.105,646.3848 241.9019,645.7598 Q240.9175,645.2598 240.23,644.1973 Q239.5425,643.1191 239.5425,641.8379 L239.5425,640.6816 Q239.5425,639.3535 240.1519,638.2129 Q240.7769,637.0566 241.8706,636.4473 Q242.9644,635.8223 244.1987,635.8223 Q244.9331,635.8223 245.5737,635.9941 Q246.23,636.1504 246.7769,636.5098 Z " fill="#000000"/><text fill="#000000" font-family="sans-serif" font-size="14" lengthAdjust="spacing" textLength="149.3994" x="264.5112" y="646.4316">ExternalAPIHandlerImpl</text><line style="stroke:#181818;stroke-width:0.5;" x1="112.5" x2="533.4219" y1="656.6348" y2="656.6348"/><text fill="#000000" font-family="sans-serif" font-size="14" lengthAdjust="spacing" textLength="121.3652" x="117.5" y="675.7422">MAX_RETRIES: int</text><text fill="#000000" font-family="sans-serif" font-size="14" lengthAdjust="spacing" textLength="161.8408" x="117.5" y="694.3633">RETRY_DELAY: Duration</text><line style="stroke:#181818;stroke-width:0.5;" x1="112.5" x2="533.4219" y1="701.877" y2="701.877"/><text fill="#000000" font-family="sans-serif" font-size="14" lengthAdjust="spacing" textLength="301.1709" x="117.5" y="720.9844">call(endpoint: Endpoint): Optional&lt;JSONObject&gt;</text><text fill="#000000" font-family="sans-serif" font-size="14" lengthAdjust="spacing" textLength="410.9219" x="117.5" y="739.6055">getCachedResponse(endpoint: Endpoint): Optional&lt;JSONObject&gt;</text><text fill="#000000" font-family="sans-serif" font-size="14" lengthAdjust="spacing" textLength="410.9014" x="117.5" y="758.2266">cacheResponse(endpoint: Endpoint, response: JSONObject): void</text></g><!--class Endpoint--><g id="elem_Endpoint"><rect codeLine="37" fill="#F1F1F1" height="103.8633" id="Endpoint" rx="2.5" ry="2.5" style="stroke:#181818;stroke-width:0.5;" width="260.2266" x="193" y="825.6348"/><ellipse cx="291.229" cy="841.6348" fill="#ADD1B2" rx="11" ry="11" style="stroke:#181818;stroke-width:1.0;"/><path d="M293.9946,837.5098 Q294.1509,837.291 294.3384,837.1816 Q294.5259,837.0723 294.7446,837.0723 Q295.1196,837.0723 295.354,837.3379 Q295.5884,837.5879 295.5884,838.1973 L295.5884,839.6504 Q295.5884,840.2598 295.354,840.5254 Q295.1196,840.791 294.7446,840.791 Q294.4009,840.791 294.1978,840.5879 Q293.9946,840.4004 293.8853,839.8848 Q293.8384,839.5254 293.6509,839.3379 Q293.3228,838.9629 292.7134,838.7441 Q292.104,838.5254 291.479,838.5254 Q290.7134,838.5254 290.0728,838.8535 Q289.4478,839.1816 288.9478,839.9316 Q288.4634,840.6816 288.4634,841.7129 L288.4634,842.8066 Q288.4634,844.041 289.354,844.8691 Q290.2446,845.6816 291.8384,845.6816 Q292.7759,845.6816 293.4321,845.4316 Q293.8228,845.2754 294.2446,844.8379 Q294.5103,844.5723 294.6509,844.4941 Q294.8071,844.416 295.0103,844.416 Q295.3384,844.416 295.5884,844.6816 Q295.854,844.9316 295.854,845.2754 Q295.854,845.6191 295.5103,846.0254 Q295.0103,846.6035 294.2134,846.9316 Q293.1353,847.3848 291.8384,847.3848 Q290.3228,847.3848 289.1196,846.7598 Q288.1353,846.2598 287.4478,845.1973 Q286.7603,844.1191 286.7603,842.8379 L286.7603,841.6816 Q286.7603,840.3535 287.3696,839.2129 Q287.9946,838.0566 289.0884,837.4473 Q290.1821,836.8223 291.4165,836.8223 Q292.1509,836.8223 292.7915,836.9941 Q293.4478,837.1504 293.9946,837.5098 Z " fill="#000000"/><text fill="#000000" font-family="sans-serif" font-size="14" lengthAdjust="spacing" textLength="55.2686" x="311.729" y="847.4316">Endpoint</text><line style="stroke:#181818;stroke-width:0.5;" x1="194" x2="452.2266" y1="857.6348" y2="857.6348"/><text fill="#000000" font-family="sans-serif" font-size="14" lengthAdjust="spacing" textLength="59.9102" x="199" y="876.7422">url: String</text><text fill="#000000" font-family="sans-serif" font-size="14" lengthAdjust="spacing" textLength="248.2266" x="199" y="895.3633">queryParams: HashMap&lt;String, String&gt;</text><text fill="#000000" font-family="sans-serif" font-size="14" lengthAdjust="spacing" textLength="107.3926" x="199" y="913.9844">bodyHash: String</text><line style="stroke:#181818;stroke-width:0.5;" x1="194" x2="452.2266" y1="921.498" y2="921.498"/></g><!--class Method--><g id="elem_Method"><rect codeLine="43" fill="#F1F1F1" height="66.6211" id="Method" rx="2.5" ry="2.5" style="stroke:#181818;stroke-width:0.5;" width="184.6963" x="230.5" y="989.6348"/><ellipse cx="295.25" cy="1005.6348" fill="#EB937F" rx="11" ry="11" style="stroke:#181818;stroke-width:1.0;"/><path d="M294.1094,1006.4316 L294.1094,1008.9316 L298.4375,1008.9316 L298.4375,1008.0098 Q298.4375,1007.4004 298.6719,1007.1348 Q298.9219,1006.8691 299.2969,1006.8691 Q299.6719,1006.8691 299.9063,1007.1348 Q300.1406,1007.4004 300.1406,1008.0098 L300.1406,1010.6348 L292.1406,1010.6348 Q291.5156,1010.6348 291.25,1010.4004 Q291,1010.166 291,1009.7754 Q291,1009.4004 291.2656,1009.166 Q291.5313,1008.9316 292.1406,1008.9316 L292.4063,1008.9316 L292.4063,1002.2754 L292.1406,1002.2754 Q291.5156,1002.2754 291.25,1002.041 Q291,1001.8066 291,1001.416 Q291,1001.041 291.25,1000.8066 Q291.5156,1000.5723 292.1406,1000.5723 L299.7656,1000.5723 L299.7656,1003.166 Q299.7656,1003.7754 299.5313,1004.041 Q299.3125,1004.291 298.9219,1004.291 Q298.5469,1004.291 298.3125,1004.041 Q298.0781,1003.7754 298.0781,1003.166 L298.0781,1002.2754 L294.1094,1002.2754 L294.1094,1004.7285 L295.5938,1004.7285 Q295.5938,1004.0723 295.7188,1003.8848 Q295.9844,1003.4785 296.4531,1003.4785 Q296.8281,1003.4785 297.0625,1003.7441 Q297.2969,1003.9941 297.2969,1004.6035 L297.2969,1006.5723 Q297.2969,1007.1191 297.1719,1007.3066 Q296.9063,1007.6973 296.4531,1007.6973 Q295.9844,1007.6973 295.7188,1007.291 Q295.5938,1007.1035 295.5938,1006.4316 L294.1094,1006.4316 Z " fill="#000000"/><text fill="#000000" font-family="sans-serif" font-size="14" lengthAdjust="spacing" textLength="46.6963" x="315.75" y="1011.4316">Method</text><line style="stroke:#181818;stroke-width:0.5;" x1="231.5" x2="414.1963" y1="1021.6348" y2="1021.6348"/><text fill="#000000" font-family="sans-serif" font-size="14" lengthAdjust="spacing" textLength="172.6963" x="236.5" y="1040.7422">GET, POST, PUT, DELETE</text><line style="stroke:#181818;stroke-width:0.5;" x1="231.5" x2="414.1963" y1="1048.2559" y2="1048.2559"/></g><!--class CacheRepository--><g id="elem_CacheRepository"><rect codeLine="49" fill="#F1F1F1" height="85.2422" id="CacheRepository" rx="2.5" ry="2.5" style="stroke:#181818;stroke-width:0.5;" width="439.2119" x="591.5" y="652.6348"/><ellipse cx="753.1631" cy="668.6348" fill="#B4A7E5" rx="11" ry="11" style="stroke:#181818;stroke-width:1.0;"/><path d="M754.1162,665.2754 L754.1162,671.9316 L755.835,671.9316 Q756.4443,671.9316 756.71,672.166 Q756.9756,672.4004 756.9756,672.791 Q756.9756,673.166 756.71,673.4004 Q756.4443,673.6348 755.835,673.6348 L750.6943,673.6348 Q750.085,673.6348 749.8193,673.4004 Q749.5537,673.166 749.5537,672.7754 Q749.5537,672.4004 749.8193,672.166 Q750.085,671.9316 750.6943,671.9316 L752.4131,671.9316 L752.4131,665.2754 L750.6943,665.2754 Q750.085,665.2754 749.8193,665.041 Q749.5537,664.8066 749.5537,664.416 Q749.5537,664.041 749.8193,663.8066 Q750.085,663.5723 750.6943,663.5723 L755.835,663.5723 Q756.4443,663.5723 756.71,663.8066 Q756.9756,664.041 756.9756,664.416 Q756.9756,664.8066 756.71,665.041 Q756.4443,665.2754 755.835,665.2754 L754.1162,665.2754 Z " fill="#000000"/><text fill="#000000" font-family="sans-serif" font-size="14" font-style="italic" lengthAdjust="spacing" textLength="107.3857" x="773.6631" y="674.4316">CacheRepository</text><line style="stroke:#181818;stroke-width:0.5;" x1="592.5" x2="1029.7119" y1="684.6348" y2="684.6348"/><line style="stroke:#181818;stroke-width:0.5;" x1="592.5" x2="1029.7119" y1="692.6348" y2="692.6348"/><text fill="#000000" font-family="sans-serif" font-size="14" lengthAdjust="spacing" textLength="427.2119" x="597.5" y="711.7422">save(key: Endpoint, response: JSONObject, duration: Duration): void</text><text fill="#000000" font-family="sans-serif" font-size="14" lengthAdjust="spacing" textLength="267.6953" x="597.5" y="730.3633">get(key: Endpoint): Optional&lt;JSONObject&gt;</text></g><!--class RedisCacheRepository--><g id="elem_RedisCacheRepository"><rect codeLine="54" fill="#F1F1F1" height="103.8633" id="RedisCacheRepository" rx="2.5" ry="2.5" style="stroke:#181818;stroke-width:0.5;" width="439.2119" x="591.5" y="825.6348"/><ellipse cx="735.2666" cy="841.6348" fill="#ADD1B2" rx="11" ry="11" style="stroke:#181818;stroke-width:1.0;"/><path d="M738.0322,837.5098 Q738.1885,837.291 738.376,837.1816 Q738.5635,837.0723 738.7822,837.0723 Q739.1572,837.0723 739.3916,837.3379 Q739.626,837.5879 739.626,838.1973 L739.626,839.6504 Q739.626,840.2598 739.3916,840.5254 Q739.1572,840.791 738.7822,840.791 Q738.4385,840.791 738.2354,840.5879 Q738.0322,840.4004 737.9229,839.8848 Q737.876,839.5254 737.6885,839.3379 Q737.3604,838.9629 736.751,838.7441 Q736.1416,838.5254 735.5166,838.5254 Q734.751,838.5254 734.1104,838.8535 Q733.4854,839.1816 732.9854,839.9316 Q732.501,840.6816 732.501,841.7129 L732.501,842.8066 Q732.501,844.041 733.3916,844.8691 Q734.2822,845.6816 735.876,845.6816 Q736.8135,845.6816 737.4697,845.4316 Q737.8604,845.2754 738.2822,844.8379 Q738.5479,844.5723 738.6885,844.4941 Q738.8447,844.416 739.0479,844.416 Q739.376,844.416 739.626,844.6816 Q739.8916,844.9316 739.8916,845.2754 Q739.8916,845.6191 739.5479,846.0254 Q739.0479,846.6035 738.251,846.9316 Q737.1729,847.3848 735.876,847.3848 Q734.3604,847.3848 733.1572,846.7598 Q732.1729,846.2598 731.4854,845.1973 Q730.7979,844.1191 730.7979,842.8379 L730.7979,841.6816 Q730.7979,840.3535 731.4072,839.2129 Q732.0322,838.0566 733.126,837.4473 Q734.2197,836.8223 735.4541,836.8223 Q736.1885,836.8223 736.8291,836.9941 Q737.4854,837.1504 738.0322,837.5098 Z " fill="#000000"/><text fill="#000000" font-family="sans-serif" font-size="14" lengthAdjust="spacing" textLength="143.1787" x="755.7666" y="847.4316">RedisCacheRepository</text><line style="stroke:#181818;stroke-width:0.5;" x1="592.5" x2="1029.7119" y1="857.6348" y2="857.6348"/><line style="stroke:#181818;stroke-width:0.5;" x1="592.5" x2="1029.7119" y1="865.6348" y2="865.6348"/><text fill="#000000" font-family="sans-serif" font-size="14" lengthAdjust="spacing" textLength="427.2119" x="597.5" y="884.7422">save(key: Endpoint, response: JSONObject, duration: Duration): void</text><text fill="#000000" font-family="sans-serif" font-size="14" lengthAdjust="spacing" textLength="267.6953" x="597.5" y="903.3633">get(key: Endpoint): Optional&lt;JSONObject&gt;</text><text fill="#000000" font-family="sans-serif" font-size="14" lengthAdjust="spacing" textLength="249.833" x="597.5" y="921.9844">generateKey(endpoint: Endpoint): String</text></g><!--link FlightsController to FlightsService--><g id="link_FlightsController_FlightsService"><path codeLine="61" d="M323,149.7148 C323,172.6348 323,197.2148 323,220.2148 " fill="none" id="FlightsController-to-FlightsService" style="stroke:#181818;stroke-width:1.0;"/><polygon fill="#181818" points="323,226.2148,327,217.2148,323,221.2148,319,217.2148,323,226.2148" style="stroke:#181818;stroke-width:1.0;"/><text fill="#000000" font-family="sans-serif" font-size="13" lengthAdjust="spacing" textLength="81.6499" x="234.5847" y="215.4837">flightService 1</text></g><!--reverse link FlightsService to FlightsServiceImpl--><g id="link_FlightsService_FlightsServiceImpl"><path codeLine="62" d="M323,311.6548 C323,330.0248 323,334.9248 323,353.3448 " fill="none" id="FlightsService-backto-FlightsServiceImpl" style="stroke:#181818;stroke-width:1.0;stroke-dasharray:7.0,7.0;"/><polygon fill="none" points="323,293.6548,317,311.6548,329,311.6548,323,293.6548" style="stroke:#181818;stroke-width:1.0;"/></g><!--link FlightsServiceImpl to ExternalAPIHandler--><g id="link_FlightsServiceImpl_ExternalAPIHandler"><path codeLine="63" d="M323,420.7148 C323,443.6348 323,468.2148 323,491.2148 " fill="none" id="FlightsServiceImpl-to-ExternalAPIHandler" style="stroke:#181818;stroke-width:1.0;"/><polygon fill="#181818" points="323,497.2148,327,488.2148,323,492.2148,319,488.2148,323,497.2148" style="stroke:#181818;stroke-width:1.0;"/><text fill="#000000" font-family="sans-serif" font-size="13" lengthAdjust="spacing" textLength="123.5698" x="188.6977" y="486.4837">externalAPIHandler 1</text></g><!--reverse link ExternalAPIHandler to ExternalAPIHandlerImpl--><g id="link_ExternalAPIHandler_ExternalAPIHandlerImpl"><path codeLine="64" d="M323,582.9148 C323,600.1148 323,603.8748 323,624.6048 " fill="none" id="ExternalAPIHandler-backto-ExternalAPIHandlerImpl" style="stroke:#181818;stroke-width:1.0;stroke-dasharray:7.0,7.0;"/><polygon fill="none" points="323,564.9148,317,582.9148,329,582.9148,323,564.9148" style="stroke:#181818;stroke-width:1.0;"/></g><!--link ExternalAPIHandlerImpl to CacheRepository--><g id="link_ExternalAPIHandlerImpl_CacheRepository"><path codeLine="65" d="M534.59,695.1348 C553.49,695.1348 566.38,695.1348 585.28,695.1348 " fill="none" id="ExternalAPIHandlerImpl-to-CacheRepository" style="stroke:#181818;stroke-width:1.0;"/><polygon fill="#181818" points="591.28,695.1348,582.28,691.1348,586.28,695.1348,582.28,699.1348,591.28,695.1348" style="stroke:#181818;stroke-width:1.0;"/><text fill="#000000" font-family="sans-serif" font-size="13" lengthAdjust="spacing" textLength="107.6689" x="476.207" y="686.616">cacheRepository 1</text></g><!--reverse link CacheRepository to RedisCacheRepository--><g id="link_CacheRepository_RedisCacheRepository"><path codeLine="66" d="M811,755.9948 C811,782.0348 811,797.6948 811,825.3348 " fill="none" id="CacheRepository-backto-RedisCacheRepository" style="stroke:#181818;stroke-width:1.0;stroke-dasharray:7.0,7.0;"/><polygon fill="none" points="811,737.9948,805,755.9948,817,755.9948,811,737.9948" style="stroke:#181818;stroke-width:1.0;"/></g><!--link ExternalAPIHandlerImpl to Endpoint--><g id="link_ExternalAPIHandlerImpl_Endpoint"><path codeLine="67" d="M323,765.6648 C323,785.5248 323,800.8048 323,819.3548 " fill="none" id="ExternalAPIHandlerImpl-to-Endpoint" style="stroke:#181818;stroke-width:1.0;stroke-dasharray:7.0,7.0;"/><polygon fill="#181818" points="323,825.3548,327,816.3548,323,820.3548,319,816.3548,323,825.3548" style="stroke:#181818;stroke-width:1.0;"/><text fill="#000000" font-family="sans-serif" font-size="13" lengthAdjust="spacing" textLength="60.7217" x="259.002" y="814.2445">endpoint 1</text></g><!--link Endpoint to Method--><g id="link_Endpoint_Method"><path codeLine="68" d="M323,930.0348 C323,949.8248 323,965.8548 323,983.4048 " fill="none" id="Endpoint-to-Method" style="stroke:#181818;stroke-width:1.0;stroke-dasharray:7.0,7.0;"/><polygon fill="#181818" points="323,989.4048,327,980.4048,323,984.4048,319,980.4048,323,989.4048" style="stroke:#181818;stroke-width:1.0;"/><text fill="#000000" font-family="sans-serif" font-size="13" lengthAdjust="spacing" textLength="54.2026" x="263.9014" y="978.4468">method 1</text></g><!--SRC=[pLHDZzem4BtdLuouB9KMf4ezHIia16cNjXG4LEgULeupIxmOExKTrBJT_ruxJY0GjaMjr3Q799ePltb-ys6OuGYZLp3YH6iOCx9MP1j2zCMW4WWQrOvHr90m1C7GG8oQfcmJ4wBWAtiKGN2LiWI1CaKv1bTwmqH6B0Xm9j0K6O9K9fL1O6G6Ha8iZP5R2wYG6YOjG4ReXgmHEbGAeoJdg3hmBG3xq9BMQyxMgT6ZlRlokcUDnhldoXBjIiNMJ8ImD8g9zJKag0qJn2Lg6Yr3aoiS4uCXkFSrABGMSR2yA5Cy1KyDWfKSDJich4eFX6BDSEdzVuLU28dCOokvfzcMgo8psMRyNn1gwaOorjRCznZXm_dabeZakAoKSDv5aMJI7h3zMFtP9BFCaIFyvkrozc4MFzek6hGrQ8EVw30TVhfVHAl595g6ZjJUuOntz-Fe_V3ENYnNfHP_mgjIVKHeYia2TIQ5nj_0e0xW9-TTIRmpXCDvYxgJB3cZK7MieKckU5tqlUrpZggOku7M8TmIdKv9TbCtXlyUACOoALpC4KgL5KM-XIdQLP0qKhw9LjSmdotT-wDzMTsZLNIcXHHcKZCZLT7kf95NfWvem6kom-u6Yr-fP7kyglIXvatbgXeUGrtSZ0jCcFuFIVe30YqKliFYV4yULT9UgxsCUxq1T1vASxq0NtPEjb1mPYdry_xtmGLn9JwsjuLDqXxpu9d9zyakZ-yfbvMU5CscFAbZSBQuFjjfw7FK-kv-zJYwMrN_mNv6ov2j7nuRuCSe-040]--></g></svg>