<svg xmlns="http://www.w3.org/2000/svg" xmlns:xlink="http://www.w3.org/1999/xlink" contentStyleType="text/css" height="1116px" preserveAspectRatio="none" style="width:991px;height:1116px;background:#FFFFFF;" version="1.1" viewBox="0 0 991 1116" width="991px" zoomAndPan="magnify"><title>C4 Class Diagram - Backend</title><defs/><g><text fill="#000000" font-family="sans-serif" font-size="14" font-weight="bold" lengthAdjust="spacing" textLength="189.8545" x="393.5728" y="25.1074">C4 Class Diagram - Backend</text><!--cluster controller--><g id="cluster_controller"><path d="M377.5,45.6348 L443.0654,45.6348 A3.75,3.75 0 0 1 445.5654,48.1348 L452.5654,70.2559 L956.5,70.2559 A2.5,2.5 0 0 1 959,72.7559 L959,163.1348 A2.5,2.5 0 0 1 956.5,165.6348 L377.5,165.6348 A2.5,2.5 0 0 1 375,163.1348 L375,48.1348 A2.5,2.5 0 0 1 377.5,45.6348 " fill="none" style="stroke:#000000;stroke-width:1.5;"/><line style="stroke:#000000;stroke-width:1.5;" x1="375" x2="452.5654" y1="70.2559" y2="70.2559"/><text fill="#000000" font-family="sans-serif" font-size="14" font-weight="bold" lengthAdjust="spacing" textLength="64.5654" x="379" y="62.7422">controller</text></g><!--cluster service--><g id="cluster_service"><path d="M352.5,189.6348 L401.7686,189.6348 A3.75,3.75 0 0 1 404.2686,192.1348 L411.2686,214.2559 L981.5,214.2559 A2.5,2.5 0 0 1 984,216.7559 L984,434.1348 A2.5,2.5 0 0 1 981.5,436.6348 L352.5,436.6348 A2.5,2.5 0 0 1 350,434.1348 L350,192.1348 A2.5,2.5 0 0 1 352.5,189.6348 " fill="none" style="stroke:#000000;stroke-width:1.5;"/><line style="stroke:#000000;stroke-width:1.5;" x1="350" x2="411.2686" y1="214.2559" y2="214.2559"/><text fill="#000000" font-family="sans-serif" font-size="14" font-weight="bold" lengthAdjust="spacing" textLength="48.2686" x="354" y="206.7422">service</text></g><!--cluster api--><g id="cluster_api"><path d="M462.5,460.6348 L483.7275,460.6348 A3.75,3.75 0 0 1 486.2275,463.1348 L493.2275,485.2559 L871.5,485.2559 A2.5,2.5 0 0 1 874,487.7559 L874,943.1348 A2.5,2.5 0 0 1 871.5,945.6348 L462.5,945.6348 A2.5,2.5 0 0 1 460,943.1348 L460,463.1348 A2.5,2.5 0 0 1 462.5,460.6348 " fill="none" style="stroke:#000000;stroke-width:1.5;"/><line style="stroke:#000000;stroke-width:1.5;" x1="460" x2="493.2275" y1="485.2559" y2="485.2559"/><text fill="#000000" font-family="sans-serif" font-size="14" font-weight="bold" lengthAdjust="spacing" textLength="20.2275" x="464" y="477.7422">api</text></g><!--cluster repository--><g id="cluster_repository"><path d="M8.5,798.1348 L77.9619,798.1348 A3.75,3.75 0 0 1 80.4619,800.6348 L87.4619,822.7559 L433.5,822.7559 A2.5,2.5 0 0 1 436,825.2559 L436,1107.1348 A2.5,2.5 0 0 1 433.5,1109.6348 L8.5,1109.6348 A2.5,2.5 0 0 1 6,1107.1348 L6,800.6348 A2.5,2.5 0 0 1 8.5,798.1348 " fill="none" style="stroke:#000000;stroke-width:1.5;"/><line style="stroke:#000000;stroke-width:1.5;" x1="6" x2="87.4619" y1="822.7559" y2="822.7559"/><text fill="#000000" font-family="sans-serif" font-size="14" font-weight="bold" lengthAdjust="spacing" textLength="68.4619" x="10" y="815.2422">repository</text></g><!--cluster shared--><g id="cluster_shared"><path d="M560.5,971.1348 L607.4102,971.1348 A3.75,3.75 0 0 1 609.9102,973.6348 L616.9102,995.7559 L773.5,995.7559 A2.5,2.5 0 0 1 776,998.2559 L776,1088.6348 A2.5,2.5 0 0 1 773.5,1091.1348 L560.5,1091.1348 A2.5,2.5 0 0 1 558,1088.6348 L558,973.6348 A2.5,2.5 0 0 1 560.5,971.1348 " fill="none" style="stroke:#000000;stroke-width:1.5;"/><line style="stroke:#000000;stroke-width:1.5;" x1="558" x2="616.9102" y1="995.7559" y2="995.7559"/><text fill="#000000" font-family="sans-serif" font-size="14" font-weight="bold" lengthAdjust="spacing" textLength="45.9102" x="562" y="988.2422">shared</text></g><!--class FlightsController--><g id="elem_FlightsController"><rect codeLine="9" fill="#F1F1F1" height="66.6211" id="FlightsController" rx="2.5" ry="2.5" style="stroke:#181818;stroke-width:0.5;" width="551.2666" x="391.5" y="82.6348"/><ellipse cx="611.9214" cy="98.6348" fill="#ADD1B2" rx="11" ry="11" style="stroke:#181818;stroke-width:1.0;"/><path d="M614.687,94.5098 Q614.8433,94.291 615.0308,94.1816 Q615.2183,94.0723 615.437,94.0723 Q615.812,94.0723 616.0464,94.3379 Q616.2808,94.5879 616.2808,95.1973 L616.2808,96.6504 Q616.2808,97.2598 616.0464,97.5254 Q615.812,97.791 615.437,97.791 Q615.0933,97.791 614.8901,97.5879 Q614.687,97.4004 614.5776,96.8848 Q614.5308,96.5254 614.3433,96.3379 Q614.0151,95.9629 613.4058,95.7441 Q612.7964,95.5254 612.1714,95.5254 Q611.4058,95.5254 610.7651,95.8535 Q610.1401,96.1816 609.6401,96.9316 Q609.1558,97.6816 609.1558,98.7129 L609.1558,99.8066 Q609.1558,101.041 610.0464,101.8691 Q610.937,102.6816 612.5308,102.6816 Q613.4683,102.6816 614.1245,102.4316 Q614.5151,102.2754 614.937,101.8379 Q615.2026,101.5723 615.3433,101.4941 Q615.4995,101.416 615.7026,101.416 Q616.0308,101.416 616.2808,101.6816 Q616.5464,101.9316 616.5464,102.2754 Q616.5464,102.6191 616.2026,103.0254 Q615.7026,103.6035 614.9058,103.9316 Q613.8276,104.3848 612.5308,104.3848 Q611.0151,104.3848 609.812,103.7598 Q608.8276,103.2598 608.1401,102.1973 Q607.4526,101.1191 607.4526,99.8379 L607.4526,98.6816 Q607.4526,97.3535 608.062,96.2129 Q608.687,95.0566 609.7808,94.4473 Q610.8745,93.8223 612.1089,93.8223 Q612.8433,93.8223 613.4839,93.9941 Q614.1401,94.1504 614.687,94.5098 Z " fill="#000000"/><text fill="#000000" font-family="sans-serif" font-size="14" lengthAdjust="spacing" textLength="101.9238" x="632.4214" y="104.4316">FlightsController</text><line style="stroke:#181818;stroke-width:0.5;" x1="392.5" x2="941.7666" y1="114.6348" y2="114.6348"/><line style="stroke:#181818;stroke-width:0.5;" x1="392.5" x2="941.7666" y1="122.6348" y2="122.6348"/><text fill="#000000" font-family="sans-serif" font-size="14" lengthAdjust="spacing" textLength="539.2666" x="397.5" y="141.7422">getFlightPrice(origin: String, destination: String, departureDate: Date, returnDate: Date)</text></g><!--class FlightsService--><g id="elem_FlightsService"><rect codeLine="15" fill="#F1F1F1" height="66.6211" id="FlightsService" rx="2.5" ry="2.5" style="stroke:#181818;stroke-width:0.5;" width="601.0869" x="366.5" y="226.6348"/><ellipse cx="618.835" cy="242.6348" fill="#B4A7E5" rx="11" ry="11" style="stroke:#181818;stroke-width:1.0;"/><path d="M619.7881,239.2754 L619.7881,245.9316 L621.5068,245.9316 Q622.1162,245.9316 622.3818,246.166 Q622.6475,246.4004 622.6475,246.791 Q622.6475,247.166 622.3818,247.4004 Q622.1162,247.6348 621.5068,247.6348 L616.3662,247.6348 Q615.7568,247.6348 615.4912,247.4004 Q615.2256,247.166 615.2256,246.7754 Q615.2256,246.4004 615.4912,246.166 Q615.7568,245.9316 616.3662,245.9316 L618.085,245.9316 L618.085,239.2754 L616.3662,239.2754 Q615.7568,239.2754 615.4912,239.041 Q615.2256,238.8066 615.2256,238.416 Q615.2256,238.041 615.4912,237.8066 Q615.7568,237.5723 616.3662,237.5723 L621.5068,237.5723 Q622.1162,237.5723 622.3818,237.8066 Q622.6475,238.041 622.6475,238.416 Q622.6475,238.8066 622.3818,239.041 Q622.1162,239.2754 621.5068,239.2754 L619.7881,239.2754 Z " fill="#000000"/><text fill="#000000" font-family="sans-serif" font-size="14" font-style="italic" lengthAdjust="spacing" textLength="87.917" x="639.335" y="248.4316">FlightsService</text><line style="stroke:#181818;stroke-width:0.5;" x1="367.5" x2="966.5869" y1="258.6348" y2="258.6348"/><line style="stroke:#181818;stroke-width:0.5;" x1="367.5" x2="966.5869" y1="266.6348" y2="266.6348"/><text fill="#000000" font-family="sans-serif" font-size="14" lengthAdjust="spacing" textLength="589.0869" x="372.5" y="285.7422">getFlightPrice(origin: String, destination: String, departureDate: Date, returnDate: Date): double</text></g><!--class FlightsServiceImpl--><g id="elem_FlightsServiceImpl"><rect codeLine="19" fill="#F1F1F1" height="66.6211" id="FlightsServiceImpl" rx="2.5" ry="2.5" style="stroke:#181818;stroke-width:0.5;" width="601.0869" x="366.5" y="353.6348"/><ellipse cx="605.6108" cy="369.6348" fill="#ADD1B2" rx="11" ry="11" style="stroke:#181818;stroke-width:1.0;"/><path d="M608.3765,365.5098 Q608.5327,365.291 608.7202,365.1816 Q608.9077,365.0723 609.1265,365.0723 Q609.5015,365.0723 609.7358,365.3379 Q609.9702,365.5879 609.9702,366.1973 L609.9702,367.6504 Q609.9702,368.2598 609.7358,368.5254 Q609.5015,368.791 609.1265,368.791 Q608.7827,368.791 608.5796,368.5879 Q608.3765,368.4004 608.2671,367.8848 Q608.2202,367.5254 608.0327,367.3379 Q607.7046,366.9629 607.0952,366.7441 Q606.4858,366.5254 605.8608,366.5254 Q605.0952,366.5254 604.4546,366.8535 Q603.8296,367.1816 603.3296,367.9316 Q602.8452,368.6816 602.8452,369.7129 L602.8452,370.8066 Q602.8452,372.041 603.7358,372.8691 Q604.6265,373.6816 606.2202,373.6816 Q607.1577,373.6816 607.814,373.4316 Q608.2046,373.2754 608.6265,372.8379 Q608.8921,372.5723 609.0327,372.4941 Q609.189,372.416 609.3921,372.416 Q609.7202,372.416 609.9702,372.6816 Q610.2358,372.9316 610.2358,373.2754 Q610.2358,373.6191 609.8921,374.0254 Q609.3921,374.6035 608.5952,374.9316 Q607.5171,375.3848 606.2202,375.3848 Q604.7046,375.3848 603.5015,374.7598 Q602.5171,374.2598 601.8296,373.1973 Q601.1421,372.1191 601.1421,370.8379 L601.1421,369.6816 Q601.1421,368.3535 601.7515,367.2129 Q602.3765,366.0566 603.4702,365.4473 Q604.564,364.8223 605.7983,364.8223 Q606.5327,364.8223 607.1733,364.9941 Q607.8296,365.1504 608.3765,365.5098 Z " fill="#000000"/><text fill="#000000" font-family="sans-serif" font-size="14" lengthAdjust="spacing" textLength="114.3652" x="626.1108" y="375.4316">FlightsServiceImpl</text><line style="stroke:#181818;stroke-width:0.5;" x1="367.5" x2="966.5869" y1="385.6348" y2="385.6348"/><line style="stroke:#181818;stroke-width:0.5;" x1="367.5" x2="966.5869" y1="393.6348" y2="393.6348"/><text fill="#000000" font-family="sans-serif" font-size="14" lengthAdjust="spacing" textLength="589.0869" x="372.5" y="412.7422">getFlightPrice(origin: String, destination: String, departureDate: Date, returnDate: Date): double</text></g><!--class ExternalAPIHandler--><g id="elem_ExternalAPIHandler"><rect codeLine="25" fill="#F1F1F1" height="66.6211" id="ExternalAPIHandler" rx="2.5" ry="2.5" style="stroke:#181818;stroke-width:0.5;" width="203.4473" x="565.5" y="497.6348"/><ellipse cx="602.3232" cy="513.6348" fill="#B4A7E5" rx="11" ry="11" style="stroke:#181818;stroke-width:1.0;"/><path d="M603.2764,510.2754 L603.2764,516.9316 L604.9951,516.9316 Q605.6045,516.9316 605.8701,517.166 Q606.1357,517.4004 606.1357,517.791 Q606.1357,518.166 605.8701,518.4004 Q605.6045,518.6348 604.9951,518.6348 L599.8545,518.6348 Q599.2451,518.6348 598.9795,518.4004 Q598.7139,518.166 598.7139,517.7754 Q598.7139,517.4004 598.9795,517.166 Q599.2451,516.9316 599.8545,516.9316 L601.5732,516.9316 L601.5732,510.2754 L599.8545,510.2754 Q599.2451,510.2754 598.9795,510.041 Q598.7139,509.8066 598.7139,509.416 Q598.7139,509.041 598.9795,508.8066 Q599.2451,508.5723 599.8545,508.5723 L604.9951,508.5723 Q605.6045,508.5723 605.8701,508.8066 Q606.1357,509.041 606.1357,509.416 Q606.1357,509.8066 605.8701,510.041 Q605.6045,510.2754 604.9951,510.2754 L603.2764,510.2754 Z " fill="#000000"/><text fill="#000000" font-family="sans-serif" font-size="14" font-style="italic" lengthAdjust="spacing" textLength="122.9512" x="621.1729" y="519.4316">ExternalAPIHandler</text><line style="stroke:#181818;stroke-width:0.5;" x1="566.5" x2="767.9473" y1="529.6348" y2="529.6348"/><line style="stroke:#181818;stroke-width:0.5;" x1="566.5" x2="767.9473" y1="537.6348" y2="537.6348"/><text fill="#000000" font-family="sans-serif" font-size="14" lengthAdjust="spacing" textLength="191.4473" x="571.5" y="556.7422">call(endpoint: Endpoint): String</text></g><!--class ExternalAPIHandlerImpl--><g id="elem_ExternalAPIHandlerImpl"><rect codeLine="29" fill="#F1F1F1" height="141.1055" id="ExternalAPIHandlerImpl" rx="2.5" ry="2.5" style="stroke:#181818;stroke-width:0.5;" width="381.6943" x="476" y="624.6348"/><ellipse cx="587.8975" cy="640.6348" fill="#ADD1B2" rx="11" ry="11" style="stroke:#181818;stroke-width:1.0;"/><path d="M590.6631,636.5098 Q590.8193,636.291 591.0068,636.1816 Q591.1943,636.0723 591.4131,636.0723 Q591.7881,636.0723 592.0225,636.3379 Q592.2568,636.5879 592.2568,637.1973 L592.2568,638.6504 Q592.2568,639.2598 592.0225,639.5254 Q591.7881,639.791 591.4131,639.791 Q591.0693,639.791 590.8662,639.5879 Q590.6631,639.4004 590.5537,638.8848 Q590.5068,638.5254 590.3193,638.3379 Q589.9912,637.9629 589.3818,637.7441 Q588.7725,637.5254 588.1475,637.5254 Q587.3818,637.5254 586.7412,637.8535 Q586.1162,638.1816 585.6162,638.9316 Q585.1318,639.6816 585.1318,640.7129 L585.1318,641.8066 Q585.1318,643.041 586.0225,643.8691 Q586.9131,644.6816 588.5068,644.6816 Q589.4443,644.6816 590.1006,644.4316 Q590.4912,644.2754 590.9131,643.8379 Q591.1787,643.5723 591.3193,643.4941 Q591.4756,643.416 591.6787,643.416 Q592.0068,643.416 592.2568,643.6816 Q592.5225,643.9316 592.5225,644.2754 Q592.5225,644.6191 592.1787,645.0254 Q591.6787,645.6035 590.8818,645.9316 Q589.8037,646.3848 588.5068,646.3848 Q586.9912,646.3848 585.7881,645.7598 Q584.8037,645.2598 584.1162,644.1973 Q583.4287,643.1191 583.4287,641.8379 L583.4287,640.6816 Q583.4287,639.3535 584.0381,638.2129 Q584.6631,637.0566 585.7568,636.4473 Q586.8506,635.8223 588.085,635.8223 Q588.8193,635.8223 589.46,635.9941 Q590.1162,636.1504 590.6631,636.5098 Z " fill="#000000"/><text fill="#000000" font-family="sans-serif" font-size="14" lengthAdjust="spacing" textLength="149.3994" x="608.3975" y="646.4316">ExternalAPIHandlerImpl</text><line style="stroke:#181818;stroke-width:0.5;" x1="477" x2="856.6943" y1="656.6348" y2="656.6348"/><text fill="#000000" font-family="sans-serif" font-size="14" lengthAdjust="spacing" textLength="121.3652" x="482" y="675.7422">MAX_RETRIES: int</text><text fill="#000000" font-family="sans-serif" font-size="14" lengthAdjust="spacing" textLength="161.8408" x="482" y="694.3633">RETRY_DELAY: Duration</text><line style="stroke:#181818;stroke-width:0.5;" x1="477" x2="856.6943" y1="701.877" y2="701.877"/><text fill="#000000" font-family="sans-serif" font-size="14" lengthAdjust="spacing" textLength="191.4473" x="482" y="720.9844">call(endpoint: Endpoint): String</text><text fill="#000000" font-family="sans-serif" font-size="14" lengthAdjust="spacing" textLength="369.6943" x="482" y="739.6055">getCachedResponse(endpoint: Endpoint): Optional&lt;String&gt;</text><text fill="#000000" font-family="sans-serif" font-size="14" lengthAdjust="spacing" textLength="369.6738" x="482" y="758.2266">cacheResponse(endpoint: Endpoint, response: String): void</text></g><!--class Endpoint--><g id="elem_Endpoint"><rect codeLine="37" fill="#F1F1F1" height="103.8633" id="Endpoint" rx="2.5" ry="2.5" style="stroke:#181818;stroke-width:0.5;" width="260.2266" x="537" y="825.6348"/><ellipse cx="635.229" cy="841.6348" fill="#ADD1B2" rx="11" ry="11" style="stroke:#181818;stroke-width:1.0;"/><path d="M637.9946,837.5098 Q638.1509,837.291 638.3384,837.1816 Q638.5259,837.0723 638.7446,837.0723 Q639.1196,837.0723 639.354,837.3379 Q639.5884,837.5879 639.5884,838.1973 L639.5884,839.6504 Q639.5884,840.2598 639.354,840.5254 Q639.1196,840.791 638.7446,840.791 Q638.4009,840.791 638.1978,840.5879 Q637.9946,840.4004 637.8853,839.8848 Q637.8384,839.5254 637.6509,839.3379 Q637.3228,838.9629 636.7134,838.7441 Q636.104,838.5254 635.479,838.5254 Q634.7134,838.5254 634.0728,838.8535 Q633.4478,839.1816 632.9478,839.9316 Q632.4634,840.6816 632.4634,841.7129 L632.4634,842.8066 Q632.4634,844.041 633.354,844.8691 Q634.2446,845.6816 635.8384,845.6816 Q636.7759,845.6816 637.4321,845.4316 Q637.8228,845.2754 638.2446,844.8379 Q638.5103,844.5723 638.6509,844.4941 Q638.8071,844.416 639.0103,844.416 Q639.3384,844.416 639.5884,844.6816 Q639.854,844.9316 639.854,845.2754 Q639.854,845.6191 639.5103,846.0254 Q639.0103,846.6035 638.2134,846.9316 Q637.1353,847.3848 635.8384,847.3848 Q634.3228,847.3848 633.1196,846.7598 Q632.1353,846.2598 631.4478,845.1973 Q630.7603,844.1191 630.7603,842.8379 L630.7603,841.6816 Q630.7603,840.3535 631.3696,839.2129 Q631.9946,838.0566 633.0884,837.4473 Q634.1821,836.8223 635.4165,836.8223 Q636.1509,836.8223 636.7915,836.9941 Q637.4478,837.1504 637.9946,837.5098 Z " fill="#000000"/><text fill="#000000" font-family="sans-serif" font-size="14" lengthAdjust="spacing" textLength="55.2686" x="655.729" y="847.4316">Endpoint</text><line style="stroke:#181818;stroke-width:0.5;" x1="538" x2="796.2266" y1="857.6348" y2="857.6348"/><text fill="#000000" font-family="sans-serif" font-size="14" lengthAdjust="spacing" textLength="59.9102" x="543" y="876.7422">url: String</text><text fill="#000000" font-family="sans-serif" font-size="14" lengthAdjust="spacing" textLength="248.2266" x="543" y="895.3633">queryParams: HashMap&lt;String, String&gt;</text><text fill="#000000" font-family="sans-serif" font-size="14" lengthAdjust="spacing" textLength="107.3926" x="543" y="913.9844">bodyHash: String</text><line style="stroke:#181818;stroke-width:0.5;" x1="538" x2="796.2266" y1="921.498" y2="921.498"/></g><!--class CacheRepository--><g id="elem_CacheRepository"><rect codeLine="45" fill="#F1F1F1" height="85.2422" id="CacheRepository" rx="2.5" ry="2.5" style="stroke:#181818;stroke-width:0.5;" width="397.9844" x="22" y="835.1348"/><ellipse cx="163.0493" cy="851.1348" fill="#B4A7E5" rx="11" ry="11" style="stroke:#181818;stroke-width:1.0;"/><path d="M164.0024,847.7754 L164.0024,854.4316 L165.7212,854.4316 Q166.3306,854.4316 166.5962,854.666 Q166.8618,854.9004 166.8618,855.291 Q166.8618,855.666 166.5962,855.9004 Q166.3306,856.1348 165.7212,856.1348 L160.5806,856.1348 Q159.9712,856.1348 159.7056,855.9004 Q159.4399,855.666 159.4399,855.2754 Q159.4399,854.9004 159.7056,854.666 Q159.9712,854.4316 160.5806,854.4316 L162.2993,854.4316 L162.2993,847.7754 L160.5806,847.7754 Q159.9712,847.7754 159.7056,847.541 Q159.4399,847.3066 159.4399,846.916 Q159.4399,846.541 159.7056,846.3066 Q159.9712,846.0723 160.5806,846.0723 L165.7212,846.0723 Q166.3306,846.0723 166.5962,846.3066 Q166.8618,846.541 166.8618,846.916 Q166.8618,847.3066 166.5962,847.541 Q166.3306,847.7754 165.7212,847.7754 L164.0024,847.7754 Z " fill="#000000"/><text fill="#000000" font-family="sans-serif" font-size="14" font-style="italic" lengthAdjust="spacing" textLength="107.3857" x="183.5493" y="856.9316">CacheRepository</text><line style="stroke:#181818;stroke-width:0.5;" x1="23" x2="418.9844" y1="867.1348" y2="867.1348"/><line style="stroke:#181818;stroke-width:0.5;" x1="23" x2="418.9844" y1="875.1348" y2="875.1348"/><text fill="#000000" font-family="sans-serif" font-size="14" lengthAdjust="spacing" textLength="385.9844" x="28" y="894.2422">save(key: Endpoint, response: String, duration: Duration): void</text><text fill="#000000" font-family="sans-serif" font-size="14" lengthAdjust="spacing" textLength="226.4678" x="28" y="912.8633">get(key: Endpoint): Optional&lt;String&gt;</text></g><!--class RedisCacheRepository--><g id="elem_RedisCacheRepository"><rect codeLine="50" fill="#F1F1F1" height="103.8633" id="RedisCacheRepository" rx="2.5" ry="2.5" style="stroke:#181818;stroke-width:0.5;" width="397.9844" x="22" y="989.6348"/><ellipse cx="145.1528" cy="1005.6348" fill="#ADD1B2" rx="11" ry="11" style="stroke:#181818;stroke-width:1.0;"/><path d="M147.9185,1001.5098 Q148.0747,1001.291 148.2622,1001.1816 Q148.4497,1001.0723 148.6685,1001.0723 Q149.0435,1001.0723 149.2778,1001.3379 Q149.5122,1001.5879 149.5122,1002.1973 L149.5122,1003.6504 Q149.5122,1004.2598 149.2778,1004.5254 Q149.0435,1004.791 148.6685,1004.791 Q148.3247,1004.791 148.1216,1004.5879 Q147.9185,1004.4004 147.8091,1003.8848 Q147.7622,1003.5254 147.5747,1003.3379 Q147.2466,1002.9629 146.6372,1002.7441 Q146.0278,1002.5254 145.4028,1002.5254 Q144.6372,1002.5254 143.9966,1002.8535 Q143.3716,1003.1816 142.8716,1003.9316 Q142.3872,1004.6816 142.3872,1005.7129 L142.3872,1006.8066 Q142.3872,1008.041 143.2778,1008.8691 Q144.1685,1009.6816 145.7622,1009.6816 Q146.6997,1009.6816 147.356,1009.4316 Q147.7466,1009.2754 148.1685,1008.8379 Q148.4341,1008.5723 148.5747,1008.4941 Q148.731,1008.416 148.9341,1008.416 Q149.2622,1008.416 149.5122,1008.6816 Q149.7778,1008.9316 149.7778,1009.2754 Q149.7778,1009.6191 149.4341,1010.0254 Q148.9341,1010.6035 148.1372,1010.9316 Q147.0591,1011.3848 145.7622,1011.3848 Q144.2466,1011.3848 143.0435,1010.7598 Q142.0591,1010.2598 141.3716,1009.1973 Q140.6841,1008.1191 140.6841,1006.8379 L140.6841,1005.6816 Q140.6841,1004.3535 141.2935,1003.2129 Q141.9185,1002.0566 143.0122,1001.4473 Q144.106,1000.8223 145.3403,1000.8223 Q146.0747,1000.8223 146.7153,1000.9941 Q147.3716,1001.1504 147.9185,1001.5098 Z " fill="#000000"/><text fill="#000000" font-family="sans-serif" font-size="14" lengthAdjust="spacing" textLength="143.1787" x="165.6528" y="1011.4316">RedisCacheRepository</text><line style="stroke:#181818;stroke-width:0.5;" x1="23" x2="418.9844" y1="1021.6348" y2="1021.6348"/><line style="stroke:#181818;stroke-width:0.5;" x1="23" x2="418.9844" y1="1029.6348" y2="1029.6348"/><text fill="#000000" font-family="sans-serif" font-size="14" lengthAdjust="spacing" textLength="385.9844" x="28" y="1048.7422">save(key: Endpoint, response: String, duration: Duration): void</text><text fill="#000000" font-family="sans-serif" font-size="14" lengthAdjust="spacing" textLength="226.4678" x="28" y="1067.3633">get(key: Endpoint): Optional&lt;String&gt;</text><text fill="#000000" font-family="sans-serif" font-size="14" lengthAdjust="spacing" textLength="249.833" x="28" y="1085.9844">generateKey(endpoint: Endpoint): String</text></g><!--class Method--><g id="elem_Method"><rect codeLine="58" fill="#F1F1F1" height="66.6211" id="Method" rx="2.5" ry="2.5" style="stroke:#181818;stroke-width:0.5;" width="184.6963" x="574.5" y="1008.1348"/><ellipse cx="639.25" cy="1024.1348" fill="#EB937F" rx="11" ry="11" style="stroke:#181818;stroke-width:1.0;"/><path d="M638.1094,1024.9316 L638.1094,1027.4316 L642.4375,1027.4316 L642.4375,1026.5098 Q642.4375,1025.9004 642.6719,1025.6348 Q642.9219,1025.3691 643.2969,1025.3691 Q643.6719,1025.3691 643.9063,1025.6348 Q644.1406,1025.9004 644.1406,1026.5098 L644.1406,1029.1348 L636.1406,1029.1348 Q635.5156,1029.1348 635.25,1028.9004 Q635,1028.666 635,1028.2754 Q635,1027.9004 635.2656,1027.666 Q635.5313,1027.4316 636.1406,1027.4316 L636.4063,1027.4316 L636.4063,1020.7754 L636.1406,1020.7754 Q635.5156,1020.7754 635.25,1020.541 Q635,1020.3066 635,1019.916 Q635,1019.541 635.25,1019.3066 Q635.5156,1019.0723 636.1406,1019.0723 L643.7656,1019.0723 L643.7656,1021.666 Q643.7656,1022.2754 643.5313,1022.541 Q643.3125,1022.791 642.9219,1022.791 Q642.5469,1022.791 642.3125,1022.541 Q642.0781,1022.2754 642.0781,1021.666 L642.0781,1020.7754 L638.1094,1020.7754 L638.1094,1023.2285 L639.5938,1023.2285 Q639.5938,1022.5723 639.7188,1022.3848 Q639.9844,1021.9785 640.4531,1021.9785 Q640.8281,1021.9785 641.0625,1022.2441 Q641.2969,1022.4941 641.2969,1023.1035 L641.2969,1025.0723 Q641.2969,1025.6191 641.1719,1025.8066 Q640.9063,1026.1973 640.4531,1026.1973 Q639.9844,1026.1973 639.7188,1025.791 Q639.5938,1025.6035 639.5938,1024.9316 L638.1094,1024.9316 Z " fill="#000000"/><text fill="#000000" font-family="sans-serif" font-size="14" lengthAdjust="spacing" textLength="46.6963" x="659.75" y="1029.9316">Method</text><line style="stroke:#181818;stroke-width:0.5;" x1="575.5" x2="758.1963" y1="1040.1348" y2="1040.1348"/><text fill="#000000" font-family="sans-serif" font-size="14" lengthAdjust="spacing" textLength="172.6963" x="580.5" y="1059.2422">GET, POST, PUT, DELETE</text><line style="stroke:#181818;stroke-width:0.5;" x1="575.5" x2="758.1963" y1="1066.7559" y2="1066.7559"/></g><!--link FlightsController to FlightsService--><g id="link_FlightsController_FlightsService"><path codeLine="63" d="M667,149.7148 C667,172.6348 667,197.2148 667,220.2148 " fill="none" id="FlightsController-to-FlightsService" style="stroke:#181818;stroke-width:1.0;"/><polygon fill="#181818" points="667,226.2148,671,217.2148,667,221.2148,663,217.2148,667,226.2148" style="stroke:#181818;stroke-width:1.0;"/><text fill="#000000" font-family="sans-serif" font-size="13" lengthAdjust="spacing" textLength="81.6499" x="578.5847" y="215.4837">flightService 1</text></g><!--reverse link FlightsService to FlightsServiceImpl--><g id="link_FlightsService_FlightsServiceImpl"><path codeLine="64" d="M667,311.6548 C667,330.0248 667,334.9248 667,353.3448 " fill="none" id="FlightsService-backto-FlightsServiceImpl" style="stroke:#181818;stroke-width:1.0;stroke-dasharray:7.0,7.0;"/><polygon fill="none" points="667,293.6548,661,311.6548,673,311.6548,667,293.6548" style="stroke:#181818;stroke-width:1.0;"/></g><!--link FlightsServiceImpl to ExternalAPIHandler--><g id="link_FlightsServiceImpl_ExternalAPIHandler"><path codeLine="65" d="M667,420.7148 C667,443.6348 667,468.2148 667,491.2148 " fill="none" id="FlightsServiceImpl-to-ExternalAPIHandler" style="stroke:#181818;stroke-width:1.0;"/><polygon fill="#181818" points="667,497.2148,671,488.2148,667,492.2148,663,488.2148,667,497.2148" style="stroke:#181818;stroke-width:1.0;"/><text fill="#000000" font-family="sans-serif" font-size="13" lengthAdjust="spacing" textLength="123.5698" x="532.6722" y="486.4837">externalAPIHandler 1</text></g><!--reverse link ExternalAPIHandler to ExternalAPIHandlerImpl--><g id="link_ExternalAPIHandler_ExternalAPIHandlerImpl"><path codeLine="66" d="M667,582.9148 C667,600.1148 667,603.8748 667,624.6048 " fill="none" id="ExternalAPIHandler-backto-ExternalAPIHandlerImpl" style="stroke:#181818;stroke-width:1.0;stroke-dasharray:7.0,7.0;"/><polygon fill="none" points="667,564.9148,661,582.9148,673,582.9148,667,564.9148" style="stroke:#181818;stroke-width:1.0;"/></g><!--link ExternalAPIHandlerImpl to CacheRepository--><g id="link_ExternalAPIHandlerImpl_CacheRepository"><path codeLine="67" d="M495.2,765.6648 C437.29,789.1048 380.0715,812.2533 329.2115,832.8433 " fill="none" id="ExternalAPIHandlerImpl-to-CacheRepository" style="stroke:#181818;stroke-width:1.0;"/><polygon fill="#181818" points="323.65,835.0948,333.4933,835.4252,328.2846,833.2185,330.4913,828.0098,323.65,835.0948" style="stroke:#181818;stroke-width:1.0;"/><text fill="#000000" font-family="sans-serif" font-size="13" lengthAdjust="spacing" textLength="107.6689" x="224.5378" y="823.9925">cacheRepository 1</text></g><!--reverse link CacheRepository to RedisCacheRepository--><g id="link_CacheRepository_RedisCacheRepository"><path codeLine="68" d="M221,938.3548 C221,959.4448 221,967.2348 221,989.5048 " fill="none" id="CacheRepository-backto-RedisCacheRepository" style="stroke:#181818;stroke-width:1.0;stroke-dasharray:7.0,7.0;"/><polygon fill="none" points="221,920.3548,215,938.3548,227,938.3548,221,920.3548" style="stroke:#181818;stroke-width:1.0;"/></g><!--link ExternalAPIHandlerImpl to Endpoint--><g id="link_ExternalAPIHandlerImpl_Endpoint"><path codeLine="69" d="M667,765.6648 C667,785.5248 667,800.8048 667,819.3548 " fill="none" id="ExternalAPIHandlerImpl-to-Endpoint" style="stroke:#181818;stroke-width:1.0;stroke-dasharray:7.0,7.0;"/><polygon fill="#181818" points="667,825.3548,671,816.3548,667,820.3548,663,816.3548,667,825.3548" style="stroke:#181818;stroke-width:1.0;"/><text fill="#000000" font-family="sans-serif" font-size="13" lengthAdjust="spacing" textLength="60.7217" x="603.002" y="814.2445">endpoint 1</text></g><!--link Endpoint to Method--><g id="link_Endpoint_Method"><path codeLine="70" d="M667,929.8948 C667,955.4748 667,979.6548 667,1002.0448 " fill="none" id="Endpoint-to-Method" style="stroke:#181818;stroke-width:1.0;stroke-dasharray:7.0,7.0;"/><polygon fill="#181818" points="667,1008.0448,671,999.0448,667,1003.0448,663,999.0448,667,1008.0448" style="stroke:#181818;stroke-width:1.0;"/><text fill="#000000" font-family="sans-serif" font-size="13" lengthAdjust="spacing" textLength="54.2026" x="607.7342" y="996.8526">method 1</text></g><!--SRC=[pLHDZzem4BtxLuouB2i1KgMUeXNI5j8kQj4Ye5Btj3BnR69XxDHsKADs_tljV418O4KlRNEm8i_7U_F6CvPRWJ1v3nD1ZO4ffx6cEnZ21nfjKJ92RXBE42Ak8u7ancovJAbt4LoYpLC4fMsY2B4g1QjWewnLEs1SOsIvaeIaBXED4NgHabOh8L3tu2S1zqK5w4V1uyIQoS5SMVqNeotD2yqZx2lDOou3M5dDPJm0XiPoIJrGyz8nj9d6ARKOW3y7eD7ToEFDRG7nIbuR10tglKEfsN5fKR_G26k6gzB-L-W5m5IsSPANDBjoLMHckrJy2q9DtMZAkvg5FzoVfE9-CNkWafssDQ92zDtpIfKB222i_cvhKjsgk-bQbS_llpqlm_Lo5gu2J-DWy9TFpzFmo_sJAoNJHVL_ngHITaAZ1DaIJQgamVDHZwbFJyLT6Jvk0BdWDsAzvAMnXdRPzegpCrfK8OtgCoqwZBzdgFE57rOJm0CroPocTtNJs_GsYkNUfzM1PfirfifmgtJUxVQahAvsQ30pT8_zBUPlLUhUODMNOuUQrLVwdwQv9FQ9L4jatFn7v4fdYIuDViRyYXauML09rSXgzL5cEvYZsxwiKTAdS3s0nUFAdr_TuHv-k0wFoRhRTZWSG- -bkAuttBjUQysGCrjdb8r-ZQ_mA_9ZTnquaEvKamk3Ne9Txr-0Hgt6EyJMMo1d7qW9rdQzn6paowj7qXTL_PF3d1Okkx9Jpg7i6VaD]--></g></svg>