<svg xmlns="http://www.w3.org/2000/svg" xmlns:xlink="http://www.w3.org/1999/xlink" contentStyleType="text/css" height="1079px" preserveAspectRatio="none" style="width:991px;height:1079px;background:#FFFFFF;" version="1.1" viewBox="0 0 991 1079" width="991px" zoomAndPan="magnify"><title>C4 Class Diagram - Backend</title><defs/><g><text fill="#000000" font-family="sans-serif" font-size="14" font-weight="bold" lengthAdjust="spacing" textLength="189.8545" x="393.5728" y="25.1074">C4 Class Diagram - Backend</text><!--cluster controller--><g id="cluster_controller"><path d="M33.5,45.6348 L99.0654,45.6348 A3.75,3.75 0 0 1 101.5654,48.1348 L108.5654,70.2559 L612.5,70.2559 A2.5,2.5 0 0 1 615,72.7559 L615,163.1348 A2.5,2.5 0 0 1 612.5,165.6348 L33.5,165.6348 A2.5,2.5 0 0 1 31,163.1348 L31,48.1348 A2.5,2.5 0 0 1 33.5,45.6348 " fill="none" style="stroke:#000000;stroke-width:1.5;"/><line style="stroke:#000000;stroke-width:1.5;" x1="31" x2="108.5654" y1="70.2559" y2="70.2559"/><text fill="#000000" font-family="sans-serif" font-size="14" font-weight="bold" lengthAdjust="spacing" textLength="64.5654" x="35" y="62.7422">controller</text></g><!--cluster service--><g id="cluster_service"><path d="M8.5,189.6348 L57.7686,189.6348 A3.75,3.75 0 0 1 60.2686,192.1348 L67.2686,214.2559 L637.5,214.2559 A2.5,2.5 0 0 1 640,216.7559 L640,434.1348 A2.5,2.5 0 0 1 637.5,436.6348 L8.5,436.6348 A2.5,2.5 0 0 1 6,434.1348 L6,192.1348 A2.5,2.5 0 0 1 8.5,189.6348 " fill="none" style="stroke:#000000;stroke-width:1.5;"/><line style="stroke:#000000;stroke-width:1.5;" x1="6" x2="67.2686" y1="214.2559" y2="214.2559"/><text fill="#000000" font-family="sans-serif" font-size="14" font-weight="bold" lengthAdjust="spacing" textLength="48.2686" x="10" y="206.7422">service</text></g><!--cluster api--><g id="cluster_api"><path d="M118.5,460.6348 L139.7275,460.6348 A3.75,3.75 0 0 1 142.2275,463.1348 L149.2275,485.2559 L527.5,485.2559 A2.5,2.5 0 0 1 530,487.7559 L530,1070.1348 A2.5,2.5 0 0 1 527.5,1072.6348 L118.5,1072.6348 A2.5,2.5 0 0 1 116,1070.1348 L116,463.1348 A2.5,2.5 0 0 1 118.5,460.6348 " fill="none" style="stroke:#000000;stroke-width:1.5;"/><line style="stroke:#000000;stroke-width:1.5;" x1="116" x2="149.2275" y1="485.2559" y2="485.2559"/><text fill="#000000" font-family="sans-serif" font-size="14" font-weight="bold" lengthAdjust="spacing" textLength="20.2275" x="120" y="477.7422">api</text></g><!--cluster repository--><g id="cluster_repository"><path d="M556.5,615.6348 L625.9619,615.6348 A3.75,3.75 0 0 1 628.4619,618.1348 L635.4619,640.2559 L981.5,640.2559 A2.5,2.5 0 0 1 984,642.7559 L984,943.1348 A2.5,2.5 0 0 1 981.5,945.6348 L556.5,945.6348 A2.5,2.5 0 0 1 554,943.1348 L554,618.1348 A2.5,2.5 0 0 1 556.5,615.6348 " fill="none" style="stroke:#000000;stroke-width:1.5;"/><line style="stroke:#000000;stroke-width:1.5;" x1="554" x2="635.4619" y1="640.2559" y2="640.2559"/><text fill="#000000" font-family="sans-serif" font-size="14" font-weight="bold" lengthAdjust="spacing" textLength="68.4619" x="558" y="632.7422">repository</text></g><!--class FlightsController--><g id="elem_FlightsController"><rect codeLine="9" fill="#F1F1F1" height="66.6211" id="FlightsController" rx="2.5" ry="2.5" style="stroke:#181818;stroke-width:0.5;" width="551.2666" x="47.5" y="82.6348"/><ellipse cx="267.9214" cy="98.6348" fill="#ADD1B2" rx="11" ry="11" style="stroke:#181818;stroke-width:1.0;"/><path d="M270.687,94.5098 Q270.8433,94.291 271.0308,94.1816 Q271.2183,94.0723 271.437,94.0723 Q271.812,94.0723 272.0464,94.3379 Q272.2808,94.5879 272.2808,95.1973 L272.2808,96.6504 Q272.2808,97.2598 272.0464,97.5254 Q271.812,97.791 271.437,97.791 Q271.0933,97.791 270.8901,97.5879 Q270.687,97.4004 270.5776,96.8848 Q270.5308,96.5254 270.3433,96.3379 Q270.0151,95.9629 269.4058,95.7441 Q268.7964,95.5254 268.1714,95.5254 Q267.4058,95.5254 266.7651,95.8535 Q266.1401,96.1816 265.6401,96.9316 Q265.1558,97.6816 265.1558,98.7129 L265.1558,99.8066 Q265.1558,101.041 266.0464,101.8691 Q266.937,102.6816 268.5308,102.6816 Q269.4683,102.6816 270.1245,102.4316 Q270.5151,102.2754 270.937,101.8379 Q271.2026,101.5723 271.3433,101.4941 Q271.4995,101.416 271.7026,101.416 Q272.0308,101.416 272.2808,101.6816 Q272.5464,101.9316 272.5464,102.2754 Q272.5464,102.6191 272.2026,103.0254 Q271.7026,103.6035 270.9058,103.9316 Q269.8276,104.3848 268.5308,104.3848 Q267.0151,104.3848 265.812,103.7598 Q264.8276,103.2598 264.1401,102.1973 Q263.4526,101.1191 263.4526,99.8379 L263.4526,98.6816 Q263.4526,97.3535 264.062,96.2129 Q264.687,95.0566 265.7808,94.4473 Q266.8745,93.8223 268.1089,93.8223 Q268.8433,93.8223 269.4839,93.9941 Q270.1401,94.1504 270.687,94.5098 Z " fill="#000000"/><text fill="#000000" font-family="sans-serif" font-size="14" lengthAdjust="spacing" textLength="101.9238" x="288.4214" y="104.4316">FlightsController</text><line style="stroke:#181818;stroke-width:0.5;" x1="48.5" x2="597.7666" y1="114.6348" y2="114.6348"/><line style="stroke:#181818;stroke-width:0.5;" x1="48.5" x2="597.7666" y1="122.6348" y2="122.6348"/><text fill="#000000" font-family="sans-serif" font-size="14" lengthAdjust="spacing" textLength="539.2666" x="53.5" y="141.7422">getFlightPrice(origin: String, destination: String, departureDate: Date, returnDate: Date)</text></g><!--class FlightsService--><g id="elem_FlightsService"><rect codeLine="15" fill="#F1F1F1" height="66.6211" id="FlightsService" rx="2.5" ry="2.5" style="stroke:#181818;stroke-width:0.5;" width="601.0869" x="22.5" y="226.6348"/><ellipse cx="274.835" cy="242.6348" fill="#B4A7E5" rx="11" ry="11" style="stroke:#181818;stroke-width:1.0;"/><path d="M275.7881,239.2754 L275.7881,245.9316 L277.5068,245.9316 Q278.1162,245.9316 278.3818,246.166 Q278.6475,246.4004 278.6475,246.791 Q278.6475,247.166 278.3818,247.4004 Q278.1162,247.6348 277.5068,247.6348 L272.3662,247.6348 Q271.7568,247.6348 271.4912,247.4004 Q271.2256,247.166 271.2256,246.7754 Q271.2256,246.4004 271.4912,246.166 Q271.7568,245.9316 272.3662,245.9316 L274.085,245.9316 L274.085,239.2754 L272.3662,239.2754 Q271.7568,239.2754 271.4912,239.041 Q271.2256,238.8066 271.2256,238.416 Q271.2256,238.041 271.4912,237.8066 Q271.7568,237.5723 272.3662,237.5723 L277.5068,237.5723 Q278.1162,237.5723 278.3818,237.8066 Q278.6475,238.041 278.6475,238.416 Q278.6475,238.8066 278.3818,239.041 Q278.1162,239.2754 277.5068,239.2754 L275.7881,239.2754 Z " fill="#000000"/><text fill="#000000" font-family="sans-serif" font-size="14" font-style="italic" lengthAdjust="spacing" textLength="87.917" x="295.335" y="248.4316">FlightsService</text><line style="stroke:#181818;stroke-width:0.5;" x1="23.5" x2="622.5869" y1="258.6348" y2="258.6348"/><line style="stroke:#181818;stroke-width:0.5;" x1="23.5" x2="622.5869" y1="266.6348" y2="266.6348"/><text fill="#000000" font-family="sans-serif" font-size="14" lengthAdjust="spacing" textLength="589.0869" x="28.5" y="285.7422">getFlightPrice(origin: String, destination: String, departureDate: Date, returnDate: Date): double</text></g><!--class FlightsServiceImpl--><g id="elem_FlightsServiceImpl"><rect codeLine="19" fill="#F1F1F1" height="66.6211" id="FlightsServiceImpl" rx="2.5" ry="2.5" style="stroke:#181818;stroke-width:0.5;" width="601.0869" x="22.5" y="353.6348"/><ellipse cx="261.6108" cy="369.6348" fill="#ADD1B2" rx="11" ry="11" style="stroke:#181818;stroke-width:1.0;"/><path d="M264.3765,365.5098 Q264.5327,365.291 264.7202,365.1816 Q264.9077,365.0723 265.1265,365.0723 Q265.5015,365.0723 265.7358,365.3379 Q265.9702,365.5879 265.9702,366.1973 L265.9702,367.6504 Q265.9702,368.2598 265.7358,368.5254 Q265.5015,368.791 265.1265,368.791 Q264.7827,368.791 264.5796,368.5879 Q264.3765,368.4004 264.2671,367.8848 Q264.2202,367.5254 264.0327,367.3379 Q263.7046,366.9629 263.0952,366.7441 Q262.4858,366.5254 261.8608,366.5254 Q261.0952,366.5254 260.4546,366.8535 Q259.8296,367.1816 259.3296,367.9316 Q258.8452,368.6816 258.8452,369.7129 L258.8452,370.8066 Q258.8452,372.041 259.7358,372.8691 Q260.6265,373.6816 262.2202,373.6816 Q263.1577,373.6816 263.814,373.4316 Q264.2046,373.2754 264.6265,372.8379 Q264.8921,372.5723 265.0327,372.4941 Q265.189,372.416 265.3921,372.416 Q265.7202,372.416 265.9702,372.6816 Q266.2358,372.9316 266.2358,373.2754 Q266.2358,373.6191 265.8921,374.0254 Q265.3921,374.6035 264.5952,374.9316 Q263.5171,375.3848 262.2202,375.3848 Q260.7046,375.3848 259.5015,374.7598 Q258.5171,374.2598 257.8296,373.1973 Q257.1421,372.1191 257.1421,370.8379 L257.1421,369.6816 Q257.1421,368.3535 257.7515,367.2129 Q258.3765,366.0566 259.4702,365.4473 Q260.564,364.8223 261.7983,364.8223 Q262.5327,364.8223 263.1733,364.9941 Q263.8296,365.1504 264.3765,365.5098 Z " fill="#000000"/><text fill="#000000" font-family="sans-serif" font-size="14" lengthAdjust="spacing" textLength="114.3652" x="282.1108" y="375.4316">FlightsServiceImpl</text><line style="stroke:#181818;stroke-width:0.5;" x1="23.5" x2="622.5869" y1="385.6348" y2="385.6348"/><line style="stroke:#181818;stroke-width:0.5;" x1="23.5" x2="622.5869" y1="393.6348" y2="393.6348"/><text fill="#000000" font-family="sans-serif" font-size="14" lengthAdjust="spacing" textLength="589.0869" x="28.5" y="412.7422">getFlightPrice(origin: String, destination: String, departureDate: Date, returnDate: Date): double</text></g><!--class ExternalAPIHandler--><g id="elem_ExternalAPIHandler"><rect codeLine="25" fill="#F1F1F1" height="66.6211" id="ExternalAPIHandler" rx="2.5" ry="2.5" style="stroke:#181818;stroke-width:0.5;" width="203.4473" x="221.5" y="497.6348"/><ellipse cx="258.3232" cy="513.6348" fill="#B4A7E5" rx="11" ry="11" style="stroke:#181818;stroke-width:1.0;"/><path d="M259.2764,510.2754 L259.2764,516.9316 L260.9951,516.9316 Q261.6045,516.9316 261.8701,517.166 Q262.1357,517.4004 262.1357,517.791 Q262.1357,518.166 261.8701,518.4004 Q261.6045,518.6348 260.9951,518.6348 L255.8545,518.6348 Q255.2451,518.6348 254.9795,518.4004 Q254.7139,518.166 254.7139,517.7754 Q254.7139,517.4004 254.9795,517.166 Q255.2451,516.9316 255.8545,516.9316 L257.5732,516.9316 L257.5732,510.2754 L255.8545,510.2754 Q255.2451,510.2754 254.9795,510.041 Q254.7139,509.8066 254.7139,509.416 Q254.7139,509.041 254.9795,508.8066 Q255.2451,508.5723 255.8545,508.5723 L260.9951,508.5723 Q261.6045,508.5723 261.8701,508.8066 Q262.1357,509.041 262.1357,509.416 Q262.1357,509.8066 261.8701,510.041 Q261.6045,510.2754 260.9951,510.2754 L259.2764,510.2754 Z " fill="#000000"/><text fill="#000000" font-family="sans-serif" font-size="14" font-style="italic" lengthAdjust="spacing" textLength="122.9512" x="277.1729" y="519.4316">ExternalAPIHandler</text><line style="stroke:#181818;stroke-width:0.5;" x1="222.5" x2="423.9473" y1="529.6348" y2="529.6348"/><line style="stroke:#181818;stroke-width:0.5;" x1="222.5" x2="423.9473" y1="537.6348" y2="537.6348"/><text fill="#000000" font-family="sans-serif" font-size="14" lengthAdjust="spacing" textLength="191.4473" x="227.5" y="556.7422">call(endpoint: Endpoint): String</text></g><!--class ExternalAPIHandlerImpl--><g id="elem_ExternalAPIHandlerImpl"><rect codeLine="29" fill="#F1F1F1" height="141.1055" id="ExternalAPIHandlerImpl" rx="2.5" ry="2.5" style="stroke:#181818;stroke-width:0.5;" width="381.6943" x="132" y="624.6348"/><ellipse cx="243.8975" cy="640.6348" fill="#ADD1B2" rx="11" ry="11" style="stroke:#181818;stroke-width:1.0;"/><path d="M246.6631,636.5098 Q246.8193,636.291 247.0068,636.1816 Q247.1943,636.0723 247.4131,636.0723 Q247.7881,636.0723 248.0225,636.3379 Q248.2568,636.5879 248.2568,637.1973 L248.2568,638.6504 Q248.2568,639.2598 248.0225,639.5254 Q247.7881,639.791 247.4131,639.791 Q247.0693,639.791 246.8662,639.5879 Q246.6631,639.4004 246.5537,638.8848 Q246.5068,638.5254 246.3193,638.3379 Q245.9912,637.9629 245.3818,637.7441 Q244.7725,637.5254 244.1475,637.5254 Q243.3818,637.5254 242.7412,637.8535 Q242.1162,638.1816 241.6162,638.9316 Q241.1318,639.6816 241.1318,640.7129 L241.1318,641.8066 Q241.1318,643.041 242.0225,643.8691 Q242.9131,644.6816 244.5068,644.6816 Q245.4443,644.6816 246.1006,644.4316 Q246.4912,644.2754 246.9131,643.8379 Q247.1787,643.5723 247.3193,643.4941 Q247.4756,643.416 247.6787,643.416 Q248.0068,643.416 248.2568,643.6816 Q248.5225,643.9316 248.5225,644.2754 Q248.5225,644.6191 248.1787,645.0254 Q247.6787,645.6035 246.8818,645.9316 Q245.8037,646.3848 244.5068,646.3848 Q242.9912,646.3848 241.7881,645.7598 Q240.8037,645.2598 240.1162,644.1973 Q239.4287,643.1191 239.4287,641.8379 L239.4287,640.6816 Q239.4287,639.3535 240.0381,638.2129 Q240.6631,637.0566 241.7568,636.4473 Q242.8506,635.8223 244.085,635.8223 Q244.8193,635.8223 245.46,635.9941 Q246.1162,636.1504 246.6631,636.5098 Z " fill="#000000"/><text fill="#000000" font-family="sans-serif" font-size="14" lengthAdjust="spacing" textLength="149.3994" x="264.3975" y="646.4316">ExternalAPIHandlerImpl</text><line style="stroke:#181818;stroke-width:0.5;" x1="133" x2="512.6943" y1="656.6348" y2="656.6348"/><text fill="#000000" font-family="sans-serif" font-size="14" lengthAdjust="spacing" textLength="121.3652" x="138" y="675.7422">MAX_RETRIES: int</text><text fill="#000000" font-family="sans-serif" font-size="14" lengthAdjust="spacing" textLength="161.8408" x="138" y="694.3633">RETRY_DELAY: Duration</text><line style="stroke:#181818;stroke-width:0.5;" x1="133" x2="512.6943" y1="701.877" y2="701.877"/><text fill="#000000" font-family="sans-serif" font-size="14" lengthAdjust="spacing" textLength="191.4473" x="138" y="720.9844">call(endpoint: Endpoint): String</text><text fill="#000000" font-family="sans-serif" font-size="14" lengthAdjust="spacing" textLength="369.6943" x="138" y="739.6055">getCachedResponse(endpoint: Endpoint): Optional&lt;String&gt;</text><text fill="#000000" font-family="sans-serif" font-size="14" lengthAdjust="spacing" textLength="369.6738" x="138" y="758.2266">cacheResponse(endpoint: Endpoint, response: String): void</text></g><!--class Endpoint--><g id="elem_Endpoint"><rect codeLine="37" fill="#F1F1F1" height="103.8633" id="Endpoint" rx="2.5" ry="2.5" style="stroke:#181818;stroke-width:0.5;" width="260.2266" x="193" y="825.6348"/><ellipse cx="291.229" cy="841.6348" fill="#ADD1B2" rx="11" ry="11" style="stroke:#181818;stroke-width:1.0;"/><path d="M293.9946,837.5098 Q294.1509,837.291 294.3384,837.1816 Q294.5259,837.0723 294.7446,837.0723 Q295.1196,837.0723 295.354,837.3379 Q295.5884,837.5879 295.5884,838.1973 L295.5884,839.6504 Q295.5884,840.2598 295.354,840.5254 Q295.1196,840.791 294.7446,840.791 Q294.4009,840.791 294.1978,840.5879 Q293.9946,840.4004 293.8853,839.8848 Q293.8384,839.5254 293.6509,839.3379 Q293.3228,838.9629 292.7134,838.7441 Q292.104,838.5254 291.479,838.5254 Q290.7134,838.5254 290.0728,838.8535 Q289.4478,839.1816 288.9478,839.9316 Q288.4634,840.6816 288.4634,841.7129 L288.4634,842.8066 Q288.4634,844.041 289.354,844.8691 Q290.2446,845.6816 291.8384,845.6816 Q292.7759,845.6816 293.4321,845.4316 Q293.8228,845.2754 294.2446,844.8379 Q294.5103,844.5723 294.6509,844.4941 Q294.8071,844.416 295.0103,844.416 Q295.3384,844.416 295.5884,844.6816 Q295.854,844.9316 295.854,845.2754 Q295.854,845.6191 295.5103,846.0254 Q295.0103,846.6035 294.2134,846.9316 Q293.1353,847.3848 291.8384,847.3848 Q290.3228,847.3848 289.1196,846.7598 Q288.1353,846.2598 287.4478,845.1973 Q286.7603,844.1191 286.7603,842.8379 L286.7603,841.6816 Q286.7603,840.3535 287.3696,839.2129 Q287.9946,838.0566 289.0884,837.4473 Q290.1821,836.8223 291.4165,836.8223 Q292.1509,836.8223 292.7915,836.9941 Q293.4478,837.1504 293.9946,837.5098 Z " fill="#000000"/><text fill="#000000" font-family="sans-serif" font-size="14" lengthAdjust="spacing" textLength="55.2686" x="311.729" y="847.4316">Endpoint</text><line style="stroke:#181818;stroke-width:0.5;" x1="194" x2="452.2266" y1="857.6348" y2="857.6348"/><text fill="#000000" font-family="sans-serif" font-size="14" lengthAdjust="spacing" textLength="59.9102" x="199" y="876.7422">url: String</text><text fill="#000000" font-family="sans-serif" font-size="14" lengthAdjust="spacing" textLength="248.2266" x="199" y="895.3633">queryParams: HashMap&lt;String, String&gt;</text><text fill="#000000" font-family="sans-serif" font-size="14" lengthAdjust="spacing" textLength="107.3926" x="199" y="913.9844">bodyHash: String</text><line style="stroke:#181818;stroke-width:0.5;" x1="194" x2="452.2266" y1="921.498" y2="921.498"/></g><!--class Method--><g id="elem_Method"><rect codeLine="43" fill="#F1F1F1" height="66.6211" id="Method" rx="2.5" ry="2.5" style="stroke:#181818;stroke-width:0.5;" width="184.6963" x="230.5" y="989.6348"/><ellipse cx="295.25" cy="1005.6348" fill="#EB937F" rx="11" ry="11" style="stroke:#181818;stroke-width:1.0;"/><path d="M294.1094,1006.4316 L294.1094,1008.9316 L298.4375,1008.9316 L298.4375,1008.0098 Q298.4375,1007.4004 298.6719,1007.1348 Q298.9219,1006.8691 299.2969,1006.8691 Q299.6719,1006.8691 299.9063,1007.1348 Q300.1406,1007.4004 300.1406,1008.0098 L300.1406,1010.6348 L292.1406,1010.6348 Q291.5156,1010.6348 291.25,1010.4004 Q291,1010.166 291,1009.7754 Q291,1009.4004 291.2656,1009.166 Q291.5313,1008.9316 292.1406,1008.9316 L292.4063,1008.9316 L292.4063,1002.2754 L292.1406,1002.2754 Q291.5156,1002.2754 291.25,1002.041 Q291,1001.8066 291,1001.416 Q291,1001.041 291.25,1000.8066 Q291.5156,1000.5723 292.1406,1000.5723 L299.7656,1000.5723 L299.7656,1003.166 Q299.7656,1003.7754 299.5313,1004.041 Q299.3125,1004.291 298.9219,1004.291 Q298.5469,1004.291 298.3125,1004.041 Q298.0781,1003.7754 298.0781,1003.166 L298.0781,1002.2754 L294.1094,1002.2754 L294.1094,1004.7285 L295.5938,1004.7285 Q295.5938,1004.0723 295.7188,1003.8848 Q295.9844,1003.4785 296.4531,1003.4785 Q296.8281,1003.4785 297.0625,1003.7441 Q297.2969,1003.9941 297.2969,1004.6035 L297.2969,1006.5723 Q297.2969,1007.1191 297.1719,1007.3066 Q296.9063,1007.6973 296.4531,1007.6973 Q295.9844,1007.6973 295.7188,1007.291 Q295.5938,1007.1035 295.5938,1006.4316 L294.1094,1006.4316 Z " fill="#000000"/><text fill="#000000" font-family="sans-serif" font-size="14" lengthAdjust="spacing" textLength="46.6963" x="315.75" y="1011.4316">Method</text><line style="stroke:#181818;stroke-width:0.5;" x1="231.5" x2="414.1963" y1="1021.6348" y2="1021.6348"/><text fill="#000000" font-family="sans-serif" font-size="14" lengthAdjust="spacing" textLength="172.6963" x="236.5" y="1040.7422">GET, POST, PUT, DELETE</text><line style="stroke:#181818;stroke-width:0.5;" x1="231.5" x2="414.1963" y1="1048.2559" y2="1048.2559"/></g><!--class CacheRepository--><g id="elem_CacheRepository"><rect codeLine="49" fill="#F1F1F1" height="85.2422" id="CacheRepository" rx="2.5" ry="2.5" style="stroke:#181818;stroke-width:0.5;" width="397.9844" x="570" y="652.6348"/><ellipse cx="711.0493" cy="668.6348" fill="#B4A7E5" rx="11" ry="11" style="stroke:#181818;stroke-width:1.0;"/><path d="M712.0024,665.2754 L712.0024,671.9316 L713.7212,671.9316 Q714.3306,671.9316 714.5962,672.166 Q714.8618,672.4004 714.8618,672.791 Q714.8618,673.166 714.5962,673.4004 Q714.3306,673.6348 713.7212,673.6348 L708.5806,673.6348 Q707.9712,673.6348 707.7056,673.4004 Q707.4399,673.166 707.4399,672.7754 Q707.4399,672.4004 707.7056,672.166 Q707.9712,671.9316 708.5806,671.9316 L710.2993,671.9316 L710.2993,665.2754 L708.5806,665.2754 Q707.9712,665.2754 707.7056,665.041 Q707.4399,664.8066 707.4399,664.416 Q707.4399,664.041 707.7056,663.8066 Q707.9712,663.5723 708.5806,663.5723 L713.7212,663.5723 Q714.3306,663.5723 714.5962,663.8066 Q714.8618,664.041 714.8618,664.416 Q714.8618,664.8066 714.5962,665.041 Q714.3306,665.2754 713.7212,665.2754 L712.0024,665.2754 Z " fill="#000000"/><text fill="#000000" font-family="sans-serif" font-size="14" font-style="italic" lengthAdjust="spacing" textLength="107.3857" x="731.5493" y="674.4316">CacheRepository</text><line style="stroke:#181818;stroke-width:0.5;" x1="571" x2="966.9844" y1="684.6348" y2="684.6348"/><line style="stroke:#181818;stroke-width:0.5;" x1="571" x2="966.9844" y1="692.6348" y2="692.6348"/><text fill="#000000" font-family="sans-serif" font-size="14" lengthAdjust="spacing" textLength="385.9844" x="576" y="711.7422">save(key: Endpoint, response: String, duration: Duration): void</text><text fill="#000000" font-family="sans-serif" font-size="14" lengthAdjust="spacing" textLength="226.4678" x="576" y="730.3633">get(key: Endpoint): Optional&lt;String&gt;</text></g><!--class RedisCacheRepository--><g id="elem_RedisCacheRepository"><rect codeLine="54" fill="#F1F1F1" height="103.8633" id="RedisCacheRepository" rx="2.5" ry="2.5" style="stroke:#181818;stroke-width:0.5;" width="397.9844" x="570" y="825.6348"/><ellipse cx="693.1528" cy="841.6348" fill="#ADD1B2" rx="11" ry="11" style="stroke:#181818;stroke-width:1.0;"/><path d="M695.9185,837.5098 Q696.0747,837.291 696.2622,837.1816 Q696.4497,837.0723 696.6685,837.0723 Q697.0435,837.0723 697.2778,837.3379 Q697.5122,837.5879 697.5122,838.1973 L697.5122,839.6504 Q697.5122,840.2598 697.2778,840.5254 Q697.0435,840.791 696.6685,840.791 Q696.3247,840.791 696.1216,840.5879 Q695.9185,840.4004 695.8091,839.8848 Q695.7622,839.5254 695.5747,839.3379 Q695.2466,838.9629 694.6372,838.7441 Q694.0278,838.5254 693.4028,838.5254 Q692.6372,838.5254 691.9966,838.8535 Q691.3716,839.1816 690.8716,839.9316 Q690.3872,840.6816 690.3872,841.7129 L690.3872,842.8066 Q690.3872,844.041 691.2778,844.8691 Q692.1685,845.6816 693.7622,845.6816 Q694.6997,845.6816 695.356,845.4316 Q695.7466,845.2754 696.1685,844.8379 Q696.4341,844.5723 696.5747,844.4941 Q696.731,844.416 696.9341,844.416 Q697.2622,844.416 697.5122,844.6816 Q697.7778,844.9316 697.7778,845.2754 Q697.7778,845.6191 697.4341,846.0254 Q696.9341,846.6035 696.1372,846.9316 Q695.0591,847.3848 693.7622,847.3848 Q692.2466,847.3848 691.0435,846.7598 Q690.0591,846.2598 689.3716,845.1973 Q688.6841,844.1191 688.6841,842.8379 L688.6841,841.6816 Q688.6841,840.3535 689.2935,839.2129 Q689.9185,838.0566 691.0122,837.4473 Q692.106,836.8223 693.3403,836.8223 Q694.0747,836.8223 694.7153,836.9941 Q695.3716,837.1504 695.9185,837.5098 Z " fill="#000000"/><text fill="#000000" font-family="sans-serif" font-size="14" lengthAdjust="spacing" textLength="143.1787" x="713.6528" y="847.4316">RedisCacheRepository</text><line style="stroke:#181818;stroke-width:0.5;" x1="571" x2="966.9844" y1="857.6348" y2="857.6348"/><line style="stroke:#181818;stroke-width:0.5;" x1="571" x2="966.9844" y1="865.6348" y2="865.6348"/><text fill="#000000" font-family="sans-serif" font-size="14" lengthAdjust="spacing" textLength="385.9844" x="576" y="884.7422">save(key: Endpoint, response: String, duration: Duration): void</text><text fill="#000000" font-family="sans-serif" font-size="14" lengthAdjust="spacing" textLength="226.4678" x="576" y="903.3633">get(key: Endpoint): Optional&lt;String&gt;</text><text fill="#000000" font-family="sans-serif" font-size="14" lengthAdjust="spacing" textLength="249.833" x="576" y="921.9844">generateKey(endpoint: Endpoint): String</text></g><!--link FlightsController to FlightsService--><g id="link_FlightsController_FlightsService"><path codeLine="61" d="M323,149.7148 C323,172.6348 323,197.2148 323,220.2148 " fill="none" id="FlightsController-to-FlightsService" style="stroke:#181818;stroke-width:1.0;"/><polygon fill="#181818" points="323,226.2148,327,217.2148,323,221.2148,319,217.2148,323,226.2148" style="stroke:#181818;stroke-width:1.0;"/><text fill="#000000" font-family="sans-serif" font-size="13" lengthAdjust="spacing" textLength="81.6499" x="234.5847" y="215.4837">flightService 1</text></g><!--reverse link FlightsService to FlightsServiceImpl--><g id="link_FlightsService_FlightsServiceImpl"><path codeLine="62" d="M323,311.6548 C323,330.0248 323,334.9248 323,353.3448 " fill="none" id="FlightsService-backto-FlightsServiceImpl" style="stroke:#181818;stroke-width:1.0;stroke-dasharray:7.0,7.0;"/><polygon fill="none" points="323,293.6548,317,311.6548,329,311.6548,323,293.6548" style="stroke:#181818;stroke-width:1.0;"/></g><!--link FlightsServiceImpl to ExternalAPIHandler--><g id="link_FlightsServiceImpl_ExternalAPIHandler"><path codeLine="63" d="M323,420.7148 C323,443.6348 323,468.2148 323,491.2148 " fill="none" id="FlightsServiceImpl-to-ExternalAPIHandler" style="stroke:#181818;stroke-width:1.0;"/><polygon fill="#181818" points="323,497.2148,327,488.2148,323,492.2148,319,488.2148,323,497.2148" style="stroke:#181818;stroke-width:1.0;"/><text fill="#000000" font-family="sans-serif" font-size="13" lengthAdjust="spacing" textLength="123.5698" x="188.6722" y="486.4837">externalAPIHandler 1</text></g><!--reverse link ExternalAPIHandler to ExternalAPIHandlerImpl--><g id="link_ExternalAPIHandler_ExternalAPIHandlerImpl"><path codeLine="64" d="M323,582.9148 C323,600.1148 323,603.8748 323,624.6048 " fill="none" id="ExternalAPIHandler-backto-ExternalAPIHandlerImpl" style="stroke:#181818;stroke-width:1.0;stroke-dasharray:7.0,7.0;"/><polygon fill="none" points="323,564.9148,317,582.9148,329,582.9148,323,564.9148" style="stroke:#181818;stroke-width:1.0;"/></g><!--link ExternalAPIHandlerImpl to CacheRepository--><g id="link_ExternalAPIHandlerImpl_CacheRepository"><path codeLine="65" d="M514.21,695.1348 C532.78,695.1348 545.36,695.1348 563.94,695.1348 " fill="none" id="ExternalAPIHandlerImpl-to-CacheRepository" style="stroke:#181818;stroke-width:1.0;"/><polygon fill="#181818" points="569.94,695.1348,560.94,691.1348,564.94,695.1348,560.94,699.1348,569.94,695.1348" style="stroke:#181818;stroke-width:1.0;"/><text fill="#000000" font-family="sans-serif" font-size="13" lengthAdjust="spacing" textLength="107.6689" x="453.6354" y="685.6517">cacheRepository 1</text></g><!--reverse link CacheRepository to RedisCacheRepository--><g id="link_CacheRepository_RedisCacheRepository"><path codeLine="66" d="M769,755.9948 C769,782.0348 769,797.6948 769,825.3348 " fill="none" id="CacheRepository-backto-RedisCacheRepository" style="stroke:#181818;stroke-width:1.0;stroke-dasharray:7.0,7.0;"/><polygon fill="none" points="769,737.9948,763,755.9948,775,755.9948,769,737.9948" style="stroke:#181818;stroke-width:1.0;"/></g><!--link ExternalAPIHandlerImpl to Endpoint--><g id="link_ExternalAPIHandlerImpl_Endpoint"><path codeLine="67" d="M323,765.6648 C323,785.5248 323,800.8048 323,819.3548 " fill="none" id="ExternalAPIHandlerImpl-to-Endpoint" style="stroke:#181818;stroke-width:1.0;stroke-dasharray:7.0,7.0;"/><polygon fill="#181818" points="323,825.3548,327,816.3548,323,820.3548,319,816.3548,323,825.3548" style="stroke:#181818;stroke-width:1.0;"/><text fill="#000000" font-family="sans-serif" font-size="13" lengthAdjust="spacing" textLength="60.7217" x="259.002" y="814.2445">endpoint 1</text></g><!--link Endpoint to Method--><g id="link_Endpoint_Method"><path codeLine="68" d="M323,930.0348 C323,949.8248 323,965.8548 323,983.4048 " fill="none" id="Endpoint-to-Method" style="stroke:#181818;stroke-width:1.0;stroke-dasharray:7.0,7.0;"/><polygon fill="#181818" points="323,989.4048,327,980.4048,323,984.4048,319,980.4048,323,989.4048" style="stroke:#181818;stroke-width:1.0;"/><text fill="#000000" font-family="sans-serif" font-size="13" lengthAdjust="spacing" textLength="54.2026" x="263.9014" y="978.4468">method 1</text></g><!--SRC=[pLHDZzem4BtxLuouB2i1KgMUeXKIXRIBMhG8gDGzhKmy6ooCdTeEQjJkVw-T3pOaOKKlRNsmBC_7U_F6OykjG9Y-XwcWni2CqrZJ0mpX0utsA1aXDplE42Ak8u7ankovJAXt4LoYpH84fUrE4M9L0bR1Lbch3i2uniXo9Gb9N2OQ8_GY9QrMGg3kmKy2RaKvw4V1uvqrqvEvjFeLeotCIyqZx2lDOou3M5lDPJm0XiPoIJrG_T8njAd66RKOWDy7eD7ToDURsnpYXRpK21hKHuTIiUFIedwc4LOCruNzhz0BWAbqwoGlQBRbAidC3udu5uJgkj64jpKBVxYJf6AodDzJoSxR6b4X-kvv9Se5112MfzkALBlgThf6vOl9jwTLk5dDmtNWQPmC_lBnQHP-cJowKbATL_zdJ4fbfpJQ8LkXIPGqs1traFZqLDmLuUCQa0j-8zPBNXWhQ9Vjg3ZhqA8CgLMVQj5Y_3r5dItzi9e0xgdPBMXoLpMzIM-hMEPz6XtmUxwXJ0-mG3Vgh0RxATmCOFcmzljNjpcLmqtOyKGq9ifmgtJMVYdJGfdAePRUq2FszvYzfP9xlsLFNxjRLwxitNcQIuqwatc5Z9l_Y5pXBD6bmS-ONJ4_hfpsvpeSZg7td5zN7zgxNkDN8HsVp2WT_HfVuPVdn_RqEv3s49CBSrs0NUy_r1urQZJBGJRwHpgRMg0rNIzH6_dwgX7qLPLdSfhBtELG38jpACQ6_0O0]--></g></svg>