<svg xmlns="http://www.w3.org/2000/svg" xmlns:xlink="http://www.w3.org/1999/xlink" contentStyleType="text/css" height="608px" preserveAspectRatio="none" style="width:1176px;height:608px;background:#FFFFFF;" version="1.1" viewBox="0 0 1176 608" width="1176px" zoomAndPan="magnify"><title>Sequentiediagram: Verschillende boekingsservices integreren</title><defs/><g><text fill="#000000" font-family="sans-serif" font-size="14" font-weight="bold" lengthAdjust="spacing" textLength="414.709" x="382.4131" y="30.1074">Sequentiediagram: Verschillende boekingsservices integreren</text><rect fill="none" height="144.4551" style="stroke:#000000;stroke-width:1.5;" width="613.4736" x="557.0615" y="220.1152"/><rect fill="none" height="98.5039" style="stroke:#000000;stroke-width:1.5;" width="362.9243" x="10" y="409.8613"/><line style="stroke:#181818;stroke-width:0.5;stroke-dasharray:5.0,5.0;" x1="53" x2="53" y1="123.2422" y2="525.3652"/><line style="stroke:#181818;stroke-width:0.5;stroke-dasharray:5.0,5.0;" x1="299.6421" x2="299.6421" y1="123.2422" y2="525.3652"/><line style="stroke:#181818;stroke-width:0.5;stroke-dasharray:5.0,5.0;" x1="622.0615" x2="622.0615" y1="123.2422" y2="525.3652"/><line style="stroke:#181818;stroke-width:0.5;stroke-dasharray:5.0,5.0;" x1="944.5225" x2="944.5225" y1="123.2422" y2="525.3652"/><line style="stroke:#181818;stroke-width:0.5;stroke-dasharray:5.0,5.0;" x1="1092.708" x2="1092.708" y1="123.2422" y2="525.3652"/><text fill="#000000" font-family="sans-serif" font-size="14" lengthAdjust="spacing" textLength="61.4688" x="20" y="119.7285">Gebruiker</text><ellipse cx="53.7344" cy="53.1211" fill="#E2E2F0" rx="8" ry="8" style="stroke:#181818;stroke-width:0.5;"/><path d="M53.7344,61.1211 L53.7344,88.1211 M40.7344,69.1211 L66.7344,69.1211 M53.7344,88.1211 L40.7344,103.1211 M53.7344,88.1211 L66.7344,103.1211 " fill="none" style="stroke:#181818;stroke-width:0.5;"/><text fill="#000000" font-family="sans-serif" font-size="14" lengthAdjust="spacing" textLength="61.4688" x="20" y="539.4727">Gebruiker</text><ellipse cx="53.7344" cy="551.4863" fill="#E2E2F0" rx="8" ry="8" style="stroke:#181818;stroke-width:0.5;"/><path d="M53.7344,559.4863 L53.7344,586.4863 M40.7344,567.4863 L66.7344,567.4863 M53.7344,586.4863 L40.7344,601.4863 M53.7344,586.4863 L66.7344,601.4863 " fill="none" style="stroke:#181818;stroke-width:0.5;"/><rect fill="#E2E2F0" height="32.6211" rx="2.5" ry="2.5" style="stroke:#181818;stroke-width:0.5;" width="125.2822" x="237.6421" y="89.6211"/><text fill="#000000" font-family="sans-serif" font-size="14" lengthAdjust="spacing" textLength="111.2822" x="244.6421" y="111.7285">BookingController</text><rect fill="#E2E2F0" height="32.6211" rx="2.5" ry="2.5" style="stroke:#181818;stroke-width:0.5;" width="125.2822" x="237.6421" y="524.3652"/><text fill="#000000" font-family="sans-serif" font-size="14" lengthAdjust="spacing" textLength="111.2822" x="244.6421" y="546.4727">BookingController</text><rect fill="#E2E2F0" height="32.6211" rx="2.5" ry="2.5" style="stroke:#181818;stroke-width:0.5;" width="111.2754" x="567.0615" y="89.6211"/><text fill="#000000" font-family="sans-serif" font-size="14" lengthAdjust="spacing" textLength="97.2754" x="574.0615" y="111.7285">BookingService</text><rect fill="#E2E2F0" height="32.6211" rx="2.5" ry="2.5" style="stroke:#181818;stroke-width:0.5;" width="111.2754" x="567.0615" y="524.3652"/><text fill="#000000" font-family="sans-serif" font-size="14" lengthAdjust="spacing" textLength="97.2754" x="574.0615" y="546.4727">BookingService</text><rect fill="#E2E2F0" height="32.6211" rx="2.5" ry="2.5" style="stroke:#181818;stroke-width:0.5;" width="143.1855" x="873.5225" y="89.6211"/><text fill="#000000" font-family="sans-serif" font-size="14" lengthAdjust="spacing" textLength="129.1855" x="880.5225" y="111.7285">BookingComAdapter</text><rect fill="#E2E2F0" height="32.6211" rx="2.5" ry="2.5" style="stroke:#181818;stroke-width:0.5;" width="143.1855" x="873.5225" y="524.3652"/><text fill="#000000" font-family="sans-serif" font-size="14" lengthAdjust="spacing" textLength="129.1855" x="880.5225" y="546.4727">BookingComAdapter</text><rect fill="#E2E2F0" height="32.6211" rx="2.5" ry="2.5" style="stroke:#181818;stroke-width:0.5;" width="133.8271" x="1026.708" y="89.6211"/><text fill="#000000" font-family="sans-serif" font-size="14" lengthAdjust="spacing" textLength="119.8271" x="1033.708" y="111.7285">TripAdvisorAdapter</text><rect fill="#E2E2F0" height="32.6211" rx="2.5" ry="2.5" style="stroke:#181818;stroke-width:0.5;" width="133.8271" x="1026.708" y="524.3652"/><text fill="#000000" font-family="sans-serif" font-size="14" lengthAdjust="spacing" textLength="119.8271" x="1033.708" y="546.4727">TripAdvisorAdapter</text><polygon fill="#181818" points="288.2832,169.8242,298.2832,173.8242,288.2832,177.8242,292.2832,173.8242" style="stroke:#181818;stroke-width:1.0;"/><line style="stroke:#181818;stroke-width:1.0;" x1="53.7344" x2="294.2832" y1="173.8242" y2="173.8242"/><text fill="#000000" font-family="sans-serif" font-size="13" lengthAdjust="spacing" textLength="111.2681" x="60.7344" y="151.2705">GET /hotels/search</text><text fill="#000000" font-family="sans-serif" font-size="13" lengthAdjust="spacing" textLength="222.5488" x="60.7344" y="168.5615">(location, checkInDate, checkOutDate)</text><polygon fill="#181818" points="610.6992,201.1152,620.6992,205.1152,610.6992,209.1152,614.6992,205.1152" style="stroke:#181818;stroke-width:1.0;"/><line style="stroke:#181818;stroke-width:1.0;" x1="300.2832" x2="616.6992" y1="205.1152" y2="205.1152"/><text fill="#000000" font-family="sans-serif" font-size="13" lengthAdjust="spacing" textLength="298.416" x="307.2832" y="199.8525">searchHotels(location, checkInDate, checkOutDate)</text><path d="M557.0615,220.1152 L629.4961,220.1152 L629.4961,229.4063 L619.4961,239.4063 L557.0615,239.4063 L557.0615,220.1152 " fill="#EEEEEE" style="stroke:#000000;stroke-width:1.5;"/><rect fill="none" height="144.4551" style="stroke:#000000;stroke-width:1.5;" width="613.4736" x="557.0615" y="220.1152"/><text fill="#000000" font-family="sans-serif" font-size="13" font-weight="bold" lengthAdjust="spacing" textLength="27.4346" x="572.0615" y="235.1436">loop</text><text fill="#000000" font-family="sans-serif" font-size="11" font-weight="bold" lengthAdjust="spacing" textLength="168.7061" x="644.4961" y="233.9854">[Voor elke adapter in adapters[]]</text><polygon fill="#181818" points="933.1152,258.6973,943.1152,262.6973,933.1152,266.6973,937.1152,262.6973" style="stroke:#181818;stroke-width:1.0;"/><line style="stroke:#181818;stroke-width:1.0;" x1="622.6992" x2="939.1152" y1="262.6973" y2="262.6973"/><text fill="#000000" font-family="sans-serif" font-size="13" lengthAdjust="spacing" textLength="298.416" x="629.6992" y="257.4346">searchHotels(location, checkInDate, checkOutDate)</text><polygon fill="#181818" points="633.6992,289.9883,623.6992,293.9883,633.6992,297.9883,629.6992,293.9883" style="stroke:#181818;stroke-width:1.0;"/><line style="stroke:#181818;stroke-width:1.0;stroke-dasharray:2.0,2.0;" x1="627.6992" x2="944.1152" y1="293.9883" y2="293.9883"/><text fill="#000000" font-family="sans-serif" font-size="13" lengthAdjust="spacing" textLength="37.5718" x="639.6992" y="288.7256">Hotel[]</text><polygon fill="#181818" points="1081.6216,321.2793,1091.6216,325.2793,1081.6216,329.2793,1085.6216,325.2793" style="stroke:#181818;stroke-width:1.0;"/><line style="stroke:#181818;stroke-width:1.0;" x1="622.6992" x2="1087.6216" y1="325.2793" y2="325.2793"/><text fill="#000000" font-family="sans-serif" font-size="13" lengthAdjust="spacing" textLength="298.416" x="629.6992" y="320.0166">searchHotels(location, checkInDate, checkOutDate)</text><polygon fill="#181818" points="633.6992,352.5703,623.6992,356.5703,633.6992,360.5703,629.6992,356.5703" style="stroke:#181818;stroke-width:1.0;"/><line style="stroke:#181818;stroke-width:1.0;stroke-dasharray:2.0,2.0;" x1="627.6992" x2="1092.6216" y1="356.5703" y2="356.5703"/><text fill="#000000" font-family="sans-serif" font-size="13" lengthAdjust="spacing" textLength="37.5718" x="639.6992" y="351.3076">Hotel[]</text><polygon fill="#181818" points="311.2832,390.8613,301.2832,394.8613,311.2832,398.8613,307.2832,394.8613" style="stroke:#181818;stroke-width:1.0;"/><line style="stroke:#181818;stroke-width:1.0;stroke-dasharray:2.0,2.0;" x1="305.2832" x2="621.6992" y1="394.8613" y2="394.8613"/><text fill="#000000" font-family="sans-serif" font-size="13" lengthAdjust="spacing" textLength="177.7598" x="317.2832" y="389.5986">Gecombineerde lijst van hotels</text><path d="M10,409.8613 L70.1709,409.8613 L70.1709,419.1523 L60.1709,429.1523 L10,429.1523 L10,409.8613 " fill="#EEEEEE" style="stroke:#000000;stroke-width:1.5;"/><rect fill="none" height="98.5039" style="stroke:#000000;stroke-width:1.5;" width="362.9243" x="10" y="409.8613"/><text fill="#000000" font-family="sans-serif" font-size="13" font-weight="bold" lengthAdjust="spacing" textLength="15.1709" x="25" y="424.8896">alt</text><text fill="#000000" font-family="sans-serif" font-size="11" font-weight="bold" lengthAdjust="spacing" textLength="95.9492" x="85.1709" y="423.7314">[Hotels gevonden]</text><polygon fill="#181818" points="64.7344,448.4434,54.7344,452.4434,64.7344,456.4434,60.7344,452.4434" style="stroke:#181818;stroke-width:1.0;"/><line style="stroke:#181818;stroke-width:1.0;stroke-dasharray:2.0,2.0;" x1="58.7344" x2="299.2832" y1="452.4434" y2="452.4434"/><text fill="#000000" font-family="sans-serif" font-size="13" lengthAdjust="spacing" textLength="161.1099" x="70.7344" y="447.1807">HTTP 200 OK met hotel lijst</text><line style="stroke:#000000;stroke-width:1.0;stroke-dasharray:2.0,2.0;" x1="10" x2="372.9243" y1="461.4434" y2="461.4434"/><text fill="#000000" font-family="sans-serif" font-size="11" font-weight="bold" lengthAdjust="spacing" textLength="125.2915" x="15" y="473.3135">[Geen hotels gevonden]</text><polygon fill="#181818" points="64.7344,496.3652,54.7344,500.3652,64.7344,504.3652,60.7344,500.3652" style="stroke:#181818;stroke-width:1.0;"/><line style="stroke:#181818;stroke-width:1.0;stroke-dasharray:2.0,2.0;" x1="58.7344" x2="299.2832" y1="500.3652" y2="500.3652"/><text fill="#000000" font-family="sans-serif" font-size="13" lengthAdjust="spacing" textLength="123.5571" x="70.7344" y="495.1025">HTTP 404 Not Found</text><!--SRC=[dP9DJyCm38Rl-HK-WiJ4X7RQ0Mby3OJ4a5Rj0Xoor6fDqxWaRdy_sRhlRWYjfqQ9d_Ur_Gg9HPZYJurE25FIcTVb46ReWyd9MdGfmfon89U5WBuXWm782MOUFJgbj17sCCQvhwb0hohjXGnLsWdSCIyAxzc9vmWxUZjjgSSBor6gApaeJ3nLexIXm7vzhJO6e7VRrHt2-361wvm5RRWEgBt9Fzs5PQE5s5s1oT4KB-v12wuEareMfqlLWUqehBmFeKK-B_d_mohBNC6Cu_3G5WYwxIJETlqRFhuKn6zVQw-_zNZECR23teAWTwIv9JMQEU6ckuvpxNH9V_g9uLJgqC-9zQFXSauEqST0M_eE0ersq2OYfjXAYmsGOSCnzMv_GDlbHu5DsAAN97c7ctuV9gzGehJ0La156iQtk9Ov1pte3-2D1PwuZjqkElu5]--></g></svg>