<svg xmlns="http://www.w3.org/2000/svg" xmlns:xlink="http://www.w3.org/1999/xlink" contentStyleType="text/css" height="849px" preserveAspectRatio="none" style="width:1120px;height:849px;background:#FFFFFF;" version="1.1" viewBox="0 0 1120 849" width="1120px" zoomAndPan="magnify"><title>C4 Class Diagram: Verschillende boekingsservices integreren</title><defs/><g><text fill="#000000" font-family="sans-serif" font-size="14" font-weight="bold" lengthAdjust="spacing" textLength="412.3984" x="346.8008" y="25.1074">C4 Class Diagram: Verschillende boekingsservices integreren</text><!--cluster backend--><g id="cluster_backend"><path d="M8.5,45.6348 L66.2998,45.6348 A3.75,3.75 0 0 1 68.7998,48.1348 L75.7998,70.2559 L1110.5,70.2559 A2.5,2.5 0 0 1 1113,72.7559 L1113,748.1348 A2.5,2.5 0 0 1 1110.5,750.6348 L8.5,750.6348 A2.5,2.5 0 0 1 6,748.1348 L6,48.1348 A2.5,2.5 0 0 1 8.5,45.6348 " fill="none" style="stroke:#000000;stroke-width:1.5;"/><line style="stroke:#000000;stroke-width:1.5;" x1="6" x2="75.7998" y1="70.2559" y2="70.2559"/><text fill="#000000" font-family="sans-serif" font-size="14" font-weight="bold" lengthAdjust="spacing" textLength="56.7998" x="10" y="62.7422">backend</text></g><!--class IBookingAdapter--><g id="elem_IBookingAdapter"><rect codeLine="6" fill="#F1F1F1" height="66.6211" id="IBookingAdapter" rx="2.5" ry="2.5" style="stroke:#181818;stroke-width:0.5;" width="520.1084" x="523" y="540.6348"/><ellipse cx="727.0459" cy="556.6348" fill="#B4A7E5" rx="11" ry="11" style="stroke:#181818;stroke-width:1.0;"/><path d="M727.999,553.2754 L727.999,559.9316 L729.7178,559.9316 Q730.3271,559.9316 730.5928,560.166 Q730.8584,560.4004 730.8584,560.791 Q730.8584,561.166 730.5928,561.4004 Q730.3271,561.6348 729.7178,561.6348 L724.5771,561.6348 Q723.9678,561.6348 723.7021,561.4004 Q723.4365,561.166 723.4365,560.7754 Q723.4365,560.4004 723.7021,560.166 Q723.9678,559.9316 724.5771,559.9316 L726.2959,559.9316 L726.2959,553.2754 L724.5771,553.2754 Q723.9678,553.2754 723.7021,553.041 Q723.4365,552.8066 723.4365,552.416 Q723.4365,552.041 723.7021,551.8066 Q723.9678,551.5723 724.5771,551.5723 L729.7178,551.5723 Q730.3271,551.5723 730.5928,551.8066 Q730.8584,552.041 730.8584,552.416 Q730.8584,552.8066 730.5928,553.041 Q730.3271,553.2754 729.7178,553.2754 L727.999,553.2754 Z " fill="#000000"/><text fill="#000000" font-family="sans-serif" font-size="14" font-style="italic" lengthAdjust="spacing" textLength="103.5166" x="747.5459" y="562.4316">IBookingAdapter</text><line style="stroke:#181818;stroke-width:0.5;" x1="524" x2="1042.1084" y1="572.6348" y2="572.6348"/><line style="stroke:#181818;stroke-width:0.5;" x1="524" x2="1042.1084" y1="580.6348" y2="580.6348"/><ellipse cx="534" cy="595.4453" fill="#84BE84" rx="3" ry="3" style="stroke:#038048;stroke-width:1.0;"/><text fill="#000000" font-family="sans-serif" font-size="14" lengthAdjust="spacing" textLength="494.1084" x="543" y="599.7422">searchHotels(String location, String checkInDate, String CheckOutDate): Hotel[]</text></g><!--class BookingComAdapter--><g id="elem_BookingComAdapter"><rect codeLine="10" fill="#F1F1F1" height="66.6211" id="BookingComAdapter" rx="2.5" ry="2.5" style="stroke:#181818;stroke-width:0.5;" width="520.1084" x="22" y="667.6348"/><ellipse cx="213.2114" cy="683.6348" fill="#ADD1B2" rx="11" ry="11" style="stroke:#181818;stroke-width:1.0;"/><path d="M215.9771,679.5098 Q216.1333,679.291 216.3208,679.1816 Q216.5083,679.0723 216.7271,679.0723 Q217.1021,679.0723 217.3364,679.3379 Q217.5708,679.5879 217.5708,680.1973 L217.5708,681.6504 Q217.5708,682.2598 217.3364,682.5254 Q217.1021,682.791 216.7271,682.791 Q216.3833,682.791 216.1802,682.5879 Q215.9771,682.4004 215.8677,681.8848 Q215.8208,681.5254 215.6333,681.3379 Q215.3052,680.9629 214.6958,680.7441 Q214.0864,680.5254 213.4614,680.5254 Q212.6958,680.5254 212.0552,680.8535 Q211.4302,681.1816 210.9302,681.9316 Q210.4458,682.6816 210.4458,683.7129 L210.4458,684.8066 Q210.4458,686.041 211.3364,686.8691 Q212.2271,687.6816 213.8208,687.6816 Q214.7583,687.6816 215.4146,687.4316 Q215.8052,687.2754 216.2271,686.8379 Q216.4927,686.5723 216.6333,686.4941 Q216.7896,686.416 216.9927,686.416 Q217.3208,686.416 217.5708,686.6816 Q217.8364,686.9316 217.8364,687.2754 Q217.8364,687.6191 217.4927,688.0254 Q216.9927,688.6035 216.1958,688.9316 Q215.1177,689.3848 213.8208,689.3848 Q212.3052,689.3848 211.1021,688.7598 Q210.1177,688.2598 209.4302,687.1973 Q208.7427,686.1191 208.7427,684.8379 L208.7427,683.6816 Q208.7427,682.3535 209.3521,681.2129 Q209.9771,680.0566 211.0708,679.4473 Q212.1646,678.8223 213.3989,678.8223 Q214.1333,678.8223 214.7739,678.9941 Q215.4302,679.1504 215.9771,679.5098 Z " fill="#000000"/><text fill="#000000" font-family="sans-serif" font-size="14" lengthAdjust="spacing" textLength="129.1855" x="233.7114" y="689.4316">BookingComAdapter</text><line style="stroke:#181818;stroke-width:0.5;" x1="23" x2="541.1084" y1="699.6348" y2="699.6348"/><line style="stroke:#181818;stroke-width:0.5;" x1="23" x2="541.1084" y1="707.6348" y2="707.6348"/><ellipse cx="33" cy="722.4453" fill="#84BE84" rx="3" ry="3" style="stroke:#038048;stroke-width:1.0;"/><text fill="#000000" font-family="sans-serif" font-size="14" lengthAdjust="spacing" textLength="494.1084" x="42" y="726.7422">searchHotels(String location, String checkInDate, String CheckOutDate): Hotel[]</text></g><!--class TripadvisorAdapter--><g id="elem_TripadvisorAdapter"><rect codeLine="14" fill="#F1F1F1" height="66.6211" id="TripadvisorAdapter" rx="2.5" ry="2.5" style="stroke:#181818;stroke-width:0.5;" width="520.1084" x="577" y="667.6348"/><ellipse cx="773.6665" cy="683.6348" fill="#ADD1B2" rx="11" ry="11" style="stroke:#181818;stroke-width:1.0;"/><path d="M776.4321,679.5098 Q776.5884,679.291 776.7759,679.1816 Q776.9634,679.0723 777.1821,679.0723 Q777.5571,679.0723 777.7915,679.3379 Q778.0259,679.5879 778.0259,680.1973 L778.0259,681.6504 Q778.0259,682.2598 777.7915,682.5254 Q777.5571,682.791 777.1821,682.791 Q776.8384,682.791 776.6353,682.5879 Q776.4321,682.4004 776.3228,681.8848 Q776.2759,681.5254 776.0884,681.3379 Q775.7603,680.9629 775.1509,680.7441 Q774.5415,680.5254 773.9165,680.5254 Q773.1509,680.5254 772.5103,680.8535 Q771.8853,681.1816 771.3853,681.9316 Q770.9009,682.6816 770.9009,683.7129 L770.9009,684.8066 Q770.9009,686.041 771.7915,686.8691 Q772.6821,687.6816 774.2759,687.6816 Q775.2134,687.6816 775.8696,687.4316 Q776.2603,687.2754 776.6821,686.8379 Q776.9478,686.5723 777.0884,686.4941 Q777.2446,686.416 777.4478,686.416 Q777.7759,686.416 778.0259,686.6816 Q778.2915,686.9316 778.2915,687.2754 Q778.2915,687.6191 777.9478,688.0254 Q777.4478,688.6035 776.6509,688.9316 Q775.5728,689.3848 774.2759,689.3848 Q772.7603,689.3848 771.5571,688.7598 Q770.5728,688.2598 769.8853,687.1973 Q769.1978,686.1191 769.1978,684.8379 L769.1978,683.6816 Q769.1978,682.3535 769.8071,681.2129 Q770.4321,680.0566 771.5259,679.4473 Q772.6196,678.8223 773.854,678.8223 Q774.5884,678.8223 775.229,678.9941 Q775.8853,679.1504 776.4321,679.5098 Z " fill="#000000"/><text fill="#000000" font-family="sans-serif" font-size="14" lengthAdjust="spacing" textLength="118.2754" x="794.1665" y="689.4316">TripadvisorAdapter</text><line style="stroke:#181818;stroke-width:0.5;" x1="578" x2="1096.1084" y1="699.6348" y2="699.6348"/><line style="stroke:#181818;stroke-width:0.5;" x1="578" x2="1096.1084" y1="707.6348" y2="707.6348"/><ellipse cx="588" cy="722.4453" fill="#84BE84" rx="3" ry="3" style="stroke:#038048;stroke-width:1.0;"/><text fill="#000000" font-family="sans-serif" font-size="14" lengthAdjust="spacing" textLength="494.1084" x="597" y="726.7422">searchHotels(String location, String checkInDate, String CheckOutDate): Hotel[]</text></g><!--class BookingController--><g id="elem_BookingController"><rect codeLine="18" fill="#F1F1F1" height="66.6211" id="BookingController" rx="2.5" ry="2.5" style="stroke:#181818;stroke-width:0.5;" width="520.1084" x="523" y="184.6348"/><ellipse cx="723.1631" cy="200.6348" fill="#ADD1B2" rx="11" ry="11" style="stroke:#181818;stroke-width:1.0;"/><path d="M725.9287,196.5098 Q726.085,196.291 726.2725,196.1816 Q726.46,196.0723 726.6787,196.0723 Q727.0537,196.0723 727.2881,196.3379 Q727.5225,196.5879 727.5225,197.1973 L727.5225,198.6504 Q727.5225,199.2598 727.2881,199.5254 Q727.0537,199.791 726.6787,199.791 Q726.335,199.791 726.1318,199.5879 Q725.9287,199.4004 725.8193,198.8848 Q725.7725,198.5254 725.585,198.3379 Q725.2568,197.9629 724.6475,197.7441 Q724.0381,197.5254 723.4131,197.5254 Q722.6475,197.5254 722.0068,197.8535 Q721.3818,198.1816 720.8818,198.9316 Q720.3975,199.6816 720.3975,200.7129 L720.3975,201.8066 Q720.3975,203.041 721.2881,203.8691 Q722.1787,204.6816 723.7725,204.6816 Q724.71,204.6816 725.3662,204.4316 Q725.7568,204.2754 726.1787,203.8379 Q726.4443,203.5723 726.585,203.4941 Q726.7412,203.416 726.9443,203.416 Q727.2725,203.416 727.5225,203.6816 Q727.7881,203.9316 727.7881,204.2754 Q727.7881,204.6191 727.4443,205.0254 Q726.9443,205.6035 726.1475,205.9316 Q725.0693,206.3848 723.7725,206.3848 Q722.2568,206.3848 721.0537,205.7598 Q720.0693,205.2598 719.3818,204.1973 Q718.6943,203.1191 718.6943,201.8379 L718.6943,200.6816 Q718.6943,199.3535 719.3037,198.2129 Q719.9287,197.0566 721.0225,196.4473 Q722.1162,195.8223 723.3506,195.8223 Q724.085,195.8223 724.7256,195.9941 Q725.3818,196.1504 725.9287,196.5098 Z " fill="#000000"/><text fill="#000000" font-family="sans-serif" font-size="14" lengthAdjust="spacing" textLength="111.2822" x="743.6631" y="206.4316">BookingController</text><line style="stroke:#181818;stroke-width:0.5;" x1="524" x2="1042.1084" y1="216.6348" y2="216.6348"/><line style="stroke:#181818;stroke-width:0.5;" x1="524" x2="1042.1084" y1="224.6348" y2="224.6348"/><ellipse cx="534" cy="239.4453" fill="#84BE84" rx="3" ry="3" style="stroke:#038048;stroke-width:1.0;"/><text fill="#000000" font-family="sans-serif" font-size="14" lengthAdjust="spacing" textLength="494.1084" x="543" y="243.7422">searchHotels(String location, String checkInDate, String CheckOutDate): Hotel[]</text></g><!--class BookingService--><g id="elem_BookingService"><rect codeLine="22" fill="#F1F1F1" height="66.6211" id="BookingService" rx="2.5" ry="2.5" style="stroke:#181818;stroke-width:0.5;" width="520.1084" x="523" y="413.6348"/><ellipse cx="730.1665" cy="429.6348" fill="#ADD1B2" rx="11" ry="11" style="stroke:#181818;stroke-width:1.0;"/><path d="M732.9321,425.5098 Q733.0884,425.291 733.2759,425.1816 Q733.4634,425.0723 733.6821,425.0723 Q734.0571,425.0723 734.2915,425.3379 Q734.5259,425.5879 734.5259,426.1973 L734.5259,427.6504 Q734.5259,428.2598 734.2915,428.5254 Q734.0571,428.791 733.6821,428.791 Q733.3384,428.791 733.1353,428.5879 Q732.9321,428.4004 732.8228,427.8848 Q732.7759,427.5254 732.5884,427.3379 Q732.2603,426.9629 731.6509,426.7441 Q731.0415,426.5254 730.4165,426.5254 Q729.6509,426.5254 729.0103,426.8535 Q728.3853,427.1816 727.8853,427.9316 Q727.4009,428.6816 727.4009,429.7129 L727.4009,430.8066 Q727.4009,432.041 728.2915,432.8691 Q729.1821,433.6816 730.7759,433.6816 Q731.7134,433.6816 732.3696,433.4316 Q732.7603,433.2754 733.1821,432.8379 Q733.4478,432.5723 733.5884,432.4941 Q733.7446,432.416 733.9478,432.416 Q734.2759,432.416 734.5259,432.6816 Q734.7915,432.9316 734.7915,433.2754 Q734.7915,433.6191 734.4478,434.0254 Q733.9478,434.6035 733.1509,434.9316 Q732.0728,435.3848 730.7759,435.3848 Q729.2603,435.3848 728.0571,434.7598 Q727.0728,434.2598 726.3853,433.1973 Q725.6978,432.1191 725.6978,430.8379 L725.6978,429.6816 Q725.6978,428.3535 726.3071,427.2129 Q726.9321,426.0566 728.0259,425.4473 Q729.1196,424.8223 730.354,424.8223 Q731.0884,424.8223 731.729,424.9941 Q732.3853,425.1504 732.9321,425.5098 Z " fill="#000000"/><text fill="#000000" font-family="sans-serif" font-size="14" lengthAdjust="spacing" textLength="97.2754" x="750.6665" y="435.4316">BookingService</text><line style="stroke:#181818;stroke-width:0.5;" x1="524" x2="1042.1084" y1="445.6348" y2="445.6348"/><line style="stroke:#181818;stroke-width:0.5;" x1="524" x2="1042.1084" y1="453.6348" y2="453.6348"/><ellipse cx="534" cy="468.4453" fill="#84BE84" rx="3" ry="3" style="stroke:#038048;stroke-width:1.0;"/><text fill="#000000" font-family="sans-serif" font-size="14" lengthAdjust="spacing" textLength="494.1084" x="543" y="472.7422">searchHotels(String location, String checkInDate, String CheckOutDate): Hotel[]</text></g><!--class Hotel--><g id="elem_Hotel"><rect codeLine="26" fill="#F1F1F1" height="271.4531" id="Hotel" rx="2.5" ry="2.5" style="stroke:#181818;stroke-width:0.5;" width="304.5645" x="129.5" y="82.6348"/><ellipse cx="261.1909" cy="98.6348" fill="#ADD1B2" rx="11" ry="11" style="stroke:#181818;stroke-width:1.0;"/><path d="M263.9565,94.5098 Q264.1128,94.291 264.3003,94.1816 Q264.4878,94.0723 264.7065,94.0723 Q265.0815,94.0723 265.3159,94.3379 Q265.5503,94.5879 265.5503,95.1973 L265.5503,96.6504 Q265.5503,97.2598 265.3159,97.5254 Q265.0815,97.791 264.7065,97.791 Q264.3628,97.791 264.1597,97.5879 Q263.9565,97.4004 263.8472,96.8848 Q263.8003,96.5254 263.6128,96.3379 Q263.2847,95.9629 262.6753,95.7441 Q262.0659,95.5254 261.4409,95.5254 Q260.6753,95.5254 260.0347,95.8535 Q259.4097,96.1816 258.9097,96.9316 Q258.4253,97.6816 258.4253,98.7129 L258.4253,99.8066 Q258.4253,101.041 259.3159,101.8691 Q260.2065,102.6816 261.8003,102.6816 Q262.7378,102.6816 263.394,102.4316 Q263.7847,102.2754 264.2065,101.8379 Q264.4722,101.5723 264.6128,101.4941 Q264.769,101.416 264.9722,101.416 Q265.3003,101.416 265.5503,101.6816 Q265.8159,101.9316 265.8159,102.2754 Q265.8159,102.6191 265.4722,103.0254 Q264.9722,103.6035 264.1753,103.9316 Q263.0972,104.3848 261.8003,104.3848 Q260.2847,104.3848 259.0815,103.7598 Q258.0972,103.2598 257.4097,102.1973 Q256.7222,101.1191 256.7222,99.8379 L256.7222,98.6816 Q256.7222,97.3535 257.3315,96.2129 Q257.9565,95.0566 259.0503,94.4473 Q260.144,93.8223 261.3784,93.8223 Q262.1128,93.8223 262.7534,93.9941 Q263.4097,94.1504 263.9565,94.5098 Z " fill="#000000"/><text fill="#000000" font-family="sans-serif" font-size="14" lengthAdjust="spacing" textLength="32.6826" x="281.6909" y="104.4316">Hotel</text><line style="stroke:#181818;stroke-width:0.5;" x1="130.5" x2="433.0645" y1="114.6348" y2="114.6348"/><rect fill="none" height="6" style="stroke:#C82930;stroke-width:1.0;" width="6" x="137.5" y="126.4453"/><text fill="#000000" font-family="sans-serif" font-size="14" lengthAdjust="spacing" textLength="75.4824" x="149.5" y="133.7422">String name</text><rect fill="none" height="6" style="stroke:#C82930;stroke-width:1.0;" width="6" x="137.5" y="145.0664"/><text fill="#000000" font-family="sans-serif" font-size="14" lengthAdjust="spacing" textLength="88.7168" x="149.5" y="152.3633">String location</text><rect fill="none" height="6" style="stroke:#C82930;stroke-width:1.0;" width="6" x="137.5" y="163.6875"/><text fill="#000000" font-family="sans-serif" font-size="14" lengthAdjust="spacing" textLength="118.2822" x="149.5" y="170.9844">String checkInDate</text><rect fill="none" height="6" style="stroke:#C82930;stroke-width:1.0;" width="6" x="137.5" y="182.3086"/><text fill="#000000" font-family="sans-serif" font-size="14" lengthAdjust="spacing" textLength="129.1719" x="149.5" y="189.6055">String checkOutDate</text><line style="stroke:#181818;stroke-width:0.5;" x1="130.5" x2="433.0645" y1="197.1191" y2="197.1191"/><ellipse cx="140.5" cy="211.9297" fill="#84BE84" rx="3" ry="3" style="stroke:#038048;stroke-width:1.0;"/><text fill="#000000" font-family="sans-serif" font-size="14" lengthAdjust="spacing" textLength="106.5928" x="149.5" y="216.2266">String getName()</text><ellipse cx="140.5" cy="230.5508" fill="#84BE84" rx="3" ry="3" style="stroke:#038048;stroke-width:1.0;"/><text fill="#000000" font-family="sans-serif" font-size="14" lengthAdjust="spacing" textLength="170.3994" x="149.5" y="234.8477">void setName(String name)</text><ellipse cx="140.5" cy="249.1719" fill="#84BE84" rx="3" ry="3" style="stroke:#038048;stroke-width:1.0;"/><text fill="#000000" font-family="sans-serif" font-size="14" lengthAdjust="spacing" textLength="122.1787" x="149.5" y="253.4688">String getLocation()</text><ellipse cx="140.5" cy="267.793" fill="#84BE84" rx="3" ry="3" style="stroke:#038048;stroke-width:1.0;"/><text fill="#000000" font-family="sans-serif" font-size="14" lengthAdjust="spacing" textLength="199.2197" x="149.5" y="272.0898">void setLocation(String location)</text><ellipse cx="140.5" cy="286.4141" fill="#84BE84" rx="3" ry="3" style="stroke:#038048;stroke-width:1.0;"/><text fill="#000000" font-family="sans-serif" font-size="14" lengthAdjust="spacing" textLength="150.1787" x="149.5" y="290.7109">String getCheckInDate()</text><ellipse cx="140.5" cy="305.0352" fill="#84BE84" rx="3" ry="3" style="stroke:#038048;stroke-width:1.0;"/><text fill="#000000" font-family="sans-serif" font-size="14" lengthAdjust="spacing" textLength="256.7852" x="149.5" y="309.332">void setCheckInDate(String checkInDate)</text><ellipse cx="140.5" cy="323.6563" fill="#84BE84" rx="3" ry="3" style="stroke:#038048;stroke-width:1.0;"/><text fill="#000000" font-family="sans-serif" font-size="14" lengthAdjust="spacing" textLength="161.0684" x="149.5" y="327.9531">String getCheckOutDate()</text><ellipse cx="140.5" cy="342.2773" fill="#84BE84" rx="3" ry="3" style="stroke:#038048;stroke-width:1.0;"/><text fill="#000000" font-family="sans-serif" font-size="14" lengthAdjust="spacing" textLength="278.5645" x="149.5" y="346.5742">void setCheckOutDate(String checkOutDate)</text></g><!--class BookingCom API--><g id="elem_BookingCom API"><rect fill="#F1F1F1" height="48" id="BookingCom API" rx="2.5" ry="2.5" style="stroke:#181818;stroke-width:0.5;" width="138.6064" x="212.5" y="794.6348"/><ellipse cx="227.5" cy="810.6348" fill="#ADD1B2" rx="11" ry="11" style="stroke:#181818;stroke-width:1.0;"/><path d="M230.2656,806.5098 Q230.4219,806.291 230.6094,806.1816 Q230.7969,806.0723 231.0156,806.0723 Q231.3906,806.0723 231.625,806.3379 Q231.8594,806.5879 231.8594,807.1973 L231.8594,808.6504 Q231.8594,809.2598 231.625,809.5254 Q231.3906,809.791 231.0156,809.791 Q230.6719,809.791 230.4688,809.5879 Q230.2656,809.4004 230.1563,808.8848 Q230.1094,808.5254 229.9219,808.3379 Q229.5938,807.9629 228.9844,807.7441 Q228.375,807.5254 227.75,807.5254 Q226.9844,807.5254 226.3438,807.8535 Q225.7188,808.1816 225.2188,808.9316 Q224.7344,809.6816 224.7344,810.7129 L224.7344,811.8066 Q224.7344,813.041 225.625,813.8691 Q226.5156,814.6816 228.1094,814.6816 Q229.0469,814.6816 229.7031,814.4316 Q230.0938,814.2754 230.5156,813.8379 Q230.7813,813.5723 230.9219,813.4941 Q231.0781,813.416 231.2813,813.416 Q231.6094,813.416 231.8594,813.6816 Q232.125,813.9316 232.125,814.2754 Q232.125,814.6191 231.7813,815.0254 Q231.2813,815.6035 230.4844,815.9316 Q229.4063,816.3848 228.1094,816.3848 Q226.5938,816.3848 225.3906,815.7598 Q224.4063,815.2598 223.7188,814.1973 Q223.0313,813.1191 223.0313,811.8379 L223.0313,810.6816 Q223.0313,809.3535 223.6406,808.2129 Q224.2656,807.0566 225.3594,806.4473 Q226.4531,805.8223 227.6875,805.8223 Q228.4219,805.8223 229.0625,805.9941 Q229.7188,806.1504 230.2656,806.5098 Z " fill="#000000"/><text fill="#000000" font-family="sans-serif" font-size="14" lengthAdjust="spacing" textLength="106.6064" x="241.5" y="816.4316">BookingCom API</text><line style="stroke:#181818;stroke-width:0.5;" x1="213.5" x2="350.1064" y1="826.6348" y2="826.6348"/><line style="stroke:#181818;stroke-width:0.5;" x1="213.5" x2="350.1064" y1="834.6348" y2="834.6348"/></g><!--class Tripadvisor API--><g id="elem_Tripadvisor API"><rect fill="#F1F1F1" height="48" id="Tripadvisor API" rx="2.5" ry="2.5" style="stroke:#181818;stroke-width:0.5;" width="127.6963" x="773" y="794.6348"/><ellipse cx="788" cy="810.6348" fill="#ADD1B2" rx="11" ry="11" style="stroke:#181818;stroke-width:1.0;"/><path d="M790.7656,806.5098 Q790.9219,806.291 791.1094,806.1816 Q791.2969,806.0723 791.5156,806.0723 Q791.8906,806.0723 792.125,806.3379 Q792.3594,806.5879 792.3594,807.1973 L792.3594,808.6504 Q792.3594,809.2598 792.125,809.5254 Q791.8906,809.791 791.5156,809.791 Q791.1719,809.791 790.9688,809.5879 Q790.7656,809.4004 790.6563,808.8848 Q790.6094,808.5254 790.4219,808.3379 Q790.0938,807.9629 789.4844,807.7441 Q788.875,807.5254 788.25,807.5254 Q787.4844,807.5254 786.8438,807.8535 Q786.2188,808.1816 785.7188,808.9316 Q785.2344,809.6816 785.2344,810.7129 L785.2344,811.8066 Q785.2344,813.041 786.125,813.8691 Q787.0156,814.6816 788.6094,814.6816 Q789.5469,814.6816 790.2031,814.4316 Q790.5938,814.2754 791.0156,813.8379 Q791.2813,813.5723 791.4219,813.4941 Q791.5781,813.416 791.7813,813.416 Q792.1094,813.416 792.3594,813.6816 Q792.625,813.9316 792.625,814.2754 Q792.625,814.6191 792.2813,815.0254 Q791.7813,815.6035 790.9844,815.9316 Q789.9063,816.3848 788.6094,816.3848 Q787.0938,816.3848 785.8906,815.7598 Q784.9063,815.2598 784.2188,814.1973 Q783.5313,813.1191 783.5313,811.8379 L783.5313,810.6816 Q783.5313,809.3535 784.1406,808.2129 Q784.7656,807.0566 785.8594,806.4473 Q786.9531,805.8223 788.1875,805.8223 Q788.9219,805.8223 789.5625,805.9941 Q790.2188,806.1504 790.7656,806.5098 Z " fill="#000000"/><text fill="#000000" font-family="sans-serif" font-size="14" lengthAdjust="spacing" textLength="95.6963" x="802" y="816.4316">Tripadvisor API</text><line style="stroke:#181818;stroke-width:0.5;" x1="774" x2="899.6963" y1="826.6348" y2="826.6348"/><line style="stroke:#181818;stroke-width:0.5;" x1="774" x2="899.6963" y1="834.6348" y2="834.6348"/></g><!--reverse link IBookingAdapter to BookingComAdapter--><g id="link_IBookingAdapter_BookingComAdapter"><path codeLine="44" d="M635.2149,612.0104 C561.2749,630.4504 486.51,649.1048 412.54,667.5648 " fill="none" id="IBookingAdapter-backto-BookingComAdapter" style="stroke:#181818;stroke-width:1.0;stroke-dasharray:7.0,7.0;"/><polygon fill="none" points="652.68,607.6548,633.7631,606.1887,636.6668,617.8321,652.68,607.6548" style="stroke:#181818;stroke-width:1.0;"/></g><!--reverse link IBookingAdapter to TripadvisorAdapter--><g id="link_IBookingAdapter_TripadvisorAdapter"><path codeLine="45" d="M804.184,624.1807 C812.114,642.5507 814.88,648.9248 822.84,667.3448 " fill="none" id="IBookingAdapter-backto-TripadvisorAdapter" style="stroke:#181818;stroke-width:1.0;stroke-dasharray:7.0,7.0;"/><polygon fill="none" points="797.05,607.6548,798.6753,626.5587,809.6926,621.8027,797.05,607.6548" style="stroke:#181818;stroke-width:1.0;"/></g><!--link BookingComAdapter to BookingCom API--><g id="link_BookingComAdapter_BookingCom API"><path codeLine="46" d="M282,734.9248 C282,753.8648 282,771.2448 282,788.3048 " fill="none" id="BookingComAdapter-to-BookingCom API" style="stroke:#181818;stroke-width:1.0;"/><polygon fill="#181818" points="282,794.3048,286,785.3048,282,789.3048,278,785.3048,282,794.3048" style="stroke:#181818;stroke-width:1.0;"/><text fill="#000000" font-family="sans-serif" font-size="13" lengthAdjust="spacing" textLength="104.7808" x="165.4681" y="783.3662">bookingComAPI 1</text></g><!--link TripadvisorAdapter to Tripadvisor API--><g id="link_TripadvisorAdapter_Tripadvisor API"><path codeLine="47" d="M837,734.9248 C837,753.8648 837,771.2448 837,788.3048 " fill="none" id="TripadvisorAdapter-to-Tripadvisor API" style="stroke:#181818;stroke-width:1.0;"/><polygon fill="#181818" points="837,794.3048,841,785.3048,837,789.3048,833,785.3048,837,794.3048" style="stroke:#181818;stroke-width:1.0;"/><text fill="#000000" font-family="sans-serif" font-size="13" lengthAdjust="spacing" textLength="93.2026" x="732.7273" y="783.3662">tripAdvisorAPI 1</text></g><!--link BookingController to BookingService--><g id="link_BookingController_BookingService"><path codeLine="49" d="M783,251.6548 C783,294.6848 783,364.1148 783,407.3048 " fill="none" id="BookingController-to-BookingService" style="stroke:#181818;stroke-width:1.0;"/><polygon fill="#181818" points="783,413.3048,787,404.3048,783,408.3048,779,404.3048,783,413.3048" style="stroke:#181818;stroke-width:1.0;"/><text fill="#000000" font-family="sans-serif" font-size="13" lengthAdjust="spacing" textLength="99.728" x="674.6231" y="402.3278">bookingService 1</text></g><!--link BookingService to IBookingAdapter--><g id="link_BookingService_IBookingAdapter"><path codeLine="50" d="M783,480.6548 C783,499.0248 783,515.9248 783,534.3448 " fill="none" id="BookingService-to-IBookingAdapter" style="stroke:#181818;stroke-width:1.0;"/><polygon fill="#181818" points="783,540.3448,787,531.3448,783,535.3448,779,531.3448,783,540.3448" style="stroke:#181818;stroke-width:1.0;"/><text fill="#000000" font-family="sans-serif" font-size="13" lengthAdjust="spacing" textLength="104.0698" x="669.0838" y="529.3754">iBookingAdapter *</text></g><!--SRC=[lLJ1JiCm3BtxAwoULc2Ja3XD26bq1oOXG1hYWZXagUcYTKcLX5s0VyVjKjOrvSYg7gfdFp-_nevNlYJChZ0hXNCuLwAmOZl55x9EhbLPaiu9LuOsIXVEaTqfIGwLzbHOigG1e19o8mh2PCKVd9_W9q2TOT-595pS6bEpPxce6ECWydEEZeILwplZgNIZfRUSWgMHmYkZBp00Saroiz1puUaNoshiySFNO3h5fiBh6tm3oCP4qClCzcIIprPL8jyfP-pfRMfl3H_KwIIN-p7uVxq623BZbgJ5bewHLkiOxGWE188g10iXL91_uFAZDC0xetAsjmSx-cb4kmyzHDJVGA_Pk4HsQ3Ygqet5_lwe5JmE5sk30pybhK-0t_xcNdzD9l5s3QV56m7nNex7Dtnh7E2d1Lucc1mIaQ441hQhONBdrIpWWTf9tNCXNfEkQZlAp3qURkZDUaDIFQTdIVzs-m40]--></g></svg>