<svg xmlns="http://www.w3.org/2000/svg" xmlns:xlink="http://www.w3.org/1999/xlink" contentStyleType="text/css" height="700px" preserveAspectRatio="none" style="width:1120px;height:700px;background:#FFFFFF;" version="1.1" viewBox="0 0 1120 700" width="1120px" zoomAndPan="magnify"><title>C4 Class Diagram: Verschillende boekingsservices integreren</title><defs/><g><text fill="#000000" font-family="sans-serif" font-size="14" font-weight="bold" lengthAdjust="spacing" textLength="412.3984" x="346.8008" y="25.1074">C4 Class Diagram: Verschillende boekingsservices integreren</text><!--cluster backend--><g id="cluster_backend"><path d="M8.5,45.6348 L66.2998,45.6348 A3.75,3.75 0 0 1 68.7998,48.1348 L75.7998,70.2559 L1110.5,70.2559 A2.5,2.5 0 0 1 1113,72.7559 L1113,599.1348 A2.5,2.5 0 0 1 1110.5,601.6348 L8.5,601.6348 A2.5,2.5 0 0 1 6,599.1348 L6,48.1348 A2.5,2.5 0 0 1 8.5,45.6348 " fill="none" style="stroke:#000000;stroke-width:1.5;"/><line style="stroke:#000000;stroke-width:1.5;" x1="6" x2="75.7998" y1="70.2559" y2="70.2559"/><text fill="#000000" font-family="sans-serif" font-size="14" font-weight="bold" lengthAdjust="spacing" textLength="56.7998" x="10" y="62.7422">backend</text></g><!--class IBookingAdapter--><g id="elem_IBookingAdapter"><rect codeLine="6" fill="#F1F1F1" height="66.6211" id="IBookingAdapter" rx="2.5" ry="2.5" style="stroke:#181818;stroke-width:0.5;" width="520.1084" x="486" y="391.6348"/><ellipse cx="690.0459" cy="407.6348" fill="#B4A7E5" rx="11" ry="11" style="stroke:#181818;stroke-width:1.0;"/><path d="M690.999,404.2754 L690.999,410.9316 L692.7178,410.9316 Q693.3271,410.9316 693.5928,411.166 Q693.8584,411.4004 693.8584,411.791 Q693.8584,412.166 693.5928,412.4004 Q693.3271,412.6348 692.7178,412.6348 L687.5771,412.6348 Q686.9678,412.6348 686.7021,412.4004 Q686.4365,412.166 686.4365,411.7754 Q686.4365,411.4004 686.7021,411.166 Q686.9678,410.9316 687.5771,410.9316 L689.2959,410.9316 L689.2959,404.2754 L687.5771,404.2754 Q686.9678,404.2754 686.7021,404.041 Q686.4365,403.8066 686.4365,403.416 Q686.4365,403.041 686.7021,402.8066 Q686.9678,402.5723 687.5771,402.5723 L692.7178,402.5723 Q693.3271,402.5723 693.5928,402.8066 Q693.8584,403.041 693.8584,403.416 Q693.8584,403.8066 693.5928,404.041 Q693.3271,404.2754 692.7178,404.2754 L690.999,404.2754 Z " fill="#000000"/><text fill="#000000" font-family="sans-serif" font-size="14" font-style="italic" lengthAdjust="spacing" textLength="103.5166" x="710.5459" y="413.4316">IBookingAdapter</text><line style="stroke:#181818;stroke-width:0.5;" x1="487" x2="1005.1084" y1="423.6348" y2="423.6348"/><line style="stroke:#181818;stroke-width:0.5;" x1="487" x2="1005.1084" y1="431.6348" y2="431.6348"/><ellipse cx="497" cy="446.4453" fill="#84BE84" rx="3" ry="3" style="stroke:#038048;stroke-width:1.0;"/><text fill="#000000" font-family="sans-serif" font-size="14" lengthAdjust="spacing" textLength="494.1084" x="506" y="450.7422">searchHotels(String location, String checkInDate, String CheckOutDate): Hotel[]</text></g><!--class BookingComAdapter--><g id="elem_BookingComAdapter"><rect codeLine="10" fill="#F1F1F1" height="66.6211" id="BookingComAdapter" rx="2.5" ry="2.5" style="stroke:#181818;stroke-width:0.5;" width="520.1084" x="22" y="518.6348"/><ellipse cx="213.2114" cy="534.6348" fill="#ADD1B2" rx="11" ry="11" style="stroke:#181818;stroke-width:1.0;"/><path d="M215.9771,530.5098 Q216.1333,530.291 216.3208,530.1816 Q216.5083,530.0723 216.7271,530.0723 Q217.1021,530.0723 217.3364,530.3379 Q217.5708,530.5879 217.5708,531.1973 L217.5708,532.6504 Q217.5708,533.2598 217.3364,533.5254 Q217.1021,533.791 216.7271,533.791 Q216.3833,533.791 216.1802,533.5879 Q215.9771,533.4004 215.8677,532.8848 Q215.8208,532.5254 215.6333,532.3379 Q215.3052,531.9629 214.6958,531.7441 Q214.0864,531.5254 213.4614,531.5254 Q212.6958,531.5254 212.0552,531.8535 Q211.4302,532.1816 210.9302,532.9316 Q210.4458,533.6816 210.4458,534.7129 L210.4458,535.8066 Q210.4458,537.041 211.3364,537.8691 Q212.2271,538.6816 213.8208,538.6816 Q214.7583,538.6816 215.4146,538.4316 Q215.8052,538.2754 216.2271,537.8379 Q216.4927,537.5723 216.6333,537.4941 Q216.7896,537.416 216.9927,537.416 Q217.3208,537.416 217.5708,537.6816 Q217.8364,537.9316 217.8364,538.2754 Q217.8364,538.6191 217.4927,539.0254 Q216.9927,539.6035 216.1958,539.9316 Q215.1177,540.3848 213.8208,540.3848 Q212.3052,540.3848 211.1021,539.7598 Q210.1177,539.2598 209.4302,538.1973 Q208.7427,537.1191 208.7427,535.8379 L208.7427,534.6816 Q208.7427,533.3535 209.3521,532.2129 Q209.9771,531.0566 211.0708,530.4473 Q212.1646,529.8223 213.3989,529.8223 Q214.1333,529.8223 214.7739,529.9941 Q215.4302,530.1504 215.9771,530.5098 Z " fill="#000000"/><text fill="#000000" font-family="sans-serif" font-size="14" lengthAdjust="spacing" textLength="129.1855" x="233.7114" y="540.4316">BookingComAdapter</text><line style="stroke:#181818;stroke-width:0.5;" x1="23" x2="541.1084" y1="550.6348" y2="550.6348"/><line style="stroke:#181818;stroke-width:0.5;" x1="23" x2="541.1084" y1="558.6348" y2="558.6348"/><ellipse cx="33" cy="573.4453" fill="#84BE84" rx="3" ry="3" style="stroke:#038048;stroke-width:1.0;"/><text fill="#000000" font-family="sans-serif" font-size="14" lengthAdjust="spacing" textLength="494.1084" x="42" y="577.7422">searchHotels(String location, String checkInDate, String CheckOutDate): Hotel[]</text></g><!--class TripadvisorAdapter--><g id="elem_TripadvisorAdapter"><rect codeLine="14" fill="#F1F1F1" height="66.6211" id="TripadvisorAdapter" rx="2.5" ry="2.5" style="stroke:#181818;stroke-width:0.5;" width="520.1084" x="577" y="518.6348"/><ellipse cx="773.6665" cy="534.6348" fill="#ADD1B2" rx="11" ry="11" style="stroke:#181818;stroke-width:1.0;"/><path d="M776.4321,530.5098 Q776.5884,530.291 776.7759,530.1816 Q776.9634,530.0723 777.1821,530.0723 Q777.5571,530.0723 777.7915,530.3379 Q778.0259,530.5879 778.0259,531.1973 L778.0259,532.6504 Q778.0259,533.2598 777.7915,533.5254 Q777.5571,533.791 777.1821,533.791 Q776.8384,533.791 776.6353,533.5879 Q776.4321,533.4004 776.3228,532.8848 Q776.2759,532.5254 776.0884,532.3379 Q775.7603,531.9629 775.1509,531.7441 Q774.5415,531.5254 773.9165,531.5254 Q773.1509,531.5254 772.5103,531.8535 Q771.8853,532.1816 771.3853,532.9316 Q770.9009,533.6816 770.9009,534.7129 L770.9009,535.8066 Q770.9009,537.041 771.7915,537.8691 Q772.6821,538.6816 774.2759,538.6816 Q775.2134,538.6816 775.8696,538.4316 Q776.2603,538.2754 776.6821,537.8379 Q776.9478,537.5723 777.0884,537.4941 Q777.2446,537.416 777.4478,537.416 Q777.7759,537.416 778.0259,537.6816 Q778.2915,537.9316 778.2915,538.2754 Q778.2915,538.6191 777.9478,539.0254 Q777.4478,539.6035 776.6509,539.9316 Q775.5728,540.3848 774.2759,540.3848 Q772.7603,540.3848 771.5571,539.7598 Q770.5728,539.2598 769.8853,538.1973 Q769.1978,537.1191 769.1978,535.8379 L769.1978,534.6816 Q769.1978,533.3535 769.8071,532.2129 Q770.4321,531.0566 771.5259,530.4473 Q772.6196,529.8223 773.854,529.8223 Q774.5884,529.8223 775.229,529.9941 Q775.8853,530.1504 776.4321,530.5098 Z " fill="#000000"/><text fill="#000000" font-family="sans-serif" font-size="14" lengthAdjust="spacing" textLength="118.2754" x="794.1665" y="540.4316">TripadvisorAdapter</text><line style="stroke:#181818;stroke-width:0.5;" x1="578" x2="1096.1084" y1="550.6348" y2="550.6348"/><line style="stroke:#181818;stroke-width:0.5;" x1="578" x2="1096.1084" y1="558.6348" y2="558.6348"/><ellipse cx="588" cy="573.4453" fill="#84BE84" rx="3" ry="3" style="stroke:#038048;stroke-width:1.0;"/><text fill="#000000" font-family="sans-serif" font-size="14" lengthAdjust="spacing" textLength="494.1084" x="597" y="577.7422">searchHotels(String location, String checkInDate, String CheckOutDate): Hotel[]</text></g><!--class BookingController--><g id="elem_BookingController"><rect codeLine="18" fill="#F1F1F1" height="66.6211" id="BookingController" rx="2.5" ry="2.5" style="stroke:#181818;stroke-width:0.5;" width="520.1084" x="486" y="110.1348"/><ellipse cx="686.1631" cy="126.1348" fill="#ADD1B2" rx="11" ry="11" style="stroke:#181818;stroke-width:1.0;"/><path d="M688.9287,122.0098 Q689.085,121.791 689.2725,121.6816 Q689.46,121.5723 689.6787,121.5723 Q690.0537,121.5723 690.2881,121.8379 Q690.5225,122.0879 690.5225,122.6973 L690.5225,124.1504 Q690.5225,124.7598 690.2881,125.0254 Q690.0537,125.291 689.6787,125.291 Q689.335,125.291 689.1318,125.0879 Q688.9287,124.9004 688.8193,124.3848 Q688.7725,124.0254 688.585,123.8379 Q688.2568,123.4629 687.6475,123.2441 Q687.0381,123.0254 686.4131,123.0254 Q685.6475,123.0254 685.0068,123.3535 Q684.3818,123.6816 683.8818,124.4316 Q683.3975,125.1816 683.3975,126.2129 L683.3975,127.3066 Q683.3975,128.541 684.2881,129.3691 Q685.1787,130.1816 686.7725,130.1816 Q687.71,130.1816 688.3662,129.9316 Q688.7568,129.7754 689.1787,129.3379 Q689.4443,129.0723 689.585,128.9941 Q689.7412,128.916 689.9443,128.916 Q690.2725,128.916 690.5225,129.1816 Q690.7881,129.4316 690.7881,129.7754 Q690.7881,130.1191 690.4443,130.5254 Q689.9443,131.1035 689.1475,131.4316 Q688.0693,131.8848 686.7725,131.8848 Q685.2568,131.8848 684.0537,131.2598 Q683.0693,130.7598 682.3818,129.6973 Q681.6943,128.6191 681.6943,127.3379 L681.6943,126.1816 Q681.6943,124.8535 682.3037,123.7129 Q682.9287,122.5566 684.0225,121.9473 Q685.1162,121.3223 686.3506,121.3223 Q687.085,121.3223 687.7256,121.4941 Q688.3818,121.6504 688.9287,122.0098 Z " fill="#000000"/><text fill="#000000" font-family="sans-serif" font-size="14" lengthAdjust="spacing" textLength="111.2822" x="706.6631" y="131.9316">BookingController</text><line style="stroke:#181818;stroke-width:0.5;" x1="487" x2="1005.1084" y1="142.1348" y2="142.1348"/><line style="stroke:#181818;stroke-width:0.5;" x1="487" x2="1005.1084" y1="150.1348" y2="150.1348"/><ellipse cx="497" cy="164.9453" fill="#84BE84" rx="3" ry="3" style="stroke:#038048;stroke-width:1.0;"/><text fill="#000000" font-family="sans-serif" font-size="14" lengthAdjust="spacing" textLength="494.1084" x="506" y="169.2422">searchHotels(String location, String checkInDate, String CheckOutDate): Hotel[]</text></g><!--class BookingService--><g id="elem_BookingService"><rect codeLine="22" fill="#F1F1F1" height="66.6211" id="BookingService" rx="2.5" ry="2.5" style="stroke:#181818;stroke-width:0.5;" width="520.1084" x="486" y="264.6348"/><ellipse cx="693.1665" cy="280.6348" fill="#ADD1B2" rx="11" ry="11" style="stroke:#181818;stroke-width:1.0;"/><path d="M695.9321,276.5098 Q696.0884,276.291 696.2759,276.1816 Q696.4634,276.0723 696.6821,276.0723 Q697.0571,276.0723 697.2915,276.3379 Q697.5259,276.5879 697.5259,277.1973 L697.5259,278.6504 Q697.5259,279.2598 697.2915,279.5254 Q697.0571,279.791 696.6821,279.791 Q696.3384,279.791 696.1353,279.5879 Q695.9321,279.4004 695.8228,278.8848 Q695.7759,278.5254 695.5884,278.3379 Q695.2603,277.9629 694.6509,277.7441 Q694.0415,277.5254 693.4165,277.5254 Q692.6509,277.5254 692.0103,277.8535 Q691.3853,278.1816 690.8853,278.9316 Q690.4009,279.6816 690.4009,280.7129 L690.4009,281.8066 Q690.4009,283.041 691.2915,283.8691 Q692.1821,284.6816 693.7759,284.6816 Q694.7134,284.6816 695.3696,284.4316 Q695.7603,284.2754 696.1821,283.8379 Q696.4478,283.5723 696.5884,283.4941 Q696.7446,283.416 696.9478,283.416 Q697.2759,283.416 697.5259,283.6816 Q697.7915,283.9316 697.7915,284.2754 Q697.7915,284.6191 697.4478,285.0254 Q696.9478,285.6035 696.1509,285.9316 Q695.0728,286.3848 693.7759,286.3848 Q692.2603,286.3848 691.0571,285.7598 Q690.0728,285.2598 689.3853,284.1973 Q688.6978,283.1191 688.6978,281.8379 L688.6978,280.6816 Q688.6978,279.3535 689.3071,278.2129 Q689.9321,277.0566 691.0259,276.4473 Q692.1196,275.8223 693.354,275.8223 Q694.0884,275.8223 694.729,275.9941 Q695.3853,276.1504 695.9321,276.5098 Z " fill="#000000"/><text fill="#000000" font-family="sans-serif" font-size="14" lengthAdjust="spacing" textLength="97.2754" x="713.6665" y="286.4316">BookingService</text><line style="stroke:#181818;stroke-width:0.5;" x1="487" x2="1005.1084" y1="296.6348" y2="296.6348"/><line style="stroke:#181818;stroke-width:0.5;" x1="487" x2="1005.1084" y1="304.6348" y2="304.6348"/><ellipse cx="497" cy="319.4453" fill="#84BE84" rx="3" ry="3" style="stroke:#038048;stroke-width:1.0;"/><text fill="#000000" font-family="sans-serif" font-size="14" lengthAdjust="spacing" textLength="494.1084" x="506" y="323.7422">searchHotels(String location, String checkInDate, String CheckOutDate): Hotel[]</text></g><!--class Hotel--><g id="elem_Hotel"><rect codeLine="26" fill="#F1F1F1" height="122.4844" id="Hotel" rx="2.5" ry="2.5" style="stroke:#181818;stroke-width:0.5;" width="155.1719" x="204.5" y="82.6348"/><ellipse cx="261.4946" cy="98.6348" fill="#ADD1B2" rx="11" ry="11" style="stroke:#181818;stroke-width:1.0;"/><path d="M264.2603,94.5098 Q264.4165,94.291 264.604,94.1816 Q264.7915,94.0723 265.0103,94.0723 Q265.3853,94.0723 265.6196,94.3379 Q265.854,94.5879 265.854,95.1973 L265.854,96.6504 Q265.854,97.2598 265.6196,97.5254 Q265.3853,97.791 265.0103,97.791 Q264.6665,97.791 264.4634,97.5879 Q264.2603,97.4004 264.1509,96.8848 Q264.104,96.5254 263.9165,96.3379 Q263.5884,95.9629 262.979,95.7441 Q262.3696,95.5254 261.7446,95.5254 Q260.979,95.5254 260.3384,95.8535 Q259.7134,96.1816 259.2134,96.9316 Q258.729,97.6816 258.729,98.7129 L258.729,99.8066 Q258.729,101.041 259.6196,101.8691 Q260.5103,102.6816 262.104,102.6816 Q263.0415,102.6816 263.6978,102.4316 Q264.0884,102.2754 264.5103,101.8379 Q264.7759,101.5723 264.9165,101.4941 Q265.0728,101.416 265.2759,101.416 Q265.604,101.416 265.854,101.6816 Q266.1196,101.9316 266.1196,102.2754 Q266.1196,102.6191 265.7759,103.0254 Q265.2759,103.6035 264.479,103.9316 Q263.4009,104.3848 262.104,104.3848 Q260.5884,104.3848 259.3853,103.7598 Q258.4009,103.2598 257.7134,102.1973 Q257.0259,101.1191 257.0259,99.8379 L257.0259,98.6816 Q257.0259,97.3535 257.6353,96.2129 Q258.2603,95.0566 259.354,94.4473 Q260.4478,93.8223 261.6821,93.8223 Q262.4165,93.8223 263.0571,93.9941 Q263.7134,94.1504 264.2603,94.5098 Z " fill="#000000"/><text fill="#000000" font-family="sans-serif" font-size="14" lengthAdjust="spacing" textLength="32.6826" x="281.9946" y="104.4316">Hotel</text><line style="stroke:#181818;stroke-width:0.5;" x1="205.5" x2="358.6719" y1="114.6348" y2="114.6348"/><rect fill="none" height="6" style="stroke:#C82930;stroke-width:1.0;" width="6" x="212.5" y="126.4453"/><text fill="#000000" font-family="sans-serif" font-size="14" lengthAdjust="spacing" textLength="75.4824" x="224.5" y="133.7422">String name</text><rect fill="none" height="6" style="stroke:#C82930;stroke-width:1.0;" width="6" x="212.5" y="145.0664"/><text fill="#000000" font-family="sans-serif" font-size="14" lengthAdjust="spacing" textLength="88.7168" x="224.5" y="152.3633">String location</text><rect fill="none" height="6" style="stroke:#C82930;stroke-width:1.0;" width="6" x="212.5" y="163.6875"/><text fill="#000000" font-family="sans-serif" font-size="14" lengthAdjust="spacing" textLength="118.2822" x="224.5" y="170.9844">String checkInDate</text><rect fill="none" height="6" style="stroke:#C82930;stroke-width:1.0;" width="6" x="212.5" y="182.3086"/><text fill="#000000" font-family="sans-serif" font-size="14" lengthAdjust="spacing" textLength="129.1719" x="224.5" y="189.6055">String checkOutDate</text><line style="stroke:#181818;stroke-width:0.5;" x1="205.5" x2="358.6719" y1="197.1191" y2="197.1191"/></g><!--class BookingCom API--><g id="elem_BookingCom API"><rect fill="#F1F1F1" height="48" id="BookingCom API" rx="2.5" ry="2.5" style="stroke:#181818;stroke-width:0.5;" width="138.6064" x="212.5" y="645.6348"/><ellipse cx="227.5" cy="661.6348" fill="#ADD1B2" rx="11" ry="11" style="stroke:#181818;stroke-width:1.0;"/><path d="M230.2656,657.5098 Q230.4219,657.291 230.6094,657.1816 Q230.7969,657.0723 231.0156,657.0723 Q231.3906,657.0723 231.625,657.3379 Q231.8594,657.5879 231.8594,658.1973 L231.8594,659.6504 Q231.8594,660.2598 231.625,660.5254 Q231.3906,660.791 231.0156,660.791 Q230.6719,660.791 230.4688,660.5879 Q230.2656,660.4004 230.1563,659.8848 Q230.1094,659.5254 229.9219,659.3379 Q229.5938,658.9629 228.9844,658.7441 Q228.375,658.5254 227.75,658.5254 Q226.9844,658.5254 226.3438,658.8535 Q225.7188,659.1816 225.2188,659.9316 Q224.7344,660.6816 224.7344,661.7129 L224.7344,662.8066 Q224.7344,664.041 225.625,664.8691 Q226.5156,665.6816 228.1094,665.6816 Q229.0469,665.6816 229.7031,665.4316 Q230.0938,665.2754 230.5156,664.8379 Q230.7813,664.5723 230.9219,664.4941 Q231.0781,664.416 231.2813,664.416 Q231.6094,664.416 231.8594,664.6816 Q232.125,664.9316 232.125,665.2754 Q232.125,665.6191 231.7813,666.0254 Q231.2813,666.6035 230.4844,666.9316 Q229.4063,667.3848 228.1094,667.3848 Q226.5938,667.3848 225.3906,666.7598 Q224.4063,666.2598 223.7188,665.1973 Q223.0313,664.1191 223.0313,662.8379 L223.0313,661.6816 Q223.0313,660.3535 223.6406,659.2129 Q224.2656,658.0566 225.3594,657.4473 Q226.4531,656.8223 227.6875,656.8223 Q228.4219,656.8223 229.0625,656.9941 Q229.7188,657.1504 230.2656,657.5098 Z " fill="#000000"/><text fill="#000000" font-family="sans-serif" font-size="14" lengthAdjust="spacing" textLength="106.6064" x="241.5" y="667.4316">BookingCom API</text><line style="stroke:#181818;stroke-width:0.5;" x1="213.5" x2="350.1064" y1="677.6348" y2="677.6348"/><line style="stroke:#181818;stroke-width:0.5;" x1="213.5" x2="350.1064" y1="685.6348" y2="685.6348"/></g><!--class Tripadvisor API--><g id="elem_Tripadvisor API"><rect fill="#F1F1F1" height="48" id="Tripadvisor API" rx="2.5" ry="2.5" style="stroke:#181818;stroke-width:0.5;" width="127.6963" x="773" y="645.6348"/><ellipse cx="788" cy="661.6348" fill="#ADD1B2" rx="11" ry="11" style="stroke:#181818;stroke-width:1.0;"/><path d="M790.7656,657.5098 Q790.9219,657.291 791.1094,657.1816 Q791.2969,657.0723 791.5156,657.0723 Q791.8906,657.0723 792.125,657.3379 Q792.3594,657.5879 792.3594,658.1973 L792.3594,659.6504 Q792.3594,660.2598 792.125,660.5254 Q791.8906,660.791 791.5156,660.791 Q791.1719,660.791 790.9688,660.5879 Q790.7656,660.4004 790.6563,659.8848 Q790.6094,659.5254 790.4219,659.3379 Q790.0938,658.9629 789.4844,658.7441 Q788.875,658.5254 788.25,658.5254 Q787.4844,658.5254 786.8438,658.8535 Q786.2188,659.1816 785.7188,659.9316 Q785.2344,660.6816 785.2344,661.7129 L785.2344,662.8066 Q785.2344,664.041 786.125,664.8691 Q787.0156,665.6816 788.6094,665.6816 Q789.5469,665.6816 790.2031,665.4316 Q790.5938,665.2754 791.0156,664.8379 Q791.2813,664.5723 791.4219,664.4941 Q791.5781,664.416 791.7813,664.416 Q792.1094,664.416 792.3594,664.6816 Q792.625,664.9316 792.625,665.2754 Q792.625,665.6191 792.2813,666.0254 Q791.7813,666.6035 790.9844,666.9316 Q789.9063,667.3848 788.6094,667.3848 Q787.0938,667.3848 785.8906,666.7598 Q784.9063,666.2598 784.2188,665.1973 Q783.5313,664.1191 783.5313,662.8379 L783.5313,661.6816 Q783.5313,660.3535 784.1406,659.2129 Q784.7656,658.0566 785.8594,657.4473 Q786.9531,656.8223 788.1875,656.8223 Q788.9219,656.8223 789.5625,656.9941 Q790.2188,657.1504 790.7656,657.5098 Z " fill="#000000"/><text fill="#000000" font-family="sans-serif" font-size="14" lengthAdjust="spacing" textLength="95.6963" x="802" y="667.4316">Tripadvisor API</text><line style="stroke:#181818;stroke-width:0.5;" x1="774" x2="899.6963" y1="677.6348" y2="677.6348"/><line style="stroke:#181818;stroke-width:0.5;" x1="774" x2="899.6963" y1="685.6348" y2="685.6348"/></g><!--reverse link IBookingAdapter to BookingComAdapter--><g id="link_IBookingAdapter_BookingComAdapter"><path codeLine="35" d="M607.9193,463.3357 C539.4493,481.7757 471.41,500.1048 402.9,518.5648 " fill="none" id="IBookingAdapter-backto-BookingComAdapter" style="stroke:#181818;stroke-width:1.0;stroke-dasharray:7.0,7.0;"/><polygon fill="none" points="625.3,458.6548,606.359,457.5421,609.4796,469.1292,625.3,458.6548" style="stroke:#181818;stroke-width:1.0;"/></g><!--reverse link IBookingAdapter to TripadvisorAdapter--><g id="link_IBookingAdapter_TripadvisorAdapter"><path codeLine="36" d="M780.2674,473.2045 C793.6474,491.5745 799.72,499.9248 813.13,518.3448 " fill="none" id="IBookingAdapter-backto-TripadvisorAdapter" style="stroke:#181818;stroke-width:1.0;stroke-dasharray:7.0,7.0;"/><polygon fill="none" points="769.67,458.6548,775.4175,476.737,785.1174,469.672,769.67,458.6548" style="stroke:#181818;stroke-width:1.0;"/></g><!--link BookingComAdapter to BookingCom API--><g id="link_BookingComAdapter_BookingCom API"><path codeLine="37" d="M282,585.9248 C282,604.8648 282,622.2448 282,639.3048 " fill="none" id="BookingComAdapter-to-BookingCom API" style="stroke:#181818;stroke-width:1.0;"/><polygon fill="#181818" points="282,645.3048,286,636.3048,282,640.3048,278,636.3048,282,645.3048" style="stroke:#181818;stroke-width:1.0;"/><text fill="#000000" font-family="sans-serif" font-size="13" lengthAdjust="spacing" textLength="104.7808" x="165.4681" y="634.3662">bookingComAPI 1</text></g><!--link TripadvisorAdapter to Tripadvisor API--><g id="link_TripadvisorAdapter_Tripadvisor API"><path codeLine="38" d="M837,585.9248 C837,604.8648 837,622.2448 837,639.3048 " fill="none" id="TripadvisorAdapter-to-Tripadvisor API" style="stroke:#181818;stroke-width:1.0;"/><polygon fill="#181818" points="837,645.3048,841,636.3048,837,640.3048,833,636.3048,837,645.3048" style="stroke:#181818;stroke-width:1.0;"/><text fill="#000000" font-family="sans-serif" font-size="13" lengthAdjust="spacing" textLength="93.2026" x="732.7273" y="634.3662">tripAdvisorAPI 1</text></g><!--link BookingController to BookingService--><g id="link_BookingController_BookingService"><path codeLine="40" d="M746,177.3548 C746,203.0848 746,232.7548 746,258.4748 " fill="none" id="BookingController-to-BookingService" style="stroke:#181818;stroke-width:1.0;"/><polygon fill="#181818" points="746,264.4748,750,255.4748,746,259.4748,742,255.4748,746,264.4748" style="stroke:#181818;stroke-width:1.0;"/><text fill="#000000" font-family="sans-serif" font-size="13" lengthAdjust="spacing" textLength="99.728" x="637.3157" y="253.2688">bookingService 1</text></g><!--link BookingService to IBookingAdapter--><g id="link_BookingService_IBookingAdapter"><path codeLine="41" d="M746,331.6548 C746,350.0248 746,366.9248 746,385.3448 " fill="none" id="BookingService-to-IBookingAdapter" style="stroke:#181818;stroke-width:1.0;"/><polygon fill="#181818" points="746,391.3448,750,382.3448,746,386.3448,742,382.3448,746,391.3448" style="stroke:#181818;stroke-width:1.0;"/><text fill="#000000" font-family="sans-serif" font-size="13" lengthAdjust="spacing" textLength="104.0698" x="632.0838" y="380.3754">iBookingAdapter *</text></g><!--SRC=[lPCxJyCm58Lt_ughJBnI2OcfGaWb7SW4KX4BOd2TIsB5iIFRT07-EpUfG_DQcoX3zFaSdrZts4kl498xI1Ht3hQIvvPNQtX3wqGXbKAT8UmDbbBdpg4zI84EfFQOMxIe6MCr5oNF4Q8zVP0-Wc_66eNzv08XVJIcSMyoNXEZHQ3d6XnoAuedur6vYvst905b1FVIw1i8G1GeobHlkST_bZJi-Sity78DxGxl7-oNCT4U8kGbfbeiyjNAccS7wOnT_fZQMqE3MYvoTwp1-VDQ46BYpgHvXKFIPGrfBt1c8QGsMVIEEth_irfDUpGlcywUJHiOnmzqFqxu9ONR2AAJ40X5RAP7hPD-lDu47gmzwT7BfeNeftP38-zmZ6mqrTOaHoUzYiRt-0y0]--></g></svg>