<svg xmlns="http://www.w3.org/2000/svg" xmlns:xlink="http://www.w3.org/1999/xlink" contentStyleType="text/css" height="717px" preserveAspectRatio="none" style="width:799px;height:717px;background:#FFFFFF;" version="1.1" viewBox="0 0 799 717" width="799px" zoomAndPan="magnify"><title>C4 Class Diagram - Booking</title><defs/><g><text fill="#000000" font-family="sans-serif" font-size="14" font-weight="bold" lengthAdjust="spacing" textLength="187.4893" x="298.7554" y="25.1074">C4 Class Diagram - Booking</text><!--cluster backend--><g id="cluster_backend"><path d="M8.5,45.6348 L66.2998,45.6348 A3.75,3.75 0 0 1 68.7998,48.1348 L75.7998,70.2559 L789.5,70.2559 A2.5,2.5 0 0 1 792,72.7559 L792,616.1348 A2.5,2.5 0 0 1 789.5,618.6348 L8.5,618.6348 A2.5,2.5 0 0 1 6,616.1348 L6,48.1348 A2.5,2.5 0 0 1 8.5,45.6348 " fill="none" style="stroke:#000000;stroke-width:1.5;"/><line style="stroke:#000000;stroke-width:1.5;" x1="6" x2="75.7998" y1="70.2559" y2="70.2559"/><text fill="#000000" font-family="sans-serif" font-size="14" font-weight="bold" lengthAdjust="spacing" textLength="56.7998" x="10" y="62.7422">backend</text></g><!--class IBookingAdapter--><g id="elem_IBookingAdapter"><rect codeLine="6" fill="#F1F1F1" height="85.2422" id="IBookingAdapter" rx="2.5" ry="2.5" style="stroke:#181818;stroke-width:0.5;" width="227.5645" x="285" y="372.6348"/><ellipse cx="342.7739" cy="388.6348" fill="#B4A7E5" rx="11" ry="11" style="stroke:#181818;stroke-width:1.0;"/><path d="M343.7271,385.2754 L343.7271,391.9316 L345.4458,391.9316 Q346.0552,391.9316 346.3208,392.166 Q346.5864,392.4004 346.5864,392.791 Q346.5864,393.166 346.3208,393.4004 Q346.0552,393.6348 345.4458,393.6348 L340.3052,393.6348 Q339.6958,393.6348 339.4302,393.4004 Q339.1646,393.166 339.1646,392.7754 Q339.1646,392.4004 339.4302,392.166 Q339.6958,391.9316 340.3052,391.9316 L342.0239,391.9316 L342.0239,385.2754 L340.3052,385.2754 Q339.6958,385.2754 339.4302,385.041 Q339.1646,384.8066 339.1646,384.416 Q339.1646,384.041 339.4302,383.8066 Q339.6958,383.5723 340.3052,383.5723 L345.4458,383.5723 Q346.0552,383.5723 346.3208,383.8066 Q346.5864,384.041 346.5864,384.416 Q346.5864,384.8066 346.3208,385.041 Q346.0552,385.2754 345.4458,385.2754 L343.7271,385.2754 Z " fill="#000000"/><text fill="#000000" font-family="sans-serif" font-size="14" font-style="italic" lengthAdjust="spacing" textLength="103.5166" x="363.2739" y="394.4316">IBookingAdapter</text><line style="stroke:#181818;stroke-width:0.5;" x1="286" x2="511.5645" y1="404.6348" y2="404.6348"/><line style="stroke:#181818;stroke-width:0.5;" x1="286" x2="511.5645" y1="412.6348" y2="412.6348"/><ellipse cx="296" cy="427.4453" fill="#84BE84" rx="3" ry="3" style="stroke:#038048;stroke-width:1.0;"/><text fill="#000000" font-family="sans-serif" font-size="14" lengthAdjust="spacing" textLength="182.8887" x="305" y="431.7422">getBookings(): List&lt;Booking&gt;</text><ellipse cx="296" cy="446.0664" fill="#84BE84" rx="3" ry="3" style="stroke:#038048;stroke-width:1.0;"/><text fill="#000000" font-family="sans-serif" font-size="14" lengthAdjust="spacing" textLength="201.5645" x="305" y="450.3633">makeBooking(booking: Booking)</text></g><!--class BookingComAdapter--><g id="elem_BookingComAdapter"><rect codeLine="11" fill="#F1F1F1" height="85.2422" id="BookingComAdapter" rx="2.5" ry="2.5" style="stroke:#181818;stroke-width:0.5;" width="227.5645" x="22" y="517.6348"/><ellipse cx="66.9395" cy="533.6348" fill="#ADD1B2" rx="11" ry="11" style="stroke:#181818;stroke-width:1.0;"/><path d="M69.7051,529.5098 Q69.8613,529.291 70.0488,529.1816 Q70.2363,529.0723 70.4551,529.0723 Q70.8301,529.0723 71.0645,529.3379 Q71.2988,529.5879 71.2988,530.1973 L71.2988,531.6504 Q71.2988,532.2598 71.0645,532.5254 Q70.8301,532.791 70.4551,532.791 Q70.1113,532.791 69.9082,532.5879 Q69.7051,532.4004 69.5957,531.8848 Q69.5488,531.5254 69.3613,531.3379 Q69.0332,530.9629 68.4238,530.7441 Q67.8145,530.5254 67.1895,530.5254 Q66.4238,530.5254 65.7832,530.8535 Q65.1582,531.1816 64.6582,531.9316 Q64.1738,532.6816 64.1738,533.7129 L64.1738,534.8066 Q64.1738,536.041 65.0645,536.8691 Q65.9551,537.6816 67.5488,537.6816 Q68.4863,537.6816 69.1426,537.4316 Q69.5332,537.2754 69.9551,536.8379 Q70.2207,536.5723 70.3613,536.4941 Q70.5176,536.416 70.7207,536.416 Q71.0488,536.416 71.2988,536.6816 Q71.5645,536.9316 71.5645,537.2754 Q71.5645,537.6191 71.2207,538.0254 Q70.7207,538.6035 69.9238,538.9316 Q68.8457,539.3848 67.5488,539.3848 Q66.0332,539.3848 64.8301,538.7598 Q63.8457,538.2598 63.1582,537.1973 Q62.4707,536.1191 62.4707,534.8379 L62.4707,533.6816 Q62.4707,532.3535 63.0801,531.2129 Q63.7051,530.0566 64.7988,529.4473 Q65.8926,528.8223 67.127,528.8223 Q67.8613,528.8223 68.502,528.9941 Q69.1582,529.1504 69.7051,529.5098 Z " fill="#000000"/><text fill="#000000" font-family="sans-serif" font-size="14" lengthAdjust="spacing" textLength="129.1855" x="87.4395" y="539.4316">BookingComAdapter</text><line style="stroke:#181818;stroke-width:0.5;" x1="23" x2="248.5645" y1="549.6348" y2="549.6348"/><line style="stroke:#181818;stroke-width:0.5;" x1="23" x2="248.5645" y1="557.6348" y2="557.6348"/><ellipse cx="33" cy="572.4453" fill="#84BE84" rx="3" ry="3" style="stroke:#038048;stroke-width:1.0;"/><text fill="#000000" font-family="sans-serif" font-size="14" lengthAdjust="spacing" textLength="182.8887" x="42" y="576.7422">getBookings(): List&lt;Booking&gt;</text><ellipse cx="33" cy="591.0664" fill="#84BE84" rx="3" ry="3" style="stroke:#038048;stroke-width:1.0;"/><text fill="#000000" font-family="sans-serif" font-size="14" lengthAdjust="spacing" textLength="201.5645" x="42" y="595.3633">makeBooking(booking: Booking)</text></g><!--class TripAdvisorAdapter--><g id="elem_TripAdvisorAdapter"><rect codeLine="16" fill="#F1F1F1" height="85.2422" id="TripAdvisorAdapter" rx="2.5" ry="2.5" style="stroke:#181818;stroke-width:0.5;" width="227.5645" x="285" y="517.6348"/><ellipse cx="334.6187" cy="533.6348" fill="#ADD1B2" rx="11" ry="11" style="stroke:#181818;stroke-width:1.0;"/><path d="M337.3843,529.5098 Q337.5405,529.291 337.728,529.1816 Q337.9155,529.0723 338.1343,529.0723 Q338.5093,529.0723 338.7437,529.3379 Q338.978,529.5879 338.978,530.1973 L338.978,531.6504 Q338.978,532.2598 338.7437,532.5254 Q338.5093,532.791 338.1343,532.791 Q337.7905,532.791 337.5874,532.5879 Q337.3843,532.4004 337.2749,531.8848 Q337.228,531.5254 337.0405,531.3379 Q336.7124,530.9629 336.103,530.7441 Q335.4937,530.5254 334.8687,530.5254 Q334.103,530.5254 333.4624,530.8535 Q332.8374,531.1816 332.3374,531.9316 Q331.853,532.6816 331.853,533.7129 L331.853,534.8066 Q331.853,536.041 332.7437,536.8691 Q333.6343,537.6816 335.228,537.6816 Q336.1655,537.6816 336.8218,537.4316 Q337.2124,537.2754 337.6343,536.8379 Q337.8999,536.5723 338.0405,536.4941 Q338.1968,536.416 338.3999,536.416 Q338.728,536.416 338.978,536.6816 Q339.2437,536.9316 339.2437,537.2754 Q339.2437,537.6191 338.8999,538.0254 Q338.3999,538.6035 337.603,538.9316 Q336.5249,539.3848 335.228,539.3848 Q333.7124,539.3848 332.5093,538.7598 Q331.5249,538.2598 330.8374,537.1973 Q330.1499,536.1191 330.1499,534.8379 L330.1499,533.6816 Q330.1499,532.3535 330.7593,531.2129 Q331.3843,530.0566 332.478,529.4473 Q333.5718,528.8223 334.8062,528.8223 Q335.5405,528.8223 336.1812,528.9941 Q336.8374,529.1504 337.3843,529.5098 Z " fill="#000000"/><text fill="#000000" font-family="sans-serif" font-size="14" lengthAdjust="spacing" textLength="119.8271" x="355.1187" y="539.4316">TripAdvisorAdapter</text><line style="stroke:#181818;stroke-width:0.5;" x1="286" x2="511.5645" y1="549.6348" y2="549.6348"/><line style="stroke:#181818;stroke-width:0.5;" x1="286" x2="511.5645" y1="557.6348" y2="557.6348"/><ellipse cx="296" cy="572.4453" fill="#84BE84" rx="3" ry="3" style="stroke:#038048;stroke-width:1.0;"/><text fill="#000000" font-family="sans-serif" font-size="14" lengthAdjust="spacing" textLength="182.8887" x="305" y="576.7422">getBookings(): List&lt;Booking&gt;</text><ellipse cx="296" cy="591.0664" fill="#84BE84" rx="3" ry="3" style="stroke:#038048;stroke-width:1.0;"/><text fill="#000000" font-family="sans-serif" font-size="14" lengthAdjust="spacing" textLength="201.5645" x="305" y="595.3633">makeBooking(booking: Booking)</text></g><!--class EigenBeheerHandler--><g id="elem_EigenBeheerHandler"><rect codeLine="21" fill="#F1F1F1" height="85.2422" id="EigenBeheerHandler" rx="2.5" ry="2.5" style="stroke:#181818;stroke-width:0.5;" width="227.5645" x="548" y="517.6348"/><ellipse cx="592.543" cy="533.6348" fill="#ADD1B2" rx="11" ry="11" style="stroke:#181818;stroke-width:1.0;"/><path d="M595.3086,529.5098 Q595.4648,529.291 595.6523,529.1816 Q595.8398,529.0723 596.0586,529.0723 Q596.4336,529.0723 596.668,529.3379 Q596.9023,529.5879 596.9023,530.1973 L596.9023,531.6504 Q596.9023,532.2598 596.668,532.5254 Q596.4336,532.791 596.0586,532.791 Q595.7148,532.791 595.5117,532.5879 Q595.3086,532.4004 595.1992,531.8848 Q595.1523,531.5254 594.9648,531.3379 Q594.6367,530.9629 594.0273,530.7441 Q593.418,530.5254 592.793,530.5254 Q592.0273,530.5254 591.3867,530.8535 Q590.7617,531.1816 590.2617,531.9316 Q589.7773,532.6816 589.7773,533.7129 L589.7773,534.8066 Q589.7773,536.041 590.668,536.8691 Q591.5586,537.6816 593.1523,537.6816 Q594.0898,537.6816 594.7461,537.4316 Q595.1367,537.2754 595.5586,536.8379 Q595.8242,536.5723 595.9648,536.4941 Q596.1211,536.416 596.3242,536.416 Q596.6523,536.416 596.9023,536.6816 Q597.168,536.9316 597.168,537.2754 Q597.168,537.6191 596.8242,538.0254 Q596.3242,538.6035 595.5273,538.9316 Q594.4492,539.3848 593.1523,539.3848 Q591.6367,539.3848 590.4336,538.7598 Q589.4492,538.2598 588.7617,537.1973 Q588.0742,536.1191 588.0742,534.8379 L588.0742,533.6816 Q588.0742,532.3535 588.6836,531.2129 Q589.3086,530.0566 590.4023,529.4473 Q591.4961,528.8223 592.7305,528.8223 Q593.4648,528.8223 594.1055,528.9941 Q594.7617,529.1504 595.3086,529.5098 Z " fill="#000000"/><text fill="#000000" font-family="sans-serif" font-size="14" lengthAdjust="spacing" textLength="129.9785" x="613.043" y="539.4316">EigenBeheerHandler</text><line style="stroke:#181818;stroke-width:0.5;" x1="549" x2="774.5645" y1="549.6348" y2="549.6348"/><line style="stroke:#181818;stroke-width:0.5;" x1="549" x2="774.5645" y1="557.6348" y2="557.6348"/><ellipse cx="559" cy="572.4453" fill="#84BE84" rx="3" ry="3" style="stroke:#038048;stroke-width:1.0;"/><text fill="#000000" font-family="sans-serif" font-size="14" lengthAdjust="spacing" textLength="182.8887" x="568" y="576.7422">getBookings(): List&lt;Booking&gt;</text><ellipse cx="559" cy="591.0664" fill="#84BE84" rx="3" ry="3" style="stroke:#038048;stroke-width:1.0;"/><text fill="#000000" font-family="sans-serif" font-size="14" lengthAdjust="spacing" textLength="201.5645" x="568" y="595.3633">makeBooking(booking: Booking)</text></g><!--class BookingController--><g id="elem_BookingController"><rect codeLine="26" fill="#F1F1F1" height="85.2422" id="BookingController" rx="2.5" ry="2.5" style="stroke:#181818;stroke-width:0.5;" width="227.5645" x="285" y="82.6348"/><ellipse cx="338.8911" cy="98.6348" fill="#ADD1B2" rx="11" ry="11" style="stroke:#181818;stroke-width:1.0;"/><path d="M341.6567,94.5098 Q341.813,94.291 342.0005,94.1816 Q342.188,94.0723 342.4067,94.0723 Q342.7817,94.0723 343.0161,94.3379 Q343.2505,94.5879 343.2505,95.1973 L343.2505,96.6504 Q343.2505,97.2598 343.0161,97.5254 Q342.7817,97.791 342.4067,97.791 Q342.063,97.791 341.8599,97.5879 Q341.6567,97.4004 341.5474,96.8848 Q341.5005,96.5254 341.313,96.3379 Q340.9849,95.9629 340.3755,95.7441 Q339.7661,95.5254 339.1411,95.5254 Q338.3755,95.5254 337.7349,95.8535 Q337.1099,96.1816 336.6099,96.9316 Q336.1255,97.6816 336.1255,98.7129 L336.1255,99.8066 Q336.1255,101.041 337.0161,101.8691 Q337.9067,102.6816 339.5005,102.6816 Q340.438,102.6816 341.0942,102.4316 Q341.4849,102.2754 341.9067,101.8379 Q342.1724,101.5723 342.313,101.4941 Q342.4692,101.416 342.6724,101.416 Q343.0005,101.416 343.2505,101.6816 Q343.5161,101.9316 343.5161,102.2754 Q343.5161,102.6191 343.1724,103.0254 Q342.6724,103.6035 341.8755,103.9316 Q340.7974,104.3848 339.5005,104.3848 Q337.9849,104.3848 336.7817,103.7598 Q335.7974,103.2598 335.1099,102.1973 Q334.4224,101.1191 334.4224,99.8379 L334.4224,98.6816 Q334.4224,97.3535 335.0317,96.2129 Q335.6567,95.0566 336.7505,94.4473 Q337.8442,93.8223 339.0786,93.8223 Q339.813,93.8223 340.4536,93.9941 Q341.1099,94.1504 341.6567,94.5098 Z " fill="#000000"/><text fill="#000000" font-family="sans-serif" font-size="14" lengthAdjust="spacing" textLength="111.2822" x="359.3911" y="104.4316">BookingController</text><line style="stroke:#181818;stroke-width:0.5;" x1="286" x2="511.5645" y1="114.6348" y2="114.6348"/><line style="stroke:#181818;stroke-width:0.5;" x1="286" x2="511.5645" y1="122.6348" y2="122.6348"/><ellipse cx="296" cy="137.4453" fill="#84BE84" rx="3" ry="3" style="stroke:#038048;stroke-width:1.0;"/><text fill="#000000" font-family="sans-serif" font-size="14" lengthAdjust="spacing" textLength="182.8887" x="305" y="141.7422">getBookings(): List&lt;Booking&gt;</text><ellipse cx="296" cy="156.0664" fill="#84BE84" rx="3" ry="3" style="stroke:#038048;stroke-width:1.0;"/><text fill="#000000" font-family="sans-serif" font-size="14" lengthAdjust="spacing" textLength="201.5645" x="305" y="160.3633">makeBooking(booking: Booking)</text></g><!--class BookingService--><g id="elem_BookingService"><rect codeLine="31" fill="#F1F1F1" height="85.2422" id="BookingService" rx="2.5" ry="2.5" style="stroke:#181818;stroke-width:0.5;" width="227.5645" x="285" y="227.6348"/><ellipse cx="345.8945" cy="243.6348" fill="#ADD1B2" rx="11" ry="11" style="stroke:#181818;stroke-width:1.0;"/><path d="M348.6602,239.5098 Q348.8164,239.291 349.0039,239.1816 Q349.1914,239.0723 349.4102,239.0723 Q349.7852,239.0723 350.0195,239.3379 Q350.2539,239.5879 350.2539,240.1973 L350.2539,241.6504 Q350.2539,242.2598 350.0195,242.5254 Q349.7852,242.791 349.4102,242.791 Q349.0664,242.791 348.8633,242.5879 Q348.6602,242.4004 348.5508,241.8848 Q348.5039,241.5254 348.3164,241.3379 Q347.9883,240.9629 347.3789,240.7441 Q346.7695,240.5254 346.1445,240.5254 Q345.3789,240.5254 344.7383,240.8535 Q344.1133,241.1816 343.6133,241.9316 Q343.1289,242.6816 343.1289,243.7129 L343.1289,244.8066 Q343.1289,246.041 344.0195,246.8691 Q344.9102,247.6816 346.5039,247.6816 Q347.4414,247.6816 348.0977,247.4316 Q348.4883,247.2754 348.9102,246.8379 Q349.1758,246.5723 349.3164,246.4941 Q349.4727,246.416 349.6758,246.416 Q350.0039,246.416 350.2539,246.6816 Q350.5195,246.9316 350.5195,247.2754 Q350.5195,247.6191 350.1758,248.0254 Q349.6758,248.6035 348.8789,248.9316 Q347.8008,249.3848 346.5039,249.3848 Q344.9883,249.3848 343.7852,248.7598 Q342.8008,248.2598 342.1133,247.1973 Q341.4258,246.1191 341.4258,244.8379 L341.4258,243.6816 Q341.4258,242.3535 342.0352,241.2129 Q342.6602,240.0566 343.7539,239.4473 Q344.8477,238.8223 346.082,238.8223 Q346.8164,238.8223 347.457,238.9941 Q348.1133,239.1504 348.6602,239.5098 Z " fill="#000000"/><text fill="#000000" font-family="sans-serif" font-size="14" lengthAdjust="spacing" textLength="97.2754" x="366.3945" y="249.4316">BookingService</text><line style="stroke:#181818;stroke-width:0.5;" x1="286" x2="511.5645" y1="259.6348" y2="259.6348"/><line style="stroke:#181818;stroke-width:0.5;" x1="286" x2="511.5645" y1="267.6348" y2="267.6348"/><ellipse cx="296" cy="282.4453" fill="#84BE84" rx="3" ry="3" style="stroke:#038048;stroke-width:1.0;"/><text fill="#000000" font-family="sans-serif" font-size="14" lengthAdjust="spacing" textLength="182.8887" x="305" y="286.7422">getBookings(): List&lt;Booking&gt;</text><ellipse cx="296" cy="301.0664" fill="#84BE84" rx="3" ry="3" style="stroke:#038048;stroke-width:1.0;"/><text fill="#000000" font-family="sans-serif" font-size="14" lengthAdjust="spacing" textLength="201.5645" x="305" y="305.3633">makeBooking(booking: Booking)</text></g><!--class BookingCom API--><g id="elem_BookingCom API"><rect fill="#F1F1F1" height="48" id="BookingCom API" rx="2.5" ry="2.5" style="stroke:#181818;stroke-width:0.5;" width="138.6064" x="66.5" y="662.6348"/><ellipse cx="81.5" cy="678.6348" fill="#ADD1B2" rx="11" ry="11" style="stroke:#181818;stroke-width:1.0;"/><path d="M84.2656,674.5098 Q84.4219,674.291 84.6094,674.1816 Q84.7969,674.0723 85.0156,674.0723 Q85.3906,674.0723 85.625,674.3379 Q85.8594,674.5879 85.8594,675.1973 L85.8594,676.6504 Q85.8594,677.2598 85.625,677.5254 Q85.3906,677.791 85.0156,677.791 Q84.6719,677.791 84.4688,677.5879 Q84.2656,677.4004 84.1563,676.8848 Q84.1094,676.5254 83.9219,676.3379 Q83.5938,675.9629 82.9844,675.7441 Q82.375,675.5254 81.75,675.5254 Q80.9844,675.5254 80.3438,675.8535 Q79.7188,676.1816 79.2188,676.9316 Q78.7344,677.6816 78.7344,678.7129 L78.7344,679.8066 Q78.7344,681.041 79.625,681.8691 Q80.5156,682.6816 82.1094,682.6816 Q83.0469,682.6816 83.7031,682.4316 Q84.0938,682.2754 84.5156,681.8379 Q84.7813,681.5723 84.9219,681.4941 Q85.0781,681.416 85.2813,681.416 Q85.6094,681.416 85.8594,681.6816 Q86.125,681.9316 86.125,682.2754 Q86.125,682.6191 85.7813,683.0254 Q85.2813,683.6035 84.4844,683.9316 Q83.4063,684.3848 82.1094,684.3848 Q80.5938,684.3848 79.3906,683.7598 Q78.4063,683.2598 77.7188,682.1973 Q77.0313,681.1191 77.0313,679.8379 L77.0313,678.6816 Q77.0313,677.3535 77.6406,676.2129 Q78.2656,675.0566 79.3594,674.4473 Q80.4531,673.8223 81.6875,673.8223 Q82.4219,673.8223 83.0625,673.9941 Q83.7188,674.1504 84.2656,674.5098 Z " fill="#000000"/><text fill="#000000" font-family="sans-serif" font-size="14" lengthAdjust="spacing" textLength="106.6064" x="95.5" y="684.4316">BookingCom API</text><line style="stroke:#181818;stroke-width:0.5;" x1="67.5" x2="204.1064" y1="694.6348" y2="694.6348"/><line style="stroke:#181818;stroke-width:0.5;" x1="67.5" x2="204.1064" y1="702.6348" y2="702.6348"/></g><!--class TripAdvisor API--><g id="elem_TripAdvisor API"><rect fill="#F1F1F1" height="48" id="TripAdvisor API" rx="2.5" ry="2.5" style="stroke:#181818;stroke-width:0.5;" width="129.248" x="334.5" y="662.6348"/><ellipse cx="349.5" cy="678.6348" fill="#ADD1B2" rx="11" ry="11" style="stroke:#181818;stroke-width:1.0;"/><path d="M352.2656,674.5098 Q352.4219,674.291 352.6094,674.1816 Q352.7969,674.0723 353.0156,674.0723 Q353.3906,674.0723 353.625,674.3379 Q353.8594,674.5879 353.8594,675.1973 L353.8594,676.6504 Q353.8594,677.2598 353.625,677.5254 Q353.3906,677.791 353.0156,677.791 Q352.6719,677.791 352.4688,677.5879 Q352.2656,677.4004 352.1563,676.8848 Q352.1094,676.5254 351.9219,676.3379 Q351.5938,675.9629 350.9844,675.7441 Q350.375,675.5254 349.75,675.5254 Q348.9844,675.5254 348.3438,675.8535 Q347.7188,676.1816 347.2188,676.9316 Q346.7344,677.6816 346.7344,678.7129 L346.7344,679.8066 Q346.7344,681.041 347.625,681.8691 Q348.5156,682.6816 350.1094,682.6816 Q351.0469,682.6816 351.7031,682.4316 Q352.0938,682.2754 352.5156,681.8379 Q352.7813,681.5723 352.9219,681.4941 Q353.0781,681.416 353.2813,681.416 Q353.6094,681.416 353.8594,681.6816 Q354.125,681.9316 354.125,682.2754 Q354.125,682.6191 353.7813,683.0254 Q353.2813,683.6035 352.4844,683.9316 Q351.4063,684.3848 350.1094,684.3848 Q348.5938,684.3848 347.3906,683.7598 Q346.4063,683.2598 345.7188,682.1973 Q345.0313,681.1191 345.0313,679.8379 L345.0313,678.6816 Q345.0313,677.3535 345.6406,676.2129 Q346.2656,675.0566 347.3594,674.4473 Q348.4531,673.8223 349.6875,673.8223 Q350.4219,673.8223 351.0625,673.9941 Q351.7188,674.1504 352.2656,674.5098 Z " fill="#000000"/><text fill="#000000" font-family="sans-serif" font-size="14" lengthAdjust="spacing" textLength="97.248" x="363.5" y="684.4316">TripAdvisor API</text><line style="stroke:#181818;stroke-width:0.5;" x1="335.5" x2="462.748" y1="694.6348" y2="694.6348"/><line style="stroke:#181818;stroke-width:0.5;" x1="335.5" x2="462.748" y1="702.6348" y2="702.6348"/></g><!--reverse link IBookingAdapter to BookingComAdapter--><g id="link_IBookingAdapter_BookingComAdapter"><path codeLine="38" d="M306.7679,466.2858 C272.1879,485.0958 247.22,498.6648 212.61,517.4748 " fill="none" id="IBookingAdapter-backto-BookingComAdapter" style="stroke:#181818;stroke-width:1.0;stroke-dasharray:7.0,7.0;"/><polygon fill="none" points="322.58,457.6848,303.9009,461.0151,309.635,471.5565,322.58,457.6848" style="stroke:#181818;stroke-width:1.0;"/></g><!--reverse link IBookingAdapter to TripAdvisorAdapter--><g id="link_IBookingAdapter_TripAdvisorAdapter"><path codeLine="39" d="M399,475.8848 C399,494.6748 399,498.8148 399,517.5848 " fill="none" id="IBookingAdapter-backto-TripAdvisorAdapter" style="stroke:#181818;stroke-width:1.0;stroke-dasharray:7.0,7.0;"/><polygon fill="none" points="399,457.8848,393,475.8848,405,475.8848,399,457.8848" style="stroke:#181818;stroke-width:1.0;"/></g><!--reverse link IBookingAdapter to EigenBeheerHandler--><g id="link_IBookingAdapter_EigenBeheerHandler"><path codeLine="40" d="M491.2321,466.2858 C525.8121,485.0958 550.78,498.6648 585.39,517.4748 " fill="none" id="IBookingAdapter-backto-EigenBeheerHandler" style="stroke:#181818;stroke-width:1.0;stroke-dasharray:7.0,7.0;"/><polygon fill="none" points="475.42,457.6848,488.365,471.5565,494.0991,461.0151,475.42,457.6848" style="stroke:#181818;stroke-width:1.0;"/></g><!--link BookingComAdapter to BookingCom API--><g id="link_BookingComAdapter_BookingCom API"><path codeLine="41" d="M136,602.9348 C136,622.8548 136,639.9248 136,656.6248 " fill="none" id="BookingComAdapter-to-BookingCom API" style="stroke:#181818;stroke-width:1.0;"/><polygon fill="#181818" points="136,662.6248,140,653.6248,136,657.6248,132,653.6248,136,662.6248" style="stroke:#181818;stroke-width:1.0;"/><text fill="#000000" font-family="sans-serif" font-size="13" lengthAdjust="spacing" textLength="104.7808" x="18.8255" y="651.3597">bookingComAPI 1</text></g><!--link TripAdvisorAdapter to TripAdvisor API--><g id="link_TripAdvisorAdapter_TripAdvisor API"><path codeLine="42" d="M399,602.9348 C399,622.8548 399,639.9248 399,656.6248 " fill="none" id="TripAdvisorAdapter-to-TripAdvisor API" style="stroke:#181818;stroke-width:1.0;"/><polygon fill="#181818" points="399,662.6248,403,653.6248,399,657.6248,395,653.6248,399,662.6248" style="stroke:#181818;stroke-width:1.0;"/><text fill="#000000" font-family="sans-serif" font-size="13" lengthAdjust="spacing" textLength="93.2026" x="294.0786" y="651.3597">tripAdvisorAPI 1</text></g><!--link BookingController to BookingService--><g id="link_BookingController_BookingService"><path codeLine="44" d="M399,167.8848 C399,186.6748 399,202.8148 399,221.5848 " fill="none" id="BookingController-to-BookingService" style="stroke:#181818;stroke-width:1.0;"/><polygon fill="#181818" points="399,227.5848,403,218.5848,399,222.5848,395,218.5848,399,227.5848" style="stroke:#181818;stroke-width:1.0;"/><text fill="#000000" font-family="sans-serif" font-size="13" lengthAdjust="spacing" textLength="99.728" x="292.2037" y="216.4809">bookingService 1</text></g><!--link BookingService to IBookingAdapter--><g id="link_BookingService_IBookingAdapter"><path codeLine="45" d="M399,312.8848 C399,331.6748 399,347.8148 399,366.5848 " fill="none" id="BookingService-to-IBookingAdapter" style="stroke:#181818;stroke-width:1.0;"/><polygon fill="#181818" points="399,372.5848,403,363.5848,399,367.5848,395,363.5848,399,372.5848" style="stroke:#181818;stroke-width:1.0;"/><text fill="#000000" font-family="sans-serif" font-size="13" lengthAdjust="spacing" textLength="106.2407" x="284.607" y="361.4809">iBookingAdapter 1</text></g><!--SRC=[jL91QiCm4BplAnQT4ee3WPv222HkeO4S2kq757lhBhOb8ubSslwzYwCGr_An5WA9qGoZtPt0eI7C7p5ljFVunBfokiKC3zRMR2e0w7HHwufGdUL2fbJu1S0caFlG1U4nClUbxWIJHvJrW1M5-E8NomsUs8Tj17QHqkgQ8hGuNy_DpNW9Fm15_wc8vBQTp-FTSRSlB-ojcy_acIio1_eaSY_QbCsytJB1sMPMZpTo5vO8_AU1x76Yjj-hLHg2QLewnsbUEWf8OvPbEqdz7NuzubgXkXDH80KJsUcLOO17wO1wrK8whg7hhSEY_Tjp68sW5_6eKb6DYly5]--></g></svg>