<svg xmlns="http://www.w3.org/2000/svg" xmlns:xlink="http://www.w3.org/1999/xlink" contentStyleType="text/css" height="750px" preserveAspectRatio="none" style="width:799px;height:750px;background:#FFFFFF;" version="1.1" viewBox="0 0 799 750" width="799px" zoomAndPan="magnify"><title>C4 Class Diagram: Verschillende boekingsservices integreren</title><defs/><g><text fill="#000000" font-family="sans-serif" font-size="14" font-weight="bold" lengthAdjust="spacing" textLength="412.3984" x="186.3008" y="25.1074">C4 Class Diagram: Verschillende boekingsservices integreren</text><!--cluster backend--><g id="cluster_backend"><path d="M8.5,45.6348 L66.2998,45.6348 A3.75,3.75 0 0 1 68.7998,48.1348 L75.7998,70.2559 L789.5,70.2559 A2.5,2.5 0 0 1 792,72.7559 L792,616.1348 A2.5,2.5 0 0 1 789.5,618.6348 L8.5,618.6348 A2.5,2.5 0 0 1 6,616.1348 L6,48.1348 A2.5,2.5 0 0 1 8.5,45.6348 " fill="none" style="stroke:#000000;stroke-width:1.5;"/><line style="stroke:#000000;stroke-width:1.5;" x1="6" x2="75.7998" y1="70.2559" y2="70.2559"/><text fill="#000000" font-family="sans-serif" font-size="14" font-weight="bold" lengthAdjust="spacing" textLength="56.7998" x="10" y="62.7422">backend</text></g><!--cluster Booking--><g id="cluster_Booking"><path d="M79.5,642.6348 L136.4932,642.6348 A3.75,3.75 0 0 1 138.9932,645.1348 L145.9932,667.2559 L192.5,667.2559 A2.5,2.5 0 0 1 195,669.7559 L195,741.1348 A2.5,2.5 0 0 1 192.5,743.6348 L79.5,743.6348 A2.5,2.5 0 0 1 77,741.1348 L77,645.1348 A2.5,2.5 0 0 1 79.5,642.6348 " fill="none" style="stroke:#000000;stroke-width:1.5;"/><line style="stroke:#000000;stroke-width:1.5;" x1="77" x2="145.9932" y1="667.2559" y2="667.2559"/><text fill="#000000" font-family="sans-serif" font-size="14" font-weight="bold" lengthAdjust="spacing" textLength="55.9932" x="81" y="659.7422">Booking</text></g><!--class IBookingAdapter--><g id="elem_IBookingAdapter"><rect codeLine="6" fill="#F1F1F1" height="85.2422" id="IBookingAdapter" rx="2.5" ry="2.5" style="stroke:#181818;stroke-width:0.5;" width="227.5645" x="285" y="372.6348"/><ellipse cx="342.7739" cy="388.6348" fill="#B4A7E5" rx="11" ry="11" style="stroke:#181818;stroke-width:1.0;"/><path d="M343.7271,385.2754 L343.7271,391.9316 L345.4458,391.9316 Q346.0552,391.9316 346.3208,392.166 Q346.5864,392.4004 346.5864,392.791 Q346.5864,393.166 346.3208,393.4004 Q346.0552,393.6348 345.4458,393.6348 L340.3052,393.6348 Q339.6958,393.6348 339.4302,393.4004 Q339.1646,393.166 339.1646,392.7754 Q339.1646,392.4004 339.4302,392.166 Q339.6958,391.9316 340.3052,391.9316 L342.0239,391.9316 L342.0239,385.2754 L340.3052,385.2754 Q339.6958,385.2754 339.4302,385.041 Q339.1646,384.8066 339.1646,384.416 Q339.1646,384.041 339.4302,383.8066 Q339.6958,383.5723 340.3052,383.5723 L345.4458,383.5723 Q346.0552,383.5723 346.3208,383.8066 Q346.5864,384.041 346.5864,384.416 Q346.5864,384.8066 346.3208,385.041 Q346.0552,385.2754 345.4458,385.2754 L343.7271,385.2754 Z " fill="#000000"/><text fill="#000000" font-family="sans-serif" font-size="14" font-style="italic" lengthAdjust="spacing" textLength="103.5166" x="363.2739" y="394.4316">IBookingAdapter</text><line style="stroke:#181818;stroke-width:0.5;" x1="286" x2="511.5645" y1="404.6348" y2="404.6348"/><line style="stroke:#181818;stroke-width:0.5;" x1="286" x2="511.5645" y1="412.6348" y2="412.6348"/><ellipse cx="296" cy="427.4453" fill="#84BE84" rx="3" ry="3" style="stroke:#038048;stroke-width:1.0;"/><text fill="#000000" font-family="sans-serif" font-size="14" lengthAdjust="spacing" textLength="182.8887" x="305" y="431.7422">getBookings(): List&lt;Booking&gt;</text><ellipse cx="296" cy="446.0664" fill="#84BE84" rx="3" ry="3" style="stroke:#038048;stroke-width:1.0;"/><text fill="#000000" font-family="sans-serif" font-size="14" lengthAdjust="spacing" textLength="201.5645" x="305" y="450.3633">makeBooking(booking: Booking)</text></g><!--class BookingComAdapter--><g id="elem_BookingComAdapter"><rect codeLine="11" fill="#F1F1F1" height="85.2422" id="BookingComAdapter" rx="2.5" ry="2.5" style="stroke:#181818;stroke-width:0.5;" width="227.5645" x="22" y="517.6348"/><ellipse cx="66.9395" cy="533.6348" fill="#ADD1B2" rx="11" ry="11" style="stroke:#181818;stroke-width:1.0;"/><path d="M69.7051,529.5098 Q69.8613,529.291 70.0488,529.1816 Q70.2363,529.0723 70.4551,529.0723 Q70.8301,529.0723 71.0645,529.3379 Q71.2988,529.5879 71.2988,530.1973 L71.2988,531.6504 Q71.2988,532.2598 71.0645,532.5254 Q70.8301,532.791 70.4551,532.791 Q70.1113,532.791 69.9082,532.5879 Q69.7051,532.4004 69.5957,531.8848 Q69.5488,531.5254 69.3613,531.3379 Q69.0332,530.9629 68.4238,530.7441 Q67.8145,530.5254 67.1895,530.5254 Q66.4238,530.5254 65.7832,530.8535 Q65.1582,531.1816 64.6582,531.9316 Q64.1738,532.6816 64.1738,533.7129 L64.1738,534.8066 Q64.1738,536.041 65.0645,536.8691 Q65.9551,537.6816 67.5488,537.6816 Q68.4863,537.6816 69.1426,537.4316 Q69.5332,537.2754 69.9551,536.8379 Q70.2207,536.5723 70.3613,536.4941 Q70.5176,536.416 70.7207,536.416 Q71.0488,536.416 71.2988,536.6816 Q71.5645,536.9316 71.5645,537.2754 Q71.5645,537.6191 71.2207,538.0254 Q70.7207,538.6035 69.9238,538.9316 Q68.8457,539.3848 67.5488,539.3848 Q66.0332,539.3848 64.8301,538.7598 Q63.8457,538.2598 63.1582,537.1973 Q62.4707,536.1191 62.4707,534.8379 L62.4707,533.6816 Q62.4707,532.3535 63.0801,531.2129 Q63.7051,530.0566 64.7988,529.4473 Q65.8926,528.8223 67.127,528.8223 Q67.8613,528.8223 68.502,528.9941 Q69.1582,529.1504 69.7051,529.5098 Z " fill="#000000"/><text fill="#000000" font-family="sans-serif" font-size="14" lengthAdjust="spacing" textLength="129.1855" x="87.4395" y="539.4316">BookingComAdapter</text><line style="stroke:#181818;stroke-width:0.5;" x1="23" x2="248.5645" y1="549.6348" y2="549.6348"/><line style="stroke:#181818;stroke-width:0.5;" x1="23" x2="248.5645" y1="557.6348" y2="557.6348"/><ellipse cx="33" cy="572.4453" fill="#84BE84" rx="3" ry="3" style="stroke:#038048;stroke-width:1.0;"/><text fill="#000000" font-family="sans-serif" font-size="14" lengthAdjust="spacing" textLength="182.8887" x="42" y="576.7422">getBookings(): List&lt;Booking&gt;</text><ellipse cx="33" cy="591.0664" fill="#84BE84" rx="3" ry="3" style="stroke:#038048;stroke-width:1.0;"/><text fill="#000000" font-family="sans-serif" font-size="14" lengthAdjust="spacing" textLength="201.5645" x="42" y="595.3633">makeBooking(booking: Booking)</text></g><!--class TripadvisorAdapter--><g id="elem_TripadvisorAdapter"><rect codeLine="16" fill="#F1F1F1" height="85.2422" id="TripadvisorAdapter" rx="2.5" ry="2.5" style="stroke:#181818;stroke-width:0.5;" width="227.5645" x="285" y="517.6348"/><ellipse cx="335.3945" cy="533.6348" fill="#ADD1B2" rx="11" ry="11" style="stroke:#181818;stroke-width:1.0;"/><path d="M338.1602,529.5098 Q338.3164,529.291 338.5039,529.1816 Q338.6914,529.0723 338.9102,529.0723 Q339.2852,529.0723 339.5195,529.3379 Q339.7539,529.5879 339.7539,530.1973 L339.7539,531.6504 Q339.7539,532.2598 339.5195,532.5254 Q339.2852,532.791 338.9102,532.791 Q338.5664,532.791 338.3633,532.5879 Q338.1602,532.4004 338.0508,531.8848 Q338.0039,531.5254 337.8164,531.3379 Q337.4883,530.9629 336.8789,530.7441 Q336.2695,530.5254 335.6445,530.5254 Q334.8789,530.5254 334.2383,530.8535 Q333.6133,531.1816 333.1133,531.9316 Q332.6289,532.6816 332.6289,533.7129 L332.6289,534.8066 Q332.6289,536.041 333.5195,536.8691 Q334.4102,537.6816 336.0039,537.6816 Q336.9414,537.6816 337.5977,537.4316 Q337.9883,537.2754 338.4102,536.8379 Q338.6758,536.5723 338.8164,536.4941 Q338.9727,536.416 339.1758,536.416 Q339.5039,536.416 339.7539,536.6816 Q340.0195,536.9316 340.0195,537.2754 Q340.0195,537.6191 339.6758,538.0254 Q339.1758,538.6035 338.3789,538.9316 Q337.3008,539.3848 336.0039,539.3848 Q334.4883,539.3848 333.2852,538.7598 Q332.3008,538.2598 331.6133,537.1973 Q330.9258,536.1191 330.9258,534.8379 L330.9258,533.6816 Q330.9258,532.3535 331.5352,531.2129 Q332.1602,530.0566 333.2539,529.4473 Q334.3477,528.8223 335.582,528.8223 Q336.3164,528.8223 336.957,528.9941 Q337.6133,529.1504 338.1602,529.5098 Z " fill="#000000"/><text fill="#000000" font-family="sans-serif" font-size="14" lengthAdjust="spacing" textLength="118.2754" x="355.8945" y="539.4316">TripadvisorAdapter</text><line style="stroke:#181818;stroke-width:0.5;" x1="286" x2="511.5645" y1="549.6348" y2="549.6348"/><line style="stroke:#181818;stroke-width:0.5;" x1="286" x2="511.5645" y1="557.6348" y2="557.6348"/><ellipse cx="296" cy="572.4453" fill="#84BE84" rx="3" ry="3" style="stroke:#038048;stroke-width:1.0;"/><text fill="#000000" font-family="sans-serif" font-size="14" lengthAdjust="spacing" textLength="182.8887" x="305" y="576.7422">getBookings(): List&lt;Booking&gt;</text><ellipse cx="296" cy="591.0664" fill="#84BE84" rx="3" ry="3" style="stroke:#038048;stroke-width:1.0;"/><text fill="#000000" font-family="sans-serif" font-size="14" lengthAdjust="spacing" textLength="201.5645" x="305" y="595.3633">makeBooking(booking: Booking)</text></g><!--class EigenBeheerHandler--><g id="elem_EigenBeheerHandler"><rect codeLine="21" fill="#F1F1F1" height="85.2422" id="EigenBeheerHandler" rx="2.5" ry="2.5" style="stroke:#181818;stroke-width:0.5;" width="227.5645" x="548" y="517.6348"/><ellipse cx="592.543" cy="533.6348" fill="#ADD1B2" rx="11" ry="11" style="stroke:#181818;stroke-width:1.0;"/><path d="M595.3086,529.5098 Q595.4648,529.291 595.6523,529.1816 Q595.8398,529.0723 596.0586,529.0723 Q596.4336,529.0723 596.668,529.3379 Q596.9023,529.5879 596.9023,530.1973 L596.9023,531.6504 Q596.9023,532.2598 596.668,532.5254 Q596.4336,532.791 596.0586,532.791 Q595.7148,532.791 595.5117,532.5879 Q595.3086,532.4004 595.1992,531.8848 Q595.1523,531.5254 594.9648,531.3379 Q594.6367,530.9629 594.0273,530.7441 Q593.418,530.5254 592.793,530.5254 Q592.0273,530.5254 591.3867,530.8535 Q590.7617,531.1816 590.2617,531.9316 Q589.7773,532.6816 589.7773,533.7129 L589.7773,534.8066 Q589.7773,536.041 590.668,536.8691 Q591.5586,537.6816 593.1523,537.6816 Q594.0898,537.6816 594.7461,537.4316 Q595.1367,537.2754 595.5586,536.8379 Q595.8242,536.5723 595.9648,536.4941 Q596.1211,536.416 596.3242,536.416 Q596.6523,536.416 596.9023,536.6816 Q597.168,536.9316 597.168,537.2754 Q597.168,537.6191 596.8242,538.0254 Q596.3242,538.6035 595.5273,538.9316 Q594.4492,539.3848 593.1523,539.3848 Q591.6367,539.3848 590.4336,538.7598 Q589.4492,538.2598 588.7617,537.1973 Q588.0742,536.1191 588.0742,534.8379 L588.0742,533.6816 Q588.0742,532.3535 588.6836,531.2129 Q589.3086,530.0566 590.4023,529.4473 Q591.4961,528.8223 592.7305,528.8223 Q593.4648,528.8223 594.1055,528.9941 Q594.7617,529.1504 595.3086,529.5098 Z " fill="#000000"/><text fill="#000000" font-family="sans-serif" font-size="14" lengthAdjust="spacing" textLength="129.9785" x="613.043" y="539.4316">EigenBeheerHandler</text><line style="stroke:#181818;stroke-width:0.5;" x1="549" x2="774.5645" y1="549.6348" y2="549.6348"/><line style="stroke:#181818;stroke-width:0.5;" x1="549" x2="774.5645" y1="557.6348" y2="557.6348"/><ellipse cx="559" cy="572.4453" fill="#84BE84" rx="3" ry="3" style="stroke:#038048;stroke-width:1.0;"/><text fill="#000000" font-family="sans-serif" font-size="14" lengthAdjust="spacing" textLength="182.8887" x="568" y="576.7422">getBookings(): List&lt;Booking&gt;</text><ellipse cx="559" cy="591.0664" fill="#84BE84" rx="3" ry="3" style="stroke:#038048;stroke-width:1.0;"/><text fill="#000000" font-family="sans-serif" font-size="14" lengthAdjust="spacing" textLength="201.5645" x="568" y="595.3633">makeBooking(booking: Booking)</text></g><!--class BookingController--><g id="elem_BookingController"><rect codeLine="26" fill="#F1F1F1" height="85.2422" id="BookingController" rx="2.5" ry="2.5" style="stroke:#181818;stroke-width:0.5;" width="227.5645" x="285" y="82.6348"/><ellipse cx="338.8911" cy="98.6348" fill="#ADD1B2" rx="11" ry="11" style="stroke:#181818;stroke-width:1.0;"/><path d="M341.6567,94.5098 Q341.813,94.291 342.0005,94.1816 Q342.188,94.0723 342.4067,94.0723 Q342.7817,94.0723 343.0161,94.3379 Q343.2505,94.5879 343.2505,95.1973 L343.2505,96.6504 Q343.2505,97.2598 343.0161,97.5254 Q342.7817,97.791 342.4067,97.791 Q342.063,97.791 341.8599,97.5879 Q341.6567,97.4004 341.5474,96.8848 Q341.5005,96.5254 341.313,96.3379 Q340.9849,95.9629 340.3755,95.7441 Q339.7661,95.5254 339.1411,95.5254 Q338.3755,95.5254 337.7349,95.8535 Q337.1099,96.1816 336.6099,96.9316 Q336.1255,97.6816 336.1255,98.7129 L336.1255,99.8066 Q336.1255,101.041 337.0161,101.8691 Q337.9067,102.6816 339.5005,102.6816 Q340.438,102.6816 341.0942,102.4316 Q341.4849,102.2754 341.9067,101.8379 Q342.1724,101.5723 342.313,101.4941 Q342.4692,101.416 342.6724,101.416 Q343.0005,101.416 343.2505,101.6816 Q343.5161,101.9316 343.5161,102.2754 Q343.5161,102.6191 343.1724,103.0254 Q342.6724,103.6035 341.8755,103.9316 Q340.7974,104.3848 339.5005,104.3848 Q337.9849,104.3848 336.7817,103.7598 Q335.7974,103.2598 335.1099,102.1973 Q334.4224,101.1191 334.4224,99.8379 L334.4224,98.6816 Q334.4224,97.3535 335.0317,96.2129 Q335.6567,95.0566 336.7505,94.4473 Q337.8442,93.8223 339.0786,93.8223 Q339.813,93.8223 340.4536,93.9941 Q341.1099,94.1504 341.6567,94.5098 Z " fill="#000000"/><text fill="#000000" font-family="sans-serif" font-size="14" lengthAdjust="spacing" textLength="111.2822" x="359.3911" y="104.4316">BookingController</text><line style="stroke:#181818;stroke-width:0.5;" x1="286" x2="511.5645" y1="114.6348" y2="114.6348"/><line style="stroke:#181818;stroke-width:0.5;" x1="286" x2="511.5645" y1="122.6348" y2="122.6348"/><ellipse cx="296" cy="137.4453" fill="#84BE84" rx="3" ry="3" style="stroke:#038048;stroke-width:1.0;"/><text fill="#000000" font-family="sans-serif" font-size="14" lengthAdjust="spacing" textLength="182.8887" x="305" y="141.7422">getBookings(): List&lt;Booking&gt;</text><ellipse cx="296" cy="156.0664" fill="#84BE84" rx="3" ry="3" style="stroke:#038048;stroke-width:1.0;"/><text fill="#000000" font-family="sans-serif" font-size="14" lengthAdjust="spacing" textLength="201.5645" x="305" y="160.3633">makeBooking(booking: Booking)</text></g><!--class BookingService--><g id="elem_BookingService"><rect codeLine="31" fill="#F1F1F1" height="85.2422" id="BookingService" rx="2.5" ry="2.5" style="stroke:#181818;stroke-width:0.5;" width="227.5645" x="285" y="227.6348"/><ellipse cx="345.8945" cy="243.6348" fill="#ADD1B2" rx="11" ry="11" style="stroke:#181818;stroke-width:1.0;"/><path d="M348.6602,239.5098 Q348.8164,239.291 349.0039,239.1816 Q349.1914,239.0723 349.4102,239.0723 Q349.7852,239.0723 350.0195,239.3379 Q350.2539,239.5879 350.2539,240.1973 L350.2539,241.6504 Q350.2539,242.2598 350.0195,242.5254 Q349.7852,242.791 349.4102,242.791 Q349.0664,242.791 348.8633,242.5879 Q348.6602,242.4004 348.5508,241.8848 Q348.5039,241.5254 348.3164,241.3379 Q347.9883,240.9629 347.3789,240.7441 Q346.7695,240.5254 346.1445,240.5254 Q345.3789,240.5254 344.7383,240.8535 Q344.1133,241.1816 343.6133,241.9316 Q343.1289,242.6816 343.1289,243.7129 L343.1289,244.8066 Q343.1289,246.041 344.0195,246.8691 Q344.9102,247.6816 346.5039,247.6816 Q347.4414,247.6816 348.0977,247.4316 Q348.4883,247.2754 348.9102,246.8379 Q349.1758,246.5723 349.3164,246.4941 Q349.4727,246.416 349.6758,246.416 Q350.0039,246.416 350.2539,246.6816 Q350.5195,246.9316 350.5195,247.2754 Q350.5195,247.6191 350.1758,248.0254 Q349.6758,248.6035 348.8789,248.9316 Q347.8008,249.3848 346.5039,249.3848 Q344.9883,249.3848 343.7852,248.7598 Q342.8008,248.2598 342.1133,247.1973 Q341.4258,246.1191 341.4258,244.8379 L341.4258,243.6816 Q341.4258,242.3535 342.0352,241.2129 Q342.6602,240.0566 343.7539,239.4473 Q344.8477,238.8223 346.082,238.8223 Q346.8164,238.8223 347.457,238.9941 Q348.1133,239.1504 348.6602,239.5098 Z " fill="#000000"/><text fill="#000000" font-family="sans-serif" font-size="14" lengthAdjust="spacing" textLength="97.2754" x="366.3945" y="249.4316">BookingService</text><line style="stroke:#181818;stroke-width:0.5;" x1="286" x2="511.5645" y1="259.6348" y2="259.6348"/><line style="stroke:#181818;stroke-width:0.5;" x1="286" x2="511.5645" y1="267.6348" y2="267.6348"/><ellipse cx="296" cy="282.4453" fill="#84BE84" rx="3" ry="3" style="stroke:#038048;stroke-width:1.0;"/><text fill="#000000" font-family="sans-serif" font-size="14" lengthAdjust="spacing" textLength="182.8887" x="305" y="286.7422">getBookings(): List&lt;Booking&gt;</text><ellipse cx="296" cy="301.0664" fill="#84BE84" rx="3" ry="3" style="stroke:#038048;stroke-width:1.0;"/><text fill="#000000" font-family="sans-serif" font-size="14" lengthAdjust="spacing" textLength="201.5645" x="305" y="305.3633">makeBooking(booking: Booking)</text></g><!--class com API--><g id="elem_com API"><rect fill="#F1F1F1" height="48" id="com API" rx="2.5" ry="2.5" style="stroke:#181818;stroke-width:0.5;" width="84.9033" x="93.5" y="679.6348"/><ellipse cx="108.5" cy="695.6348" fill="#ADD1B2" rx="11" ry="11" style="stroke:#181818;stroke-width:1.0;"/><path d="M111.2656,691.5098 Q111.4219,691.291 111.6094,691.1816 Q111.7969,691.0723 112.0156,691.0723 Q112.3906,691.0723 112.625,691.3379 Q112.8594,691.5879 112.8594,692.1973 L112.8594,693.6504 Q112.8594,694.2598 112.625,694.5254 Q112.3906,694.791 112.0156,694.791 Q111.6719,694.791 111.4688,694.5879 Q111.2656,694.4004 111.1563,693.8848 Q111.1094,693.5254 110.9219,693.3379 Q110.5938,692.9629 109.9844,692.7441 Q109.375,692.5254 108.75,692.5254 Q107.9844,692.5254 107.3438,692.8535 Q106.7188,693.1816 106.2188,693.9316 Q105.7344,694.6816 105.7344,695.7129 L105.7344,696.8066 Q105.7344,698.041 106.625,698.8691 Q107.5156,699.6816 109.1094,699.6816 Q110.0469,699.6816 110.7031,699.4316 Q111.0938,699.2754 111.5156,698.8379 Q111.7813,698.5723 111.9219,698.4941 Q112.0781,698.416 112.2813,698.416 Q112.6094,698.416 112.8594,698.6816 Q113.125,698.9316 113.125,699.2754 Q113.125,699.6191 112.7813,700.0254 Q112.2813,700.6035 111.4844,700.9316 Q110.4063,701.3848 109.1094,701.3848 Q107.5938,701.3848 106.3906,700.7598 Q105.4063,700.2598 104.7188,699.1973 Q104.0313,698.1191 104.0313,696.8379 L104.0313,695.6816 Q104.0313,694.3535 104.6406,693.2129 Q105.2656,692.0566 106.3594,691.4473 Q107.4531,690.8223 108.6875,690.8223 Q109.4219,690.8223 110.0625,690.9941 Q110.7188,691.1504 111.2656,691.5098 Z " fill="#000000"/><text fill="#000000" font-family="sans-serif" font-size="14" lengthAdjust="spacing" textLength="52.9033" x="122.5" y="701.4316">com API</text><line style="stroke:#181818;stroke-width:0.5;" x1="94.5" x2="177.4033" y1="711.6348" y2="711.6348"/><line style="stroke:#181818;stroke-width:0.5;" x1="94.5" x2="177.4033" y1="719.6348" y2="719.6348"/></g><!--class Tripadvisor API--><g id="elem_Tripadvisor API"><rect fill="#F1F1F1" height="48" id="Tripadvisor API" rx="2.5" ry="2.5" style="stroke:#181818;stroke-width:0.5;" width="127.6963" x="335" y="679.6348"/><ellipse cx="350" cy="695.6348" fill="#ADD1B2" rx="11" ry="11" style="stroke:#181818;stroke-width:1.0;"/><path d="M352.7656,691.5098 Q352.9219,691.291 353.1094,691.1816 Q353.2969,691.0723 353.5156,691.0723 Q353.8906,691.0723 354.125,691.3379 Q354.3594,691.5879 354.3594,692.1973 L354.3594,693.6504 Q354.3594,694.2598 354.125,694.5254 Q353.8906,694.791 353.5156,694.791 Q353.1719,694.791 352.9688,694.5879 Q352.7656,694.4004 352.6563,693.8848 Q352.6094,693.5254 352.4219,693.3379 Q352.0938,692.9629 351.4844,692.7441 Q350.875,692.5254 350.25,692.5254 Q349.4844,692.5254 348.8438,692.8535 Q348.2188,693.1816 347.7188,693.9316 Q347.2344,694.6816 347.2344,695.7129 L347.2344,696.8066 Q347.2344,698.041 348.125,698.8691 Q349.0156,699.6816 350.6094,699.6816 Q351.5469,699.6816 352.2031,699.4316 Q352.5938,699.2754 353.0156,698.8379 Q353.2813,698.5723 353.4219,698.4941 Q353.5781,698.416 353.7813,698.416 Q354.1094,698.416 354.3594,698.6816 Q354.625,698.9316 354.625,699.2754 Q354.625,699.6191 354.2813,700.0254 Q353.7813,700.6035 352.9844,700.9316 Q351.9063,701.3848 350.6094,701.3848 Q349.0938,701.3848 347.8906,700.7598 Q346.9063,700.2598 346.2188,699.1973 Q345.5313,698.1191 345.5313,696.8379 L345.5313,695.6816 Q345.5313,694.3535 346.1406,693.2129 Q346.7656,692.0566 347.8594,691.4473 Q348.9531,690.8223 350.1875,690.8223 Q350.9219,690.8223 351.5625,690.9941 Q352.2188,691.1504 352.7656,691.5098 Z " fill="#000000"/><text fill="#000000" font-family="sans-serif" font-size="14" lengthAdjust="spacing" textLength="95.6963" x="364" y="701.4316">Tripadvisor API</text><line style="stroke:#181818;stroke-width:0.5;" x1="336" x2="461.6963" y1="711.6348" y2="711.6348"/><line style="stroke:#181818;stroke-width:0.5;" x1="336" x2="461.6963" y1="719.6348" y2="719.6348"/></g><!--reverse link IBookingAdapter to BookingComAdapter--><g id="link_IBookingAdapter_BookingComAdapter"><path codeLine="38" d="M306.7679,466.2858 C272.1879,485.0958 247.22,498.6648 212.61,517.4748 " fill="none" id="IBookingAdapter-backto-BookingComAdapter" style="stroke:#181818;stroke-width:1.0;stroke-dasharray:7.0,7.0;"/><polygon fill="none" points="322.58,457.6848,303.9009,461.0151,309.635,471.5565,322.58,457.6848" style="stroke:#181818;stroke-width:1.0;"/></g><!--reverse link IBookingAdapter to TripadvisorAdapter--><g id="link_IBookingAdapter_TripadvisorAdapter"><path codeLine="39" d="M399,475.8848 C399,494.6748 399,498.8148 399,517.5848 " fill="none" id="IBookingAdapter-backto-TripadvisorAdapter" style="stroke:#181818;stroke-width:1.0;stroke-dasharray:7.0,7.0;"/><polygon fill="none" points="399,457.8848,393,475.8848,405,475.8848,399,457.8848" style="stroke:#181818;stroke-width:1.0;"/></g><!--reverse link IBookingAdapter to EigenBeheerHandler--><g id="link_IBookingAdapter_EigenBeheerHandler"><path codeLine="40" d="M491.2321,466.2858 C525.8121,485.0958 550.78,498.6648 585.39,517.4748 " fill="none" id="IBookingAdapter-backto-EigenBeheerHandler" style="stroke:#181818;stroke-width:1.0;stroke-dasharray:7.0,7.0;"/><polygon fill="none" points="475.42,457.6848,488.365,471.5565,494.0991,461.0151,475.42,457.6848" style="stroke:#181818;stroke-width:1.0;"/></g><!--link BookingComAdapter to com API--><g id="link_BookingComAdapter_com API"><path codeLine="41" d="M136,602.8248 C136,627.7648 136,652.5448 136,673.2748 " fill="none" id="BookingComAdapter-to-com API" style="stroke:#181818;stroke-width:1.0;"/><polygon fill="#181818" points="136,679.2748,140,670.2748,136,674.2748,132,670.2748,136,679.2748" style="stroke:#181818;stroke-width:1.0;"/><text fill="#000000" font-family="sans-serif" font-size="13" lengthAdjust="spacing" textLength="104.7808" x="19.4319" y="668.3289">bookingComAPI 1</text></g><!--link TripadvisorAdapter to Tripadvisor API--><g id="link_TripadvisorAdapter_Tripadvisor API"><path codeLine="42" d="M399,602.8248 C399,627.7648 399,652.5448 399,673.2748 " fill="none" id="TripadvisorAdapter-to-Tripadvisor API" style="stroke:#181818;stroke-width:1.0;"/><polygon fill="#181818" points="399,679.2748,403,670.2748,399,674.2748,395,670.2748,399,679.2748" style="stroke:#181818;stroke-width:1.0;"/><text fill="#000000" font-family="sans-serif" font-size="13" lengthAdjust="spacing" textLength="93.2026" x="294.7273" y="668.3289">tripAdvisorAPI 1</text></g><!--link BookingController to BookingService--><g id="link_BookingController_BookingService"><path codeLine="44" d="M399,167.8848 C399,186.6748 399,202.8148 399,221.5848 " fill="none" id="BookingController-to-BookingService" style="stroke:#181818;stroke-width:1.0;"/><polygon fill="#181818" points="399,227.5848,403,218.5848,399,222.5848,395,218.5848,399,227.5848" style="stroke:#181818;stroke-width:1.0;"/><text fill="#000000" font-family="sans-serif" font-size="13" lengthAdjust="spacing" textLength="99.728" x="292.2037" y="216.4809">bookingService 1</text></g><!--link BookingService to IBookingAdapter--><g id="link_BookingService_IBookingAdapter"><path codeLine="45" d="M399,312.8848 C399,331.6748 399,347.8148 399,366.5848 " fill="none" id="BookingService-to-IBookingAdapter" style="stroke:#181818;stroke-width:1.0;"/><polygon fill="#181818" points="399,372.5848,403,363.5848,399,367.5848,395,363.5848,399,372.5848" style="stroke:#181818;stroke-width:1.0;"/><text fill="#000000" font-family="sans-serif" font-size="13" lengthAdjust="spacing" textLength="106.2407" x="284.607" y="361.4809">iBookingAdapter 1</text></g><!--SRC=[jLB1IiGm4BtFLmmzxI9R43oLPM6t2Yvu41JlQJfcGzEa964lwhyxsqPSsnvj22IylCVBpBoeeo4ixx0q8WIyrq9vqHRuHZx8apQ6R4rOEMgqLI6GFsj90RMDf3nviW3G2Ta8HPXLV65-XXy05uP_5vBmU73kejxNecEC7v7N3IgAwIMirWK-wH2t2TWbIYiQIj2g6iu24x26Bm3P_peXfMkNytZrkXFrMGVdbpDvq8hiWKv4_b7OsYpRBHkzCujwl0nv-LS3tkD4RJ_pV1g2UTfqZlEywIXW6hFDPiUf_uMVZtYROPQ8kNGjCfR1J7XwQMHyd_2alQ8EMfZEwzhsfyMi_Tjq6CsW5-bHgQmQLVyD]--></g></svg>