<svg xmlns="http://www.w3.org/2000/svg" xmlns:xlink="http://www.w3.org/1999/xlink" contentStyleType="text/css" height="723.6px" preserveAspectRatio="none" style="width:1293px;height:723px;background:#FFFFFF;" version="1.1" viewBox="0 0 1293 723" width="1293px" zoomAndPan="magnify"><title>C4 Class Diagram: Alternatieve bouwstenen aanbieden</title><defs/><g><text fill="#000000" font-family="sans-serif" font-size="8.4" font-weight="bold" lengthAdjust="spacing" textLength="219.8643" x="532.3679" y="15.0645">C4 Class Diagram: Alternatieve bouwstenen aanbieden</text><!--cluster controller--><g id="cluster_controller"><path d="M310.5,55.2809 L349.8393,55.2809 A2.25,2.25 0 0 1 351.3393,56.7809 L355.5393,70.0535 L848.7,70.0535 A1.5,1.5 0 0 1 850.2,71.5535 L850.2,125.7809 A1.5,1.5 0 0 1 848.7,127.2809 L310.5,127.2809 A1.5,1.5 0 0 1 309,125.7809 L309,56.7809 A1.5,1.5 0 0 1 310.5,55.2809 " fill="none" style="stroke:#000000;stroke-width:0.8999999999999999;"/><line style="stroke:#000000;stroke-width:0.8999999999999999;" x1="309" x2="355.5393" y1="70.0535" y2="70.0535"/><text fill="#000000" font-family="sans-serif" font-size="8.4" font-weight="bold" lengthAdjust="spacing" textLength="38.7393" x="311.4" y="65.5453">controller</text></g><!--cluster service--><g id="cluster_service"><path d="M310.5,169.5809 L340.0611,169.5809 A2.25,2.25 0 0 1 341.5611,171.0809 L345.7611,184.3535 L848.7,184.3535 A1.5,1.5 0 0 1 850.2,185.8535 L850.2,337.8809 A1.5,1.5 0 0 1 848.7,339.3809 L310.5,339.3809 A1.5,1.5 0 0 1 309,337.8809 L309,171.0809 A1.5,1.5 0 0 1 310.5,169.5809 " fill="none" style="stroke:#000000;stroke-width:0.8999999999999999;"/><line style="stroke:#000000;stroke-width:0.8999999999999999;" x1="309" x2="345.7611" y1="184.3535" y2="184.3535"/><text fill="#000000" font-family="sans-serif" font-size="8.4" font-weight="bold" lengthAdjust="spacing" textLength="28.9611" x="311.4" y="179.8453">service</text></g><!--cluster tripStrategy--><g id="cluster_tripStrategy"><path d="M5.1,353.7809 L52.8434,353.7809 A2.25,2.25 0 0 1 54.3434,355.2809 L58.5434,368.5535 L1287.3,368.5535 A1.5,1.5 0 0 1 1288.8,370.0535 L1288.8,511.2809 A1.5,1.5 0 0 1 1287.3,512.7809 L5.1,512.7809 A1.5,1.5 0 0 1 3.6,511.2809 L3.6,355.2809 A1.5,1.5 0 0 1 5.1,353.7809 " fill="none" style="stroke:#000000;stroke-width:0.8999999999999999;"/><line style="stroke:#000000;stroke-width:0.8999999999999999;" x1="3.6" x2="58.5434" y1="368.5535" y2="368.5535"/><text fill="#000000" font-family="sans-serif" font-size="8.4" font-weight="bold" lengthAdjust="spacing" textLength="47.1434" x="6" y="364.0453">tripStrategy</text></g><!--cluster domain--><g id="cluster_domain"><path d="M1074.3,27.3809 L1104.7676,27.3809 A2.25,2.25 0 0 1 1106.2676,28.8809 L1110.4676,42.1535 L1182.9,42.1535 A1.5,1.5 0 0 1 1184.4,43.6535 L1184.4,153.6809 A1.5,1.5 0 0 1 1182.9,155.1809 L1074.3,155.1809 A1.5,1.5 0 0 1 1072.8,153.6809 L1072.8,28.8809 A1.5,1.5 0 0 1 1074.3,27.3809 " fill="none" style="stroke:#000000;stroke-width:0.8999999999999999;"/><line style="stroke:#000000;stroke-width:0.8999999999999999;" x1="1072.8" x2="1110.4676" y1="42.1535" y2="42.1535"/><text fill="#000000" font-family="sans-serif" font-size="8.4" font-weight="bold" lengthAdjust="spacing" textLength="29.8676" x="1075.2" y="37.6453">domain</text></g><!--cluster api--><g id="cluster_api"><path d="M652.5,527.1809 L665.2365,527.1809 A2.25,2.25 0 0 1 666.7365,528.6809 L670.9365,541.9535 L840.3,541.9535 A1.5,1.5 0 0 1 841.8,543.4535 L841.8,718.2809 A1.5,1.5 0 0 1 840.3,719.7809 L652.5,719.7809 A1.5,1.5 0 0 1 651,718.2809 L651,528.6809 A1.5,1.5 0 0 1 652.5,527.1809 " fill="none" style="stroke:#000000;stroke-width:0.8999999999999999;"/><line style="stroke:#000000;stroke-width:0.8999999999999999;" x1="651" x2="670.9365" y1="541.9535" y2="541.9535"/><text fill="#000000" font-family="sans-serif" font-size="8.4" font-weight="bold" lengthAdjust="spacing" textLength="12.1365" x="653.4" y="537.4453">api</text></g><!--class JourneyController--><g id="elem_JourneyController"><rect codeLine="9" fill="#F1F1F1" height="39.9727" id="JourneyController" rx="1.5" ry="1.5" style="stroke:#181818;stroke-width:0.3;" width="522.1963" x="318.6" y="77.4809"/><ellipse cx="543.9993" cy="87.0809" fill="#ADD1B2" rx="6.6" ry="6.6" style="stroke:#181818;stroke-width:0.6;"/><path d="M545.6587,84.6059 Q545.7524,84.4746 545.8649,84.409 Q545.9774,84.3434 546.1087,84.3434 Q546.3337,84.3434 546.4743,84.5027 Q546.6149,84.6527 546.6149,85.0184 L546.6149,85.8902 Q546.6149,86.2559 546.4743,86.4152 Q546.3337,86.5746 546.1087,86.5746 Q545.9024,86.5746 545.7806,86.4527 Q545.6587,86.3402 545.5931,86.0309 Q545.5649,85.8152 545.4524,85.7027 Q545.2556,85.4777 544.8899,85.3465 Q544.5243,85.2152 544.1493,85.2152 Q543.6899,85.2152 543.3056,85.4121 Q542.9306,85.609 542.6306,86.059 Q542.3399,86.509 542.3399,87.1277 L542.3399,87.784 Q542.3399,88.5246 542.8743,89.0215 Q543.4087,89.509 544.3649,89.509 Q544.9274,89.509 545.3212,89.359 Q545.5556,89.2652 545.8087,89.0027 Q545.9681,88.8434 546.0524,88.7965 Q546.1462,88.7496 546.2681,88.7496 Q546.4649,88.7496 546.6149,88.909 Q546.7743,89.059 546.7743,89.2652 Q546.7743,89.4715 546.5681,89.7152 Q546.2681,90.0621 545.7899,90.259 Q545.1431,90.5309 544.3649,90.5309 Q543.4556,90.5309 542.7337,90.1559 Q542.1431,89.8559 541.7306,89.2184 Q541.3181,88.5715 541.3181,87.8027 L541.3181,87.109 Q541.3181,86.3121 541.6837,85.6277 Q542.0587,84.934 542.7149,84.5684 Q543.3712,84.1934 544.1118,84.1934 Q544.5524,84.1934 544.9368,84.2965 Q545.3306,84.3902 545.6587,84.6059 Z " fill="#000000"/><text fill="#000000" font-family="sans-serif" font-size="8.4" lengthAdjust="spacing" textLength="66.2977" x="556.2993" y="90.559">JourneyController</text><line style="stroke:#181818;stroke-width:0.3;" x1="319.2" x2="840.1963" y1="96.6809" y2="96.6809"/><line style="stroke:#181818;stroke-width:0.3;" x1="319.2" x2="840.1963" y1="101.4809" y2="101.4809"/><ellipse cx="325.2" cy="110.3672" fill="#84BE84" rx="1.8" ry="1.8" style="stroke:#038048;stroke-width:0.6;"/><text fill="#000000" font-family="sans-serif" font-size="8.4" lengthAdjust="spacing" textLength="506.5963" x="330.6" y="112.9453">getJourneys(origin: String, destination: String, departureDate: Date, returnDate: Date, price: double, transport: Transport): List&lt;Journey&gt;</text></g><!--class JourneyService--><g id="elem_JourneyService"><rect codeLine="15" fill="#F1F1F1" height="51.1453" id="JourneyService" rx="1.5" ry="1.5" style="stroke:#181818;stroke-width:0.3;" width="522.1963" x="318.6" y="191.7809"/><ellipse cx="548.2014" cy="201.3809" fill="#B4A7E5" rx="6.6" ry="6.6" style="stroke:#181818;stroke-width:0.6;"/><path d="M548.7732,199.3652 L548.7732,203.359 L549.8045,203.359 Q550.1701,203.359 550.3295,203.4996 Q550.4889,203.6402 550.4889,203.8746 Q550.4889,204.0996 550.3295,204.2402 Q550.1701,204.3809 549.8045,204.3809 L546.7201,204.3809 Q546.3545,204.3809 546.1951,204.2402 Q546.0357,204.0996 546.0357,203.8652 Q546.0357,203.6402 546.1951,203.4996 Q546.3545,203.359 546.7201,203.359 L547.7514,203.359 L547.7514,199.3652 L546.7201,199.3652 Q546.3545,199.3652 546.1951,199.2246 Q546.0357,199.084 546.0357,198.8496 Q546.0357,198.6246 546.1951,198.484 Q546.3545,198.3434 546.7201,198.3434 L549.8045,198.3434 Q550.1701,198.3434 550.3295,198.484 Q550.4889,198.6246 550.4889,198.8496 Q550.4889,199.084 550.3295,199.2246 Q550.1701,199.3652 549.8045,199.3652 L548.7732,199.3652 Z " fill="#000000"/><text fill="#000000" font-family="sans-serif" font-size="8.4" font-style="italic" lengthAdjust="spacing" textLength="57.8936" x="560.5014" y="204.859">JourneyService</text><line style="stroke:#181818;stroke-width:0.3;" x1="319.2" x2="840.1963" y1="210.9809" y2="210.9809"/><line style="stroke:#181818;stroke-width:0.3;" x1="319.2" x2="840.1963" y1="215.7809" y2="215.7809"/><ellipse cx="325.2" cy="224.6672" fill="#84BE84" rx="1.8" ry="1.8" style="stroke:#038048;stroke-width:0.6;"/><text fill="#000000" font-family="sans-serif" font-size="8.4" lengthAdjust="spacing" textLength="147.5291" x="330.6" y="227.2453">setJourneyStrategy(tripStrategy: String)</text><ellipse cx="325.2" cy="235.8398" fill="#84BE84" rx="1.8" ry="1.8" style="stroke:#038048;stroke-width:0.6;"/><text fill="#000000" font-family="sans-serif" font-size="8.4" lengthAdjust="spacing" textLength="506.5963" x="330.6" y="238.418">getJourneys(origin: String, destination: String, departureDate: Date, returnDate: Date, price: double, transport: Transport): List&lt;Journey&gt;</text></g><!--class JourneyServiceImpl--><g id="elem_JourneyServiceImpl"><rect codeLine="20" fill="#F1F1F1" height="51.1453" id="JourneyServiceImpl" rx="1.5" ry="1.5" style="stroke:#181818;stroke-width:0.3;" width="522.1963" x="318.6" y="278.7809"/><ellipse cx="540.2669" cy="288.3809" fill="#ADD1B2" rx="6.6" ry="6.6" style="stroke:#181818;stroke-width:0.6;"/><path d="M541.9263,285.9059 Q542.02,285.7746 542.1325,285.709 Q542.245,285.6434 542.3763,285.6434 Q542.6013,285.6434 542.7419,285.8027 Q542.8825,285.9527 542.8825,286.3184 L542.8825,287.1902 Q542.8825,287.5559 542.7419,287.7152 Q542.6013,287.8746 542.3763,287.8746 Q542.17,287.8746 542.0481,287.7527 Q541.9263,287.6402 541.8606,287.3309 Q541.8325,287.1152 541.72,287.0027 Q541.5231,286.7777 541.1575,286.6465 Q540.7919,286.5152 540.4169,286.5152 Q539.9575,286.5152 539.5731,286.7121 Q539.1981,286.909 538.8981,287.359 Q538.6075,287.809 538.6075,288.4277 L538.6075,289.084 Q538.6075,289.8246 539.1419,290.3215 Q539.6763,290.809 540.6325,290.809 Q541.195,290.809 541.5888,290.659 Q541.8231,290.5652 542.0763,290.3027 Q542.2356,290.1434 542.32,290.0965 Q542.4138,290.0496 542.5356,290.0496 Q542.7325,290.0496 542.8825,290.209 Q543.0419,290.359 543.0419,290.5652 Q543.0419,290.7715 542.8356,291.0152 Q542.5356,291.3621 542.0575,291.559 Q541.4106,291.8309 540.6325,291.8309 Q539.7231,291.8309 539.0013,291.4559 Q538.4106,291.1559 537.9981,290.5184 Q537.5856,289.8715 537.5856,289.1027 L537.5856,288.409 Q537.5856,287.6121 537.9513,286.9277 Q538.3263,286.234 538.9825,285.8684 Q539.6388,285.4934 540.3794,285.4934 Q540.82,285.4934 541.2044,285.5965 Q541.5981,285.6902 541.9263,285.9059 Z " fill="#000000"/><text fill="#000000" font-family="sans-serif" font-size="8.4" lengthAdjust="spacing" textLength="73.7625" x="552.5669" y="291.859">JourneyServiceImpl</text><line style="stroke:#181818;stroke-width:0.3;" x1="319.2" x2="840.1963" y1="297.9809" y2="297.9809"/><line style="stroke:#181818;stroke-width:0.3;" x1="319.2" x2="840.1963" y1="302.7809" y2="302.7809"/><ellipse cx="325.2" cy="311.6672" fill="#84BE84" rx="1.8" ry="1.8" style="stroke:#038048;stroke-width:0.6;"/><text fill="#000000" font-family="sans-serif" font-size="8.4" lengthAdjust="spacing" textLength="147.5291" x="330.6" y="314.2453">setJourneyStrategy(tripStrategy: String)</text><ellipse cx="325.2" cy="322.8398" fill="#84BE84" rx="1.8" ry="1.8" style="stroke:#038048;stroke-width:0.6;"/><text fill="#000000" font-family="sans-serif" font-size="8.4" lengthAdjust="spacing" textLength="506.5963" x="330.6" y="325.418">getJourneys(origin: String, destination: String, departureDate: Date, returnDate: Date, price: double, transport: Transport): List&lt;Journey&gt;</text></g><!--class JourneyStrategy--><g id="elem_JourneyStrategy"><rect codeLine="27" fill="#F1F1F1" height="39.9727" id="JourneyStrategy" rx="1.5" ry="1.5" style="stroke:#181818;stroke-width:0.3;" width="522.1963" x="318.6" y="375.9809"/><ellipse cx="546.5648" cy="385.5809" fill="#B4A7E5" rx="6.6" ry="6.6" style="stroke:#181818;stroke-width:0.6;"/><path d="M547.1367,383.5652 L547.1367,387.559 L548.168,387.559 Q548.5336,387.559 548.693,387.6996 Q548.8523,387.8402 548.8523,388.0746 Q548.8523,388.2996 548.693,388.4402 Q548.5336,388.5809 548.168,388.5809 L545.0836,388.5809 Q544.718,388.5809 544.5586,388.4402 Q544.3992,388.2996 544.3992,388.0652 Q544.3992,387.8402 544.5586,387.6996 Q544.718,387.559 545.0836,387.559 L546.1148,387.559 L546.1148,383.5652 L545.0836,383.5652 Q544.718,383.5652 544.5586,383.4246 Q544.3992,383.284 544.3992,383.0496 Q544.3992,382.8246 544.5586,382.684 Q544.718,382.5434 545.0836,382.5434 L548.168,382.5434 Q548.5336,382.5434 548.693,382.684 Q548.8523,382.8246 548.8523,383.0496 Q548.8523,383.284 548.693,383.4246 Q548.5336,383.5652 548.168,383.5652 L547.1367,383.5652 Z " fill="#000000"/><text fill="#000000" font-family="sans-serif" font-size="8.4" font-style="italic" lengthAdjust="spacing" textLength="61.1666" x="558.8648" y="389.059">JourneyStrategy</text><line style="stroke:#181818;stroke-width:0.3;" x1="319.2" x2="840.1963" y1="395.1809" y2="395.1809"/><line style="stroke:#181818;stroke-width:0.3;" x1="319.2" x2="840.1963" y1="399.9809" y2="399.9809"/><ellipse cx="325.2" cy="408.8672" fill="#84BE84" rx="1.8" ry="1.8" style="stroke:#038048;stroke-width:0.6;"/><text fill="#000000" font-family="sans-serif" font-size="8.4" lengthAdjust="spacing" textLength="506.5963" x="330.6" y="411.4453">getJourneys(origin: String, destination: String, departureDate: Date, returnDate: Date, price: double, transport: Transport): List&lt;Journey&gt;</text></g><!--class StandardJourneyStrategy--><g id="elem_StandardJourneyStrategy"><rect codeLine="31" fill="#F1F1F1" height="39.9727" id="StandardJourneyStrategy" rx="1.5" ry="1.5" style="stroke:#181818;stroke-width:0.3;" width="522.1963" x="757.2" y="457.5809"/><ellipse cx="968.1188" cy="467.1809" fill="#ADD1B2" rx="6.6" ry="6.6" style="stroke:#181818;stroke-width:0.6;"/><path d="M969.7781,464.7059 Q969.8719,464.5746 969.9844,464.509 Q970.0969,464.4434 970.2281,464.4434 Q970.4531,464.4434 970.5938,464.6027 Q970.7344,464.7527 970.7344,465.1184 L970.7344,465.9902 Q970.7344,466.3559 970.5938,466.5152 Q970.4531,466.6746 970.2281,466.6746 Q970.0219,466.6746 969.9,466.5527 Q969.7781,466.4402 969.7125,466.1309 Q969.6844,465.9152 969.5719,465.8027 Q969.375,465.5777 969.0094,465.4465 Q968.6438,465.3152 968.2688,465.3152 Q967.8094,465.3152 967.425,465.5121 Q967.05,465.709 966.75,466.159 Q966.4594,466.609 966.4594,467.2277 L966.4594,467.884 Q966.4594,468.6246 966.9938,469.1215 Q967.5281,469.609 968.4844,469.609 Q969.0469,469.609 969.4406,469.459 Q969.675,469.3652 969.9281,469.1027 Q970.0875,468.9434 970.1719,468.8965 Q970.2656,468.8496 970.3875,468.8496 Q970.5844,468.8496 970.7344,469.009 Q970.8938,469.159 970.8938,469.3652 Q970.8938,469.5715 970.6875,469.8152 Q970.3875,470.1621 969.9094,470.359 Q969.2625,470.6309 968.4844,470.6309 Q967.575,470.6309 966.8531,470.2559 Q966.2625,469.9559 965.85,469.3184 Q965.4375,468.6715 965.4375,467.9027 L965.4375,467.209 Q965.4375,466.4121 965.8031,465.7277 Q966.1781,465.034 966.8344,464.6684 Q967.4906,464.2934 968.2312,464.2934 Q968.6719,464.2934 969.0563,464.3965 Q969.45,464.4902 969.7781,464.7059 Z " fill="#000000"/><text fill="#000000" font-family="sans-serif" font-size="8.4" lengthAdjust="spacing" textLength="95.2588" x="980.4187" y="470.659">StandardJourneyStrategy</text><line style="stroke:#181818;stroke-width:0.3;" x1="757.8" x2="1278.7963" y1="476.7809" y2="476.7809"/><line style="stroke:#181818;stroke-width:0.3;" x1="757.8" x2="1278.7963" y1="481.5809" y2="481.5809"/><ellipse cx="763.8" cy="490.4672" fill="#84BE84" rx="1.8" ry="1.8" style="stroke:#038048;stroke-width:0.6;"/><text fill="#000000" font-family="sans-serif" font-size="8.4" lengthAdjust="spacing" textLength="506.5963" x="769.2" y="493.0453">getJourneys(origin: String, destination: String, departureDate: Date, returnDate: Date, price: double, transport: Transport): List&lt;Journey&gt;</text></g><!--class AlternativeJourneyStrategy--><g id="elem_AlternativeJourneyStrategy"><rect codeLine="35" fill="#F1F1F1" height="51.1453" id="AlternativeJourneyStrategy" rx="1.5" ry="1.5" style="stroke:#181818;stroke-width:0.3;" width="522.1963" x="214.2" y="452.1809"/><ellipse cx="422.3215" cy="461.7809" fill="#ADD1B2" rx="6.6" ry="6.6" style="stroke:#181818;stroke-width:0.6;"/><path d="M423.9809,459.3059 Q424.0746,459.1746 424.1871,459.109 Q424.2996,459.0434 424.4309,459.0434 Q424.6559,459.0434 424.7965,459.2027 Q424.9371,459.3527 424.9371,459.7184 L424.9371,460.5902 Q424.9371,460.9559 424.7965,461.1152 Q424.6559,461.2746 424.4309,461.2746 Q424.2246,461.2746 424.1027,461.1527 Q423.9809,461.0402 423.9152,460.7309 Q423.8871,460.5152 423.7746,460.4027 Q423.5777,460.1777 423.2121,460.0465 Q422.8465,459.9152 422.4715,459.9152 Q422.0121,459.9152 421.6277,460.1121 Q421.2527,460.309 420.9527,460.759 Q420.6621,461.209 420.6621,461.8277 L420.6621,462.484 Q420.6621,463.2246 421.1965,463.7215 Q421.7309,464.209 422.6871,464.209 Q423.2496,464.209 423.6434,464.059 Q423.8777,463.9652 424.1309,463.7027 Q424.2902,463.5434 424.3746,463.4965 Q424.4684,463.4496 424.5902,463.4496 Q424.7871,463.4496 424.9371,463.609 Q425.0965,463.759 425.0965,463.9652 Q425.0965,464.1715 424.8902,464.4152 Q424.5902,464.7621 424.1121,464.959 Q423.4652,465.2309 422.6871,465.2309 Q421.7777,465.2309 421.0559,464.8559 Q420.4652,464.5559 420.0527,463.9184 Q419.6402,463.2715 419.6402,462.5027 L419.6402,461.809 Q419.6402,461.0121 420.0059,460.3277 Q420.3809,459.634 421.0371,459.2684 Q421.6934,458.8934 422.434,458.8934 Q422.8746,458.8934 423.259,458.9965 Q423.6527,459.0902 423.9809,459.3059 Z " fill="#000000"/><text fill="#000000" font-family="sans-serif" font-size="8.4" lengthAdjust="spacing" textLength="100.8533" x="434.6215" y="465.259">AlternativeJourneyStrategy</text><line style="stroke:#181818;stroke-width:0.3;" x1="214.8" x2="735.7963" y1="471.3809" y2="471.3809"/><line style="stroke:#181818;stroke-width:0.3;" x1="214.8" x2="735.7963" y1="476.1809" y2="476.1809"/><ellipse cx="220.8" cy="485.0672" fill="#84BE84" rx="1.8" ry="1.8" style="stroke:#038048;stroke-width:0.6;"/><text fill="#000000" font-family="sans-serif" font-size="8.4" lengthAdjust="spacing" textLength="506.5963" x="226.2" y="487.6453">getJourneys(origin: String, destination: String, departureDate: Date, returnDate: Date, price: double, transport: Transport): List&lt;Journey&gt;</text><ellipse cx="220.8" cy="496.2398" fill="#84BE84" rx="1.8" ry="1.8" style="stroke:#038048;stroke-width:0.6;"/><text fill="#000000" font-family="sans-serif" font-size="8.4" lengthAdjust="spacing" textLength="379.0992" x="226.2" y="498.818">getJourneysFromTransportType(response: String, transport: Transport, journeys: List&lt;Journey&gt;): void</text></g><!--class Transport--><g id="elem_Transport"><rect codeLine="40" fill="#F1F1F1" height="39.9727" id="Transport" rx="1.5" ry="1.5" style="stroke:#181818;stroke-width:0.3;" width="179.4205" x="13.5" y="457.5809"/><ellipse cx="82.6872" cy="467.1809" fill="#EB937F" rx="6.6" ry="6.6" style="stroke:#181818;stroke-width:0.6;"/><path d="M82.0028,467.659 L82.0028,469.159 L84.5997,469.159 L84.5997,468.6059 Q84.5997,468.2402 84.7403,468.0809 Q84.8903,467.9215 85.1153,467.9215 Q85.3403,467.9215 85.481,468.0809 Q85.6216,468.2402 85.6216,468.6059 L85.6216,470.1809 L80.8216,470.1809 Q80.4466,470.1809 80.2872,470.0402 Q80.1372,469.8996 80.1372,469.6652 Q80.1372,469.4402 80.2966,469.2996 Q80.456,469.159 80.8216,469.159 L80.981,469.159 L80.981,465.1652 L80.8216,465.1652 Q80.4466,465.1652 80.2872,465.0246 Q80.1372,464.884 80.1372,464.6496 Q80.1372,464.4246 80.2872,464.284 Q80.4466,464.1434 80.8216,464.1434 L85.3966,464.1434 L85.3966,465.6996 Q85.3966,466.0652 85.256,466.2246 Q85.1247,466.3746 84.8903,466.3746 Q84.6653,466.3746 84.5247,466.2246 Q84.3841,466.0652 84.3841,465.6996 L84.3841,465.1652 L82.0028,465.1652 L82.0028,466.6371 L82.8935,466.6371 Q82.8935,466.2434 82.9685,466.1309 Q83.1278,465.8871 83.4091,465.8871 Q83.6341,465.8871 83.7747,466.0465 Q83.9153,466.1965 83.9153,466.5621 L83.9153,467.7434 Q83.9153,468.0715 83.8403,468.184 Q83.681,468.4184 83.4091,468.4184 Q83.1278,468.4184 82.9685,468.1746 Q82.8935,468.0621 82.8935,467.659 L82.0028,467.659 Z " fill="#000000"/><text fill="#000000" font-family="sans-serif" font-size="8.4" lengthAdjust="spacing" textLength="35.9461" x="94.9872" y="470.659">Transport</text><line style="stroke:#181818;stroke-width:0.3;" x1="14.1" x2="192.3205" y1="476.7809" y2="476.7809"/><text fill="#000000" font-family="sans-serif" font-size="8.4" lengthAdjust="spacing" textLength="172.2205" x="17.1" y="488.2453">HUURAUTO, VLIEGTUIG, TREIN, BUS, TAXI</text><line style="stroke:#181818;stroke-width:0.3;" x1="14.1" x2="192.3205" y1="492.7535" y2="492.7535"/></g><!--class Journey--><g id="elem_Journey"><rect codeLine="46" fill="#F1F1F1" height="95.8359" id="Journey" rx="1.5" ry="1.5" style="stroke:#181818;stroke-width:0.3;" width="91.7127" x="1082.7" y="49.5809"/><ellipse cx="1111.0644" cy="59.1809" fill="#ADD1B2" rx="6.6" ry="6.6" style="stroke:#181818;stroke-width:0.6;"/><path d="M1112.7237,56.7059 Q1112.8175,56.5746 1112.93,56.509 Q1113.0425,56.4434 1113.1737,56.4434 Q1113.3987,56.4434 1113.5394,56.6027 Q1113.68,56.7527 1113.68,57.1184 L1113.68,57.9902 Q1113.68,58.3559 1113.5394,58.5152 Q1113.3987,58.6746 1113.1737,58.6746 Q1112.9675,58.6746 1112.8456,58.5527 Q1112.7237,58.4402 1112.6581,58.1309 Q1112.63,57.9152 1112.5175,57.8027 Q1112.3206,57.5777 1111.955,57.4465 Q1111.5894,57.3152 1111.2144,57.3152 Q1110.755,57.3152 1110.3706,57.5121 Q1109.9956,57.709 1109.6956,58.159 Q1109.405,58.609 1109.405,59.2277 L1109.405,59.884 Q1109.405,60.6246 1109.9394,61.1215 Q1110.4737,61.609 1111.43,61.609 Q1111.9925,61.609 1112.3862,61.459 Q1112.6206,61.3652 1112.8737,61.1027 Q1113.0331,60.9434 1113.1175,60.8965 Q1113.2112,60.8496 1113.3331,60.8496 Q1113.53,60.8496 1113.68,61.009 Q1113.8394,61.159 1113.8394,61.3652 Q1113.8394,61.5715 1113.6331,61.8152 Q1113.3331,62.1621 1112.855,62.359 Q1112.2081,62.6309 1111.43,62.6309 Q1110.5206,62.6309 1109.7987,62.2559 Q1109.2081,61.9559 1108.7956,61.3184 Q1108.3831,60.6715 1108.3831,59.9027 L1108.3831,59.209 Q1108.3831,58.4121 1108.7487,57.7277 Q1109.1237,57.034 1109.78,56.6684 Q1110.4362,56.2934 1111.1769,56.2934 Q1111.6175,56.2934 1112.0019,56.3965 Q1112.3956,56.4902 1112.7237,56.7059 Z " fill="#000000"/><text fill="#000000" font-family="sans-serif" font-size="8.4" lengthAdjust="spacing" textLength="29.884" x="1123.3644" y="62.659">Journey</text><line style="stroke:#181818;stroke-width:0.3;" x1="1083.3" x2="1173.8127" y1="68.7809" y2="68.7809"/><ellipse cx="1089.3" cy="77.6672" fill="none" rx="1.8" ry="1.8" style="stroke:#038048;stroke-width:0.6;"/><text fill="#000000" font-family="sans-serif" font-size="8.4" lengthAdjust="spacing" textLength="47.1557" x="1094.7" y="80.2453">origin: String</text><ellipse cx="1089.3" cy="88.8398" fill="none" rx="1.8" ry="1.8" style="stroke:#038048;stroke-width:0.6;"/><text fill="#000000" font-family="sans-serif" font-size="8.4" lengthAdjust="spacing" textLength="67.241" x="1094.7" y="91.418">destination: String</text><ellipse cx="1089.3" cy="100.0125" fill="none" rx="1.8" ry="1.8" style="stroke:#038048;stroke-width:0.6;"/><text fill="#000000" font-family="sans-serif" font-size="8.4" lengthAdjust="spacing" textLength="76.1127" x="1094.7" y="102.5906">departureDate: Date</text><ellipse cx="1089.3" cy="111.1852" fill="none" rx="1.8" ry="1.8" style="stroke:#038048;stroke-width:0.6;"/><text fill="#000000" font-family="sans-serif" font-size="8.4" lengthAdjust="spacing" textLength="62.0977" x="1094.7" y="113.7633">returnDate: Date</text><ellipse cx="1089.3" cy="122.3578" fill="none" rx="1.8" ry="1.8" style="stroke:#038048;stroke-width:0.6;"/><text fill="#000000" font-family="sans-serif" font-size="8.4" lengthAdjust="spacing" textLength="48.099" x="1094.7" y="124.9359">price: double</text><ellipse cx="1089.3" cy="133.5305" fill="none" rx="1.8" ry="1.8" style="stroke:#038048;stroke-width:0.6;"/><text fill="#000000" font-family="sans-serif" font-size="8.4" lengthAdjust="spacing" textLength="73.7625" x="1094.7" y="136.1086">transport: Transport</text><line style="stroke:#181818;stroke-width:0.3;" x1="1083.3" x2="1173.8127" y1="140.6168" y2="140.6168"/></g><!--class ExternalAPIHandler--><g id="elem_ExternalAPIHandler"><rect codeLine="57" fill="#F1F1F1" height="62.318" id="ExternalAPIHandler" rx="1.5" ry="1.5" style="stroke:#181818;stroke-width:0.3;" width="171.5291" x="660.6" y="549.3809"/><ellipse cx="706.9292" cy="558.9809" fill="#B4A7E5" rx="6.6" ry="6.6" style="stroke:#181818;stroke-width:0.6;"/><path d="M707.5011,556.9652 L707.5011,560.959 L708.5323,560.959 Q708.8979,560.959 709.0573,561.0996 Q709.2167,561.2402 709.2167,561.4746 Q709.2167,561.6996 709.0573,561.8402 Q708.8979,561.9809 708.5323,561.9809 L705.4479,561.9809 Q705.0823,561.9809 704.9229,561.8402 Q704.7636,561.6996 704.7636,561.4652 Q704.7636,561.2402 704.9229,561.0996 Q705.0823,560.959 705.4479,560.959 L706.4792,560.959 L706.4792,556.9652 L705.4479,556.9652 Q705.0823,556.9652 704.9229,556.8246 Q704.7636,556.684 704.7636,556.4496 Q704.7636,556.2246 704.9229,556.084 Q705.0823,555.9434 705.4479,555.9434 L708.5323,555.9434 Q708.8979,555.9434 709.0573,556.084 Q709.2167,556.2246 709.2167,556.4496 Q709.2167,556.684 709.0573,556.8246 Q708.8979,556.9652 708.5323,556.9652 L707.5011,556.9652 Z " fill="#000000"/><text fill="#000000" font-family="sans-serif" font-size="8.4" font-style="italic" lengthAdjust="spacing" textLength="73.7707" x="719.2292" y="562.459">ExternalAPIHandler</text><line style="stroke:#181818;stroke-width:0.3;" x1="661.2" x2="831.5291" y1="568.5809" y2="568.5809"/><line style="stroke:#181818;stroke-width:0.3;" x1="661.2" x2="831.5291" y1="573.3809" y2="573.3809"/><ellipse cx="667.2" cy="582.2672" fill="#84BE84" rx="1.8" ry="1.8" style="stroke:#038048;stroke-width:0.6;"/><text fill="#000000" font-family="sans-serif" font-size="8.4" lengthAdjust="spacing" textLength="133.9816" x="672.6" y="584.8453">getTaxiTrips(location: String): String</text><ellipse cx="667.2" cy="593.4398" fill="#84BE84" rx="1.8" ry="1.8" style="stroke:#038048;stroke-width:0.6;"/><text fill="#000000" font-family="sans-serif" font-size="8.4" lengthAdjust="spacing" textLength="138.6533" x="672.6" y="596.018">getFlightTrips(location: String): String</text><ellipse cx="667.2" cy="604.6125" fill="#84BE84" rx="1.8" ry="1.8" style="stroke:#038048;stroke-width:0.6;"/><text fill="#000000" font-family="sans-serif" font-size="8.4" lengthAdjust="spacing" textLength="155.9291" x="672.6" y="607.1906">getCarRentalTrips(location: String): String</text></g><!--class ExternalAPIHandlerImpl--><g id="elem_ExternalAPIHandlerImpl"><rect codeLine="63" fill="#F1F1F1" height="62.318" id="ExternalAPIHandlerImpl" rx="1.5" ry="1.5" style="stroke:#181818;stroke-width:0.3;" width="171.5291" x="660.6" y="647.7809"/><ellipse cx="698.9947" cy="657.3809" fill="#ADD1B2" rx="6.6" ry="6.6" style="stroke:#181818;stroke-width:0.6;"/><path d="M700.6541,654.9059 Q700.7479,654.7746 700.8604,654.709 Q700.9729,654.6434 701.1041,654.6434 Q701.3291,654.6434 701.4697,654.8027 Q701.6104,654.9527 701.6104,655.3184 L701.6104,656.1902 Q701.6104,656.5559 701.4697,656.7152 Q701.3291,656.8746 701.1041,656.8746 Q700.8979,656.8746 700.776,656.7527 Q700.6541,656.6402 700.5885,656.3309 Q700.5604,656.1152 700.4479,656.0027 Q700.251,655.7777 699.8854,655.6465 Q699.5197,655.5152 699.1447,655.5152 Q698.6854,655.5152 698.301,655.7121 Q697.926,655.909 697.626,656.359 Q697.3354,656.809 697.3354,657.4277 L697.3354,658.084 Q697.3354,658.8246 697.8697,659.3215 Q698.4041,659.809 699.3604,659.809 Q699.9229,659.809 700.3166,659.659 Q700.551,659.5652 700.8041,659.3027 Q700.9635,659.1434 701.0479,659.0965 Q701.1416,659.0496 701.2635,659.0496 Q701.4604,659.0496 701.6104,659.209 Q701.7697,659.359 701.7697,659.5652 Q701.7697,659.7715 701.5635,660.0152 Q701.2635,660.3621 700.7854,660.559 Q700.1385,660.8309 699.3604,660.8309 Q698.451,660.8309 697.7291,660.4559 Q697.1385,660.1559 696.726,659.5184 Q696.3135,658.8715 696.3135,658.1027 L696.3135,657.409 Q696.3135,656.6121 696.6791,655.9277 Q697.0541,655.234 697.7104,654.8684 Q698.3666,654.4934 699.1072,654.4934 Q699.5479,654.4934 699.9322,654.5965 Q700.326,654.6902 700.6541,654.9059 Z " fill="#000000"/><text fill="#000000" font-family="sans-serif" font-size="8.4" lengthAdjust="spacing" textLength="89.6396" x="711.2947" y="660.859">ExternalAPIHandlerImpl</text><line style="stroke:#181818;stroke-width:0.3;" x1="661.2" x2="831.5291" y1="666.9809" y2="666.9809"/><line style="stroke:#181818;stroke-width:0.3;" x1="661.2" x2="831.5291" y1="671.7809" y2="671.7809"/><ellipse cx="667.2" cy="680.6672" fill="#84BE84" rx="1.8" ry="1.8" style="stroke:#038048;stroke-width:0.6;"/><text fill="#000000" font-family="sans-serif" font-size="8.4" lengthAdjust="spacing" textLength="133.9816" x="672.6" y="683.2453">getTaxiTrips(location: String): String</text><ellipse cx="667.2" cy="691.8398" fill="#84BE84" rx="1.8" ry="1.8" style="stroke:#038048;stroke-width:0.6;"/><text fill="#000000" font-family="sans-serif" font-size="8.4" lengthAdjust="spacing" textLength="138.6533" x="672.6" y="694.418">getFlightTrips(location: String): String</text><ellipse cx="667.2" cy="703.0125" fill="#84BE84" rx="1.8" ry="1.8" style="stroke:#038048;stroke-width:0.6;"/><text fill="#000000" font-family="sans-serif" font-size="8.4" lengthAdjust="spacing" textLength="155.9291" x="672.6" y="705.5906">getCarRentalTrips(location: String): String</text></g><!--reverse link JourneyStrategy to StandardJourneyStrategy--><g id="link_JourneyStrategy_StandardJourneyStrategy"><path codeLine="70" d="M812.802,427.0529 C812.802,439.6049 812.802,444.8969 812.802,457.4609 " fill="none" id="JourneyStrategy-backto-StandardJourneyStrategy" style="stroke:#181818;stroke-width:0.6;stroke-dasharray:7.0,7.0;"/><polygon fill="none" points="812.802,416.2529,809.202,427.0529,816.402,427.0529,812.802,416.2529" style="stroke:#181818;stroke-width:0.6;"/></g><!--reverse link JourneyStrategy to AlternativeJourneyStrategy--><g id="link_JourneyStrategy_AlternativeJourneyStrategy"><path codeLine="71" d="M527.4,427.0529 C527.4,437.8589 527.4,440.4869 527.4,452.0309 " fill="none" id="JourneyStrategy-backto-AlternativeJourneyStrategy" style="stroke:#181818;stroke-width:0.6;stroke-dasharray:7.0,7.0;"/><polygon fill="none" points="527.4,416.2529,523.8,427.0529,531,427.0529,527.4,416.2529" style="stroke:#181818;stroke-width:0.6;"/></g><!--reverse link Transport to StandardJourneyStrategy--><g id="link_Transport_StandardJourneyStrategy"><path codeLine="72" d="M103.2,453.8609 C103.2,442.4969 103.2,434.1809 103.2,434.1809 C103.2,434.1809 784.998,434.1809 784.998,434.1809 C784.998,434.1809 784.998,446.0969 784.998,457.4609 " fill="none" id="Transport-backto-StandardJourneyStrategy" style="stroke:#181818;stroke-width:0.6;stroke-dasharray:7.0,7.0;"/><polygon fill="#181818" points="103.2,457.4609,105.6,452.0609,103.2,454.4609,100.8,452.0609,103.2,457.4609" style="stroke:#181818;stroke-width:0.6;"/><text fill="#000000" font-family="sans-serif" font-size="7.8" lengthAdjust="spacing" textLength="37.2861" x="62.4606" y="450.8895">transport 1</text></g><!--reverse link Transport to AlternativeJourneyStrategy--><g id="link_Transport_AlternativeJourneyStrategy"><path codeLine="73" d="M196.614,477.9809 C203.442,477.9809 206.904,477.9809 214.152,477.9809 " fill="none" id="Transport-backto-AlternativeJourneyStrategy" style="stroke:#181818;stroke-width:0.6;stroke-dasharray:7.0,7.0;"/><polygon fill="#181818" points="193.014,477.9809,198.414,480.3809,196.014,477.9809,198.414,475.5809,193.014,477.9809" style="stroke:#181818;stroke-width:0.6;"/><text fill="#000000" font-family="sans-serif" font-size="7.8" lengthAdjust="spacing" textLength="44.6558" x="197.5377" y="473.6575">transport 1..*</text></g><!--link JourneyServiceImpl to JourneyStrategy--><g id="link_JourneyServiceImpl_JourneyStrategy"><path codeLine="75" d="M579.6,329.8529 C579.6,344.3909 579.6,358.7369 579.6,372.2789 " fill="none" id="JourneyServiceImpl-to-JourneyStrategy" style="stroke:#181818;stroke-width:0.6;"/><polygon fill="#181818" points="579.6,375.8789,582,370.4789,579.6,372.8789,577.2,370.4789,579.6,375.8789" style="stroke:#181818;stroke-width:0.6;"/><text fill="#000000" font-family="sans-serif" font-size="7.8" lengthAdjust="spacing" textLength="61.1355" x="513.0681" y="369.1541">journeyStrategy 1</text></g><!--link JourneyController to JourneyService--><g id="link_JourneyController_JourneyService"><path codeLine="77" d="M579.6,117.8849 C579.6,138.2309 579.6,166.0049 579.6,188.0549 " fill="none" id="JourneyController-to-JourneyService" style="stroke:#181818;stroke-width:0.6;"/><polygon fill="#181818" points="579.6,191.6549,582,186.2549,579.6,188.6549,577.2,186.2549,579.6,191.6549" style="stroke:#181818;stroke-width:0.6;"/><text fill="#000000" font-family="sans-serif" font-size="7.8" lengthAdjust="spacing" textLength="58.0963" x="517.4339" y="184.9772">journeyService 1</text></g><!--reverse link JourneyService to JourneyServiceImpl--><g id="link_JourneyService_JourneyServiceImpl"><path codeLine="78" d="M579.6,253.7129 C579.6,264.9389 579.6,267.2909 579.6,278.5289 " fill="none" id="JourneyService-backto-JourneyServiceImpl" style="stroke:#181818;stroke-width:0.6;stroke-dasharray:7.0,7.0;"/><polygon fill="none" points="579.6,242.9129,576,253.7129,583.2,253.7129,579.6,242.9129" style="stroke:#181818;stroke-width:0.6;"/></g><!--reverse link ExternalAPIHandler to ExternalAPIHandlerImpl--><g id="link_ExternalAPIHandler_ExternalAPIHandlerImpl"><path codeLine="79" d="M746.4,622.7849 C746.4,634.2029 746.4,636.2969 746.4,647.7029 " fill="none" id="ExternalAPIHandler-backto-ExternalAPIHandlerImpl" style="stroke:#181818;stroke-width:0.6;stroke-dasharray:7.0,7.0;"/><polygon fill="none" points="746.4,611.9849,742.8,622.7849,750,622.7849,746.4,611.9849" style="stroke:#181818;stroke-width:0.6;"/></g><!--link StandardJourneyStrategy to ExternalAPIHandler--><g id="link_StandardJourneyStrategy_ExternalAPIHandler"><path codeLine="81" d="M794.7,498.0089 C794.7,512.6549 794.7,529.0829 794.7,545.7449 " fill="none" id="StandardJourneyStrategy-to-ExternalAPIHandler" style="stroke:#181818;stroke-width:0.6;"/><polygon fill="#181818" points="794.7,549.3449,797.1,543.9449,794.7,546.3449,792.3,543.9449,794.7,549.3449" style="stroke:#181818;stroke-width:0.6;"/><text fill="#000000" font-family="sans-serif" font-size="7.8" lengthAdjust="spacing" textLength="74.1419" x="722.4596" y="542.6964">externalAPIHandler 1</text></g><!--link AlternativeJourneyStrategy to ExternalAPIHandler--><g id="link_AlternativeJourneyStrategy_ExternalAPIHandler"><path codeLine="82" d="M698.4,503.3789 C698.4,517.3109 698.4,531.0329 698.4,545.7389 " fill="none" id="AlternativeJourneyStrategy-to-ExternalAPIHandler" style="stroke:#181818;stroke-width:0.6;"/><polygon fill="#181818" points="698.4,549.3389,700.8,543.9389,698.4,546.3389,696,543.9389,698.4,549.3389" style="stroke:#181818;stroke-width:0.6;"/><text fill="#000000" font-family="sans-serif" font-size="7.8" lengthAdjust="spacing" textLength="74.1419" x="613.2193" y="542.6896">externalAPIHandler 1</text></g><!--SRC=[tLPDRzim3BtxLn2vBDdS00Ds2eO0MPgs7efjI9nXLyNc7BMoP4Xorc3hVn-JsB7yaM2zfVF1a4YHV8yKQLjk1SBq0qm5CmQkEKiqIqSm4HQrP9RZ1c6byb_6eaG9ZCaLnnYbvxrPynWXuZeIw9b7BZD6fY2uHBlD49IsQ-LvLcLW5VcmLgKGSusHvOhiCnOziWIX5obfjH82TGz-Uq1Fj0VpMULQudPwL1VQtVCkGLleJLzfdd0vWeNLN2O-n6Witu5NDI7Xixd6QsPn1Bkt3nf98br9fdb4crZbAq5Rgvaq6L4PGLWk1oEuvyP-BEAFzw2UlMU7aa6z8Jyb7oufcpzPX2MdnK7l4Z97GeIOe2JRFY7Foar9P739AMWNho0Qf9dutyYwzNR1dovwSU2ohx5JmuLbCcOwVgtuZqDiWw-8GXFKZLRfqIAaoThNI6jfi8BKvTo7Xy938mf5tIWUk_b2cQULfPETk-LoFbc6NttuVX_CRiDbSEj3E9y5Ntpuj5pGUl8Zw6Y8MAMCoyvvxkQ-dkzAtf5tLzdAVwLirg7IrEfHYRjIrq68PRpTsBEd_GKJas_17RLA-nCLiYSUqcmmVQ6Y6fr1cnUTln4yMTkNM4oPdgEqJFoBKQqxsk2RK_eI2H25KsDfc0__Z9l3rZip1BeDJheNm_5kqfTDyhxdN9XpKPfsm-5RrzJh-5HUNP79GyCH1MnYzTh_I3NJuZV3iJn8kcBMir6SEt593cVRojF5sSF2ThyGj0utPzBv8aT_0G00]--></g></svg>