<svg xmlns="http://www.w3.org/2000/svg" xmlns:xlink="http://www.w3.org/1999/xlink" contentStyleType="text/css" height="2097px" preserveAspectRatio="none" style="width:2179px;height:2097px;background:#FFFFFF;" version="1.1" viewBox="0 0 2179 2097" width="2179px" zoomAndPan="magnify"><defs/><g><rect fill="none" height="583.5293" style="stroke:#000000;stroke-width:1.5;" width="2163.9404" x="10" y="100.6211"/><rect fill="none" height="126.1641" style="stroke:#000000;stroke-width:1.5;" width="919.229" x="811.4756" y="457.1133"/><rect fill="none" height="1298.9316" style="stroke:#000000;stroke-width:1.5;" width="2163.9404" x="10" y="698.1504"/><rect fill="none" height="126.1641" style="stroke:#000000;stroke-width:1.5;" width="736.4644" x="994.2402" y="1116.2246"/><rect fill="none" height="126.1641" style="stroke:#000000;stroke-width:1.5;" width="736.4644" x="994.2402" y="1443.1348"/><rect fill="none" height="126.1641" style="stroke:#000000;stroke-width:1.5;" width="736.4644" x="994.2402" y="1770.0449"/><line style="stroke:#181818;stroke-width:0.5;stroke-dasharray:5.0,5.0;" x1="48" x2="48" y1="83.6211" y2="2014.082"/><line style="stroke:#181818;stroke-width:0.5;stroke-dasharray:5.0,5.0;" x1="416.0464" x2="416.0464" y1="83.6211" y2="2014.082"/><line style="stroke:#181818;stroke-width:0.5;stroke-dasharray:5.0,5.0;" x1="688.6167" x2="688.6167" y1="83.6211" y2="2014.082"/><line style="stroke:#181818;stroke-width:0.5;stroke-dasharray:5.0,5.0;" x1="907.4756" x2="907.4756" y1="83.6211" y2="2014.082"/><line style="stroke:#181818;stroke-width:0.5;stroke-dasharray:5.0,5.0;" x1="1095.2402" x2="1095.2402" y1="83.6211" y2="2014.082"/><line style="stroke:#181818;stroke-width:0.5;stroke-dasharray:5.0,5.0;" x1="1687.8979" x2="1687.8979" y1="83.6211" y2="2014.082"/><line style="stroke:#181818;stroke-width:0.5;stroke-dasharray:5.0,5.0;" x1="1811.7046" x2="1811.7046" y1="83.6211" y2="2014.082"/><line style="stroke:#181818;stroke-width:0.5;stroke-dasharray:5.0,5.0;" x1="2118.6719" x2="2118.6719" y1="83.6211" y2="2014.082"/><text fill="#000000" font-family="sans-serif" font-size="14" lengthAdjust="spacing" textLength="51.3516" x="20" y="80.1074">Reiziger</text><ellipse cx="48.6758" cy="13.5" fill="#E2E2F0" rx="8" ry="8" style="stroke:#181818;stroke-width:0.5;"/><path d="M48.6758,21.5 L48.6758,48.5 M35.6758,29.5 L61.6758,29.5 M48.6758,48.5 L35.6758,63.5 M48.6758,48.5 L61.6758,63.5 " fill="none" style="stroke:#181818;stroke-width:0.5;"/><text fill="#000000" font-family="sans-serif" font-size="14" lengthAdjust="spacing" textLength="51.3516" x="20" y="2028.1895">Reiziger</text><ellipse cx="48.6758" cy="2040.2031" fill="#E2E2F0" rx="8" ry="8" style="stroke:#181818;stroke-width:0.5;"/><path d="M48.6758,2048.2031 L48.6758,2075.2031 M35.6758,2056.2031 L61.6758,2056.2031 M48.6758,2075.2031 L35.6758,2090.2031 M48.6758,2075.2031 L61.6758,2090.2031 " fill="none" style="stroke:#181818;stroke-width:0.5;"/><rect fill="#E2E2F0" height="51.2422" rx="2.5" ry="2.5" style="stroke:#181818;stroke-width:0.5;" width="124.4961" x="354.0464" y="31.3789"/><text fill="#000000" font-family="sans-serif" font-size="14" lengthAdjust="spacing" textLength="61.4688" x="385.5601" y="53.4863">controller:</text><text fill="#000000" font-family="sans-serif" font-size="14" lengthAdjust="spacing" textLength="110.4961" x="361.0464" y="72.1074">JourneyController</text><rect fill="#E2E2F0" height="51.2422" rx="2.5" ry="2.5" style="stroke:#181818;stroke-width:0.5;" width="124.4961" x="354.0464" y="2013.082"/><text fill="#000000" font-family="sans-serif" font-size="14" lengthAdjust="spacing" textLength="61.4688" x="385.5601" y="2035.1895">controller:</text><text fill="#000000" font-family="sans-serif" font-size="14" lengthAdjust="spacing" textLength="110.4961" x="361.0464" y="2053.8105">JourneyController</text><rect fill="#E2E2F0" height="51.2422" rx="2.5" ry="2.5" style="stroke:#181818;stroke-width:0.5;" width="136.9375" x="620.6167" y="31.3789"/><text fill="#000000" font-family="sans-serif" font-size="14" lengthAdjust="spacing" textLength="48.2344" x="664.9683" y="53.4863">service:</text><text fill="#000000" font-family="sans-serif" font-size="14" lengthAdjust="spacing" textLength="122.9375" x="627.6167" y="72.1074">JourneyServiceImpl</text><rect fill="#E2E2F0" height="51.2422" rx="2.5" ry="2.5" style="stroke:#181818;stroke-width:0.5;" width="136.9375" x="620.6167" y="2013.082"/><text fill="#000000" font-family="sans-serif" font-size="14" lengthAdjust="spacing" textLength="48.2344" x="664.9683" y="2035.1895">service:</text><text fill="#000000" font-family="sans-serif" font-size="14" lengthAdjust="spacing" textLength="122.9375" x="627.6167" y="2053.8105">JourneyServiceImpl</text><rect fill="#E2E2F0" height="51.2422" rx="2.5" ry="2.5" style="stroke:#181818;stroke-width:0.5;" width="172.7646" x="821.4756" y="31.3789"/><text fill="#000000" font-family="sans-serif" font-size="14" lengthAdjust="spacing" textLength="53.6895" x="881.0132" y="53.4863">strategy:</text><text fill="#000000" font-family="sans-serif" font-size="14" lengthAdjust="spacing" textLength="158.7646" x="828.4756" y="72.1074">StandardJourneyStrategy</text><rect fill="#E2E2F0" height="51.2422" rx="2.5" ry="2.5" style="stroke:#181818;stroke-width:0.5;" width="172.7646" x="821.4756" y="2013.082"/><text fill="#000000" font-family="sans-serif" font-size="14" lengthAdjust="spacing" textLength="53.6895" x="881.0132" y="2035.1895">strategy:</text><text fill="#000000" font-family="sans-serif" font-size="14" lengthAdjust="spacing" textLength="158.7646" x="828.4756" y="2053.8105">StandardJourneyStrategy</text><rect fill="#E2E2F0" height="51.2422" rx="2.5" ry="2.5" style="stroke:#181818;stroke-width:0.5;" width="182.0889" x="1004.2402" y="31.3789"/><text fill="#000000" font-family="sans-serif" font-size="14" lengthAdjust="spacing" textLength="53.6895" x="1068.4399" y="53.4863">strategy:</text><text fill="#000000" font-family="sans-serif" font-size="14" lengthAdjust="spacing" textLength="168.0889" x="1011.2402" y="72.1074">AlternativeJourneyStrategy</text><rect fill="#E2E2F0" height="51.2422" rx="2.5" ry="2.5" style="stroke:#181818;stroke-width:0.5;" width="182.0889" x="1004.2402" y="2013.082"/><text fill="#000000" font-family="sans-serif" font-size="14" lengthAdjust="spacing" textLength="53.6895" x="1068.4399" y="2035.1895">strategy:</text><text fill="#000000" font-family="sans-serif" font-size="14" lengthAdjust="spacing" textLength="168.0889" x="1011.2402" y="2053.8105">AlternativeJourneyStrategy</text><rect fill="#E2E2F0" height="32.6211" rx="2.5" ry="2.5" style="stroke:#181818;stroke-width:0.5;" width="63.8066" x="1656.8979" y="50"/><text fill="#000000" font-family="sans-serif" font-size="14" lengthAdjust="spacing" textLength="49.8066" x="1663.8979" y="72.1074">Journey</text><rect fill="#E2E2F0" height="32.6211" rx="2.5" ry="2.5" style="stroke:#181818;stroke-width:0.5;" width="63.8066" x="1656.8979" y="2013.082"/><text fill="#000000" font-family="sans-serif" font-size="14" lengthAdjust="spacing" textLength="49.8066" x="1663.8979" y="2035.1895">Journey</text><rect fill="#E2E2F0" height="51.2422" rx="2.5" ry="2.5" style="stroke:#181818;stroke-width:0.5;" width="163.3994" x="1730.7046" y="31.3789"/><text fill="#000000" font-family="sans-serif" font-size="14" lengthAdjust="spacing" textLength="73.165" x="1775.8218" y="53.4863">api handler:</text><text fill="#000000" font-family="sans-serif" font-size="14" lengthAdjust="spacing" textLength="149.3994" x="1737.7046" y="72.1074">ExternalAPIHandlerImpl</text><rect fill="#E2E2F0" height="51.2422" rx="2.5" ry="2.5" style="stroke:#181818;stroke-width:0.5;" width="163.3994" x="1730.7046" y="2013.082"/><text fill="#000000" font-family="sans-serif" font-size="14" lengthAdjust="spacing" textLength="73.165" x="1775.8218" y="2035.1895">api handler:</text><text fill="#000000" font-family="sans-serif" font-size="14" lengthAdjust="spacing" textLength="149.3994" x="1737.7046" y="2053.8105">ExternalAPIHandlerImpl</text><rect fill="#E2E2F0" height="51.2422" rx="2.5" ry="2.5" style="stroke:#181818;stroke-width:0.5;" width="90.2686" x="2073.6719" y="31.3789"/><text fill="#000000" font-family="sans-serif" font-size="14" lengthAdjust="spacing" textLength="76.2686" x="2080.6719" y="53.4863">external api:</text><text fill="#000000" font-family="sans-serif" font-size="14" lengthAdjust="spacing" textLength="73.1582" x="2082.2271" y="72.1074">BookingAPI</text><rect fill="#E2E2F0" height="51.2422" rx="2.5" ry="2.5" style="stroke:#181818;stroke-width:0.5;" width="90.2686" x="2073.6719" y="2013.082"/><text fill="#000000" font-family="sans-serif" font-size="14" lengthAdjust="spacing" textLength="76.2686" x="2080.6719" y="2035.1895">external api:</text><text fill="#000000" font-family="sans-serif" font-size="14" lengthAdjust="spacing" textLength="73.1582" x="2082.2271" y="2053.8105">BookingAPI</text><path d="M10,100.6211 L416.2324,100.6211 L416.2324,109.9121 L406.2324,119.9121 L10,119.9121 L10,100.6211 " fill="#EEEEEE" style="stroke:#000000;stroke-width:1.5;"/><rect fill="none" height="583.5293" style="stroke:#000000;stroke-width:1.5;" width="2163.9404" x="10" y="100.6211"/><text fill="#000000" font-family="sans-serif" font-size="13" font-weight="bold" lengthAdjust="spacing" textLength="361.2324" x="25" y="115.6494">Scenario 1: Ophalen van reizen bij een standaard strategie</text><polygon fill="#181818" points="404.2944,156.4941,414.2944,160.4941,404.2944,164.4941,408.2944,160.4941" style="stroke:#181818;stroke-width:1.0;"/><line style="stroke:#181818;stroke-width:1.0;" x1="48.6758" x2="410.2944" y1="160.4941" y2="160.4941"/><text fill="#000000" font-family="sans-serif" font-size="13" font-weight="bold" lengthAdjust="spacing" textLength="7.23" x="55.6758" y="146.5859">1</text><text fill="#000000" font-family="sans-serif" font-size="13" lengthAdjust="spacing" textLength="171.9644" x="66.9058" y="137.9404">GET /journeys/getAllJourneys</text><text fill="#000000" font-family="sans-serif" font-size="13" lengthAdjust="spacing" textLength="216.9756" x="81.353" y="155.2314">(strategy = "StandardJourney", origin)</text><polygon fill="#181818" points="677.0854,187.7852,687.0854,191.7852,677.0854,195.7852,681.0854,191.7852" style="stroke:#181818;stroke-width:1.0;"/><line style="stroke:#181818;stroke-width:1.0;" x1="416.2944" x2="683.0854" y1="191.7852" y2="191.7852"/><text fill="#000000" font-family="sans-serif" font-size="13" font-weight="bold" lengthAdjust="spacing" textLength="7.23" x="423.2944" y="186.5225">2</text><text fill="#000000" font-family="sans-serif" font-size="13" lengthAdjust="spacing" textLength="228.9028" x="434.5244" y="186.5225">setJourneyStrategy("StandardJourney")</text><polygon fill="#181818" points="895.8579,219.0762,905.8579,223.0762,895.8579,227.0762,899.8579,223.0762" style="stroke:#181818;stroke-width:1.0;"/><line style="stroke:#181818;stroke-width:1.0;" x1="689.0854" x2="901.8579" y1="223.0762" y2="223.0762"/><text fill="#000000" font-family="sans-serif" font-size="13" font-weight="bold" lengthAdjust="spacing" textLength="7.23" x="696.0854" y="217.8135">3</text><text fill="#000000" font-family="sans-serif" font-size="13" lengthAdjust="spacing" textLength="183.5425" x="707.3154" y="217.8135">new StandardJourneyStrategy()</text><polygon fill="#181818" points="677.0854,250.3672,687.0854,254.3672,677.0854,258.3672,681.0854,254.3672" style="stroke:#181818;stroke-width:1.0;"/><line style="stroke:#181818;stroke-width:1.0;" x1="416.2944" x2="683.0854" y1="254.3672" y2="254.3672"/><text fill="#000000" font-family="sans-serif" font-size="13" font-weight="bold" lengthAdjust="spacing" textLength="7.23" x="423.2944" y="249.1045">4</text><text fill="#000000" font-family="sans-serif" font-size="13" lengthAdjust="spacing" textLength="111.2744" x="434.5244" y="249.1045">getJourneys(origin)</text><polygon fill="#181818" points="895.8579,281.6582,905.8579,285.6582,895.8579,289.6582,899.8579,285.6582" style="stroke:#181818;stroke-width:1.0;"/><line style="stroke:#181818;stroke-width:1.0;" x1="689.0854" x2="901.8579" y1="285.6582" y2="285.6582"/><text fill="#000000" font-family="sans-serif" font-size="13" font-weight="bold" lengthAdjust="spacing" textLength="7.23" x="696.0854" y="280.3955">5</text><text fill="#000000" font-family="sans-serif" font-size="13" lengthAdjust="spacing" textLength="111.2744" x="707.3154" y="280.3955">getJourneys(origin)</text><polygon fill="#181818" points="1676.8013,312.9492,1686.8013,316.9492,1676.8013,320.9492,1680.8013,316.9492" style="stroke:#181818;stroke-width:1.0;"/><line style="stroke:#181818;stroke-width:1.0;" x1="907.8579" x2="1682.8013" y1="316.9492" y2="316.9492"/><text fill="#000000" font-family="sans-serif" font-size="13" font-weight="bold" lengthAdjust="spacing" textLength="7.23" x="914.8579" y="311.6865">6</text><text fill="#000000" font-family="sans-serif" font-size="13" lengthAdjust="spacing" textLength="209.1807" x="926.0879" y="311.6865">journeys = new ArrayList&lt;journey&gt;()</text><polygon fill="#181818" points="1800.4043,344.2402,1810.4043,348.2402,1800.4043,352.2402,1804.4043,348.2402" style="stroke:#181818;stroke-width:1.0;"/><line style="stroke:#181818;stroke-width:1.0;" x1="907.8579" x2="1806.4043" y1="348.2402" y2="348.2402"/><text fill="#000000" font-family="sans-serif" font-size="13" font-weight="bold" lengthAdjust="spacing" textLength="7.23" x="914.8579" y="342.9775">7</text><text fill="#000000" font-family="sans-serif" font-size="13" lengthAdjust="spacing" textLength="111.9727" x="926.0879" y="342.9775">getTaxiTrips(origin)</text><polygon fill="#181818" points="2106.8062,375.5313,2116.8062,379.5313,2106.8062,383.5313,2110.8062,379.5313" style="stroke:#181818;stroke-width:1.0;"/><line style="stroke:#181818;stroke-width:1.0;" x1="1812.4043" x2="2112.8062" y1="379.5313" y2="379.5313"/><text fill="#000000" font-family="sans-serif" font-size="13" font-weight="bold" lengthAdjust="spacing" textLength="7.23" x="1819.4043" y="374.2686">8</text><text fill="#000000" font-family="sans-serif" font-size="13" lengthAdjust="spacing" textLength="234.3237" x="1830.6343" y="374.2686">GET /taxi/searchLocation?query="origin"</text><polygon fill="#181818" points="1823.4043,406.8223,1813.4043,410.8223,1823.4043,414.8223,1819.4043,410.8223" style="stroke:#181818;stroke-width:1.0;"/><line style="stroke:#181818;stroke-width:1.0;stroke-dasharray:2.0,2.0;" x1="1817.4043" x2="2117.8062" y1="410.8223" y2="410.8223"/><text fill="#000000" font-family="sans-serif" font-size="13" font-weight="bold" lengthAdjust="spacing" textLength="7.23" x="1829.4043" y="405.5596">9</text><text fill="#000000" font-family="sans-serif" font-size="13" lengthAdjust="spacing" textLength="160.3926" x="1840.6343" y="405.5596">HTTP 200 OK met resultaat</text><polygon fill="#181818" points="918.8579,438.1133,908.8579,442.1133,918.8579,446.1133,914.8579,442.1133" style="stroke:#181818;stroke-width:1.0;"/><line style="stroke:#181818;stroke-width:1.0;stroke-dasharray:2.0,2.0;" x1="912.8579" x2="1811.4043" y1="442.1133" y2="442.1133"/><text fill="#000000" font-family="sans-serif" font-size="13" font-weight="bold" lengthAdjust="spacing" textLength="14.46" x="924.8579" y="436.8506">10</text><text fill="#000000" font-family="sans-serif" font-size="13" lengthAdjust="spacing" textLength="53.479" x="943.3179" y="436.8506">response</text><path d="M811.4756,457.1133 L883.9102,457.1133 L883.9102,466.4043 L873.9102,476.4043 L811.4756,476.4043 L811.4756,457.1133 " fill="#EEEEEE" style="stroke:#000000;stroke-width:1.5;"/><rect fill="none" height="126.1641" style="stroke:#000000;stroke-width:1.5;" width="919.229" x="811.4756" y="457.1133"/><text fill="#000000" font-family="sans-serif" font-size="13" font-weight="bold" lengthAdjust="spacing" textLength="27.4346" x="826.4756" y="472.1416">loop</text><text fill="#000000" font-family="sans-serif" font-size="11" font-weight="bold" lengthAdjust="spacing" textLength="98.4146" x="898.9102" y="470.9834">[voor elke taxi trip]</text><polygon fill="#181818" points="1676.8013,495.6953,1686.8013,499.6953,1676.8013,503.6953,1680.8013,499.6953" style="stroke:#181818;stroke-width:1.0;"/><line style="stroke:#181818;stroke-width:1.0;" x1="907.8579" x2="1682.8013" y1="499.6953" y2="499.6953"/><text fill="#000000" font-family="sans-serif" font-size="13" font-weight="bold" lengthAdjust="spacing" textLength="14.46" x="914.8579" y="494.4326">11</text><text fill="#000000" font-family="sans-serif" font-size="13" lengthAdjust="spacing" textLength="139.8198" x="933.3179" y="494.4326">journey = new Journey()</text><polygon fill="#181818" points="1676.8013,526.9863,1686.8013,530.9863,1676.8013,534.9863,1680.8013,530.9863" style="stroke:#181818;stroke-width:1.0;"/><line style="stroke:#181818;stroke-width:1.0;" x1="907.8579" x2="1682.8013" y1="530.9863" y2="530.9863"/><text fill="#000000" font-family="sans-serif" font-size="13" font-weight="bold" lengthAdjust="spacing" textLength="14.46" x="914.8579" y="525.7236">12</text><text fill="#000000" font-family="sans-serif" font-size="13" lengthAdjust="spacing" textLength="135.8652" x="933.3179" y="525.7236">[alle setters aanroepen]</text><line style="stroke:#181818;stroke-width:1.0;" x1="907.8579" x2="949.8579" y1="562.2773" y2="562.2773"/><line style="stroke:#181818;stroke-width:1.0;" x1="949.8579" x2="949.8579" y1="562.2773" y2="575.2773"/><line style="stroke:#181818;stroke-width:1.0;" x1="908.8579" x2="949.8579" y1="575.2773" y2="575.2773"/><polygon fill="#181818" points="918.8579,571.2773,908.8579,575.2773,918.8579,579.2773,914.8579,575.2773" style="stroke:#181818;stroke-width:1.0;"/><text fill="#000000" font-family="sans-serif" font-size="13" font-weight="bold" lengthAdjust="spacing" textLength="14.46" x="914.8579" y="557.0146">13</text><text fill="#000000" font-family="sans-serif" font-size="13" lengthAdjust="spacing" textLength="125.7344" x="933.3179" y="557.0146">journeys.add(journey)</text><polygon fill="#181818" points="700.0854,609.5684,690.0854,613.5684,700.0854,617.5684,696.0854,613.5684" style="stroke:#181818;stroke-width:1.0;"/><line style="stroke:#181818;stroke-width:1.0;stroke-dasharray:2.0,2.0;" x1="694.0854" x2="906.8579" y1="613.5684" y2="613.5684"/><text fill="#000000" font-family="sans-serif" font-size="13" font-weight="bold" lengthAdjust="spacing" textLength="14.46" x="706.0854" y="608.3057">14</text><text fill="#000000" font-family="sans-serif" font-size="13" lengthAdjust="spacing" textLength="49.1372" x="724.5454" y="608.3057">journeys</text><polygon fill="#181818" points="427.2944,640.8594,417.2944,644.8594,427.2944,648.8594,423.2944,644.8594" style="stroke:#181818;stroke-width:1.0;"/><line style="stroke:#181818;stroke-width:1.0;stroke-dasharray:2.0,2.0;" x1="421.2944" x2="688.0854" y1="644.8594" y2="644.8594"/><text fill="#000000" font-family="sans-serif" font-size="13" font-weight="bold" lengthAdjust="spacing" textLength="14.46" x="433.2944" y="639.5967">15</text><text fill="#000000" font-family="sans-serif" font-size="13" lengthAdjust="spacing" textLength="49.1372" x="451.7544" y="639.5967">journeys</text><polygon fill="#181818" points="59.6758,672.1504,49.6758,676.1504,59.6758,680.1504,55.6758,676.1504" style="stroke:#181818;stroke-width:1.0;"/><line style="stroke:#181818;stroke-width:1.0;stroke-dasharray:2.0,2.0;" x1="53.6758" x2="415.2944" y1="676.1504" y2="676.1504"/><text fill="#000000" font-family="sans-serif" font-size="13" font-weight="bold" lengthAdjust="spacing" textLength="14.46" x="65.6758" y="670.8877">16</text><text fill="#000000" font-family="sans-serif" font-size="13" lengthAdjust="spacing" textLength="168.3398" x="84.1357" y="670.8877">200 OK met lijst van taxi trips</text><path d="M10,698.1504 L426.3633,698.1504 L426.3633,707.4414 L416.3633,717.4414 L10,717.4414 L10,698.1504 " fill="#EEEEEE" style="stroke:#000000;stroke-width:1.5;"/><rect fill="none" height="1298.9316" style="stroke:#000000;stroke-width:1.5;" width="2163.9404" x="10" y="698.1504"/><text fill="#000000" font-family="sans-serif" font-size="13" font-weight="bold" lengthAdjust="spacing" textLength="371.3633" x="25" y="713.1787">Scenario 2: Ophalen van reizen bij een alternatieve strategie</text><polygon fill="#181818" points="404.2944,754.0234,414.2944,758.0234,404.2944,762.0234,408.2944,758.0234" style="stroke:#181818;stroke-width:1.0;"/><line style="stroke:#181818;stroke-width:1.0;" x1="48.6758" x2="410.2944" y1="758.0234" y2="758.0234"/><text fill="#000000" font-family="sans-serif" font-size="13" font-weight="bold" lengthAdjust="spacing" textLength="7.23" x="55.6758" y="744.1152">1</text><text fill="#000000" font-family="sans-serif" font-size="13" lengthAdjust="spacing" textLength="171.9644" x="66.9058" y="735.4697">GET /journeys/getAllJourneys</text><text fill="#000000" font-family="sans-serif" font-size="13" lengthAdjust="spacing" textLength="225.6338" x="81.353" y="752.7607">(strategy = "AlternativeJourney", origin)</text><polygon fill="#181818" points="677.0854,785.3145,687.0854,789.3145,677.0854,793.3145,681.0854,789.3145" style="stroke:#181818;stroke-width:1.0;"/><line style="stroke:#181818;stroke-width:1.0;" x1="416.2944" x2="683.0854" y1="789.3145" y2="789.3145"/><text fill="#000000" font-family="sans-serif" font-size="13" font-weight="bold" lengthAdjust="spacing" textLength="7.23" x="423.2944" y="784.0518">2</text><text fill="#000000" font-family="sans-serif" font-size="13" lengthAdjust="spacing" textLength="237.561" x="434.5244" y="784.0518">setJourneyStrategy("AlternativeJourney")</text><polygon fill="#181818" points="1083.2847,816.6055,1093.2847,820.6055,1083.2847,824.6055,1087.2847,820.6055" style="stroke:#181818;stroke-width:1.0;"/><line style="stroke:#181818;stroke-width:1.0;" x1="689.0854" x2="1089.2847" y1="820.6055" y2="820.6055"/><text fill="#000000" font-family="sans-serif" font-size="13" font-weight="bold" lengthAdjust="spacing" textLength="7.23" x="696.0854" y="815.3428">3</text><text fill="#000000" font-family="sans-serif" font-size="13" lengthAdjust="spacing" textLength="192.2007" x="707.3154" y="815.3428">new AlternativeJourneyStrategy()</text><polygon fill="#181818" points="677.0854,847.8965,687.0854,851.8965,677.0854,855.8965,681.0854,851.8965" style="stroke:#181818;stroke-width:1.0;"/><line style="stroke:#181818;stroke-width:1.0;" x1="416.2944" x2="683.0854" y1="851.8965" y2="851.8965"/><text fill="#000000" font-family="sans-serif" font-size="13" font-weight="bold" lengthAdjust="spacing" textLength="7.23" x="423.2944" y="846.6338">4</text><text fill="#000000" font-family="sans-serif" font-size="13" lengthAdjust="spacing" textLength="111.2744" x="434.5244" y="846.6338">getJourneys(origin)</text><polygon fill="#181818" points="1083.2847,879.1875,1093.2847,883.1875,1083.2847,887.1875,1087.2847,883.1875" style="stroke:#181818;stroke-width:1.0;"/><line style="stroke:#181818;stroke-width:1.0;" x1="689.0854" x2="1089.2847" y1="883.1875" y2="883.1875"/><text fill="#000000" font-family="sans-serif" font-size="13" font-weight="bold" lengthAdjust="spacing" textLength="7.23" x="696.0854" y="877.9248">5</text><text fill="#000000" font-family="sans-serif" font-size="13" lengthAdjust="spacing" textLength="111.2744" x="707.3154" y="877.9248">getJourneys(origin)</text><polygon fill="#181818" points="1676.8013,910.4785,1686.8013,914.4785,1676.8013,918.4785,1680.8013,914.4785" style="stroke:#181818;stroke-width:1.0;"/><line style="stroke:#181818;stroke-width:1.0;" x1="1095.2847" x2="1682.8013" y1="914.4785" y2="914.4785"/><text fill="#000000" font-family="sans-serif" font-size="13" font-weight="bold" lengthAdjust="spacing" textLength="7.23" x="1102.2847" y="909.2158">6</text><text fill="#000000" font-family="sans-serif" font-size="13" lengthAdjust="spacing" textLength="209.1807" x="1113.5146" y="909.2158">journeys = new ArrayList&lt;journey&gt;()</text><line style="stroke:#181818;stroke-width:1.0;" x1="1095.2847" x2="1137.2847" y1="963.0605" y2="963.0605"/><line style="stroke:#181818;stroke-width:1.0;" x1="1137.2847" x2="1137.2847" y1="963.0605" y2="976.0605"/><line style="stroke:#181818;stroke-width:1.0;" x1="1096.2847" x2="1137.2847" y1="976.0605" y2="976.0605"/><polygon fill="#181818" points="1106.2847,972.0605,1096.2847,976.0605,1106.2847,980.0605,1102.2847,976.0605" style="stroke:#181818;stroke-width:1.0;"/><text fill="#000000" font-family="sans-serif" font-size="13" font-weight="bold" lengthAdjust="spacing" textLength="7.23" x="1102.2847" y="949.1523">7</text><text fill="#000000" font-family="sans-serif" font-size="13" lengthAdjust="spacing" textLength="185.6816" x="1113.5146" y="940.5068">getJourneysFromTransportType</text><text fill="#000000" font-family="sans-serif" font-size="13" lengthAdjust="spacing" textLength="467.873" x="1127.9619" y="957.7979">(response="externalAPIHandler.getTaxiTrips(origin)", transport="TAXI", journeys)</text><polygon fill="#181818" points="1800.4043,1003.3516,1810.4043,1007.3516,1800.4043,1011.3516,1804.4043,1007.3516" style="stroke:#181818;stroke-width:1.0;"/><line style="stroke:#181818;stroke-width:1.0;" x1="1095.2847" x2="1806.4043" y1="1007.3516" y2="1007.3516"/><text fill="#000000" font-family="sans-serif" font-size="13" font-weight="bold" lengthAdjust="spacing" textLength="7.23" x="1102.2847" y="1002.0889">8</text><text fill="#000000" font-family="sans-serif" font-size="13" lengthAdjust="spacing" textLength="111.9727" x="1113.5146" y="1002.0889">getTaxiTrips(origin)</text><polygon fill="#181818" points="2106.8062,1034.6426,2116.8062,1038.6426,2106.8062,1042.6426,2110.8062,1038.6426" style="stroke:#181818;stroke-width:1.0;"/><line style="stroke:#181818;stroke-width:1.0;" x1="1812.4043" x2="2112.8062" y1="1038.6426" y2="1038.6426"/><text fill="#000000" font-family="sans-serif" font-size="13" font-weight="bold" lengthAdjust="spacing" textLength="7.23" x="1819.4043" y="1033.3799">9</text><text fill="#000000" font-family="sans-serif" font-size="13" lengthAdjust="spacing" textLength="234.3237" x="1830.6343" y="1033.3799">GET /taxi/searchLocation?query="origin"</text><polygon fill="#181818" points="1823.4043,1065.9336,1813.4043,1069.9336,1823.4043,1073.9336,1819.4043,1069.9336" style="stroke:#181818;stroke-width:1.0;"/><line style="stroke:#181818;stroke-width:1.0;stroke-dasharray:2.0,2.0;" x1="1817.4043" x2="2117.8062" y1="1069.9336" y2="1069.9336"/><text fill="#000000" font-family="sans-serif" font-size="13" font-weight="bold" lengthAdjust="spacing" textLength="14.46" x="1829.4043" y="1064.6709">10</text><text fill="#000000" font-family="sans-serif" font-size="13" lengthAdjust="spacing" textLength="160.3926" x="1847.8643" y="1064.6709">HTTP 200 OK met resultaat</text><polygon fill="#181818" points="1106.2847,1097.2246,1096.2847,1101.2246,1106.2847,1105.2246,1102.2847,1101.2246" style="stroke:#181818;stroke-width:1.0;"/><line style="stroke:#181818;stroke-width:1.0;stroke-dasharray:2.0,2.0;" x1="1100.2847" x2="1811.4043" y1="1101.2246" y2="1101.2246"/><text fill="#000000" font-family="sans-serif" font-size="13" font-weight="bold" lengthAdjust="spacing" textLength="14.46" x="1112.2847" y="1095.9619">11</text><text fill="#000000" font-family="sans-serif" font-size="13" lengthAdjust="spacing" textLength="53.479" x="1130.7446" y="1095.9619">response</text><path d="M994.2402,1116.2246 L1066.6748,1116.2246 L1066.6748,1125.5156 L1056.6748,1135.5156 L994.2402,1135.5156 L994.2402,1116.2246 " fill="#EEEEEE" style="stroke:#000000;stroke-width:1.5;"/><rect fill="none" height="126.1641" style="stroke:#000000;stroke-width:1.5;" width="736.4644" x="994.2402" y="1116.2246"/><text fill="#000000" font-family="sans-serif" font-size="13" font-weight="bold" lengthAdjust="spacing" textLength="27.4346" x="1009.2402" y="1131.2529">loop</text><text fill="#000000" font-family="sans-serif" font-size="11" font-weight="bold" lengthAdjust="spacing" textLength="98.4146" x="1081.6748" y="1130.0947">[voor elke taxi trip]</text><polygon fill="#181818" points="1676.8013,1154.8066,1686.8013,1158.8066,1676.8013,1162.8066,1680.8013,1158.8066" style="stroke:#181818;stroke-width:1.0;"/><line style="stroke:#181818;stroke-width:1.0;" x1="1095.2847" x2="1682.8013" y1="1158.8066" y2="1158.8066"/><text fill="#000000" font-family="sans-serif" font-size="13" font-weight="bold" lengthAdjust="spacing" textLength="14.46" x="1102.2847" y="1153.5439">12</text><text fill="#000000" font-family="sans-serif" font-size="13" lengthAdjust="spacing" textLength="139.8198" x="1120.7446" y="1153.5439">journey = new Journey()</text><polygon fill="#181818" points="1676.8013,1186.0977,1686.8013,1190.0977,1676.8013,1194.0977,1680.8013,1190.0977" style="stroke:#181818;stroke-width:1.0;"/><line style="stroke:#181818;stroke-width:1.0;" x1="1095.2847" x2="1682.8013" y1="1190.0977" y2="1190.0977"/><text fill="#000000" font-family="sans-serif" font-size="13" font-weight="bold" lengthAdjust="spacing" textLength="14.46" x="1102.2847" y="1184.835">13</text><text fill="#000000" font-family="sans-serif" font-size="13" lengthAdjust="spacing" textLength="135.8652" x="1120.7446" y="1184.835">[alle setters aanroepen]</text><line style="stroke:#181818;stroke-width:1.0;" x1="1095.2847" x2="1137.2847" y1="1221.3887" y2="1221.3887"/><line style="stroke:#181818;stroke-width:1.0;" x1="1137.2847" x2="1137.2847" y1="1221.3887" y2="1234.3887"/><line style="stroke:#181818;stroke-width:1.0;" x1="1096.2847" x2="1137.2847" y1="1234.3887" y2="1234.3887"/><polygon fill="#181818" points="1106.2847,1230.3887,1096.2847,1234.3887,1106.2847,1238.3887,1102.2847,1234.3887" style="stroke:#181818;stroke-width:1.0;"/><text fill="#000000" font-family="sans-serif" font-size="13" font-weight="bold" lengthAdjust="spacing" textLength="14.46" x="1102.2847" y="1216.126">14</text><text fill="#000000" font-family="sans-serif" font-size="13" lengthAdjust="spacing" textLength="125.7344" x="1120.7446" y="1216.126">journeys.add(journey)</text><line style="stroke:#181818;stroke-width:1.0;" x1="1095.2847" x2="1137.2847" y1="1289.9707" y2="1289.9707"/><line style="stroke:#181818;stroke-width:1.0;" x1="1137.2847" x2="1137.2847" y1="1289.9707" y2="1302.9707"/><line style="stroke:#181818;stroke-width:1.0;" x1="1096.2847" x2="1137.2847" y1="1302.9707" y2="1302.9707"/><polygon fill="#181818" points="1106.2847,1298.9707,1096.2847,1302.9707,1106.2847,1306.9707,1102.2847,1302.9707" style="stroke:#181818;stroke-width:1.0;"/><text fill="#000000" font-family="sans-serif" font-size="13" font-weight="bold" lengthAdjust="spacing" textLength="14.46" x="1102.2847" y="1276.0625">15</text><text fill="#000000" font-family="sans-serif" font-size="13" lengthAdjust="spacing" textLength="185.6816" x="1120.7446" y="1267.417">getJourneysFromTransportType</text><text fill="#000000" font-family="sans-serif" font-size="13" lengthAdjust="spacing" textLength="515.5566" x="1135.1919" y="1284.708">(response="externalAPIHandler.getFlightTrips(origin)", transport="VLIEGTUIG", journeys)</text><polygon fill="#181818" points="1800.4043,1330.2617,1810.4043,1334.2617,1800.4043,1338.2617,1804.4043,1334.2617" style="stroke:#181818;stroke-width:1.0;"/><line style="stroke:#181818;stroke-width:1.0;" x1="1095.2847" x2="1806.4043" y1="1334.2617" y2="1334.2617"/><text fill="#000000" font-family="sans-serif" font-size="13" font-weight="bold" lengthAdjust="spacing" textLength="14.46" x="1102.2847" y="1328.999">16</text><text fill="#000000" font-family="sans-serif" font-size="13" lengthAdjust="spacing" textLength="119.2026" x="1120.7446" y="1328.999">getFlightTrips(origin)</text><polygon fill="#181818" points="2106.8062,1361.5527,2116.8062,1365.5527,2106.8062,1369.5527,2110.8062,1365.5527" style="stroke:#181818;stroke-width:1.0;"/><line style="stroke:#181818;stroke-width:1.0;" x1="1812.4043" x2="2112.8062" y1="1365.5527" y2="1365.5527"/><text fill="#000000" font-family="sans-serif" font-size="13" font-weight="bold" lengthAdjust="spacing" textLength="14.46" x="1819.4043" y="1360.29">17</text><text fill="#000000" font-family="sans-serif" font-size="13" lengthAdjust="spacing" textLength="263.9419" x="1837.8643" y="1360.29">GET /flights/searchDestination?query="origin"</text><polygon fill="#181818" points="1823.4043,1392.8438,1813.4043,1396.8438,1823.4043,1400.8438,1819.4043,1396.8438" style="stroke:#181818;stroke-width:1.0;"/><line style="stroke:#181818;stroke-width:1.0;stroke-dasharray:2.0,2.0;" x1="1817.4043" x2="2117.8062" y1="1396.8438" y2="1396.8438"/><text fill="#000000" font-family="sans-serif" font-size="13" font-weight="bold" lengthAdjust="spacing" textLength="14.46" x="1829.4043" y="1391.5811">18</text><text fill="#000000" font-family="sans-serif" font-size="13" lengthAdjust="spacing" textLength="160.3926" x="1847.8643" y="1391.5811">HTTP 200 OK met resultaat</text><polygon fill="#181818" points="1106.2847,1424.1348,1096.2847,1428.1348,1106.2847,1432.1348,1102.2847,1428.1348" style="stroke:#181818;stroke-width:1.0;"/><line style="stroke:#181818;stroke-width:1.0;stroke-dasharray:2.0,2.0;" x1="1100.2847" x2="1811.4043" y1="1428.1348" y2="1428.1348"/><text fill="#000000" font-family="sans-serif" font-size="13" font-weight="bold" lengthAdjust="spacing" textLength="14.46" x="1112.2847" y="1422.8721">19</text><text fill="#000000" font-family="sans-serif" font-size="13" lengthAdjust="spacing" textLength="53.479" x="1130.7446" y="1422.8721">response</text><path d="M994.2402,1443.1348 L1066.6748,1443.1348 L1066.6748,1452.4258 L1056.6748,1462.4258 L994.2402,1462.4258 L994.2402,1443.1348 " fill="#EEEEEE" style="stroke:#000000;stroke-width:1.5;"/><rect fill="none" height="126.1641" style="stroke:#000000;stroke-width:1.5;" width="736.4644" x="994.2402" y="1443.1348"/><text fill="#000000" font-family="sans-serif" font-size="13" font-weight="bold" lengthAdjust="spacing" textLength="27.4346" x="1009.2402" y="1458.1631">loop</text><text fill="#000000" font-family="sans-serif" font-size="11" font-weight="bold" lengthAdjust="spacing" textLength="91.0776" x="1081.6748" y="1457.0049">[voor elke vlucht]</text><polygon fill="#181818" points="1676.8013,1481.7168,1686.8013,1485.7168,1676.8013,1489.7168,1680.8013,1485.7168" style="stroke:#181818;stroke-width:1.0;"/><line style="stroke:#181818;stroke-width:1.0;" x1="1095.2847" x2="1682.8013" y1="1485.7168" y2="1485.7168"/><text fill="#000000" font-family="sans-serif" font-size="13" font-weight="bold" lengthAdjust="spacing" textLength="14.46" x="1102.2847" y="1480.4541">20</text><text fill="#000000" font-family="sans-serif" font-size="13" lengthAdjust="spacing" textLength="139.8198" x="1120.7446" y="1480.4541">journey = new Journey()</text><polygon fill="#181818" points="1676.8013,1513.0078,1686.8013,1517.0078,1676.8013,1521.0078,1680.8013,1517.0078" style="stroke:#181818;stroke-width:1.0;"/><line style="stroke:#181818;stroke-width:1.0;" x1="1095.2847" x2="1682.8013" y1="1517.0078" y2="1517.0078"/><text fill="#000000" font-family="sans-serif" font-size="13" font-weight="bold" lengthAdjust="spacing" textLength="14.46" x="1102.2847" y="1511.7451">21</text><text fill="#000000" font-family="sans-serif" font-size="13" lengthAdjust="spacing" textLength="135.8652" x="1120.7446" y="1511.7451">[alle setters aanroepen]</text><line style="stroke:#181818;stroke-width:1.0;" x1="1095.2847" x2="1137.2847" y1="1548.2988" y2="1548.2988"/><line style="stroke:#181818;stroke-width:1.0;" x1="1137.2847" x2="1137.2847" y1="1548.2988" y2="1561.2988"/><line style="stroke:#181818;stroke-width:1.0;" x1="1096.2847" x2="1137.2847" y1="1561.2988" y2="1561.2988"/><polygon fill="#181818" points="1106.2847,1557.2988,1096.2847,1561.2988,1106.2847,1565.2988,1102.2847,1561.2988" style="stroke:#181818;stroke-width:1.0;"/><text fill="#000000" font-family="sans-serif" font-size="13" font-weight="bold" lengthAdjust="spacing" textLength="14.46" x="1102.2847" y="1543.0361">22</text><text fill="#000000" font-family="sans-serif" font-size="13" lengthAdjust="spacing" textLength="125.7344" x="1120.7446" y="1543.0361">journeys.add(journey)</text><line style="stroke:#181818;stroke-width:1.0;" x1="1095.2847" x2="1137.2847" y1="1616.8809" y2="1616.8809"/><line style="stroke:#181818;stroke-width:1.0;" x1="1137.2847" x2="1137.2847" y1="1616.8809" y2="1629.8809"/><line style="stroke:#181818;stroke-width:1.0;" x1="1096.2847" x2="1137.2847" y1="1629.8809" y2="1629.8809"/><polygon fill="#181818" points="1106.2847,1625.8809,1096.2847,1629.8809,1106.2847,1633.8809,1102.2847,1629.8809" style="stroke:#181818;stroke-width:1.0;"/><text fill="#000000" font-family="sans-serif" font-size="13" font-weight="bold" lengthAdjust="spacing" textLength="14.46" x="1102.2847" y="1602.9727">23</text><text fill="#000000" font-family="sans-serif" font-size="13" lengthAdjust="spacing" textLength="185.6816" x="1120.7446" y="1594.3271">getJourneysFromTransportType</text><text fill="#000000" font-family="sans-serif" font-size="13" lengthAdjust="spacing" textLength="546.6094" x="1135.1919" y="1611.6182">(response="externalAPIHandler.getCarRentalTrips(origin)", transport="HUURAUTO", journeys)</text><polygon fill="#181818" points="1800.4043,1657.1719,1810.4043,1661.1719,1800.4043,1665.1719,1804.4043,1661.1719" style="stroke:#181818;stroke-width:1.0;"/><line style="stroke:#181818;stroke-width:1.0;" x1="1095.2847" x2="1806.4043" y1="1661.1719" y2="1661.1719"/><text fill="#000000" font-family="sans-serif" font-size="13" font-weight="bold" lengthAdjust="spacing" textLength="14.46" x="1102.2847" y="1655.9092">24</text><text fill="#000000" font-family="sans-serif" font-size="13" lengthAdjust="spacing" textLength="145.939" x="1120.7446" y="1655.9092">getCarRentalTrips(origin)</text><polygon fill="#181818" points="2106.8062,1688.4629,2116.8062,1692.4629,2106.8062,1696.4629,2110.8062,1692.4629" style="stroke:#181818;stroke-width:1.0;"/><line style="stroke:#181818;stroke-width:1.0;" x1="1812.4043" x2="2112.8062" y1="1692.4629" y2="1692.4629"/><text fill="#000000" font-family="sans-serif" font-size="13" font-weight="bold" lengthAdjust="spacing" textLength="14.46" x="1819.4043" y="1687.2002">25</text><text fill="#000000" font-family="sans-serif" font-size="13" lengthAdjust="spacing" textLength="254.541" x="1837.8643" y="1687.2002">GET /cars/searchDestination?query="origin"</text><polygon fill="#181818" points="1823.4043,1719.7539,1813.4043,1723.7539,1823.4043,1727.7539,1819.4043,1723.7539" style="stroke:#181818;stroke-width:1.0;"/><line style="stroke:#181818;stroke-width:1.0;stroke-dasharray:2.0,2.0;" x1="1817.4043" x2="2117.8062" y1="1723.7539" y2="1723.7539"/><text fill="#000000" font-family="sans-serif" font-size="13" font-weight="bold" lengthAdjust="spacing" textLength="14.46" x="1829.4043" y="1718.4912">26</text><text fill="#000000" font-family="sans-serif" font-size="13" lengthAdjust="spacing" textLength="160.3926" x="1847.8643" y="1718.4912">HTTP 200 OK met resultaat</text><polygon fill="#181818" points="1106.2847,1751.0449,1096.2847,1755.0449,1106.2847,1759.0449,1102.2847,1755.0449" style="stroke:#181818;stroke-width:1.0;"/><line style="stroke:#181818;stroke-width:1.0;stroke-dasharray:2.0,2.0;" x1="1100.2847" x2="1811.4043" y1="1755.0449" y2="1755.0449"/><text fill="#000000" font-family="sans-serif" font-size="13" font-weight="bold" lengthAdjust="spacing" textLength="14.46" x="1112.2847" y="1749.7822">27</text><text fill="#000000" font-family="sans-serif" font-size="13" lengthAdjust="spacing" textLength="53.479" x="1130.7446" y="1749.7822">response</text><path d="M994.2402,1770.0449 L1066.6748,1770.0449 L1066.6748,1779.3359 L1056.6748,1789.3359 L994.2402,1789.3359 L994.2402,1770.0449 " fill="#EEEEEE" style="stroke:#000000;stroke-width:1.5;"/><rect fill="none" height="126.1641" style="stroke:#000000;stroke-width:1.5;" width="736.4644" x="994.2402" y="1770.0449"/><text fill="#000000" font-family="sans-serif" font-size="13" font-weight="bold" lengthAdjust="spacing" textLength="27.4346" x="1009.2402" y="1785.0732">loop</text><text fill="#000000" font-family="sans-serif" font-size="11" font-weight="bold" lengthAdjust="spacing" textLength="127.1177" x="1081.6748" y="1783.915">[voor elke huurauto trip]</text><polygon fill="#181818" points="1676.8013,1808.627,1686.8013,1812.627,1676.8013,1816.627,1680.8013,1812.627" style="stroke:#181818;stroke-width:1.0;"/><line style="stroke:#181818;stroke-width:1.0;" x1="1095.2847" x2="1682.8013" y1="1812.627" y2="1812.627"/><text fill="#000000" font-family="sans-serif" font-size="13" font-weight="bold" lengthAdjust="spacing" textLength="14.46" x="1102.2847" y="1807.3643">28</text><text fill="#000000" font-family="sans-serif" font-size="13" lengthAdjust="spacing" textLength="139.8198" x="1120.7446" y="1807.3643">journey = new Journey()</text><polygon fill="#181818" points="1676.8013,1839.918,1686.8013,1843.918,1676.8013,1847.918,1680.8013,1843.918" style="stroke:#181818;stroke-width:1.0;"/><line style="stroke:#181818;stroke-width:1.0;" x1="1095.2847" x2="1682.8013" y1="1843.918" y2="1843.918"/><text fill="#000000" font-family="sans-serif" font-size="13" font-weight="bold" lengthAdjust="spacing" textLength="14.46" x="1102.2847" y="1838.6553">29</text><text fill="#000000" font-family="sans-serif" font-size="13" lengthAdjust="spacing" textLength="135.8652" x="1120.7446" y="1838.6553">[alle setters aanroepen]</text><line style="stroke:#181818;stroke-width:1.0;" x1="1095.2847" x2="1137.2847" y1="1875.209" y2="1875.209"/><line style="stroke:#181818;stroke-width:1.0;" x1="1137.2847" x2="1137.2847" y1="1875.209" y2="1888.209"/><line style="stroke:#181818;stroke-width:1.0;" x1="1096.2847" x2="1137.2847" y1="1888.209" y2="1888.209"/><polygon fill="#181818" points="1106.2847,1884.209,1096.2847,1888.209,1106.2847,1892.209,1102.2847,1888.209" style="stroke:#181818;stroke-width:1.0;"/><text fill="#000000" font-family="sans-serif" font-size="13" font-weight="bold" lengthAdjust="spacing" textLength="14.46" x="1102.2847" y="1869.9463">30</text><text fill="#000000" font-family="sans-serif" font-size="13" lengthAdjust="spacing" textLength="125.7344" x="1120.7446" y="1869.9463">journeys.add(journey)</text><polygon fill="#181818" points="700.0854,1922.5,690.0854,1926.5,700.0854,1930.5,696.0854,1926.5" style="stroke:#181818;stroke-width:1.0;"/><line style="stroke:#181818;stroke-width:1.0;stroke-dasharray:2.0,2.0;" x1="694.0854" x2="1094.2847" y1="1926.5" y2="1926.5"/><text fill="#000000" font-family="sans-serif" font-size="13" font-weight="bold" lengthAdjust="spacing" textLength="14.46" x="706.0854" y="1921.2373">31</text><text fill="#000000" font-family="sans-serif" font-size="13" lengthAdjust="spacing" textLength="49.1372" x="724.5454" y="1921.2373">journeys</text><polygon fill="#181818" points="427.2944,1953.791,417.2944,1957.791,427.2944,1961.791,423.2944,1957.791" style="stroke:#181818;stroke-width:1.0;"/><line style="stroke:#181818;stroke-width:1.0;stroke-dasharray:2.0,2.0;" x1="421.2944" x2="688.0854" y1="1957.791" y2="1957.791"/><text fill="#000000" font-family="sans-serif" font-size="13" font-weight="bold" lengthAdjust="spacing" textLength="14.46" x="433.2944" y="1952.5283">32</text><text fill="#000000" font-family="sans-serif" font-size="13" lengthAdjust="spacing" textLength="49.1372" x="451.7544" y="1952.5283">journeys</text><polygon fill="#181818" points="59.6758,1985.082,49.6758,1989.082,59.6758,1993.082,55.6758,1989.082" style="stroke:#181818;stroke-width:1.0;"/><line style="stroke:#181818;stroke-width:1.0;stroke-dasharray:2.0,2.0;" x1="53.6758" x2="415.2944" y1="1989.082" y2="1989.082"/><text fill="#000000" font-family="sans-serif" font-size="13" font-weight="bold" lengthAdjust="spacing" textLength="14.46" x="65.6758" y="1983.8193">33</text><text fill="#000000" font-family="sans-serif" font-size="13" lengthAdjust="spacing" textLength="325.1587" x="84.1357" y="1983.8193">200 OK met lijst van taxi trips, huurauto trips en vluchten</text><!--SRC=[xLPRRzCm57xFhx3oGYVjnXuhEbJ6BeL9czPqGc8yUEaXTUVQmNRAog_dEB7R94sp8h414ds94_ixb-zyvxWqDbAH6s0_M08g26XcfCXcztQTKcLOp58g38cbC4fo3efGJSBLQ_TEV92P4h0uMNuBAr0DQivYo75klG8DYm-3MSfhA4E5DeeQI1O5rBqWTeXxOwh6teRRgHgWt6p2zxa19QXXSsWrCIqsSxWxMFEHidpJFYSOKy77wMDkdlUl1nV5n_NqxgLyO2B9qU3EMtC8VrTi8JeCWaJ9B2N360HLJ9BNNNALJYW7GUPK48Lrm-KzcnB0fyvvGMA8IvP1u4jBzevBHUoIyzE87BW4zK42fi-vor7V2OA_pfA-7Wbhb8UxH2gMCB4J1A-6m27655nGOoYvB-a60_3bnuMfCTzPSx4JUELOP4aENIBWEzaWWewDw1RKWsBJP1LHmTIcS99bEBhZyzhelEbmK94hGXopNR_GIAADkgyKNLmoRTwuZMCCk0wsEh1k8lh88iNIbHyhD3pWrEEgQF3OWGQguicbZ57MKhpzbe5QzC825mPURdlU-aKKNPEZmqDozP7Cm20_EkE6KbEuM4iQzrCfD0HSofJC9GuDu0z0h6zYCCR0IkOf5Xm9ZZxCl1NqcMAXh5HGMvfGAfI45CINHbGrNC_wFXsFE-vb9m0nhbUgh08FMfM-rZFB0sKPuHdVOzqoevnDjSdbj-H85n6KPsojluzQ-vlwkGLp-FqjlZuLdwFB6xnKUgqqjei-tpoidwFLA-uRExryh_ngezUmcvoTAJcB5CeqbSf4YnHSjNmJzfPNnkgAsM-Q5rX0u-tqmgZ_QO1VVA3huVmDOwV2oNPJvucAD0wTJPZMcTDMlfQ9yynLF-CicPYMkjzU3axFez7WV9lYDrXhBl_N_A1s2dWFsZ3neYAOyooUcFyA07D2rGq8GtcB22v6evl-ABhQHWFDzffb45Fr1pKmoJ9bhzD_T1YyxB-FtIfTcjWxCsyYl2vjS3y1]--></g></svg>