<svg xmlns="http://www.w3.org/2000/svg" xmlns:xlink="http://www.w3.org/1999/xlink" contentStyleType="text/css" height="1241px" preserveAspectRatio="none" style="width:1968px;height:1241px;background:#FFFFFF;" version="1.1" viewBox="0 0 1968 1241" width="1968px" zoomAndPan="magnify"><title>C4 Class Diagram - Backend</title><defs/><g><text fill="#000000" font-family="sans-serif" font-size="14" font-weight="bold" lengthAdjust="spacing" textLength="189.8545" x="882.0728" y="25.1074">C4 Class Diagram - Backend</text><!--cluster controller--><g id="cluster_controller"><path d="M303.5,92.1348 L369.0654,92.1348 A3.75,3.75 0 0 1 371.5654,94.6348 L378.5654,116.7559 L1200.5,116.7559 A2.5,2.5 0 0 1 1203,119.2559 L1203,209.6348 A2.5,2.5 0 0 1 1200.5,212.1348 L303.5,212.1348 A2.5,2.5 0 0 1 301,209.6348 L301,94.6348 A2.5,2.5 0 0 1 303.5,92.1348 " fill="none" style="stroke:#000000;stroke-width:1.5;"/><line style="stroke:#000000;stroke-width:1.5;" x1="301" x2="378.5654" y1="116.7559" y2="116.7559"/><text fill="#000000" font-family="sans-serif" font-size="14" font-weight="bold" lengthAdjust="spacing" textLength="64.5654" x="305" y="109.2422">controller</text></g><!--cluster service--><g id="cluster_service"><path d="M8.5,282.6348 L57.7686,282.6348 A3.75,3.75 0 0 1 60.2686,285.1348 L67.2686,307.2559 L1200.5,307.2559 A2.5,2.5 0 0 1 1203,309.7559 L1203,545.1348 A2.5,2.5 0 0 1 1200.5,547.6348 L8.5,547.6348 A2.5,2.5 0 0 1 6,545.1348 L6,285.1348 A2.5,2.5 0 0 1 8.5,282.6348 " fill="none" style="stroke:#000000;stroke-width:1.5;"/><line style="stroke:#000000;stroke-width:1.5;" x1="6" x2="67.2686" y1="307.2559" y2="307.2559"/><text fill="#000000" font-family="sans-serif" font-size="14" font-weight="bold" lengthAdjust="spacing" textLength="48.2686" x="10" y="299.7422">service</text></g><!--cluster tripStrategy--><g id="cluster_tripStrategy"><path d="M156.5,571.6348 L236.0723,571.6348 A3.75,3.75 0 0 1 238.5723,574.1348 L245.5723,596.2559 L1958.5,596.2559 A2.5,2.5 0 0 1 1961,598.7559 L1961,816.1348 A2.5,2.5 0 0 1 1958.5,818.6348 L156.5,818.6348 A2.5,2.5 0 0 1 154,816.1348 L154,574.1348 A2.5,2.5 0 0 1 156.5,571.6348 " fill="none" style="stroke:#000000;stroke-width:1.5;"/><line style="stroke:#000000;stroke-width:1.5;" x1="154" x2="245.5723" y1="596.2559" y2="596.2559"/><text fill="#000000" font-family="sans-serif" font-size="14" font-weight="bold" lengthAdjust="spacing" textLength="78.5723" x="158" y="588.7422">tripStrategy</text></g><!--cluster domain--><g id="cluster_domain"><path d="M1576.5,45.6348 L1627.2793,45.6348 A3.75,3.75 0 0 1 1629.7793,48.1348 L1636.7793,70.2559 L1757.5,70.2559 A2.5,2.5 0 0 1 1760,72.7559 L1760,256.1348 A2.5,2.5 0 0 1 1757.5,258.6348 L1576.5,258.6348 A2.5,2.5 0 0 1 1574,256.1348 L1574,48.1348 A2.5,2.5 0 0 1 1576.5,45.6348 " fill="none" style="stroke:#000000;stroke-width:1.5;"/><line style="stroke:#000000;stroke-width:1.5;" x1="1574" x2="1636.7793" y1="70.2559" y2="70.2559"/><text fill="#000000" font-family="sans-serif" font-size="14" font-weight="bold" lengthAdjust="spacing" textLength="49.7793" x="1578" y="62.7422">domain</text></g><!--cluster api--><g id="cluster_api"><path d="M934.5,842.6348 L955.7275,842.6348 A3.75,3.75 0 0 1 958.2275,845.1348 L965.2275,867.2559 L1179.5,867.2559 A2.5,2.5 0 0 1 1182,869.7559 L1182,1232.1348 A2.5,2.5 0 0 1 1179.5,1234.6348 L934.5,1234.6348 A2.5,2.5 0 0 1 932,1232.1348 L932,845.1348 A2.5,2.5 0 0 1 934.5,842.6348 " fill="none" style="stroke:#000000;stroke-width:1.5;"/><line style="stroke:#000000;stroke-width:1.5;" x1="932" x2="965.2275" y1="867.2559" y2="867.2559"/><text fill="#000000" font-family="sans-serif" font-size="14" font-weight="bold" lengthAdjust="spacing" textLength="20.2275" x="936" y="859.7422">api</text></g><!--class JourneyController--><g id="elem_JourneyController"><rect codeLine="9" fill="#F1F1F1" height="66.6211" id="JourneyController" rx="2.5" ry="2.5" style="stroke:#181818;stroke-width:0.5;" width="870.3271" x="317" y="129.1348"/><ellipse cx="692.6655" cy="145.1348" fill="#ADD1B2" rx="11" ry="11" style="stroke:#181818;stroke-width:1.0;"/><path d="M695.4312,141.0098 Q695.5874,140.791 695.7749,140.6816 Q695.9624,140.5723 696.1812,140.5723 Q696.5562,140.5723 696.7905,140.8379 Q697.0249,141.0879 697.0249,141.6973 L697.0249,143.1504 Q697.0249,143.7598 696.7905,144.0254 Q696.5562,144.291 696.1812,144.291 Q695.8374,144.291 695.6343,144.0879 Q695.4312,143.9004 695.3218,143.3848 Q695.2749,143.0254 695.0874,142.8379 Q694.7593,142.4629 694.1499,142.2441 Q693.5405,142.0254 692.9155,142.0254 Q692.1499,142.0254 691.5093,142.3535 Q690.8843,142.6816 690.3843,143.4316 Q689.8999,144.1816 689.8999,145.2129 L689.8999,146.3066 Q689.8999,147.541 690.7905,148.3691 Q691.6812,149.1816 693.2749,149.1816 Q694.2124,149.1816 694.8687,148.9316 Q695.2593,148.7754 695.6812,148.3379 Q695.9468,148.0723 696.0874,147.9941 Q696.2437,147.916 696.4468,147.916 Q696.7749,147.916 697.0249,148.1816 Q697.2905,148.4316 697.2905,148.7754 Q697.2905,149.1191 696.9468,149.5254 Q696.4468,150.1035 695.6499,150.4316 Q694.5718,150.8848 693.2749,150.8848 Q691.7593,150.8848 690.5562,150.2598 Q689.5718,149.7598 688.8843,148.6973 Q688.1968,147.6191 688.1968,146.3379 L688.1968,145.1816 Q688.1968,143.8535 688.8062,142.7129 Q689.4312,141.5566 690.5249,140.9473 Q691.6187,140.3223 692.853,140.3223 Q693.5874,140.3223 694.228,140.4941 Q694.8843,140.6504 695.4312,141.0098 Z " fill="#000000"/><text fill="#000000" font-family="sans-serif" font-size="14" lengthAdjust="spacing" textLength="110.4961" x="713.1655" y="150.9316">JourneyController</text><line style="stroke:#181818;stroke-width:0.5;" x1="318" x2="1186.3271" y1="161.1348" y2="161.1348"/><line style="stroke:#181818;stroke-width:0.5;" x1="318" x2="1186.3271" y1="169.1348" y2="169.1348"/><ellipse cx="328" cy="183.9453" fill="#84BE84" rx="3" ry="3" style="stroke:#038048;stroke-width:1.0;"/><text fill="#000000" font-family="sans-serif" font-size="14" lengthAdjust="spacing" textLength="844.3271" x="337" y="188.2422">getJourneys(origin: String, destination: String, departureDate: Date, returnDate: Date, price: double, transport: Transport): List&lt;Journey&gt;</text></g><!--class JourneyService--><g id="elem_JourneyService"><rect codeLine="15" fill="#F1F1F1" height="66.6211" id="JourneyService" rx="2.5" ry="2.5" style="stroke:#181818;stroke-width:0.5;" width="870.3271" x="317" y="319.6348"/><ellipse cx="699.6689" cy="335.6348" fill="#B4A7E5" rx="11" ry="11" style="stroke:#181818;stroke-width:1.0;"/><path d="M700.6221,332.2754 L700.6221,338.9316 L702.3408,338.9316 Q702.9502,338.9316 703.2158,339.166 Q703.4814,339.4004 703.4814,339.791 Q703.4814,340.166 703.2158,340.4004 Q702.9502,340.6348 702.3408,340.6348 L697.2002,340.6348 Q696.5908,340.6348 696.3252,340.4004 Q696.0596,340.166 696.0596,339.7754 Q696.0596,339.4004 696.3252,339.166 Q696.5908,338.9316 697.2002,338.9316 L698.9189,338.9316 L698.9189,332.2754 L697.2002,332.2754 Q696.5908,332.2754 696.3252,332.041 Q696.0596,331.8066 696.0596,331.416 Q696.0596,331.041 696.3252,330.8066 Q696.5908,330.5723 697.2002,330.5723 L702.3408,330.5723 Q702.9502,330.5723 703.2158,330.8066 Q703.4814,331.041 703.4814,331.416 Q703.4814,331.8066 703.2158,332.041 Q702.9502,332.2754 702.3408,332.2754 L700.6221,332.2754 Z " fill="#000000"/><text fill="#000000" font-family="sans-serif" font-size="14" font-style="italic" lengthAdjust="spacing" textLength="96.4893" x="720.1689" y="341.4316">JourneyService</text><line style="stroke:#181818;stroke-width:0.5;" x1="318" x2="1186.3271" y1="351.6348" y2="351.6348"/><line style="stroke:#181818;stroke-width:0.5;" x1="318" x2="1186.3271" y1="359.6348" y2="359.6348"/><ellipse cx="328" cy="374.4453" fill="#84BE84" rx="3" ry="3" style="stroke:#038048;stroke-width:1.0;"/><text fill="#000000" font-family="sans-serif" font-size="14" lengthAdjust="spacing" textLength="844.3271" x="337" y="378.7422">getJourneys(origin: String, destination: String, departureDate: Date, returnDate: Date, price: double, transport: Transport): List&lt;Journey&gt;</text></g><!--class JourneyServiceImpl--><g id="elem_JourneyServiceImpl"><rect codeLine="19" fill="#F1F1F1" height="85.2422" id="JourneyServiceImpl" rx="2.5" ry="2.5" style="stroke:#181818;stroke-width:0.5;" width="870.3271" x="317" y="446.6348"/><ellipse cx="686.4448" cy="462.6348" fill="#ADD1B2" rx="11" ry="11" style="stroke:#181818;stroke-width:1.0;"/><path d="M689.2104,458.5098 Q689.3667,458.291 689.5542,458.1816 Q689.7417,458.0723 689.9604,458.0723 Q690.3354,458.0723 690.5698,458.3379 Q690.8042,458.5879 690.8042,459.1973 L690.8042,460.6504 Q690.8042,461.2598 690.5698,461.5254 Q690.3354,461.791 689.9604,461.791 Q689.6167,461.791 689.4136,461.5879 Q689.2104,461.4004 689.1011,460.8848 Q689.0542,460.5254 688.8667,460.3379 Q688.5386,459.9629 687.9292,459.7441 Q687.3198,459.5254 686.6948,459.5254 Q685.9292,459.5254 685.2886,459.8535 Q684.6636,460.1816 684.1636,460.9316 Q683.6792,461.6816 683.6792,462.7129 L683.6792,463.8066 Q683.6792,465.041 684.5698,465.8691 Q685.4604,466.6816 687.0542,466.6816 Q687.9917,466.6816 688.6479,466.4316 Q689.0386,466.2754 689.4604,465.8379 Q689.7261,465.5723 689.8667,465.4941 Q690.0229,465.416 690.2261,465.416 Q690.5542,465.416 690.8042,465.6816 Q691.0698,465.9316 691.0698,466.2754 Q691.0698,466.6191 690.7261,467.0254 Q690.2261,467.6035 689.4292,467.9316 Q688.3511,468.3848 687.0542,468.3848 Q685.5386,468.3848 684.3354,467.7598 Q683.3511,467.2598 682.6636,466.1973 Q681.9761,465.1191 681.9761,463.8379 L681.9761,462.6816 Q681.9761,461.3535 682.5854,460.2129 Q683.2104,459.0566 684.3042,458.4473 Q685.3979,457.8223 686.6323,457.8223 Q687.3667,457.8223 688.0073,457.9941 Q688.6636,458.1504 689.2104,458.5098 Z " fill="#000000"/><text fill="#000000" font-family="sans-serif" font-size="14" lengthAdjust="spacing" textLength="122.9375" x="706.9448" y="468.4316">JourneyServiceImpl</text><line style="stroke:#181818;stroke-width:0.5;" x1="318" x2="1186.3271" y1="478.6348" y2="478.6348"/><line style="stroke:#181818;stroke-width:0.5;" x1="318" x2="1186.3271" y1="486.6348" y2="486.6348"/><ellipse cx="328" cy="501.4453" fill="#84BE84" rx="3" ry="3" style="stroke:#038048;stroke-width:1.0;"/><text fill="#000000" font-family="sans-serif" font-size="14" lengthAdjust="spacing" textLength="285.5576" x="337" y="505.7422">setJourneyStrategy(tripStrategy: TripStrategy)</text><ellipse cx="328" cy="520.0664" fill="#84BE84" rx="3" ry="3" style="stroke:#038048;stroke-width:1.0;"/><text fill="#000000" font-family="sans-serif" font-size="14" lengthAdjust="spacing" textLength="844.3271" x="337" y="524.3633">getJourneys(origin: String, destination: String, departureDate: Date, returnDate: Date, price: double, transport: Transport): List&lt;Journey&gt;</text></g><!--class Transport--><g id="elem_Transport"><rect codeLine="24" fill="#F1F1F1" height="66.6211" id="Transport" rx="2.5" ry="2.5" style="stroke:#181818;stroke-width:0.5;" width="260.1377" x="22" y="455.6348"/><ellipse cx="117.8638" cy="471.6348" fill="#EB937F" rx="11" ry="11" style="stroke:#181818;stroke-width:1.0;"/><path d="M116.7231,472.4316 L116.7231,474.9316 L121.0513,474.9316 L121.0513,474.0098 Q121.0513,473.4004 121.2856,473.1348 Q121.5356,472.8691 121.9106,472.8691 Q122.2856,472.8691 122.52,473.1348 Q122.7544,473.4004 122.7544,474.0098 L122.7544,476.6348 L114.7544,476.6348 Q114.1294,476.6348 113.8638,476.4004 Q113.6138,476.166 113.6138,475.7754 Q113.6138,475.4004 113.8794,475.166 Q114.145,474.9316 114.7544,474.9316 L115.02,474.9316 L115.02,468.2754 L114.7544,468.2754 Q114.1294,468.2754 113.8638,468.041 Q113.6138,467.8066 113.6138,467.416 Q113.6138,467.041 113.8638,466.8066 Q114.1294,466.5723 114.7544,466.5723 L122.3794,466.5723 L122.3794,469.166 Q122.3794,469.7754 122.145,470.041 Q121.9263,470.291 121.5356,470.291 Q121.1606,470.291 120.9263,470.041 Q120.6919,469.7754 120.6919,469.166 L120.6919,468.2754 L116.7231,468.2754 L116.7231,470.7285 L118.2075,470.7285 Q118.2075,470.0723 118.3325,469.8848 Q118.5981,469.4785 119.0669,469.4785 Q119.4419,469.4785 119.6763,469.7441 Q119.9106,469.9941 119.9106,470.6035 L119.9106,472.5723 Q119.9106,473.1191 119.7856,473.3066 Q119.52,473.6973 119.0669,473.6973 Q118.5981,473.6973 118.3325,473.291 Q118.2075,473.1035 118.2075,472.4316 L116.7231,472.4316 Z " fill="#000000"/><text fill="#000000" font-family="sans-serif" font-size="14" lengthAdjust="spacing" textLength="59.9102" x="138.3638" y="477.4316">Transport</text><line style="stroke:#181818;stroke-width:0.5;" x1="23" x2="281.1377" y1="487.6348" y2="487.6348"/><text fill="#000000" font-family="sans-serif" font-size="14" lengthAdjust="spacing" textLength="248.1377" x="28" y="506.7422">HUURAUTO, VLIEGTUIG, TREIN, BUS</text><line style="stroke:#181818;stroke-width:0.5;" x1="23" x2="281.1377" y1="514.2559" y2="514.2559"/></g><!--class JourneyStrategy--><g id="elem_JourneyStrategy"><rect codeLine="30" fill="#F1F1F1" height="66.6211" id="JourneyStrategy" rx="2.5" ry="2.5" style="stroke:#181818;stroke-width:0.5;" width="870.3271" x="317" y="608.6348"/><ellipse cx="696.9414" cy="624.6348" fill="#B4A7E5" rx="11" ry="11" style="stroke:#181818;stroke-width:1.0;"/><path d="M697.8945,621.2754 L697.8945,627.9316 L699.6133,627.9316 Q700.2227,627.9316 700.4883,628.166 Q700.7539,628.4004 700.7539,628.791 Q700.7539,629.166 700.4883,629.4004 Q700.2227,629.6348 699.6133,629.6348 L694.4727,629.6348 Q693.8633,629.6348 693.5977,629.4004 Q693.332,629.166 693.332,628.7754 Q693.332,628.4004 693.5977,628.166 Q693.8633,627.9316 694.4727,627.9316 L696.1914,627.9316 L696.1914,621.2754 L694.4727,621.2754 Q693.8633,621.2754 693.5977,621.041 Q693.332,620.8066 693.332,620.416 Q693.332,620.041 693.5977,619.8066 Q693.8633,619.5723 694.4727,619.5723 L699.6133,619.5723 Q700.2227,619.5723 700.4883,619.8066 Q700.7539,620.041 700.7539,620.416 Q700.7539,620.8066 700.4883,621.041 Q700.2227,621.2754 699.6133,621.2754 L697.8945,621.2754 Z " fill="#000000"/><text fill="#000000" font-family="sans-serif" font-size="14" font-style="italic" lengthAdjust="spacing" textLength="101.9443" x="717.4414" y="630.4316">JourneyStrategy</text><line style="stroke:#181818;stroke-width:0.5;" x1="318" x2="1186.3271" y1="640.6348" y2="640.6348"/><line style="stroke:#181818;stroke-width:0.5;" x1="318" x2="1186.3271" y1="648.6348" y2="648.6348"/><ellipse cx="328" cy="663.4453" fill="#84BE84" rx="3" ry="3" style="stroke:#038048;stroke-width:1.0;"/><text fill="#000000" font-family="sans-serif" font-size="14" lengthAdjust="spacing" textLength="844.3271" x="337" y="667.7422">getJourneys(origin: String, destination: String, departureDate: Date, returnDate: Date, price: double, transport: Transport): List&lt;Journey&gt;</text></g><!--class StandardJourneyStrategy--><g id="elem_StandardJourneyStrategy"><rect codeLine="34" fill="#F1F1F1" height="66.6211" id="StandardJourneyStrategy" rx="2.5" ry="2.5" style="stroke:#181818;stroke-width:0.5;" width="870.3271" x="170" y="735.6348"/><ellipse cx="521.5313" cy="751.6348" fill="#ADD1B2" rx="11" ry="11" style="stroke:#181818;stroke-width:1.0;"/><path d="M524.2969,747.5098 Q524.4531,747.291 524.6406,747.1816 Q524.8281,747.0723 525.0469,747.0723 Q525.4219,747.0723 525.6563,747.3379 Q525.8906,747.5879 525.8906,748.1973 L525.8906,749.6504 Q525.8906,750.2598 525.6563,750.5254 Q525.4219,750.791 525.0469,750.791 Q524.7031,750.791 524.5,750.5879 Q524.2969,750.4004 524.1875,749.8848 Q524.1406,749.5254 523.9531,749.3379 Q523.625,748.9629 523.0156,748.7441 Q522.4063,748.5254 521.7813,748.5254 Q521.0156,748.5254 520.375,748.8535 Q519.75,749.1816 519.25,749.9316 Q518.7656,750.6816 518.7656,751.7129 L518.7656,752.8066 Q518.7656,754.041 519.6563,754.8691 Q520.5469,755.6816 522.1406,755.6816 Q523.0781,755.6816 523.7344,755.4316 Q524.125,755.2754 524.5469,754.8379 Q524.8125,754.5723 524.9531,754.4941 Q525.1094,754.416 525.3125,754.416 Q525.6406,754.416 525.8906,754.6816 Q526.1563,754.9316 526.1563,755.2754 Q526.1563,755.6191 525.8125,756.0254 Q525.3125,756.6035 524.5156,756.9316 Q523.4375,757.3848 522.1406,757.3848 Q520.625,757.3848 519.4219,756.7598 Q518.4375,756.2598 517.75,755.1973 Q517.0625,754.1191 517.0625,752.8379 L517.0625,751.6816 Q517.0625,750.3535 517.6719,749.2129 Q518.2969,748.0566 519.3906,747.4473 Q520.4844,746.8223 521.7188,746.8223 Q522.4531,746.8223 523.0938,746.9941 Q523.75,747.1504 524.2969,747.5098 Z " fill="#000000"/><text fill="#000000" font-family="sans-serif" font-size="14" lengthAdjust="spacing" textLength="158.7646" x="542.0313" y="757.4316">StandardJourneyStrategy</text><line style="stroke:#181818;stroke-width:0.5;" x1="171" x2="1039.3271" y1="767.6348" y2="767.6348"/><line style="stroke:#181818;stroke-width:0.5;" x1="171" x2="1039.3271" y1="775.6348" y2="775.6348"/><ellipse cx="181" cy="790.4453" fill="#84BE84" rx="3" ry="3" style="stroke:#038048;stroke-width:1.0;"/><text fill="#000000" font-family="sans-serif" font-size="14" lengthAdjust="spacing" textLength="844.3271" x="190" y="794.7422">getJourneys(origin: String, destination: String, departureDate: Date, returnDate: Date, price: double, transport: Transport): List&lt;Journey&gt;</text></g><!--class AlternativeJourneyStrategy--><g id="elem_AlternativeJourneyStrategy"><rect codeLine="38" fill="#F1F1F1" height="66.6211" id="AlternativeJourneyStrategy" rx="2.5" ry="2.5" style="stroke:#181818;stroke-width:0.5;" width="870.3271" x="1075" y="735.6348"/><ellipse cx="1421.8691" cy="751.6348" fill="#ADD1B2" rx="11" ry="11" style="stroke:#181818;stroke-width:1.0;"/><path d="M1424.6348,747.5098 Q1424.791,747.291 1424.9785,747.1816 Q1425.166,747.0723 1425.3848,747.0723 Q1425.7598,747.0723 1425.9941,747.3379 Q1426.2285,747.5879 1426.2285,748.1973 L1426.2285,749.6504 Q1426.2285,750.2598 1425.9941,750.5254 Q1425.7598,750.791 1425.3848,750.791 Q1425.041,750.791 1424.8379,750.5879 Q1424.6348,750.4004 1424.5254,749.8848 Q1424.4785,749.5254 1424.291,749.3379 Q1423.9629,748.9629 1423.3535,748.7441 Q1422.7441,748.5254 1422.1191,748.5254 Q1421.3535,748.5254 1420.7129,748.8535 Q1420.0879,749.1816 1419.5879,749.9316 Q1419.1035,750.6816 1419.1035,751.7129 L1419.1035,752.8066 Q1419.1035,754.041 1419.9941,754.8691 Q1420.8848,755.6816 1422.4785,755.6816 Q1423.416,755.6816 1424.0723,755.4316 Q1424.4629,755.2754 1424.8848,754.8379 Q1425.1504,754.5723 1425.291,754.4941 Q1425.4473,754.416 1425.6504,754.416 Q1425.9785,754.416 1426.2285,754.6816 Q1426.4941,754.9316 1426.4941,755.2754 Q1426.4941,755.6191 1426.1504,756.0254 Q1425.6504,756.6035 1424.8535,756.9316 Q1423.7754,757.3848 1422.4785,757.3848 Q1420.9629,757.3848 1419.7598,756.7598 Q1418.7754,756.2598 1418.0879,755.1973 Q1417.4004,754.1191 1417.4004,752.8379 L1417.4004,751.6816 Q1417.4004,750.3535 1418.0098,749.2129 Q1418.6348,748.0566 1419.7285,747.4473 Q1420.8223,746.8223 1422.0566,746.8223 Q1422.791,746.8223 1423.4316,746.9941 Q1424.0879,747.1504 1424.6348,747.5098 Z " fill="#000000"/><text fill="#000000" font-family="sans-serif" font-size="14" lengthAdjust="spacing" textLength="168.0889" x="1442.3691" y="757.4316">AlternativeJourneyStrategy</text><line style="stroke:#181818;stroke-width:0.5;" x1="1076" x2="1944.3271" y1="767.6348" y2="767.6348"/><line style="stroke:#181818;stroke-width:0.5;" x1="1076" x2="1944.3271" y1="775.6348" y2="775.6348"/><ellipse cx="1086" cy="790.4453" fill="#84BE84" rx="3" ry="3" style="stroke:#038048;stroke-width:1.0;"/><text fill="#000000" font-family="sans-serif" font-size="14" lengthAdjust="spacing" textLength="844.3271" x="1095" y="794.7422">getJourneys(origin: String, destination: String, departureDate: Date, returnDate: Date, price: double, transport: Transport): List&lt;Journey&gt;</text></g><!--class Journey--><g id="elem_Journey"><rect codeLine="44" fill="#F1F1F1" height="159.7266" id="Journey" rx="2.5" ry="2.5" style="stroke:#181818;stroke-width:0.5;" width="152.8545" x="1590.5" y="82.6348"/><ellipse cx="1637.7739" cy="98.6348" fill="#ADD1B2" rx="11" ry="11" style="stroke:#181818;stroke-width:1.0;"/><path d="M1640.5396,94.5098 Q1640.6958,94.291 1640.8833,94.1816 Q1641.0708,94.0723 1641.2896,94.0723 Q1641.6646,94.0723 1641.8989,94.3379 Q1642.1333,94.5879 1642.1333,95.1973 L1642.1333,96.6504 Q1642.1333,97.2598 1641.8989,97.5254 Q1641.6646,97.791 1641.2896,97.791 Q1640.9458,97.791 1640.7427,97.5879 Q1640.5396,97.4004 1640.4302,96.8848 Q1640.3833,96.5254 1640.1958,96.3379 Q1639.8677,95.9629 1639.2583,95.7441 Q1638.6489,95.5254 1638.0239,95.5254 Q1637.2583,95.5254 1636.6177,95.8535 Q1635.9927,96.1816 1635.4927,96.9316 Q1635.0083,97.6816 1635.0083,98.7129 L1635.0083,99.8066 Q1635.0083,101.041 1635.8989,101.8691 Q1636.7896,102.6816 1638.3833,102.6816 Q1639.3208,102.6816 1639.9771,102.4316 Q1640.3677,102.2754 1640.7896,101.8379 Q1641.0552,101.5723 1641.1958,101.4941 Q1641.3521,101.416 1641.5552,101.416 Q1641.8833,101.416 1642.1333,101.6816 Q1642.3989,101.9316 1642.3989,102.2754 Q1642.3989,102.6191 1642.0552,103.0254 Q1641.5552,103.6035 1640.7583,103.9316 Q1639.6802,104.3848 1638.3833,104.3848 Q1636.8677,104.3848 1635.6646,103.7598 Q1634.6802,103.2598 1633.9927,102.1973 Q1633.3052,101.1191 1633.3052,99.8379 L1633.3052,98.6816 Q1633.3052,97.3535 1633.9146,96.2129 Q1634.5396,95.0566 1635.6333,94.4473 Q1636.7271,93.8223 1637.9614,93.8223 Q1638.6958,93.8223 1639.3364,93.9941 Q1639.9927,94.1504 1640.5396,94.5098 Z " fill="#000000"/><text fill="#000000" font-family="sans-serif" font-size="14" lengthAdjust="spacing" textLength="49.8066" x="1658.2739" y="104.4316">Journey</text><line style="stroke:#181818;stroke-width:0.5;" x1="1591.5" x2="1742.3545" y1="114.6348" y2="114.6348"/><ellipse cx="1601.5" cy="129.4453" fill="none" rx="3" ry="3" style="stroke:#038048;stroke-width:1.0;"/><text fill="#000000" font-family="sans-serif" font-size="14" lengthAdjust="spacing" textLength="78.5928" x="1610.5" y="133.7422">origin: String</text><ellipse cx="1601.5" cy="148.0664" fill="none" rx="3" ry="3" style="stroke:#038048;stroke-width:1.0;"/><text fill="#000000" font-family="sans-serif" font-size="14" lengthAdjust="spacing" textLength="112.0684" x="1610.5" y="152.3633">destination: String</text><ellipse cx="1601.5" cy="166.6875" fill="none" rx="3" ry="3" style="stroke:#038048;stroke-width:1.0;"/><text fill="#000000" font-family="sans-serif" font-size="14" lengthAdjust="spacing" textLength="126.8545" x="1610.5" y="170.9844">departureDate: Date</text><ellipse cx="1601.5" cy="185.3086" fill="none" rx="3" ry="3" style="stroke:#038048;stroke-width:1.0;"/><text fill="#000000" font-family="sans-serif" font-size="14" lengthAdjust="spacing" textLength="103.4961" x="1610.5" y="189.6055">returnDate: Date</text><ellipse cx="1601.5" cy="203.9297" fill="none" rx="3" ry="3" style="stroke:#038048;stroke-width:1.0;"/><text fill="#000000" font-family="sans-serif" font-size="14" lengthAdjust="spacing" textLength="80.165" x="1610.5" y="208.2266">price: double</text><ellipse cx="1601.5" cy="222.5508" fill="none" rx="3" ry="3" style="stroke:#038048;stroke-width:1.0;"/><text fill="#000000" font-family="sans-serif" font-size="14" lengthAdjust="spacing" textLength="122.9375" x="1610.5" y="226.8477">transport: Transport</text><line style="stroke:#181818;stroke-width:0.5;" x1="1591.5" x2="1742.3545" y1="234.3613" y2="234.3613"/></g><!--class ExternalAPIHandler--><g id="elem_ExternalAPIHandler"><rect codeLine="55" fill="#F1F1F1" height="66.6211" id="ExternalAPIHandler" rx="2.5" ry="2.5" style="stroke:#181818;stroke-width:0.5;" width="217.4473" x="948.5" y="879.6348"/><ellipse cx="991.6232" cy="895.6348" fill="#B4A7E5" rx="11" ry="11" style="stroke:#181818;stroke-width:1.0;"/><path d="M992.5764,892.2754 L992.5764,898.9316 L994.2951,898.9316 Q994.9045,898.9316 995.1701,899.166 Q995.4357,899.4004 995.4357,899.791 Q995.4357,900.166 995.1701,900.4004 Q994.9045,900.6348 994.2951,900.6348 L989.1545,900.6348 Q988.5451,900.6348 988.2795,900.4004 Q988.0139,900.166 988.0139,899.7754 Q988.0139,899.4004 988.2795,899.166 Q988.5451,898.9316 989.1545,898.9316 L990.8732,898.9316 L990.8732,892.2754 L989.1545,892.2754 Q988.5451,892.2754 988.2795,892.041 Q988.0139,891.8066 988.0139,891.416 Q988.0139,891.041 988.2795,890.8066 Q988.5451,890.5723 989.1545,890.5723 L994.2951,890.5723 Q994.9045,890.5723 995.1701,890.8066 Q995.4357,891.041 995.4357,891.416 Q995.4357,891.8066 995.1701,892.041 Q994.9045,892.2754 994.2951,892.2754 L992.5764,892.2754 Z " fill="#000000"/><text fill="#000000" font-family="sans-serif" font-size="14" font-style="italic" lengthAdjust="spacing" textLength="122.9512" x="1011.8729" y="901.4316">ExternalAPIHandler</text><line style="stroke:#181818;stroke-width:0.5;" x1="949.5" x2="1164.9473" y1="911.6348" y2="911.6348"/><line style="stroke:#181818;stroke-width:0.5;" x1="949.5" x2="1164.9473" y1="919.6348" y2="919.6348"/><ellipse cx="959.5" cy="934.4453" fill="#84BE84" rx="3" ry="3" style="stroke:#038048;stroke-width:1.0;"/><text fill="#000000" font-family="sans-serif" font-size="14" lengthAdjust="spacing" textLength="191.4473" x="968.5" y="938.7422">call(endpoint: Endpoint): String</text></g><!--class ExternalAPIHandlerImpl--><g id="elem_ExternalAPIHandlerImpl"><rect codeLine="59" fill="#F1F1F1" height="66.6211" id="ExternalAPIHandlerImpl" rx="2.5" ry="2.5" style="stroke:#181818;stroke-width:0.5;" width="217.4473" x="948.5" y="1006.6348"/><ellipse cx="979.7215" cy="1022.6348" fill="#ADD1B2" rx="11" ry="11" style="stroke:#181818;stroke-width:1.0;"/><path d="M982.4872,1018.5098 Q982.6434,1018.291 982.8309,1018.1816 Q983.0184,1018.0723 983.2372,1018.0723 Q983.6122,1018.0723 983.8465,1018.3379 Q984.0809,1018.5879 984.0809,1019.1973 L984.0809,1020.6504 Q984.0809,1021.2598 983.8465,1021.5254 Q983.6122,1021.791 983.2372,1021.791 Q982.8934,1021.791 982.6903,1021.5879 Q982.4872,1021.4004 982.3778,1020.8848 Q982.3309,1020.5254 982.1434,1020.3379 Q981.8153,1019.9629 981.2059,1019.7441 Q980.5965,1019.5254 979.9715,1019.5254 Q979.2059,1019.5254 978.5653,1019.8535 Q977.9403,1020.1816 977.4403,1020.9316 Q976.9559,1021.6816 976.9559,1022.7129 L976.9559,1023.8066 Q976.9559,1025.041 977.8465,1025.8691 Q978.7372,1026.6816 980.3309,1026.6816 Q981.2684,1026.6816 981.9247,1026.4316 Q982.3153,1026.2754 982.7372,1025.8379 Q983.0028,1025.5723 983.1434,1025.4941 Q983.2997,1025.416 983.5028,1025.416 Q983.8309,1025.416 984.0809,1025.6816 Q984.3465,1025.9316 984.3465,1026.2754 Q984.3465,1026.6191 984.0028,1027.0254 Q983.5028,1027.6035 982.7059,1027.9316 Q981.6278,1028.3848 980.3309,1028.3848 Q978.8153,1028.3848 977.6122,1027.7598 Q976.6278,1027.2598 975.9403,1026.1973 Q975.2528,1025.1191 975.2528,1023.8379 L975.2528,1022.6816 Q975.2528,1021.3535 975.8622,1020.2129 Q976.4872,1019.0566 977.5809,1018.4473 Q978.6747,1017.8223 979.909,1017.8223 Q980.6434,1017.8223 981.284,1017.9941 Q981.9403,1018.1504 982.4872,1018.5098 Z " fill="#000000"/><text fill="#000000" font-family="sans-serif" font-size="14" lengthAdjust="spacing" textLength="149.3994" x="997.3263" y="1028.4316">ExternalAPIHandlerImpl</text><line style="stroke:#181818;stroke-width:0.5;" x1="949.5" x2="1164.9473" y1="1038.6348" y2="1038.6348"/><line style="stroke:#181818;stroke-width:0.5;" x1="949.5" x2="1164.9473" y1="1046.6348" y2="1046.6348"/><ellipse cx="959.5" cy="1061.4453" fill="#84BE84" rx="3" ry="3" style="stroke:#038048;stroke-width:1.0;"/><text fill="#000000" font-family="sans-serif" font-size="14" lengthAdjust="spacing" textLength="191.4473" x="968.5" y="1065.7422">call(endpoint: Endpoint): String</text></g><!--class Endpoint--><g id="elem_Endpoint"><rect codeLine="63" fill="#F1F1F1" height="85.2422" id="Endpoint" rx="2.5" ry="2.5" style="stroke:#181818;stroke-width:0.5;" width="117.0479" x="998.5" y="1133.6348"/><ellipse cx="1026.9007" cy="1149.6348" fill="#ADD1B2" rx="11" ry="11" style="stroke:#181818;stroke-width:1.0;"/><path d="M1029.6663,1145.5098 Q1029.8226,1145.291 1030.0101,1145.1816 Q1030.1976,1145.0723 1030.4163,1145.0723 Q1030.7913,1145.0723 1031.0257,1145.3379 Q1031.2601,1145.5879 1031.2601,1146.1973 L1031.2601,1147.6504 Q1031.2601,1148.2598 1031.0257,1148.5254 Q1030.7913,1148.791 1030.4163,1148.791 Q1030.0726,1148.791 1029.8694,1148.5879 Q1029.6663,1148.4004 1029.5569,1147.8848 Q1029.5101,1147.5254 1029.3226,1147.3379 Q1028.9944,1146.9629 1028.3851,1146.7441 Q1027.7757,1146.5254 1027.1507,1146.5254 Q1026.3851,1146.5254 1025.7444,1146.8535 Q1025.1194,1147.1816 1024.6194,1147.9316 Q1024.1351,1148.6816 1024.1351,1149.7129 L1024.1351,1150.8066 Q1024.1351,1152.041 1025.0257,1152.8691 Q1025.9163,1153.6816 1027.5101,1153.6816 Q1028.4476,1153.6816 1029.1038,1153.4316 Q1029.4944,1153.2754 1029.9163,1152.8379 Q1030.1819,1152.5723 1030.3226,1152.4941 Q1030.4788,1152.416 1030.6819,1152.416 Q1031.0101,1152.416 1031.2601,1152.6816 Q1031.5257,1152.9316 1031.5257,1153.2754 Q1031.5257,1153.6191 1031.1819,1154.0254 Q1030.6819,1154.6035 1029.8851,1154.9316 Q1028.8069,1155.3848 1027.5101,1155.3848 Q1025.9944,1155.3848 1024.7913,1154.7598 Q1023.8069,1154.2598 1023.1194,1153.1973 Q1022.4319,1152.1191 1022.4319,1150.8379 L1022.4319,1149.6816 Q1022.4319,1148.3535 1023.0413,1147.2129 Q1023.6663,1146.0566 1024.7601,1145.4473 Q1025.8538,1144.8223 1027.0882,1144.8223 Q1027.8226,1144.8223 1028.4632,1144.9941 Q1029.1194,1145.1504 1029.6663,1145.5098 Z " fill="#000000"/><text fill="#000000" font-family="sans-serif" font-size="14" lengthAdjust="spacing" textLength="55.2686" x="1043.8786" y="1155.4316">Endpoint</text><line style="stroke:#181818;stroke-width:0.5;" x1="999.5" x2="1114.5479" y1="1165.6348" y2="1165.6348"/><ellipse cx="1009.5" cy="1180.4453" fill="none" rx="3" ry="3" style="stroke:#038048;stroke-width:1.0;"/><text fill="#000000" font-family="sans-serif" font-size="14" lengthAdjust="spacing" textLength="59.9102" x="1018.5" y="1184.7422">url: String</text><ellipse cx="1009.5" cy="1199.0664" fill="none" rx="3" ry="3" style="stroke:#038048;stroke-width:1.0;"/><text fill="#000000" font-family="sans-serif" font-size="14" lengthAdjust="spacing" textLength="91.0479" x="1018.5" y="1203.3633">method: String</text><line style="stroke:#181818;stroke-width:0.5;" x1="999.5" x2="1114.5479" y1="1210.877" y2="1210.877"/></g><!--reverse link JourneyStrategy to StandardJourneyStrategy--><g id="link_JourneyStrategy_StandardJourneyStrategy"><path codeLine="69" d="M678.5,693.8348 C678.5,712.2048 678.5,716.8848 678.5,735.2748 " fill="none" id="JourneyStrategy-backto-StandardJourneyStrategy" style="stroke:#181818;stroke-width:1.0;stroke-dasharray:7.0,7.0;"/><polygon fill="none" points="678.5,675.8348,672.5,693.8348,684.5,693.8348,678.5,675.8348" style="stroke:#181818;stroke-width:1.0;"/></g><!--reverse link JourneyStrategy to AlternativeJourneyStrategy--><g id="link_JourneyStrategy_AlternativeJourneyStrategy"><path codeLine="70" d="M1131,693.8348 C1131,712.2048 1131,716.8848 1131,735.2748 " fill="none" id="JourneyStrategy-backto-AlternativeJourneyStrategy" style="stroke:#181818;stroke-width:1.0;stroke-dasharray:7.0,7.0;"/><polygon fill="none" points="1131,675.8348,1125,693.8348,1137,693.8348,1131,675.8348" style="stroke:#181818;stroke-width:1.0;"/></g><!--reverse link Transport to JourneyServiceImpl--><g id="link_Transport_JourneyServiceImpl"><path codeLine="72" d="M288.19,489.6348 C299.31,489.6348 304.89,489.6348 316.83,489.6348 " fill="none" id="Transport-backto-JourneyServiceImpl" style="stroke:#181818;stroke-width:1.0;stroke-dasharray:7.0,7.0;"/><polygon fill="#181818" points="282.19,489.6348,291.19,493.6348,287.19,489.6348,291.19,485.6348,282.19,489.6348" style="stroke:#181818;stroke-width:1.0;"/><text fill="#000000" font-family="sans-serif" font-size="13" lengthAdjust="spacing" textLength="62.1436" x="290.6024" y="483.1742">transport 1</text></g><!--link JourneyServiceImpl to JourneyStrategy--><g id="link_JourneyServiceImpl_JourneyStrategy"><path codeLine="73" d="M752,531.7548 C752,555.9848 752,579.8948 752,602.4648 " fill="none" id="JourneyServiceImpl-to-JourneyStrategy" style="stroke:#181818;stroke-width:1.0;"/><polygon fill="#181818" points="752,608.4648,756,599.4648,752,603.4648,748,599.4648,752,608.4648" style="stroke:#181818;stroke-width:1.0;"/><text fill="#000000" font-family="sans-serif" font-size="13" lengthAdjust="spacing" textLength="101.8926" x="641.1135" y="597.2568">journeyStrategy 1</text></g><!--link JourneyController to JourneyService--><g id="link_JourneyController_JourneyService"><path codeLine="75" d="M752,196.2548 C752,230.9648 752,278.8248 752,313.5348 " fill="none" id="JourneyController-to-JourneyService" style="stroke:#181818;stroke-width:1.0;"/><polygon fill="#181818" points="752,319.5348,756,310.5348,752,314.5348,748,310.5348,752,319.5348" style="stroke:#181818;stroke-width:1.0;"/><text fill="#000000" font-family="sans-serif" font-size="13" lengthAdjust="spacing" textLength="96.8271" x="646.5992" y="308.3406">journeyService 1</text></g><!--reverse link JourneyService to JourneyServiceImpl--><g id="link_JourneyService_JourneyServiceImpl"><path codeLine="76" d="M752,404.7548 C752,422.7648 752,427.1448 752,446.3848 " fill="none" id="JourneyService-backto-JourneyServiceImpl" style="stroke:#181818;stroke-width:1.0;stroke-dasharray:7.0,7.0;"/><polygon fill="none" points="752,386.7548,746,404.7548,758,404.7548,752,386.7548" style="stroke:#181818;stroke-width:1.0;"/></g><!--link ExternalAPIHandlerImpl to Endpoint--><g id="link_ExternalAPIHandlerImpl_Endpoint"><path codeLine="77" d="M1057,1073.7548 C1057,1091.7648 1057,1108.1448 1057,1127.3848 " fill="none" id="ExternalAPIHandlerImpl-to-Endpoint" style="stroke:#181818;stroke-width:1.0;stroke-dasharray:7.0,7.0;"/><polygon fill="#181818" points="1057,1133.3848,1061,1124.3848,1057,1128.3848,1053,1124.3848,1057,1133.3848" style="stroke:#181818;stroke-width:1.0;"/><text fill="#000000" font-family="sans-serif" font-size="13" lengthAdjust="spacing" textLength="60.7217" x="992.2724" y="1122.249">endpoint 1</text></g><!--reverse link ExternalAPIHandler to ExternalAPIHandlerImpl--><g id="link_ExternalAPIHandler_ExternalAPIHandlerImpl"><path codeLine="78" d="M1057,964.8348 C1057,983.2048 1057,987.8848 1057,1006.2748 " fill="none" id="ExternalAPIHandler-backto-ExternalAPIHandlerImpl" style="stroke:#181818;stroke-width:1.0;stroke-dasharray:7.0,7.0;"/><polygon fill="none" points="1057,946.8348,1051,964.8348,1063,964.8348,1057,946.8348" style="stroke:#181818;stroke-width:1.0;"/></g><!--link StandardJourneyStrategy to ExternalAPIHandler--><g id="link_StandardJourneyStrategy_ExternalAPIHandler"><path codeLine="80" d="M994.25,802.8948 C994.25,826.0048 994.25,850.5248 994.25,873.5848 " fill="none" id="StandardJourneyStrategy-to-ExternalAPIHandler" style="stroke:#181818;stroke-width:1.0;"/><polygon fill="#181818" points="994.25,879.5848,998.25,870.5848,994.25,874.5848,990.25,870.5848,994.25,879.5848" style="stroke:#181818;stroke-width:1.0;"/><text fill="#000000" font-family="sans-serif" font-size="13" lengthAdjust="spacing" textLength="123.5698" x="846.8003" y="868.4004">externalAPIHandler 1</text></g><!--link AlternativeJourneyStrategy to ExternalAPIHandler--><g id="link_AlternativeJourneyStrategy_ExternalAPIHandler"><path codeLine="81" d="M1120.25,802.8948 C1120.25,826.0048 1120.25,850.5248 1120.25,873.5848 " fill="none" id="AlternativeJourneyStrategy-to-ExternalAPIHandler" style="stroke:#181818;stroke-width:1.0;"/><polygon fill="#181818" points="1120.25,879.5848,1124.25,870.5848,1120.25,874.5848,1116.25,870.5848,1120.25,879.5848" style="stroke:#181818;stroke-width:1.0;"/><text fill="#000000" font-family="sans-serif" font-size="13" lengthAdjust="spacing" textLength="123.5698" x="997.6066" y="868.4004">externalAPIHandler 1</text></g><!--SRC=[rLNBRjim4BppAnQ-r4Pb0GLw4We3ZcCaAeAsYAtU6MchiA58WgA26ct-lQGYHTGhG7kATJ3CVSpEQ5TBmmn7s7s47QTb2PUCvfeMi8OBcZwWo0XvTyyoX9Jfb2Cf7vXGr4Lm9j2S58BKvbuIOgG28-5E6YCBo9Z6r30f254MYEO8YrGAeoNdg1Vmcu1zqhhcPrbfWQVTYxlnkkTzZgRnbqkfMSv410UZcSW3oB0qJ51NnZTQVgRIU4aDHk1-0z1eBSAtACrIUyXaTSVjqMWgIcMbH71i_wuYk66b-TJKtzIadiYJ9wb4_MXnMZrC6DG_Q8gjfiEp_sqB6hUYeHqNYllKonVgbfijcf-MbgDg3wvITrgzUSaeggABz8HU9ydjDZb-3U3xJRo_EYRnLG37stty9O2Bv30n1_vhc1-69k1ifk5WgCYepiwL_vRR3ZW2ZtXM4lp9ocH1cPXScBw8Fl7EFY70Tuw4TCwXeCxJ4zQPfmHE2AAAZR-G_Q-wKtpxBRwsCpUu0rBA-TBUHKhQZ0ZspRzLJr6lysEyuIxx3ymcn4UfD1-_rWBjXPWDW2pKtESKLk6VpN19a5U6Tpg1J2pla8SRjvtQ7VTXuVLc8dwzjk4_1-LiqbmjxyxkfJRNdfVvR9das5FJnCqqC7Hosguv-BOfimar-DWvturQ1uxdqHKRmxpIfNy2-Wi0]--></g></svg>