<svg xmlns="http://www.w3.org/2000/svg" xmlns:xlink="http://www.w3.org/1999/xlink" contentStyleType="text/css" height="2136px" preserveAspectRatio="none" style="width:2179px;height:2136px;background:#FFFFFF;" version="1.1" viewBox="0 0 2179 2136" width="2179px" zoomAndPan="magnify"><title>Sequentie diagram: Alternatieve bouwstenen aanbieden</title><defs/><g><text fill="#000000" font-family="sans-serif" font-size="14" font-weight="bold" lengthAdjust="spacing" textLength="372.6406" x="905.1499" y="30.1074">Sequentie diagram: Alternatieve bouwstenen aanbieden</text><rect fill="none" height="583.5293" style="stroke:#000000;stroke-width:1.5;" width="2163.9404" x="10" y="140.2422"/><rect fill="none" height="126.1641" style="stroke:#000000;stroke-width:1.5;" width="919.229" x="811.4756" y="496.7344"/><rect fill="none" height="1298.9316" style="stroke:#000000;stroke-width:1.5;" width="2163.9404" x="10" y="737.7715"/><rect fill="none" height="126.1641" style="stroke:#000000;stroke-width:1.5;" width="736.4644" x="994.2402" y="1155.8457"/><rect fill="none" height="126.1641" style="stroke:#000000;stroke-width:1.5;" width="736.4644" x="994.2402" y="1482.7559"/><rect fill="none" height="126.1641" style="stroke:#000000;stroke-width:1.5;" width="736.4644" x="994.2402" y="1809.666"/><line style="stroke:#181818;stroke-width:0.5;stroke-dasharray:5.0,5.0;" x1="48" x2="48" y1="123.2422" y2="2053.7031"/><line style="stroke:#181818;stroke-width:0.5;stroke-dasharray:5.0,5.0;" x1="416.0464" x2="416.0464" y1="123.2422" y2="2053.7031"/><line style="stroke:#181818;stroke-width:0.5;stroke-dasharray:5.0,5.0;" x1="688.6167" x2="688.6167" y1="123.2422" y2="2053.7031"/><line style="stroke:#181818;stroke-width:0.5;stroke-dasharray:5.0,5.0;" x1="907.4756" x2="907.4756" y1="123.2422" y2="2053.7031"/><line style="stroke:#181818;stroke-width:0.5;stroke-dasharray:5.0,5.0;" x1="1095.2402" x2="1095.2402" y1="123.2422" y2="2053.7031"/><line style="stroke:#181818;stroke-width:0.5;stroke-dasharray:5.0,5.0;" x1="1687.8979" x2="1687.8979" y1="123.2422" y2="2053.7031"/><line style="stroke:#181818;stroke-width:0.5;stroke-dasharray:5.0,5.0;" x1="1811.7046" x2="1811.7046" y1="123.2422" y2="2053.7031"/><line style="stroke:#181818;stroke-width:0.5;stroke-dasharray:5.0,5.0;" x1="2118.6719" x2="2118.6719" y1="123.2422" y2="2053.7031"/><text fill="#000000" font-family="sans-serif" font-size="14" lengthAdjust="spacing" textLength="51.3516" x="20" y="119.7285">Reiziger</text><ellipse cx="48.6758" cy="53.1211" fill="#E2E2F0" rx="8" ry="8" style="stroke:#181818;stroke-width:0.5;"/><path d="M48.6758,61.1211 L48.6758,88.1211 M35.6758,69.1211 L61.6758,69.1211 M48.6758,88.1211 L35.6758,103.1211 M48.6758,88.1211 L61.6758,103.1211 " fill="none" style="stroke:#181818;stroke-width:0.5;"/><text fill="#000000" font-family="sans-serif" font-size="14" lengthAdjust="spacing" textLength="51.3516" x="20" y="2067.8105">Reiziger</text><ellipse cx="48.6758" cy="2079.8242" fill="#E2E2F0" rx="8" ry="8" style="stroke:#181818;stroke-width:0.5;"/><path d="M48.6758,2087.8242 L48.6758,2114.8242 M35.6758,2095.8242 L61.6758,2095.8242 M48.6758,2114.8242 L35.6758,2129.8242 M48.6758,2114.8242 L61.6758,2129.8242 " fill="none" style="stroke:#181818;stroke-width:0.5;"/><rect fill="#E2E2F0" height="51.2422" rx="2.5" ry="2.5" style="stroke:#181818;stroke-width:0.5;" width="124.4961" x="354.0464" y="71"/><text fill="#000000" font-family="sans-serif" font-size="14" lengthAdjust="spacing" textLength="61.4688" x="385.5601" y="93.1074">controller:</text><text fill="#000000" font-family="sans-serif" font-size="14" lengthAdjust="spacing" textLength="110.4961" x="361.0464" y="111.7285">JourneyController</text><rect fill="#E2E2F0" height="51.2422" rx="2.5" ry="2.5" style="stroke:#181818;stroke-width:0.5;" width="124.4961" x="354.0464" y="2052.7031"/><text fill="#000000" font-family="sans-serif" font-size="14" lengthAdjust="spacing" textLength="61.4688" x="385.5601" y="2074.8105">controller:</text><text fill="#000000" font-family="sans-serif" font-size="14" lengthAdjust="spacing" textLength="110.4961" x="361.0464" y="2093.4316">JourneyController</text><rect fill="#E2E2F0" height="51.2422" rx="2.5" ry="2.5" style="stroke:#181818;stroke-width:0.5;" width="136.9375" x="620.6167" y="71"/><text fill="#000000" font-family="sans-serif" font-size="14" lengthAdjust="spacing" textLength="48.2344" x="664.9683" y="93.1074">service:</text><text fill="#000000" font-family="sans-serif" font-size="14" lengthAdjust="spacing" textLength="122.9375" x="627.6167" y="111.7285">JourneyServiceImpl</text><rect fill="#E2E2F0" height="51.2422" rx="2.5" ry="2.5" style="stroke:#181818;stroke-width:0.5;" width="136.9375" x="620.6167" y="2052.7031"/><text fill="#000000" font-family="sans-serif" font-size="14" lengthAdjust="spacing" textLength="48.2344" x="664.9683" y="2074.8105">service:</text><text fill="#000000" font-family="sans-serif" font-size="14" lengthAdjust="spacing" textLength="122.9375" x="627.6167" y="2093.4316">JourneyServiceImpl</text><rect fill="#E2E2F0" height="51.2422" rx="2.5" ry="2.5" style="stroke:#181818;stroke-width:0.5;" width="172.7646" x="821.4756" y="71"/><text fill="#000000" font-family="sans-serif" font-size="14" lengthAdjust="spacing" textLength="53.6895" x="881.0132" y="93.1074">strategy:</text><text fill="#000000" font-family="sans-serif" font-size="14" lengthAdjust="spacing" textLength="158.7646" x="828.4756" y="111.7285">StandardJourneyStrategy</text><rect fill="#E2E2F0" height="51.2422" rx="2.5" ry="2.5" style="stroke:#181818;stroke-width:0.5;" width="172.7646" x="821.4756" y="2052.7031"/><text fill="#000000" font-family="sans-serif" font-size="14" lengthAdjust="spacing" textLength="53.6895" x="881.0132" y="2074.8105">strategy:</text><text fill="#000000" font-family="sans-serif" font-size="14" lengthAdjust="spacing" textLength="158.7646" x="828.4756" y="2093.4316">StandardJourneyStrategy</text><rect fill="#E2E2F0" height="51.2422" rx="2.5" ry="2.5" style="stroke:#181818;stroke-width:0.5;" width="182.0889" x="1004.2402" y="71"/><text fill="#000000" font-family="sans-serif" font-size="14" lengthAdjust="spacing" textLength="53.6895" x="1068.4399" y="93.1074">strategy:</text><text fill="#000000" font-family="sans-serif" font-size="14" lengthAdjust="spacing" textLength="168.0889" x="1011.2402" y="111.7285">AlternativeJourneyStrategy</text><rect fill="#E2E2F0" height="51.2422" rx="2.5" ry="2.5" style="stroke:#181818;stroke-width:0.5;" width="182.0889" x="1004.2402" y="2052.7031"/><text fill="#000000" font-family="sans-serif" font-size="14" lengthAdjust="spacing" textLength="53.6895" x="1068.4399" y="2074.8105">strategy:</text><text fill="#000000" font-family="sans-serif" font-size="14" lengthAdjust="spacing" textLength="168.0889" x="1011.2402" y="2093.4316">AlternativeJourneyStrategy</text><rect fill="#E2E2F0" height="32.6211" rx="2.5" ry="2.5" style="stroke:#181818;stroke-width:0.5;" width="63.8066" x="1656.8979" y="89.6211"/><text fill="#000000" font-family="sans-serif" font-size="14" lengthAdjust="spacing" textLength="49.8066" x="1663.8979" y="111.7285">Journey</text><rect fill="#E2E2F0" height="32.6211" rx="2.5" ry="2.5" style="stroke:#181818;stroke-width:0.5;" width="63.8066" x="1656.8979" y="2052.7031"/><text fill="#000000" font-family="sans-serif" font-size="14" lengthAdjust="spacing" textLength="49.8066" x="1663.8979" y="2074.8105">Journey</text><rect fill="#E2E2F0" height="51.2422" rx="2.5" ry="2.5" style="stroke:#181818;stroke-width:0.5;" width="163.3994" x="1730.7046" y="71"/><text fill="#000000" font-family="sans-serif" font-size="14" lengthAdjust="spacing" textLength="73.165" x="1775.8218" y="93.1074">api handler:</text><text fill="#000000" font-family="sans-serif" font-size="14" lengthAdjust="spacing" textLength="149.3994" x="1737.7046" y="111.7285">ExternalAPIHandlerImpl</text><rect fill="#E2E2F0" height="51.2422" rx="2.5" ry="2.5" style="stroke:#181818;stroke-width:0.5;" width="163.3994" x="1730.7046" y="2052.7031"/><text fill="#000000" font-family="sans-serif" font-size="14" lengthAdjust="spacing" textLength="73.165" x="1775.8218" y="2074.8105">api handler:</text><text fill="#000000" font-family="sans-serif" font-size="14" lengthAdjust="spacing" textLength="149.3994" x="1737.7046" y="2093.4316">ExternalAPIHandlerImpl</text><rect fill="#E2E2F0" height="51.2422" rx="2.5" ry="2.5" style="stroke:#181818;stroke-width:0.5;" width="90.2686" x="2073.6719" y="71"/><text fill="#000000" font-family="sans-serif" font-size="14" lengthAdjust="spacing" textLength="76.2686" x="2080.6719" y="93.1074">external api:</text><text fill="#000000" font-family="sans-serif" font-size="14" lengthAdjust="spacing" textLength="73.1582" x="2082.2271" y="111.7285">BookingAPI</text><rect fill="#E2E2F0" height="51.2422" rx="2.5" ry="2.5" style="stroke:#181818;stroke-width:0.5;" width="90.2686" x="2073.6719" y="2052.7031"/><text fill="#000000" font-family="sans-serif" font-size="14" lengthAdjust="spacing" textLength="76.2686" x="2080.6719" y="2074.8105">external api:</text><text fill="#000000" font-family="sans-serif" font-size="14" lengthAdjust="spacing" textLength="73.1582" x="2082.2271" y="2093.4316">BookingAPI</text><path d="M10,140.2422 L416.2324,140.2422 L416.2324,149.5332 L406.2324,159.5332 L10,159.5332 L10,140.2422 " fill="#EEEEEE" style="stroke:#000000;stroke-width:1.5;"/><rect fill="none" height="583.5293" style="stroke:#000000;stroke-width:1.5;" width="2163.9404" x="10" y="140.2422"/><text fill="#000000" font-family="sans-serif" font-size="13" font-weight="bold" lengthAdjust="spacing" textLength="361.2324" x="25" y="155.2705">Scenario 1: Ophalen van reizen bij een standaard strategie</text><polygon fill="#181818" points="404.2944,196.1152,414.2944,200.1152,404.2944,204.1152,408.2944,200.1152" style="stroke:#181818;stroke-width:1.0;"/><line style="stroke:#181818;stroke-width:1.0;" x1="48.6758" x2="410.2944" y1="200.1152" y2="200.1152"/><text fill="#000000" font-family="sans-serif" font-size="13" font-weight="bold" lengthAdjust="spacing" textLength="7.23" x="55.6758" y="186.207">1</text><text fill="#000000" font-family="sans-serif" font-size="13" lengthAdjust="spacing" textLength="171.9644" x="66.9058" y="177.5615">GET /journeys/getAllJourneys</text><text fill="#000000" font-family="sans-serif" font-size="13" lengthAdjust="spacing" textLength="216.9756" x="81.353" y="194.8525">(strategy = "StandardJourney", origin)</text><polygon fill="#181818" points="677.0854,227.4063,687.0854,231.4063,677.0854,235.4063,681.0854,231.4063" style="stroke:#181818;stroke-width:1.0;"/><line style="stroke:#181818;stroke-width:1.0;" x1="416.2944" x2="683.0854" y1="231.4063" y2="231.4063"/><text fill="#000000" font-family="sans-serif" font-size="13" font-weight="bold" lengthAdjust="spacing" textLength="7.23" x="423.2944" y="226.1436">2</text><text fill="#000000" font-family="sans-serif" font-size="13" lengthAdjust="spacing" textLength="228.9028" x="434.5244" y="226.1436">setJourneyStrategy("StandardJourney")</text><polygon fill="#181818" points="895.8579,258.6973,905.8579,262.6973,895.8579,266.6973,899.8579,262.6973" style="stroke:#181818;stroke-width:1.0;"/><line style="stroke:#181818;stroke-width:1.0;" x1="689.0854" x2="901.8579" y1="262.6973" y2="262.6973"/><text fill="#000000" font-family="sans-serif" font-size="13" font-weight="bold" lengthAdjust="spacing" textLength="7.23" x="696.0854" y="257.4346">3</text><text fill="#000000" font-family="sans-serif" font-size="13" lengthAdjust="spacing" textLength="183.5425" x="707.3154" y="257.4346">new StandardJourneyStrategy()</text><polygon fill="#181818" points="677.0854,289.9883,687.0854,293.9883,677.0854,297.9883,681.0854,293.9883" style="stroke:#181818;stroke-width:1.0;"/><line style="stroke:#181818;stroke-width:1.0;" x1="416.2944" x2="683.0854" y1="293.9883" y2="293.9883"/><text fill="#000000" font-family="sans-serif" font-size="13" font-weight="bold" lengthAdjust="spacing" textLength="7.23" x="423.2944" y="288.7256">4</text><text fill="#000000" font-family="sans-serif" font-size="13" lengthAdjust="spacing" textLength="111.2744" x="434.5244" y="288.7256">getJourneys(origin)</text><polygon fill="#181818" points="895.8579,321.2793,905.8579,325.2793,895.8579,329.2793,899.8579,325.2793" style="stroke:#181818;stroke-width:1.0;"/><line style="stroke:#181818;stroke-width:1.0;" x1="689.0854" x2="901.8579" y1="325.2793" y2="325.2793"/><text fill="#000000" font-family="sans-serif" font-size="13" font-weight="bold" lengthAdjust="spacing" textLength="7.23" x="696.0854" y="320.0166">5</text><text fill="#000000" font-family="sans-serif" font-size="13" lengthAdjust="spacing" textLength="111.2744" x="707.3154" y="320.0166">getJourneys(origin)</text><polygon fill="#181818" points="1676.8013,352.5703,1686.8013,356.5703,1676.8013,360.5703,1680.8013,356.5703" style="stroke:#181818;stroke-width:1.0;"/><line style="stroke:#181818;stroke-width:1.0;" x1="907.8579" x2="1682.8013" y1="356.5703" y2="356.5703"/><text fill="#000000" font-family="sans-serif" font-size="13" font-weight="bold" lengthAdjust="spacing" textLength="7.23" x="914.8579" y="351.3076">6</text><text fill="#000000" font-family="sans-serif" font-size="13" lengthAdjust="spacing" textLength="209.1807" x="926.0879" y="351.3076">journeys = new ArrayList&lt;journey&gt;()</text><polygon fill="#181818" points="1800.4043,383.8613,1810.4043,387.8613,1800.4043,391.8613,1804.4043,387.8613" style="stroke:#181818;stroke-width:1.0;"/><line style="stroke:#181818;stroke-width:1.0;" x1="907.8579" x2="1806.4043" y1="387.8613" y2="387.8613"/><text fill="#000000" font-family="sans-serif" font-size="13" font-weight="bold" lengthAdjust="spacing" textLength="7.23" x="914.8579" y="382.5986">7</text><text fill="#000000" font-family="sans-serif" font-size="13" lengthAdjust="spacing" textLength="111.9727" x="926.0879" y="382.5986">getTaxiTrips(origin)</text><polygon fill="#181818" points="2106.8062,415.1523,2116.8062,419.1523,2106.8062,423.1523,2110.8062,419.1523" style="stroke:#181818;stroke-width:1.0;"/><line style="stroke:#181818;stroke-width:1.0;" x1="1812.4043" x2="2112.8062" y1="419.1523" y2="419.1523"/><text fill="#000000" font-family="sans-serif" font-size="13" font-weight="bold" lengthAdjust="spacing" textLength="7.23" x="1819.4043" y="413.8896">8</text><text fill="#000000" font-family="sans-serif" font-size="13" lengthAdjust="spacing" textLength="234.3237" x="1830.6343" y="413.8896">GET /taxi/searchLocation?query="origin"</text><polygon fill="#181818" points="1823.4043,446.4434,1813.4043,450.4434,1823.4043,454.4434,1819.4043,450.4434" style="stroke:#181818;stroke-width:1.0;"/><line style="stroke:#181818;stroke-width:1.0;stroke-dasharray:2.0,2.0;" x1="1817.4043" x2="2117.8062" y1="450.4434" y2="450.4434"/><text fill="#000000" font-family="sans-serif" font-size="13" font-weight="bold" lengthAdjust="spacing" textLength="7.23" x="1829.4043" y="445.1807">9</text><text fill="#000000" font-family="sans-serif" font-size="13" lengthAdjust="spacing" textLength="160.3926" x="1840.6343" y="445.1807">HTTP 200 OK met resultaat</text><polygon fill="#181818" points="918.8579,477.7344,908.8579,481.7344,918.8579,485.7344,914.8579,481.7344" style="stroke:#181818;stroke-width:1.0;"/><line style="stroke:#181818;stroke-width:1.0;stroke-dasharray:2.0,2.0;" x1="912.8579" x2="1811.4043" y1="481.7344" y2="481.7344"/><text fill="#000000" font-family="sans-serif" font-size="13" font-weight="bold" lengthAdjust="spacing" textLength="14.46" x="924.8579" y="476.4717">10</text><text fill="#000000" font-family="sans-serif" font-size="13" lengthAdjust="spacing" textLength="53.479" x="943.3179" y="476.4717">response</text><path d="M811.4756,496.7344 L883.9102,496.7344 L883.9102,506.0254 L873.9102,516.0254 L811.4756,516.0254 L811.4756,496.7344 " fill="#EEEEEE" style="stroke:#000000;stroke-width:1.5;"/><rect fill="none" height="126.1641" style="stroke:#000000;stroke-width:1.5;" width="919.229" x="811.4756" y="496.7344"/><text fill="#000000" font-family="sans-serif" font-size="13" font-weight="bold" lengthAdjust="spacing" textLength="27.4346" x="826.4756" y="511.7627">loop</text><text fill="#000000" font-family="sans-serif" font-size="11" font-weight="bold" lengthAdjust="spacing" textLength="98.4146" x="898.9102" y="510.6045">[voor elke taxi trip]</text><polygon fill="#181818" points="1676.8013,535.3164,1686.8013,539.3164,1676.8013,543.3164,1680.8013,539.3164" style="stroke:#181818;stroke-width:1.0;"/><line style="stroke:#181818;stroke-width:1.0;" x1="907.8579" x2="1682.8013" y1="539.3164" y2="539.3164"/><text fill="#000000" font-family="sans-serif" font-size="13" font-weight="bold" lengthAdjust="spacing" textLength="14.46" x="914.8579" y="534.0537">11</text><text fill="#000000" font-family="sans-serif" font-size="13" lengthAdjust="spacing" textLength="139.8198" x="933.3179" y="534.0537">journey = new Journey()</text><polygon fill="#181818" points="1676.8013,566.6074,1686.8013,570.6074,1676.8013,574.6074,1680.8013,570.6074" style="stroke:#181818;stroke-width:1.0;"/><line style="stroke:#181818;stroke-width:1.0;" x1="907.8579" x2="1682.8013" y1="570.6074" y2="570.6074"/><text fill="#000000" font-family="sans-serif" font-size="13" font-weight="bold" lengthAdjust="spacing" textLength="14.46" x="914.8579" y="565.3447">12</text><text fill="#000000" font-family="sans-serif" font-size="13" lengthAdjust="spacing" textLength="135.8652" x="933.3179" y="565.3447">[alle setters aanroepen]</text><line style="stroke:#181818;stroke-width:1.0;" x1="907.8579" x2="949.8579" y1="601.8984" y2="601.8984"/><line style="stroke:#181818;stroke-width:1.0;" x1="949.8579" x2="949.8579" y1="601.8984" y2="614.8984"/><line style="stroke:#181818;stroke-width:1.0;" x1="908.8579" x2="949.8579" y1="614.8984" y2="614.8984"/><polygon fill="#181818" points="918.8579,610.8984,908.8579,614.8984,918.8579,618.8984,914.8579,614.8984" style="stroke:#181818;stroke-width:1.0;"/><text fill="#000000" font-family="sans-serif" font-size="13" font-weight="bold" lengthAdjust="spacing" textLength="14.46" x="914.8579" y="596.6357">13</text><text fill="#000000" font-family="sans-serif" font-size="13" lengthAdjust="spacing" textLength="125.7344" x="933.3179" y="596.6357">journeys.add(journey)</text><polygon fill="#181818" points="700.0854,649.1895,690.0854,653.1895,700.0854,657.1895,696.0854,653.1895" style="stroke:#181818;stroke-width:1.0;"/><line style="stroke:#181818;stroke-width:1.0;stroke-dasharray:2.0,2.0;" x1="694.0854" x2="906.8579" y1="653.1895" y2="653.1895"/><text fill="#000000" font-family="sans-serif" font-size="13" font-weight="bold" lengthAdjust="spacing" textLength="14.46" x="706.0854" y="647.9268">14</text><text fill="#000000" font-family="sans-serif" font-size="13" lengthAdjust="spacing" textLength="49.1372" x="724.5454" y="647.9268">journeys</text><polygon fill="#181818" points="427.2944,680.4805,417.2944,684.4805,427.2944,688.4805,423.2944,684.4805" style="stroke:#181818;stroke-width:1.0;"/><line style="stroke:#181818;stroke-width:1.0;stroke-dasharray:2.0,2.0;" x1="421.2944" x2="688.0854" y1="684.4805" y2="684.4805"/><text fill="#000000" font-family="sans-serif" font-size="13" font-weight="bold" lengthAdjust="spacing" textLength="14.46" x="433.2944" y="679.2178">15</text><text fill="#000000" font-family="sans-serif" font-size="13" lengthAdjust="spacing" textLength="49.1372" x="451.7544" y="679.2178">journeys</text><polygon fill="#181818" points="59.6758,711.7715,49.6758,715.7715,59.6758,719.7715,55.6758,715.7715" style="stroke:#181818;stroke-width:1.0;"/><line style="stroke:#181818;stroke-width:1.0;stroke-dasharray:2.0,2.0;" x1="53.6758" x2="415.2944" y1="715.7715" y2="715.7715"/><text fill="#000000" font-family="sans-serif" font-size="13" font-weight="bold" lengthAdjust="spacing" textLength="14.46" x="65.6758" y="710.5088">16</text><text fill="#000000" font-family="sans-serif" font-size="13" lengthAdjust="spacing" textLength="168.3398" x="84.1357" y="710.5088">200 OK met lijst van taxi trips</text><path d="M10,737.7715 L426.3633,737.7715 L426.3633,747.0625 L416.3633,757.0625 L10,757.0625 L10,737.7715 " fill="#EEEEEE" style="stroke:#000000;stroke-width:1.5;"/><rect fill="none" height="1298.9316" style="stroke:#000000;stroke-width:1.5;" width="2163.9404" x="10" y="737.7715"/><text fill="#000000" font-family="sans-serif" font-size="13" font-weight="bold" lengthAdjust="spacing" textLength="371.3633" x="25" y="752.7998">Scenario 2: Ophalen van reizen bij een alternatieve strategie</text><polygon fill="#181818" points="404.2944,793.6445,414.2944,797.6445,404.2944,801.6445,408.2944,797.6445" style="stroke:#181818;stroke-width:1.0;"/><line style="stroke:#181818;stroke-width:1.0;" x1="48.6758" x2="410.2944" y1="797.6445" y2="797.6445"/><text fill="#000000" font-family="sans-serif" font-size="13" font-weight="bold" lengthAdjust="spacing" textLength="7.23" x="55.6758" y="783.7363">1</text><text fill="#000000" font-family="sans-serif" font-size="13" lengthAdjust="spacing" textLength="171.9644" x="66.9058" y="775.0908">GET /journeys/getAllJourneys</text><text fill="#000000" font-family="sans-serif" font-size="13" lengthAdjust="spacing" textLength="225.6338" x="81.353" y="792.3818">(strategy = "AlternativeJourney", origin)</text><polygon fill="#181818" points="677.0854,824.9355,687.0854,828.9355,677.0854,832.9355,681.0854,828.9355" style="stroke:#181818;stroke-width:1.0;"/><line style="stroke:#181818;stroke-width:1.0;" x1="416.2944" x2="683.0854" y1="828.9355" y2="828.9355"/><text fill="#000000" font-family="sans-serif" font-size="13" font-weight="bold" lengthAdjust="spacing" textLength="7.23" x="423.2944" y="823.6729">2</text><text fill="#000000" font-family="sans-serif" font-size="13" lengthAdjust="spacing" textLength="237.561" x="434.5244" y="823.6729">setJourneyStrategy("AlternativeJourney")</text><polygon fill="#181818" points="1083.2847,856.2266,1093.2847,860.2266,1083.2847,864.2266,1087.2847,860.2266" style="stroke:#181818;stroke-width:1.0;"/><line style="stroke:#181818;stroke-width:1.0;" x1="689.0854" x2="1089.2847" y1="860.2266" y2="860.2266"/><text fill="#000000" font-family="sans-serif" font-size="13" font-weight="bold" lengthAdjust="spacing" textLength="7.23" x="696.0854" y="854.9639">3</text><text fill="#000000" font-family="sans-serif" font-size="13" lengthAdjust="spacing" textLength="192.2007" x="707.3154" y="854.9639">new AlternativeJourneyStrategy()</text><polygon fill="#181818" points="677.0854,887.5176,687.0854,891.5176,677.0854,895.5176,681.0854,891.5176" style="stroke:#181818;stroke-width:1.0;"/><line style="stroke:#181818;stroke-width:1.0;" x1="416.2944" x2="683.0854" y1="891.5176" y2="891.5176"/><text fill="#000000" font-family="sans-serif" font-size="13" font-weight="bold" lengthAdjust="spacing" textLength="7.23" x="423.2944" y="886.2549">4</text><text fill="#000000" font-family="sans-serif" font-size="13" lengthAdjust="spacing" textLength="111.2744" x="434.5244" y="886.2549">getJourneys(origin)</text><polygon fill="#181818" points="1083.2847,918.8086,1093.2847,922.8086,1083.2847,926.8086,1087.2847,922.8086" style="stroke:#181818;stroke-width:1.0;"/><line style="stroke:#181818;stroke-width:1.0;" x1="689.0854" x2="1089.2847" y1="922.8086" y2="922.8086"/><text fill="#000000" font-family="sans-serif" font-size="13" font-weight="bold" lengthAdjust="spacing" textLength="7.23" x="696.0854" y="917.5459">5</text><text fill="#000000" font-family="sans-serif" font-size="13" lengthAdjust="spacing" textLength="111.2744" x="707.3154" y="917.5459">getJourneys(origin)</text><polygon fill="#181818" points="1676.8013,950.0996,1686.8013,954.0996,1676.8013,958.0996,1680.8013,954.0996" style="stroke:#181818;stroke-width:1.0;"/><line style="stroke:#181818;stroke-width:1.0;" x1="1095.2847" x2="1682.8013" y1="954.0996" y2="954.0996"/><text fill="#000000" font-family="sans-serif" font-size="13" font-weight="bold" lengthAdjust="spacing" textLength="7.23" x="1102.2847" y="948.8369">6</text><text fill="#000000" font-family="sans-serif" font-size="13" lengthAdjust="spacing" textLength="209.1807" x="1113.5146" y="948.8369">journeys = new ArrayList&lt;journey&gt;()</text><line style="stroke:#181818;stroke-width:1.0;" x1="1095.2847" x2="1137.2847" y1="1002.6816" y2="1002.6816"/><line style="stroke:#181818;stroke-width:1.0;" x1="1137.2847" x2="1137.2847" y1="1002.6816" y2="1015.6816"/><line style="stroke:#181818;stroke-width:1.0;" x1="1096.2847" x2="1137.2847" y1="1015.6816" y2="1015.6816"/><polygon fill="#181818" points="1106.2847,1011.6816,1096.2847,1015.6816,1106.2847,1019.6816,1102.2847,1015.6816" style="stroke:#181818;stroke-width:1.0;"/><text fill="#000000" font-family="sans-serif" font-size="13" font-weight="bold" lengthAdjust="spacing" textLength="7.23" x="1102.2847" y="988.7734">7</text><text fill="#000000" font-family="sans-serif" font-size="13" lengthAdjust="spacing" textLength="185.6816" x="1113.5146" y="980.1279">getJourneysFromTransportType</text><text fill="#000000" font-family="sans-serif" font-size="13" lengthAdjust="spacing" textLength="467.873" x="1127.9619" y="997.4189">(response="externalAPIHandler.getTaxiTrips(origin)", transport="TAXI", journeys)</text><polygon fill="#181818" points="1800.4043,1042.9727,1810.4043,1046.9727,1800.4043,1050.9727,1804.4043,1046.9727" style="stroke:#181818;stroke-width:1.0;"/><line style="stroke:#181818;stroke-width:1.0;" x1="1095.2847" x2="1806.4043" y1="1046.9727" y2="1046.9727"/><text fill="#000000" font-family="sans-serif" font-size="13" font-weight="bold" lengthAdjust="spacing" textLength="7.23" x="1102.2847" y="1041.71">8</text><text fill="#000000" font-family="sans-serif" font-size="13" lengthAdjust="spacing" textLength="111.9727" x="1113.5146" y="1041.71">getTaxiTrips(origin)</text><polygon fill="#181818" points="2106.8062,1074.2637,2116.8062,1078.2637,2106.8062,1082.2637,2110.8062,1078.2637" style="stroke:#181818;stroke-width:1.0;"/><line style="stroke:#181818;stroke-width:1.0;" x1="1812.4043" x2="2112.8062" y1="1078.2637" y2="1078.2637"/><text fill="#000000" font-family="sans-serif" font-size="13" font-weight="bold" lengthAdjust="spacing" textLength="7.23" x="1819.4043" y="1073.001">9</text><text fill="#000000" font-family="sans-serif" font-size="13" lengthAdjust="spacing" textLength="234.3237" x="1830.6343" y="1073.001">GET /taxi/searchLocation?query="origin"</text><polygon fill="#181818" points="1823.4043,1105.5547,1813.4043,1109.5547,1823.4043,1113.5547,1819.4043,1109.5547" style="stroke:#181818;stroke-width:1.0;"/><line style="stroke:#181818;stroke-width:1.0;stroke-dasharray:2.0,2.0;" x1="1817.4043" x2="2117.8062" y1="1109.5547" y2="1109.5547"/><text fill="#000000" font-family="sans-serif" font-size="13" font-weight="bold" lengthAdjust="spacing" textLength="14.46" x="1829.4043" y="1104.292">10</text><text fill="#000000" font-family="sans-serif" font-size="13" lengthAdjust="spacing" textLength="160.3926" x="1847.8643" y="1104.292">HTTP 200 OK met resultaat</text><polygon fill="#181818" points="1106.2847,1136.8457,1096.2847,1140.8457,1106.2847,1144.8457,1102.2847,1140.8457" style="stroke:#181818;stroke-width:1.0;"/><line style="stroke:#181818;stroke-width:1.0;stroke-dasharray:2.0,2.0;" x1="1100.2847" x2="1811.4043" y1="1140.8457" y2="1140.8457"/><text fill="#000000" font-family="sans-serif" font-size="13" font-weight="bold" lengthAdjust="spacing" textLength="14.46" x="1112.2847" y="1135.583">11</text><text fill="#000000" font-family="sans-serif" font-size="13" lengthAdjust="spacing" textLength="53.479" x="1130.7446" y="1135.583">response</text><path d="M994.2402,1155.8457 L1066.6748,1155.8457 L1066.6748,1165.1367 L1056.6748,1175.1367 L994.2402,1175.1367 L994.2402,1155.8457 " fill="#EEEEEE" style="stroke:#000000;stroke-width:1.5;"/><rect fill="none" height="126.1641" style="stroke:#000000;stroke-width:1.5;" width="736.4644" x="994.2402" y="1155.8457"/><text fill="#000000" font-family="sans-serif" font-size="13" font-weight="bold" lengthAdjust="spacing" textLength="27.4346" x="1009.2402" y="1170.874">loop</text><text fill="#000000" font-family="sans-serif" font-size="11" font-weight="bold" lengthAdjust="spacing" textLength="98.4146" x="1081.6748" y="1169.7158">[voor elke taxi trip]</text><polygon fill="#181818" points="1676.8013,1194.4277,1686.8013,1198.4277,1676.8013,1202.4277,1680.8013,1198.4277" style="stroke:#181818;stroke-width:1.0;"/><line style="stroke:#181818;stroke-width:1.0;" x1="1095.2847" x2="1682.8013" y1="1198.4277" y2="1198.4277"/><text fill="#000000" font-family="sans-serif" font-size="13" font-weight="bold" lengthAdjust="spacing" textLength="14.46" x="1102.2847" y="1193.165">12</text><text fill="#000000" font-family="sans-serif" font-size="13" lengthAdjust="spacing" textLength="139.8198" x="1120.7446" y="1193.165">journey = new Journey()</text><polygon fill="#181818" points="1676.8013,1225.7188,1686.8013,1229.7188,1676.8013,1233.7188,1680.8013,1229.7188" style="stroke:#181818;stroke-width:1.0;"/><line style="stroke:#181818;stroke-width:1.0;" x1="1095.2847" x2="1682.8013" y1="1229.7188" y2="1229.7188"/><text fill="#000000" font-family="sans-serif" font-size="13" font-weight="bold" lengthAdjust="spacing" textLength="14.46" x="1102.2847" y="1224.4561">13</text><text fill="#000000" font-family="sans-serif" font-size="13" lengthAdjust="spacing" textLength="135.8652" x="1120.7446" y="1224.4561">[alle setters aanroepen]</text><line style="stroke:#181818;stroke-width:1.0;" x1="1095.2847" x2="1137.2847" y1="1261.0098" y2="1261.0098"/><line style="stroke:#181818;stroke-width:1.0;" x1="1137.2847" x2="1137.2847" y1="1261.0098" y2="1274.0098"/><line style="stroke:#181818;stroke-width:1.0;" x1="1096.2847" x2="1137.2847" y1="1274.0098" y2="1274.0098"/><polygon fill="#181818" points="1106.2847,1270.0098,1096.2847,1274.0098,1106.2847,1278.0098,1102.2847,1274.0098" style="stroke:#181818;stroke-width:1.0;"/><text fill="#000000" font-family="sans-serif" font-size="13" font-weight="bold" lengthAdjust="spacing" textLength="14.46" x="1102.2847" y="1255.7471">14</text><text fill="#000000" font-family="sans-serif" font-size="13" lengthAdjust="spacing" textLength="125.7344" x="1120.7446" y="1255.7471">journeys.add(journey)</text><line style="stroke:#181818;stroke-width:1.0;" x1="1095.2847" x2="1137.2847" y1="1329.5918" y2="1329.5918"/><line style="stroke:#181818;stroke-width:1.0;" x1="1137.2847" x2="1137.2847" y1="1329.5918" y2="1342.5918"/><line style="stroke:#181818;stroke-width:1.0;" x1="1096.2847" x2="1137.2847" y1="1342.5918" y2="1342.5918"/><polygon fill="#181818" points="1106.2847,1338.5918,1096.2847,1342.5918,1106.2847,1346.5918,1102.2847,1342.5918" style="stroke:#181818;stroke-width:1.0;"/><text fill="#000000" font-family="sans-serif" font-size="13" font-weight="bold" lengthAdjust="spacing" textLength="14.46" x="1102.2847" y="1315.6836">15</text><text fill="#000000" font-family="sans-serif" font-size="13" lengthAdjust="spacing" textLength="185.6816" x="1120.7446" y="1307.0381">getJourneysFromTransportType</text><text fill="#000000" font-family="sans-serif" font-size="13" lengthAdjust="spacing" textLength="515.5566" x="1135.1919" y="1324.3291">(response="externalAPIHandler.getFlightTrips(origin)", transport="VLIEGTUIG", journeys)</text><polygon fill="#181818" points="1800.4043,1369.8828,1810.4043,1373.8828,1800.4043,1377.8828,1804.4043,1373.8828" style="stroke:#181818;stroke-width:1.0;"/><line style="stroke:#181818;stroke-width:1.0;" x1="1095.2847" x2="1806.4043" y1="1373.8828" y2="1373.8828"/><text fill="#000000" font-family="sans-serif" font-size="13" font-weight="bold" lengthAdjust="spacing" textLength="14.46" x="1102.2847" y="1368.6201">16</text><text fill="#000000" font-family="sans-serif" font-size="13" lengthAdjust="spacing" textLength="119.2026" x="1120.7446" y="1368.6201">getFlightTrips(origin)</text><polygon fill="#181818" points="2106.8062,1401.1738,2116.8062,1405.1738,2106.8062,1409.1738,2110.8062,1405.1738" style="stroke:#181818;stroke-width:1.0;"/><line style="stroke:#181818;stroke-width:1.0;" x1="1812.4043" x2="2112.8062" y1="1405.1738" y2="1405.1738"/><text fill="#000000" font-family="sans-serif" font-size="13" font-weight="bold" lengthAdjust="spacing" textLength="14.46" x="1819.4043" y="1399.9111">17</text><text fill="#000000" font-family="sans-serif" font-size="13" lengthAdjust="spacing" textLength="263.9419" x="1837.8643" y="1399.9111">GET /flights/searchDestination?query="origin"</text><polygon fill="#181818" points="1823.4043,1432.4648,1813.4043,1436.4648,1823.4043,1440.4648,1819.4043,1436.4648" style="stroke:#181818;stroke-width:1.0;"/><line style="stroke:#181818;stroke-width:1.0;stroke-dasharray:2.0,2.0;" x1="1817.4043" x2="2117.8062" y1="1436.4648" y2="1436.4648"/><text fill="#000000" font-family="sans-serif" font-size="13" font-weight="bold" lengthAdjust="spacing" textLength="14.46" x="1829.4043" y="1431.2021">18</text><text fill="#000000" font-family="sans-serif" font-size="13" lengthAdjust="spacing" textLength="160.3926" x="1847.8643" y="1431.2021">HTTP 200 OK met resultaat</text><polygon fill="#181818" points="1106.2847,1463.7559,1096.2847,1467.7559,1106.2847,1471.7559,1102.2847,1467.7559" style="stroke:#181818;stroke-width:1.0;"/><line style="stroke:#181818;stroke-width:1.0;stroke-dasharray:2.0,2.0;" x1="1100.2847" x2="1811.4043" y1="1467.7559" y2="1467.7559"/><text fill="#000000" font-family="sans-serif" font-size="13" font-weight="bold" lengthAdjust="spacing" textLength="14.46" x="1112.2847" y="1462.4932">19</text><text fill="#000000" font-family="sans-serif" font-size="13" lengthAdjust="spacing" textLength="53.479" x="1130.7446" y="1462.4932">response</text><path d="M994.2402,1482.7559 L1066.6748,1482.7559 L1066.6748,1492.0469 L1056.6748,1502.0469 L994.2402,1502.0469 L994.2402,1482.7559 " fill="#EEEEEE" style="stroke:#000000;stroke-width:1.5;"/><rect fill="none" height="126.1641" style="stroke:#000000;stroke-width:1.5;" width="736.4644" x="994.2402" y="1482.7559"/><text fill="#000000" font-family="sans-serif" font-size="13" font-weight="bold" lengthAdjust="spacing" textLength="27.4346" x="1009.2402" y="1497.7842">loop</text><text fill="#000000" font-family="sans-serif" font-size="11" font-weight="bold" lengthAdjust="spacing" textLength="91.0776" x="1081.6748" y="1496.626">[voor elke vlucht]</text><polygon fill="#181818" points="1676.8013,1521.3379,1686.8013,1525.3379,1676.8013,1529.3379,1680.8013,1525.3379" style="stroke:#181818;stroke-width:1.0;"/><line style="stroke:#181818;stroke-width:1.0;" x1="1095.2847" x2="1682.8013" y1="1525.3379" y2="1525.3379"/><text fill="#000000" font-family="sans-serif" font-size="13" font-weight="bold" lengthAdjust="spacing" textLength="14.46" x="1102.2847" y="1520.0752">20</text><text fill="#000000" font-family="sans-serif" font-size="13" lengthAdjust="spacing" textLength="139.8198" x="1120.7446" y="1520.0752">journey = new Journey()</text><polygon fill="#181818" points="1676.8013,1552.6289,1686.8013,1556.6289,1676.8013,1560.6289,1680.8013,1556.6289" style="stroke:#181818;stroke-width:1.0;"/><line style="stroke:#181818;stroke-width:1.0;" x1="1095.2847" x2="1682.8013" y1="1556.6289" y2="1556.6289"/><text fill="#000000" font-family="sans-serif" font-size="13" font-weight="bold" lengthAdjust="spacing" textLength="14.46" x="1102.2847" y="1551.3662">21</text><text fill="#000000" font-family="sans-serif" font-size="13" lengthAdjust="spacing" textLength="135.8652" x="1120.7446" y="1551.3662">[alle setters aanroepen]</text><line style="stroke:#181818;stroke-width:1.0;" x1="1095.2847" x2="1137.2847" y1="1587.9199" y2="1587.9199"/><line style="stroke:#181818;stroke-width:1.0;" x1="1137.2847" x2="1137.2847" y1="1587.9199" y2="1600.9199"/><line style="stroke:#181818;stroke-width:1.0;" x1="1096.2847" x2="1137.2847" y1="1600.9199" y2="1600.9199"/><polygon fill="#181818" points="1106.2847,1596.9199,1096.2847,1600.9199,1106.2847,1604.9199,1102.2847,1600.9199" style="stroke:#181818;stroke-width:1.0;"/><text fill="#000000" font-family="sans-serif" font-size="13" font-weight="bold" lengthAdjust="spacing" textLength="14.46" x="1102.2847" y="1582.6572">22</text><text fill="#000000" font-family="sans-serif" font-size="13" lengthAdjust="spacing" textLength="125.7344" x="1120.7446" y="1582.6572">journeys.add(journey)</text><line style="stroke:#181818;stroke-width:1.0;" x1="1095.2847" x2="1137.2847" y1="1656.502" y2="1656.502"/><line style="stroke:#181818;stroke-width:1.0;" x1="1137.2847" x2="1137.2847" y1="1656.502" y2="1669.502"/><line style="stroke:#181818;stroke-width:1.0;" x1="1096.2847" x2="1137.2847" y1="1669.502" y2="1669.502"/><polygon fill="#181818" points="1106.2847,1665.502,1096.2847,1669.502,1106.2847,1673.502,1102.2847,1669.502" style="stroke:#181818;stroke-width:1.0;"/><text fill="#000000" font-family="sans-serif" font-size="13" font-weight="bold" lengthAdjust="spacing" textLength="14.46" x="1102.2847" y="1642.5938">23</text><text fill="#000000" font-family="sans-serif" font-size="13" lengthAdjust="spacing" textLength="185.6816" x="1120.7446" y="1633.9482">getJourneysFromTransportType</text><text fill="#000000" font-family="sans-serif" font-size="13" lengthAdjust="spacing" textLength="546.6094" x="1135.1919" y="1651.2393">(response="externalAPIHandler.getCarRentalTrips(origin)", transport="HUURAUTO", journeys)</text><polygon fill="#181818" points="1800.4043,1696.793,1810.4043,1700.793,1800.4043,1704.793,1804.4043,1700.793" style="stroke:#181818;stroke-width:1.0;"/><line style="stroke:#181818;stroke-width:1.0;" x1="1095.2847" x2="1806.4043" y1="1700.793" y2="1700.793"/><text fill="#000000" font-family="sans-serif" font-size="13" font-weight="bold" lengthAdjust="spacing" textLength="14.46" x="1102.2847" y="1695.5303">24</text><text fill="#000000" font-family="sans-serif" font-size="13" lengthAdjust="spacing" textLength="145.939" x="1120.7446" y="1695.5303">getCarRentalTrips(origin)</text><polygon fill="#181818" points="2106.8062,1728.084,2116.8062,1732.084,2106.8062,1736.084,2110.8062,1732.084" style="stroke:#181818;stroke-width:1.0;"/><line style="stroke:#181818;stroke-width:1.0;" x1="1812.4043" x2="2112.8062" y1="1732.084" y2="1732.084"/><text fill="#000000" font-family="sans-serif" font-size="13" font-weight="bold" lengthAdjust="spacing" textLength="14.46" x="1819.4043" y="1726.8213">25</text><text fill="#000000" font-family="sans-serif" font-size="13" lengthAdjust="spacing" textLength="254.541" x="1837.8643" y="1726.8213">GET /cars/searchDestination?query="origin"</text><polygon fill="#181818" points="1823.4043,1759.375,1813.4043,1763.375,1823.4043,1767.375,1819.4043,1763.375" style="stroke:#181818;stroke-width:1.0;"/><line style="stroke:#181818;stroke-width:1.0;stroke-dasharray:2.0,2.0;" x1="1817.4043" x2="2117.8062" y1="1763.375" y2="1763.375"/><text fill="#000000" font-family="sans-serif" font-size="13" font-weight="bold" lengthAdjust="spacing" textLength="14.46" x="1829.4043" y="1758.1123">26</text><text fill="#000000" font-family="sans-serif" font-size="13" lengthAdjust="spacing" textLength="160.3926" x="1847.8643" y="1758.1123">HTTP 200 OK met resultaat</text><polygon fill="#181818" points="1106.2847,1790.666,1096.2847,1794.666,1106.2847,1798.666,1102.2847,1794.666" style="stroke:#181818;stroke-width:1.0;"/><line style="stroke:#181818;stroke-width:1.0;stroke-dasharray:2.0,2.0;" x1="1100.2847" x2="1811.4043" y1="1794.666" y2="1794.666"/><text fill="#000000" font-family="sans-serif" font-size="13" font-weight="bold" lengthAdjust="spacing" textLength="14.46" x="1112.2847" y="1789.4033">27</text><text fill="#000000" font-family="sans-serif" font-size="13" lengthAdjust="spacing" textLength="53.479" x="1130.7446" y="1789.4033">response</text><path d="M994.2402,1809.666 L1066.6748,1809.666 L1066.6748,1818.957 L1056.6748,1828.957 L994.2402,1828.957 L994.2402,1809.666 " fill="#EEEEEE" style="stroke:#000000;stroke-width:1.5;"/><rect fill="none" height="126.1641" style="stroke:#000000;stroke-width:1.5;" width="736.4644" x="994.2402" y="1809.666"/><text fill="#000000" font-family="sans-serif" font-size="13" font-weight="bold" lengthAdjust="spacing" textLength="27.4346" x="1009.2402" y="1824.6943">loop</text><text fill="#000000" font-family="sans-serif" font-size="11" font-weight="bold" lengthAdjust="spacing" textLength="127.1177" x="1081.6748" y="1823.5361">[voor elke huurauto trip]</text><polygon fill="#181818" points="1676.8013,1848.248,1686.8013,1852.248,1676.8013,1856.248,1680.8013,1852.248" style="stroke:#181818;stroke-width:1.0;"/><line style="stroke:#181818;stroke-width:1.0;" x1="1095.2847" x2="1682.8013" y1="1852.248" y2="1852.248"/><text fill="#000000" font-family="sans-serif" font-size="13" font-weight="bold" lengthAdjust="spacing" textLength="14.46" x="1102.2847" y="1846.9854">28</text><text fill="#000000" font-family="sans-serif" font-size="13" lengthAdjust="spacing" textLength="139.8198" x="1120.7446" y="1846.9854">journey = new Journey()</text><polygon fill="#181818" points="1676.8013,1879.5391,1686.8013,1883.5391,1676.8013,1887.5391,1680.8013,1883.5391" style="stroke:#181818;stroke-width:1.0;"/><line style="stroke:#181818;stroke-width:1.0;" x1="1095.2847" x2="1682.8013" y1="1883.5391" y2="1883.5391"/><text fill="#000000" font-family="sans-serif" font-size="13" font-weight="bold" lengthAdjust="spacing" textLength="14.46" x="1102.2847" y="1878.2764">29</text><text fill="#000000" font-family="sans-serif" font-size="13" lengthAdjust="spacing" textLength="135.8652" x="1120.7446" y="1878.2764">[alle setters aanroepen]</text><line style="stroke:#181818;stroke-width:1.0;" x1="1095.2847" x2="1137.2847" y1="1914.8301" y2="1914.8301"/><line style="stroke:#181818;stroke-width:1.0;" x1="1137.2847" x2="1137.2847" y1="1914.8301" y2="1927.8301"/><line style="stroke:#181818;stroke-width:1.0;" x1="1096.2847" x2="1137.2847" y1="1927.8301" y2="1927.8301"/><polygon fill="#181818" points="1106.2847,1923.8301,1096.2847,1927.8301,1106.2847,1931.8301,1102.2847,1927.8301" style="stroke:#181818;stroke-width:1.0;"/><text fill="#000000" font-family="sans-serif" font-size="13" font-weight="bold" lengthAdjust="spacing" textLength="14.46" x="1102.2847" y="1909.5674">30</text><text fill="#000000" font-family="sans-serif" font-size="13" lengthAdjust="spacing" textLength="125.7344" x="1120.7446" y="1909.5674">journeys.add(journey)</text><polygon fill="#181818" points="700.0854,1962.1211,690.0854,1966.1211,700.0854,1970.1211,696.0854,1966.1211" style="stroke:#181818;stroke-width:1.0;"/><line style="stroke:#181818;stroke-width:1.0;stroke-dasharray:2.0,2.0;" x1="694.0854" x2="1094.2847" y1="1966.1211" y2="1966.1211"/><text fill="#000000" font-family="sans-serif" font-size="13" font-weight="bold" lengthAdjust="spacing" textLength="14.46" x="706.0854" y="1960.8584">31</text><text fill="#000000" font-family="sans-serif" font-size="13" lengthAdjust="spacing" textLength="49.1372" x="724.5454" y="1960.8584">journeys</text><polygon fill="#181818" points="427.2944,1993.4121,417.2944,1997.4121,427.2944,2001.4121,423.2944,1997.4121" style="stroke:#181818;stroke-width:1.0;"/><line style="stroke:#181818;stroke-width:1.0;stroke-dasharray:2.0,2.0;" x1="421.2944" x2="688.0854" y1="1997.4121" y2="1997.4121"/><text fill="#000000" font-family="sans-serif" font-size="13" font-weight="bold" lengthAdjust="spacing" textLength="14.46" x="433.2944" y="1992.1494">32</text><text fill="#000000" font-family="sans-serif" font-size="13" lengthAdjust="spacing" textLength="49.1372" x="451.7544" y="1992.1494">journeys</text><polygon fill="#181818" points="59.6758,2024.7031,49.6758,2028.7031,59.6758,2032.7031,55.6758,2028.7031" style="stroke:#181818;stroke-width:1.0;"/><line style="stroke:#181818;stroke-width:1.0;stroke-dasharray:2.0,2.0;" x1="53.6758" x2="415.2944" y1="2028.7031" y2="2028.7031"/><text fill="#000000" font-family="sans-serif" font-size="13" font-weight="bold" lengthAdjust="spacing" textLength="14.46" x="65.6758" y="2023.4404">33</text><text fill="#000000" font-family="sans-serif" font-size="13" lengthAdjust="spacing" textLength="325.1587" x="84.1357" y="2023.4404">200 OK met lijst van taxi trips, huurauto trips en vluchten</text><!--SRC=[xLPRRzCm57xFhx3oGYUn2tkiw50PknGcRLhJ2Odnu2Q7r9rh1zlfLduznucJ9ccQ3OaDaEXBVVlEEVxETuvZcE50nl0z1M4Oa8ZHMD55dmov0IKehYs1J6Lwhmq848HICMKGWV0y6Xgfo3Mm7om6XVFKI94kfdQSK6LOo18g30cbC4fo3efGJVprj7yhFifK2LWTbsj-3Qf1BLa86SwDrw1nlZ1Q9Bo1CbHeewY1U9L3tGInOzoBg8eA6swdRe1oimrVyhA4JXFpV3E3kuCD7mdBDkt_36FA-JXvoCppuTNeF5_SlDvKoZicuWmDxhmrX_3t-HQYVS-BbKmJCWv1KCKaUTCdbycCSapYaWgYC6yudB8v0VpN6Iz8376NPU0LgIMxHvKazidPIK3stGNrVWncoBcxexuL17-zahu1yHkK-w-9L2ncOiVpNes1GuXNS455K75VqGq6KAGV1wR1V6_3nOvNACSYAtBe4m7tP8i8UZQY6r1tYitZTKGvKzl2YSjmTA-urrRdROUzcbmHufZj5mED9DgeXqhHrGNJvgtRECA0cs2h0-ice0yiK2nP-x52mmDEFIwB1e_jQw0gd5t846KjnJli1Mery7ESxnLososidmV15JayE22NdyW23FAZKsueDRcBZKlZVYA51ezBcP2bnAO1_0w8zKqCnkXPoJp6WYF1qOStxmHzePWeAnNKbhPDIqb8G7njHTN3BLZVer7KSvCT3qJKp5HL1GLedVf6pPG7gZB2CqMDzQkCSZRN9fDVoP7E8wZss4Pz7tRMDwtsyzzUufjTyJcglCLBhTOgRJkly-tD-ZbAlUQ-jTAhxygl5de3kytPgPABGA5C4wbCi4h0PQiema7vPAoVcBssVe49D8MTWHyCFuzmfGXqCvo_eUtKE7bQrtaa8wrDPnkci-TqfQ-ZupnprayvYsUc8-yt5wEJis0oEdjAybkijQV_MtPGEmLy06sOU54HB7aQpin_1O0vfkeQF_qfxn31-MHoFPm4bq_HGBkzTXc4LFr13SpILDddz1zj1Y_xzV6wJfSczitCYWYVInlSJm00]--></g></svg>